<svg width="50" height="50" viewBox="0 0 50 50" fill="none" xmlns="http://www.w3.org/2000/svg">
<path d="M41.6657 22.9168C41.6657 32.1217 34.2037 39.5836 24.9989 39.5836C15.794 39.5836 8.33203 32.1217 8.33203 22.9168C8.33203 13.712 15.794 6.25 24.9989 6.25C34.2037 6.25 41.6657 13.712 41.6657 22.9168Z" fill="#DCA16A"/>
<path fill-rule="evenodd" clip-rule="evenodd" d="M42.9005 22.917C42.9005 32.8037 34.8857 40.8184 24.9991 40.8184C15.1124 40.8184 7.09766 32.8037 7.09766 22.917C7.09766 13.0304 15.1124 5.01562 24.9991 5.01562C34.8857 5.01562 42.9005 13.0304 42.9005 22.917ZM24.9991 39.5838C34.2039 39.5838 41.6659 32.1219 41.6659 22.917C41.6659 13.7122 34.2039 6.2502 24.9991 6.2502C15.7942 6.2502 8.33224 13.7122 8.33224 22.917C8.33224 32.1219 15.7942 39.5838 24.9991 39.5838Z" fill="#C38144"/>
<path fill-rule="evenodd" clip-rule="evenodd" d="M9.56766 23.5342C9.22674 23.5342 8.95037 23.2578 8.95037 22.9169C8.95037 14.053 16.136 6.86736 24.9999 6.86736C25.3408 6.86736 25.6172 7.14373 25.6172 7.48465C25.6172 7.82557 25.3408 8.10194 24.9999 8.10194C16.8178 8.10194 10.1849 14.7348 10.1849 22.9169C10.1849 23.2578 9.90858 23.5342 9.56766 23.5342Z" fill="#F0B57F"/>
<path fill-rule="evenodd" clip-rule="evenodd" d="M40.4323 22.2998C40.7733 22.2998 41.0496 22.5762 41.0496 22.9171C41.0496 31.781 33.864 38.9666 25.0001 38.9666C24.6592 38.9666 24.3828 38.6903 24.3828 38.3493C24.3828 38.0084 24.6592 37.732 25.0001 37.732C33.1822 37.732 39.8151 31.0992 39.8151 22.9171C39.8151 22.5762 40.0914 22.2998 40.4323 22.2998Z" fill="#CF945D"/>
<path d="M37.3439 22.9171C37.3439 29.7355 31.8165 35.2629 24.9981 35.2629C18.1797 35.2629 12.6523 29.7355 12.6523 22.9171C12.6523 16.0987 18.1797 10.5713 24.9981 10.5713C31.8165 10.5713 37.3439 16.0987 37.3439 22.9171Z" fill="#F7BA82"/>
<path fill-rule="evenodd" clip-rule="evenodd" d="M38.5787 22.9163C38.5787 30.4165 32.4986 36.4967 24.9983 36.4967C17.4981 36.4967 11.418 30.4165 11.418 22.9163C11.418 15.4161 17.4981 9.33594 24.9983 9.33594C32.4986 9.33594 38.5787 15.4161 38.5787 22.9163ZM24.9983 35.2621C31.8167 35.2621 37.3441 29.7347 37.3441 22.9163C37.3441 16.0979 31.8167 10.5705 24.9983 10.5705C18.1799 10.5705 12.6525 16.0979 12.6525 22.9163C12.6525 29.7347 18.1799 35.2621 24.9983 35.2621Z" fill="#C38144"/>
<path fill-rule="evenodd" clip-rule="evenodd" d="M24.9981 33.4109C30.7937 33.4109 35.492 28.7126 35.492 22.917C35.492 22.5761 35.7684 22.2997 36.1093 22.2997C36.4502 22.2997 36.7266 22.5761 36.7266 22.917C36.7266 29.3945 31.4755 34.6455 24.9981 34.6455C24.6571 34.6455 24.3808 34.3691 24.3808 34.0282C24.3808 33.6873 24.6571 33.4109 24.9981 33.4109Z" fill="#E6A66C"/>
<path fill-rule="evenodd" clip-rule="evenodd" d="M24.998 12.4231C19.2024 12.4231 14.5041 17.1213 14.5041 22.917C14.5041 23.2579 14.2277 23.5343 13.8868 23.5343C13.5459 23.5343 13.2695 23.2579 13.2695 22.917C13.2695 16.4395 18.5206 11.1885 24.998 11.1885C25.339 11.1885 25.6153 11.4648 25.6153 11.8058C25.6153 12.1467 25.339 12.4231 24.998 12.4231Z" fill="#FFD5AE"/>
<path d="M6.13278 39.3498L4.54277 36.1698C4.36962 35.8235 4.62144 35.416 5.00863 35.416L11.9785 35.416C12.2661 35.416 12.4993 35.6492 12.4993 35.9369L12.4993 43.2286C12.4993 43.5162 12.2661 43.7494 11.9785 43.7494L5.00862 43.7494C4.62144 43.7494 4.36962 43.342 4.54277 42.9957L6.13278 39.8156C6.2061 39.669 6.2061 39.4964 6.13278 39.3498Z" fill="#C52229"/>
<path d="M43.8661 39.3498L45.4561 36.1698C45.6292 35.8235 45.3774 35.416 44.9902 35.416L38.0204 35.416C37.7327 35.416 37.4995 35.6492 37.4995 35.9369L37.4995 43.2286C37.4995 43.5162 37.7327 43.7494 38.0204 43.7494L44.9902 43.7494C45.3774 43.7494 45.6292 43.342 45.4561 42.9957L43.8661 39.8156C43.7927 39.669 43.7927 39.4964 43.8661 39.3498Z" fill="#C52229"/>
<path fill-rule="evenodd" clip-rule="evenodd" d="M5.08847 39.5834L3.61493 36.6363C3.09547 35.5974 3.85093 34.375 5.01248 34.375L11.9823 34.375C12.8453 34.375 13.5448 35.0746 13.5448 35.9375L13.5448 43.2292C13.5448 44.0922 12.8453 44.7918 11.9823 44.7918L5.01248 44.7918C3.85092 44.7918 3.09547 43.5694 3.61493 42.5305L5.08847 39.5834ZM5.20463 39.8157C5.20473 39.8159 5.20483 39.8161 5.20494 39.8163L5.67079 39.5834L5.20493 39.8163L5.20463 39.8157ZM44.9181 39.5834L46.3916 36.6363C46.9111 35.5974 46.1556 34.375 44.9941 34.375L38.0242 34.375C37.1613 34.375 36.4617 35.0746 36.4617 35.9375L36.4617 43.2292C36.4617 44.0922 37.1613 44.7918 38.0242 44.7918L44.9941 44.7918C46.1556 44.7918 46.9111 43.5694 46.3916 42.5305L44.9181 39.5834ZM45.4599 36.1704L43.8699 39.3505C43.7966 39.4971 43.7966 39.6697 43.8699 39.8163L45.4599 42.9963C45.6331 43.3426 45.3812 43.7501 44.9941 43.7501L38.0242 43.7501C37.7366 43.7501 37.5034 43.5169 37.5034 43.2292L37.5034 35.9375C37.5034 35.6499 37.7366 35.4167 38.0242 35.4167L44.9941 35.4167C45.3812 35.4167 45.6331 35.8241 45.4599 36.1704ZM4.54663 36.1704L6.13663 39.3505C6.20995 39.4971 6.20995 39.6697 6.13663 39.8163L4.54663 42.9963C4.37348 43.3426 4.6253 43.7501 5.01248 43.7501L11.9823 43.7501C12.27 43.7501 12.5032 43.5169 12.5032 43.2292L12.5032 35.9375C12.5032 35.6499 12.27 35.4167 11.9823 35.4167L5.01248 35.4167C4.6253 35.4167 4.37348 35.8241 4.54663 36.1704Z" fill="#9B0F15"/>
<path fill-rule="evenodd" clip-rule="evenodd" d="M5.29114 35.8877C5.38652 35.7363 5.55289 35.6445 5.73178 35.6445H7.94534C8.23299 35.6445 8.46618 35.8777 8.46618 36.1654C8.46618 36.453 8.23299 36.6862 7.94534 36.6862H6.55821L7.63395 38.9355C7.75806 39.195 7.6483 39.5059 7.3888 39.6301C7.1293 39.7542 6.81832 39.6444 6.69422 39.3849L5.26191 36.3901C5.18473 36.2287 5.19577 36.039 5.29114 35.8877Z" fill="#DF3840"/>
<path d="M39.5859 41.1456L39.5859 33.8538C39.5859 33.5662 39.3528 33.333 39.0651 33.333L10.9398 33.333C10.6522 33.333 10.419 33.5662 10.419 33.8538L10.419 41.1456C10.419 41.4332 10.6522 41.6664 10.9398 41.6664L39.0651 41.6664C39.3527 41.6664 39.5859 41.4332 39.5859 41.1456Z" fill="#F1333B"/>
<path fill-rule="evenodd" clip-rule="evenodd" d="M40.625 33.8535L40.625 41.1453C40.625 42.0082 39.9254 42.7078 39.0625 42.7078L10.9372 42.7078C10.0743 42.7078 9.37471 42.0082 9.37471 41.1453L9.37471 33.8535C9.37471 32.9906 10.0743 32.291 10.9372 32.291L39.0625 32.291C39.9254 32.291 40.625 32.9906 40.625 33.8535ZM39.5833 33.8535L39.5833 41.1453C39.5833 41.4329 39.3501 41.6661 39.0625 41.6661L10.9372 41.6661C10.6496 41.6661 10.4164 41.4329 10.4164 41.1453L10.4164 33.8535C10.4164 33.5659 10.6496 33.3327 10.9372 33.3327L39.0625 33.3327C39.3501 33.3327 39.5833 33.5659 39.5833 33.8535Z" fill="#9B0F15"/>
<path d="M38.1457 37.6973C37.8507 37.6973 37.6116 37.464 37.6116 37.1763C37.6116 36.8885 37.8507 36.6553 38.1457 36.6553C38.4406 36.6553 38.6797 36.8885 38.6797 37.1763C38.6797 37.464 38.4406 37.6973 38.1457 37.6973Z" fill="#DB1B24"/>
<path d="M36.117 37.4895C35.7501 37.4895 35.4527 37.1993 35.4527 36.8414C35.4527 36.4835 35.7501 36.1934 36.117 36.1934C36.4838 36.1934 36.7812 36.4835 36.7812 36.8414C36.7812 37.1993 36.4838 37.4895 36.117 37.4895Z" fill="#DB1B24"/>
<path d="M37.0194 38.9703C36.836 38.9703 36.6873 38.8253 36.6873 38.6463C36.6873 38.4673 36.836 38.3223 37.0194 38.3223C37.2029 38.3223 37.3516 38.4673 37.3516 38.6463C37.3516 38.8253 37.2029 38.9703 37.0194 38.9703Z" fill="#DB1B24"/>
<path d="M36.4491 35.5436C36.2657 35.5436 36.117 35.3985 36.117 35.2195C36.117 35.0406 36.2657 34.8955 36.4491 34.8955C36.6325 34.8955 36.7812 35.0406 36.7812 35.2195C36.7812 35.3985 36.6325 35.5436 36.4491 35.5436Z" fill="#DB1B24"/>
<path d="M34.703 38.6471C34.5196 38.6471 34.3709 38.502 34.3709 38.3231C34.3709 38.1441 34.5196 37.999 34.703 37.999C34.8865 37.999 35.0352 38.1441 35.0352 38.3231C35.0352 38.502 34.8865 38.6471 34.703 38.6471Z" fill="#DB1B24"/>
<path d="M34.371 36.9791C34.1876 36.9791 34.0389 36.834 34.0389 36.6551C34.0389 36.4761 34.1876 36.3311 34.371 36.3311C34.5544 36.3311 34.7031 36.4761 34.7031 36.6551C34.7031 36.834 34.5544 36.9791 34.371 36.9791Z" fill="#DB1B24"/>
<path d="M32.1054 40.7379C31.9219 40.7379 31.7732 40.5928 31.7732 40.4139C31.7732 40.2349 31.9219 40.0898 32.1054 40.0898C32.2888 40.0898 32.4375 40.2349 32.4375 40.4139C32.4375 40.5928 32.2888 40.7379 32.1054 40.7379Z" fill="#DB1B24"/>
<path d="M38.7147 39.5016C38.5313 39.5016 38.3826 39.3565 38.3826 39.1775C38.3826 38.9986 38.5313 38.8535 38.7147 38.8535C38.8982 38.8535 39.0469 38.9986 39.0469 39.1775C39.0469 39.3565 38.8982 39.5016 38.7147 39.5016Z" fill="#DB1B24"/>
<path d="M35.5767 40.2109C35.2781 40.2109 35.0361 39.9748 35.0361 39.6836C35.0361 39.3924 35.2781 39.1562 35.5767 39.1562C35.8752 39.1562 36.1172 39.3924 36.1172 39.6836C36.1172 39.9748 35.8752 40.2109 35.5767 40.2109Z" fill="#DB1B24"/>
<path d="M37.8931 40.7383C37.5945 40.7383 37.3525 40.5022 37.3525 40.2109C37.3525 39.9197 37.5945 39.6836 37.8931 39.6836C38.1916 39.6836 38.4336 39.9197 38.4336 40.2109C38.4336 40.5022 38.1916 40.7383 37.8931 40.7383Z" fill="#DB1B24"/>
<path d="M33.1665 39.7012C32.868 39.7012 32.626 39.4651 32.626 39.1738C32.626 38.8826 32.868 38.6465 33.1665 38.6465C33.465 38.6465 33.707 38.8826 33.707 39.1738C33.707 39.4651 33.465 39.7012 33.1665 39.7012Z" fill="#DB1B24"/>
<path d="M34.039 40.8981C33.8555 40.8981 33.7068 40.753 33.7068 40.574C33.7068 40.3951 33.8555 40.25 34.039 40.25C34.2224 40.25 34.3711 40.3951 34.3711 40.574C34.3711 40.753 34.2224 40.8981 34.039 40.8981Z" fill="#DB1B24"/>
<path fill-rule="evenodd" clip-rule="evenodd" d="M10.7422 34.0814C10.7422 33.7937 10.9754 33.5605 11.263 33.5605H30.7945C31.0821 33.5605 31.3153 33.7937 31.3153 34.0814C31.3153 34.369 31.0821 34.6022 30.7945 34.6022H11.7839V38.2481C11.7839 38.5357 11.5507 38.7689 11.263 38.7689C10.9754 38.7689 10.7422 38.5357 10.7422 38.2481V34.0814Z" fill="#FE666D"/>
<path d="M23.6568 21.7794H24.6664C25.1471 21.7794 25.5033 21.6592 25.735 21.4188C25.9666 21.1784 26.0824 20.8594 26.0824 20.4617C26.0824 20.0771 25.9666 19.7777 25.735 19.5635C25.5077 19.3494 25.193 19.2423 24.791 19.2423C24.4282 19.2423 24.1245 19.3428 23.8797 19.5439C23.635 19.7406 23.5126 19.9984 23.5126 20.3175H21.618C21.618 19.8192 21.7513 19.3734 22.0179 18.9801C22.2889 18.5824 22.6647 18.2721 23.1455 18.0492C23.6306 17.8263 24.1638 17.7148 24.7451 17.7148C25.7546 17.7148 26.5457 17.9574 27.1182 18.4425C27.6908 18.9233 27.977 19.5876 27.977 20.4355C27.977 20.8725 27.8437 21.2746 27.5771 21.6417C27.3105 22.0088 26.9609 22.2907 26.5282 22.4874C27.0658 22.6797 27.4657 22.9681 27.7279 23.3527C27.9945 23.7373 28.1278 24.1919 28.1278 24.7163C28.1278 25.5642 27.8175 26.2438 27.1969 26.7551C26.5807 27.2665 25.7634 27.5222 24.7451 27.5222C23.7923 27.5222 23.0122 27.2709 22.4047 26.7683C21.8016 26.2656 21.5 25.6013 21.5 24.7753H23.3946C23.3946 25.1337 23.5279 25.4265 23.7945 25.6538C24.0655 25.881 24.3976 25.9947 24.791 25.9947C25.2411 25.9947 25.5929 25.8767 25.8464 25.6407C26.1043 25.4003 26.2332 25.0834 26.2332 24.6901C26.2332 23.7373 25.7088 23.261 24.6598 23.261H23.6568V21.7794Z" fill="#FFD5AE"/>
<path fill-rule="evenodd" clip-rule="evenodd" d="M22.5932 21.436H21.6197C21.0017 21.436 20.5008 20.9351 20.5008 20.3171C20.5008 19.6066 20.6949 18.9399 21.0934 18.3521L21.0949 18.3498C21.491 17.7685 22.0315 17.3329 22.6765 17.0338L22.68 17.0322C23.3243 16.7362 24.0187 16.5957 24.7467 16.5957C25.9283 16.5957 27.0064 16.8805 27.8413 17.587C28.7014 18.3102 29.0975 19.3072 29.0975 20.4352C29.0975 21.1178 28.8838 21.7484 28.4841 22.2988C28.4582 22.3345 28.4318 22.3695 28.4049 22.404C28.4929 22.5023 28.5753 22.6071 28.6515 22.7185C29.0616 23.3117 29.2483 23.9938 29.2483 24.716C29.2483 25.8766 28.8048 26.8803 27.9116 27.617C27.0453 28.3352 25.9528 28.6407 24.7467 28.6407C23.59 28.6407 22.5408 28.3313 21.6931 27.63L21.6901 27.6275C20.817 26.8999 20.3828 25.9132 20.3828 24.775C20.3828 24.1571 20.8837 23.6562 21.5016 23.6562H22.6116C22.5651 23.5332 22.5396 23.3999 22.5396 23.2607V21.7791C22.5396 21.6594 22.5584 21.5441 22.5932 21.436ZM24.4432 24.3795C24.4896 24.5025 24.5151 24.6358 24.5151 24.775C24.5151 24.7843 24.5155 24.7915 24.5159 24.7967C24.5169 24.7975 24.5179 24.7984 24.519 24.7994C24.5655 24.8375 24.6351 24.8755 24.7926 24.8755C24.9216 24.8755 24.9985 24.8585 25.0383 24.8451C25.0714 24.834 25.0823 24.8246 25.0852 24.822M24.4432 24.3795H24.6615C24.9396 24.3795 25.0529 24.4273 25.0838 24.4439C25.0845 24.4456 25.0853 24.4476 25.0862 24.45C25.0966 24.4785 25.116 24.5513 25.116 24.6898C25.116 24.7633 25.1043 24.7948 25.1018 24.8008C25.1003 24.8045 25.0992 24.8063 25.0982 24.8078C25.0971 24.8093 25.0933 24.8143 25.0852 24.822M27.1985 26.7548C27.8191 26.2435 28.1295 25.5639 28.1295 24.716C28.1295 24.1916 27.9962 23.737 27.7296 23.3524C27.6864 23.2891 27.6395 23.2284 27.5888 23.1703C27.3319 22.8755 26.9789 22.6477 26.5299 22.4871C26.9346 22.3031 27.2666 22.0446 27.526 21.7116C27.5439 21.6885 27.5615 21.6651 27.5788 21.6414C27.8454 21.2743 27.9787 20.8722 27.9787 20.4352C27.9787 19.5873 27.6924 18.923 27.1199 18.4422C26.5473 17.9571 25.7563 17.7145 24.7467 17.7145C24.1654 17.7145 23.6322 17.826 23.1471 18.0489C22.6664 18.2718 22.2905 18.5821 22.0195 18.9798C21.9713 19.0509 21.9275 19.1238 21.888 19.1983C21.7091 19.5361 21.6197 19.909 21.6197 20.3171H23.5142C23.5142 19.9981 23.6366 19.7402 23.8814 19.5436C24.1261 19.3425 24.4299 19.242 24.7926 19.242C25.1947 19.242 25.5094 19.3491 25.7366 19.5632C25.9683 19.7774 26.0841 20.0768 26.0841 20.4614C26.0841 20.8591 25.9683 21.1781 25.7366 21.4185C25.505 21.6589 25.1488 21.7791 24.668 21.7791H23.6585V23.2607H24.6615C25.7104 23.2607 26.2349 23.737 26.2349 24.6898C26.2349 25.0831 26.1059 25.4 25.8481 25.6404C25.5946 25.8764 25.2428 25.9944 24.7926 25.9944C24.3993 25.9944 24.0671 25.8807 23.7961 25.6535C23.5295 25.4262 23.3962 25.1334 23.3962 24.775H21.5016C21.5016 25.1885 21.5772 25.5614 21.7283 25.8939C21.8791 26.2256 22.1051 26.5169 22.4063 26.7679C23.0138 27.2705 23.794 27.5219 24.7467 27.5219C25.765 27.5219 26.5823 27.2662 27.1985 26.7548ZM24.5795 20.6602C24.6077 20.5725 24.6254 20.4801 24.6311 20.3845C24.6607 20.3723 24.7096 20.3609 24.7926 20.3609C24.8818 20.3609 24.9342 20.3712 24.9597 20.3784C24.9625 20.396 24.9652 20.4229 24.9652 20.4614C24.9652 20.5519 24.9521 20.599 24.9455 20.6172C24.944 20.6214 24.9425 20.6249 24.9412 20.6277C24.9402 20.6281 24.9391 20.6284 24.938 20.6288C24.9022 20.6409 24.819 20.6602 24.668 20.6602H24.5795Z" fill="#C28044"/>
</svg>
