<svg width="51" height="50" viewBox="0 0 51 50" fill="none" xmlns="http://www.w3.org/2000/svg">
<path d="M38.3333 4.49316C38.9086 4.49316 39.375 4.95953 39.375 5.53483L39.375 11.7848C39.375 12.3601 38.9086 12.8265 38.3333 12.8265L12.2917 12.8265C11.7164 12.8265 11.25 12.3601 11.25 11.7848L11.25 5.53483C11.25 4.95953 11.7164 4.49316 12.2917 4.49316L38.3333 4.49316Z" fill="#C52229"/>
<path fill-rule="evenodd" clip-rule="evenodd" d="M40.418 5.53548L40.418 11.7855C40.418 12.9361 39.4852 13.8688 38.3346 13.8688L12.293 13.8688C11.1424 13.8688 10.2096 12.9361 10.2096 11.7855L10.2096 5.53548C10.2096 4.38489 11.1424 3.45215 12.293 3.45215L38.3346 3.45215C39.4852 3.45215 40.418 4.38489 40.418 5.53548ZM39.3763 5.53548C39.3763 4.96019 38.9099 4.49381 38.3346 4.49381L12.293 4.49381C11.7177 4.49381 11.2513 4.96018 11.2513 5.53548L11.2513 11.7855C11.2513 12.3608 11.7177 12.8271 12.293 12.8271L38.3346 12.8271C38.9099 12.8271 39.3763 12.3608 39.3763 11.7855L39.3763 5.53548Z" fill="#9B0F15"/>
<path fill-rule="evenodd" clip-rule="evenodd" d="M12.1953 5.014C12.1953 4.72635 12.4285 4.49316 12.7161 4.49316H38.2019C38.4896 4.49316 38.7228 4.72635 38.7228 5.014C38.7228 5.30165 38.4896 5.53483 38.2019 5.53483H12.7161C12.4285 5.53483 12.1953 5.30165 12.1953 5.014Z" fill="#DF3840"/>
<path fill-rule="evenodd" clip-rule="evenodd" d="M12 8.04134C12 7.75369 12.2332 7.52051 12.5208 7.52051H38.0066C38.2943 7.52051 38.5274 7.75369 38.5274 8.04134C38.5274 8.32899 38.2943 8.56217 38.0066 8.56217H12.5208C12.2332 8.56217 12 8.32899 12 8.04134Z" fill="#AF1B22"/>
<path fill-rule="evenodd" clip-rule="evenodd" d="M12 6.12142C12 5.83377 12.2332 5.60059 12.5208 5.60059H38.0066C38.2943 5.60059 38.5274 5.83377 38.5274 6.12142C38.5274 6.40907 38.2943 6.64225 38.0066 6.64225H12.5208C12.2332 6.64225 12 6.40907 12 6.12142Z" fill="#AF1B22"/>
<path fill-rule="evenodd" clip-rule="evenodd" d="M12 9.93001C12 9.64236 12.2332 9.40918 12.5208 9.40918H38.0066C38.2943 9.40918 38.5274 9.64236 38.5274 9.93001C38.5274 10.2177 38.2943 10.4508 38.0066 10.4508H12.5208C12.2332 10.4508 12 10.2177 12 9.93001Z" fill="#AF1B22"/>
<path fill-rule="evenodd" clip-rule="evenodd" d="M12.1953 11.6546C12.1953 11.367 12.4285 11.1338 12.7161 11.1338H38.2019C38.4896 11.1338 38.7228 11.367 38.7228 11.6546C38.7228 11.9423 38.4896 12.1755 38.2019 12.1755H12.7161C12.4285 12.1755 12.1953 11.9423 12.1953 11.6546Z" fill="#AF1B22"/>
<path d="M12.8616 4.90356C12.4548 4.49677 11.7952 4.49677 11.3884 4.90356L6.96901 9.32298C6.56222 9.72977 6.56222 10.3893 6.96901 10.7961L24.736 28.5631C25.1428 28.9699 25.8024 28.9699 26.2092 28.5631L30.6286 24.1437C31.0354 23.7369 31.0354 23.0774 30.6286 22.6706L12.8616 4.90356Z" fill="#F1333B"/>
<path fill-rule="evenodd" clip-rule="evenodd" d="M10.6519 4.16747L6.23244 8.58689C5.41885 9.40048 5.41885 10.7196 6.23244 11.5332L23.9995 29.3002C24.8131 30.1138 26.1322 30.1138 26.9458 29.3002L31.3652 24.8808C32.1788 24.0672 32.1788 22.7481 31.3652 21.9345L13.5981 4.16747C12.7845 3.35388 11.4655 3.35388 10.6519 4.16747ZM11.3884 4.90404C11.7952 4.49725 12.4548 4.49725 12.8616 4.90404L30.6286 22.6711C31.0354 23.0779 31.0354 23.7374 30.6286 24.1442L26.2092 28.5636C25.8024 28.9704 25.1428 28.9704 24.736 28.5636L6.96901 10.7966C6.56222 10.3898 6.56222 9.73026 6.96901 9.32346L11.3884 4.90404Z" fill="#9B0F15"/>
<path d="M37.7573 4.9235C38.1624 4.50716 38.8297 4.50258 39.2405 4.91333L43.6598 9.33261C44.0626 9.73546 44.0671 10.3872 43.6698 10.7956L26.4034 28.5424C25.9983 28.9587 25.331 28.9633 24.9202 28.5526L20.5009 24.1333C20.0981 23.7304 20.0936 23.0787 20.4909 22.6703L37.7573 4.9235Z" fill="#F1333B"/>
<path fill-rule="evenodd" clip-rule="evenodd" d="M39.977 4.17724L44.3963 8.59652C45.202 9.40223 45.211 10.7058 44.4164 11.5225L27.15 29.2693C26.3398 30.102 25.0051 30.1111 24.1836 29.2896L19.7644 24.8703C18.9586 24.0646 18.9497 22.7611 19.7443 21.9444L37.0107 4.19759C37.8208 3.3649 39.1556 3.35575 39.977 4.17724ZM39.2405 4.91381C38.8297 4.50306 38.1624 4.50764 37.7573 4.92399L20.4909 22.6708C20.0936 23.0791 20.0981 23.7309 20.5009 24.1338L24.9202 28.553C25.331 28.9638 25.9983 28.9592 26.4034 28.5429L43.6698 10.7961C44.0671 10.3877 44.0626 9.73595 43.6598 9.33309L39.2405 4.91381Z" fill="#9B0F15"/>
<path fill-rule="evenodd" clip-rule="evenodd" d="M38.6023 5.36083C38.8066 5.5633 38.8081 5.89307 38.6056 6.09739L27.9611 16.8396C27.7586 17.0439 27.4289 17.0454 27.2245 16.8429C27.0202 16.6405 27.0187 16.3107 27.2212 16.1064L37.8657 5.3642C38.0682 5.15987 38.398 5.15836 38.6023 5.36083Z" fill="#FE666D"/>
<path fill-rule="evenodd" clip-rule="evenodd" d="M7.10567 9.72384C7.30907 9.52044 7.63885 9.52044 7.84224 9.72384L14.6131 16.4947C14.8165 16.6981 14.8165 17.0278 14.6131 17.2312C14.4097 17.4346 14.0799 17.4346 13.8765 17.2312L7.10567 10.4604C6.90228 10.257 6.90228 9.92724 7.10567 9.72384Z" fill="#FE666D"/>
<path d="M40.7225 8.34682C40.5139 8.55537 40.1799 8.55949 39.9765 8.35603C39.773 8.15257 39.7771 7.81857 39.9857 7.61003C40.1942 7.40148 40.5282 7.39736 40.7317 7.60082C40.9351 7.80428 40.931 8.13827 40.7225 8.34682Z" fill="#DB1B24"/>
<path d="M39.1343 9.6362C38.8749 9.89561 38.4594 9.90074 38.2063 9.64766C37.9533 9.39457 37.9584 8.97912 38.2178 8.7197C38.4772 8.46029 38.8927 8.45516 39.1457 8.70825C39.3988 8.96133 39.3937 9.37679 39.1343 9.6362Z" fill="#DB1B24"/>
<path d="M40.825 10.0437C40.6953 10.1734 40.4875 10.176 40.361 10.0494C40.2344 9.92287 40.237 9.71514 40.3667 9.58544C40.4964 9.45573 40.7041 9.45317 40.8307 9.57971C40.9572 9.70625 40.9547 9.91398 40.825 10.0437Z" fill="#DB1B24"/>
<path d="M37.075 14.4441C36.9453 14.5738 36.7375 14.5763 36.611 14.4498C36.4844 14.3233 36.487 14.1155 36.6167 13.9858C36.7464 13.8561 36.9541 13.8536 37.0807 13.9801C37.2072 14.1066 37.2047 14.3144 37.075 14.4441Z" fill="#DB1B24"/>
<path d="M38.9539 11.4538C38.8242 11.5835 38.6164 11.5861 38.4899 11.4596C38.3633 11.333 38.3659 11.1253 38.4956 10.9956C38.6253 10.8659 38.8331 10.8633 38.9596 10.9899C39.0861 11.1164 39.0836 11.3241 38.9539 11.4538Z" fill="#DB1B24"/>
<path d="M37.0671 16.238C36.9374 16.3677 36.7297 16.3703 36.6032 16.2438C36.4766 16.1172 36.4792 15.9095 36.6089 15.7798C36.7386 15.6501 36.9463 15.6475 37.0729 15.774C37.1994 15.9006 37.1969 16.1083 37.0671 16.238Z" fill="#DB1B24"/>
<path d="M37.5398 11.0583C37.4101 11.188 37.2024 11.1906 37.0758 11.0641C36.9493 10.9375 36.9518 10.7298 37.0816 10.6001C37.2113 10.4704 37.419 10.4678 37.5455 10.5944C37.6721 10.7209 37.6695 10.9286 37.5398 11.0583Z" fill="#DB1B24"/>
<path d="M38.5984 14.7693C38.4687 14.899 38.261 14.9015 38.1344 14.775C38.0079 14.6485 38.0104 14.4407 38.1401 14.311C38.2699 14.1813 38.4776 14.1788 38.6041 14.3053C38.7307 14.4318 38.7281 14.6396 38.5984 14.7693Z" fill="#DB1B24"/>
<path d="M42.3992 9.22142C42.2695 9.35113 42.0617 9.35369 41.9352 9.22715C41.8087 9.10061 41.8112 8.89288 41.9409 8.76317C42.0706 8.63347 42.2784 8.6309 42.4049 8.75744C42.5314 8.88399 42.5289 9.09172 42.3992 9.22142Z" fill="#DB1B24"/>
<path d="M40.68 11.9434C40.4689 12.1545 40.1308 12.1587 39.9249 11.9527C39.7189 11.7468 39.7231 11.4087 39.9342 11.1976C40.1453 10.9866 40.4834 10.9824 40.6893 11.1883C40.8952 11.3943 40.8911 11.7323 40.68 11.9434Z" fill="#DB1B24"/>
<path d="M42.6917 10.6768C42.4806 10.8879 42.1425 10.8921 41.9366 10.6861C41.7307 10.4802 41.7348 10.1421 41.9459 9.93104C42.157 9.71995 42.4951 9.71578 42.701 9.92172C42.907 10.1277 42.9028 10.4657 42.6917 10.6768Z" fill="#DB1B24"/>
<path d="M38.6136 13.2862C38.4025 13.4973 38.0644 13.5015 37.8585 13.2955C37.6525 13.0896 37.6567 12.7515 37.8678 12.5404C38.0789 12.3293 38.4169 12.3252 38.6229 12.5311C38.8288 12.737 38.8247 13.0751 38.6136 13.2862Z" fill="#DB1B24"/>
<path d="M40.0789 13.5163C39.9492 13.646 39.7414 13.6486 39.6149 13.5221C39.4883 13.3955 39.4909 13.1878 39.6206 13.0581C39.7503 12.9284 39.9581 12.9258 40.0846 13.0524C40.2111 13.1789 40.2086 13.3866 40.0789 13.5163Z" fill="#DB1B24"/>
<path d="M40.4023 33.9385C40.4023 41.705 34.1063 48.001 26.3398 48.001C18.5733 48.001 12.2773 41.705 12.2773 33.9385C12.2773 26.172 18.5733 19.876 26.3398 19.876C34.1063 19.876 40.4023 26.172 40.4023 33.9385Z" fill="#DCA16A"/>
<path fill-rule="evenodd" clip-rule="evenodd" d="M41.4427 33.9382C41.4427 42.28 34.6803 49.0423 26.3385 49.0423C17.9967 49.0423 11.2344 42.28 11.2344 33.9382C11.2344 25.5963 17.9967 18.834 26.3385 18.834C34.6803 18.834 41.4427 25.5963 41.4427 33.9382ZM26.3385 48.0007C34.105 48.0007 40.401 41.7047 40.401 33.9382C40.401 26.1716 34.105 19.8757 26.3385 19.8757C18.572 19.8757 12.276 26.1716 12.276 33.9382C12.276 41.7047 18.572 48.0007 26.3385 48.0007Z" fill="#C38144"/>
<path fill-rule="evenodd" clip-rule="evenodd" d="M13.3177 34.459C13.0301 34.459 12.7969 34.2258 12.7969 33.9381C12.7969 26.4593 18.8597 20.3965 26.3385 20.3965C26.6262 20.3965 26.8594 20.6297 26.8594 20.9173C26.8594 21.205 26.6262 21.4382 26.3385 21.4382C19.435 21.4382 13.8385 27.0346 13.8385 33.9381C13.8385 34.2258 13.6054 34.459 13.3177 34.459Z" fill="#F0B57F"/>
<path fill-rule="evenodd" clip-rule="evenodd" d="M39.362 33.418C39.6496 33.418 39.8828 33.6512 39.8828 33.9388C39.8828 41.4177 33.82 47.4805 26.3411 47.4805C26.0535 47.4805 25.8203 47.2473 25.8203 46.9596C25.8203 46.672 26.0535 46.4388 26.3411 46.4388C33.2447 46.4388 38.8411 40.8424 38.8411 33.9388C38.8411 33.6512 39.0743 33.418 39.362 33.418Z" fill="#CF945D"/>
<path d="M36.7552 33.9382C36.7552 39.6911 32.0915 44.3548 26.3385 44.3548C20.5856 44.3548 15.9219 39.6911 15.9219 33.9382C15.9219 28.1852 20.5856 23.5215 26.3385 23.5215C32.0915 23.5215 36.7552 28.1852 36.7552 33.9382Z" fill="#F7BA82"/>
<path fill-rule="evenodd" clip-rule="evenodd" d="M37.7995 33.9388C37.7995 40.2671 32.6694 45.3971 26.3411 45.3971C20.0129 45.3971 14.8828 40.2671 14.8828 33.9388C14.8828 27.6105 20.0129 22.4805 26.3411 22.4805C32.6694 22.4805 37.7995 27.6105 37.7995 33.9388ZM26.3411 44.3555C32.0941 44.3555 36.7578 39.6918 36.7578 33.9388C36.7578 28.1858 32.0941 23.5221 26.3411 23.5221C20.5882 23.5221 15.9245 28.1858 15.9245 33.9388C15.9245 39.6918 20.5882 44.3555 26.3411 44.3555Z" fill="#C38144"/>
<path fill-rule="evenodd" clip-rule="evenodd" d="M26.3385 42.7923C31.2286 42.7923 35.1927 38.8282 35.1927 33.9382C35.1927 33.6505 35.4259 33.4173 35.7135 33.4173C36.0012 33.4173 36.2344 33.6505 36.2344 33.9382C36.2344 39.4035 31.8039 43.834 26.3385 43.834C26.0509 43.834 25.8177 43.6008 25.8177 43.3132C25.8177 43.0255 26.0509 42.7923 26.3385 42.7923Z" fill="#E6A66C"/>
<path fill-rule="evenodd" clip-rule="evenodd" d="M26.3411 25.0846C21.4511 25.0846 17.487 29.0488 17.487 33.9388C17.487 34.2264 17.2538 34.4596 16.9661 34.4596C16.6785 34.4596 16.4453 34.2264 16.4453 33.9388C16.4453 28.4735 20.8758 24.043 26.3411 24.043C26.6288 24.043 26.862 24.2762 26.862 24.5638C26.862 24.8515 26.6288 25.0846 26.3411 25.0846Z" fill="#FFD5AE"/>
<mask id="path-35-outside-1_2300_5205" maskUnits="userSpaceOnUse" x="20.8594" y="25.4795" width="9" height="13" fill="black">
<rect fill="white" x="20.8594" y="25.4795" width="9" height="13"/>
<path d="M24.2703 31.2732H25.2102C25.5113 31.2732 25.7595 31.2223 25.9548 31.1206C26.1501 31.0148 26.2946 30.8683 26.3882 30.6812C26.4858 30.4899 26.5347 30.2681 26.5347 30.0159C26.5347 29.788 26.4899 29.5866 26.4004 29.4116C26.3149 29.2326 26.1827 29.0942 26.0037 28.9966C25.8246 28.8949 25.5988 28.844 25.3262 28.844C25.1105 28.844 24.9111 28.8867 24.728 28.9722C24.5449 29.0576 24.3984 29.1777 24.2886 29.3323C24.1787 29.4869 24.1238 29.6741 24.1238 29.8938H22.3599C22.3599 29.4055 22.4901 28.9803 22.7505 28.6182C23.015 28.256 23.369 27.9732 23.8125 27.7698C24.256 27.5663 24.7443 27.4646 25.2773 27.4646C25.8796 27.4646 26.4065 27.5623 26.8582 27.7576C27.3098 27.9488 27.6618 28.2316 27.9141 28.606C28.1663 28.9803 28.2925 29.4442 28.2925 29.9976C28.2925 30.2783 28.2274 30.5509 28.0972 30.8154C27.967 31.0758 27.7798 31.3118 27.5356 31.5234C27.2956 31.731 27.0026 31.8978 26.6567 32.0239C26.3109 32.146 25.9223 32.207 25.491 32.207H24.2703V31.2732ZM24.2703 32.6099V31.7004H25.491C25.9752 31.7004 26.4004 31.7554 26.7666 31.8652C27.1328 31.9751 27.44 32.1338 27.6882 32.3413C27.9364 32.5448 28.1236 32.7869 28.2498 33.0676C28.3759 33.3443 28.439 33.6515 28.439 33.9893C28.439 34.4043 28.3596 34.7746 28.2009 35.1001C28.0422 35.4215 27.8184 35.6942 27.5295 35.918C27.2447 36.1418 26.9111 36.3127 26.5286 36.4307C26.1461 36.5446 25.729 36.6016 25.2773 36.6016C24.903 36.6016 24.5347 36.5507 24.1726 36.449C23.8145 36.3432 23.489 36.1865 23.196 35.979C22.9071 35.7674 22.6752 35.5029 22.5002 35.1855C22.3293 34.8641 22.2439 34.4836 22.2439 34.0442H24.0078C24.0078 34.2721 24.0648 34.4755 24.1787 34.6545C24.2926 34.8336 24.4493 34.974 24.6487 35.0757C24.8521 35.1774 25.078 35.2283 25.3262 35.2283C25.6069 35.2283 25.847 35.1774 26.0464 35.0757C26.2498 34.9699 26.4045 34.8234 26.5103 34.6362C26.6201 34.445 26.675 34.2232 26.675 33.9709C26.675 33.6454 26.616 33.385 26.498 33.1897C26.38 32.9903 26.2112 32.8438 25.9915 32.7502C25.7717 32.6567 25.5113 32.6099 25.2102 32.6099H24.2703Z"/>
</mask>
<path d="M24.2703 31.2732H25.2102C25.5113 31.2732 25.7595 31.2223 25.9548 31.1206C26.1501 31.0148 26.2946 30.8683 26.3882 30.6812C26.4858 30.4899 26.5347 30.2681 26.5347 30.0159C26.5347 29.788 26.4899 29.5866 26.4004 29.4116C26.3149 29.2326 26.1827 29.0942 26.0037 28.9966C25.8246 28.8949 25.5988 28.844 25.3262 28.844C25.1105 28.844 24.9111 28.8867 24.728 28.9722C24.5449 29.0576 24.3984 29.1777 24.2886 29.3323C24.1787 29.4869 24.1238 29.6741 24.1238 29.8938H22.3599C22.3599 29.4055 22.4901 28.9803 22.7505 28.6182C23.015 28.256 23.369 27.9732 23.8125 27.7698C24.256 27.5663 24.7443 27.4646 25.2773 27.4646C25.8796 27.4646 26.4065 27.5623 26.8582 27.7576C27.3098 27.9488 27.6618 28.2316 27.9141 28.606C28.1663 28.9803 28.2925 29.4442 28.2925 29.9976C28.2925 30.2783 28.2274 30.5509 28.0972 30.8154C27.967 31.0758 27.7798 31.3118 27.5356 31.5234C27.2956 31.731 27.0026 31.8978 26.6567 32.0239C26.3109 32.146 25.9223 32.207 25.491 32.207H24.2703V31.2732ZM24.2703 32.6099V31.7004H25.491C25.9752 31.7004 26.4004 31.7554 26.7666 31.8652C27.1328 31.9751 27.44 32.1338 27.6882 32.3413C27.9364 32.5448 28.1236 32.7869 28.2498 33.0676C28.3759 33.3443 28.439 33.6515 28.439 33.9893C28.439 34.4043 28.3596 34.7746 28.2009 35.1001C28.0422 35.4215 27.8184 35.6942 27.5295 35.918C27.2447 36.1418 26.9111 36.3127 26.5286 36.4307C26.1461 36.5446 25.729 36.6016 25.2773 36.6016C24.903 36.6016 24.5347 36.5507 24.1726 36.449C23.8145 36.3432 23.489 36.1865 23.196 35.979C22.9071 35.7674 22.6752 35.5029 22.5002 35.1855C22.3293 34.8641 22.2439 34.4836 22.2439 34.0442H24.0078C24.0078 34.2721 24.0648 34.4755 24.1787 34.6545C24.2926 34.8336 24.4493 34.974 24.6487 35.0757C24.8521 35.1774 25.078 35.2283 25.3262 35.2283C25.6069 35.2283 25.847 35.1774 26.0464 35.0757C26.2498 34.9699 26.4045 34.8234 26.5103 34.6362C26.6201 34.445 26.675 34.2232 26.675 33.9709C26.675 33.6454 26.616 33.385 26.498 33.1897C26.38 32.9903 26.2112 32.8438 25.9915 32.7502C25.7717 32.6567 25.5113 32.6099 25.2102 32.6099H24.2703Z" fill="#FFD5AE"/>
<path d="M24.2703 31.2732V30.2315C23.695 30.2315 23.2286 30.6979 23.2286 31.2732H24.2703ZM25.9548 31.1206L26.436 32.0445C26.441 32.0419 26.446 32.0392 26.451 32.0365L25.9548 31.1206ZM26.3882 30.6812L25.4604 30.2074L25.4565 30.2153L26.3882 30.6812ZM26.4004 29.4116L25.4603 29.8603C25.4644 29.8689 25.4687 29.8775 25.473 29.8861L26.4004 29.4116ZM26.0037 28.9966L25.4891 29.9023C25.4943 29.9052 25.4996 29.9082 25.5049 29.9111L26.0037 28.9966ZM24.1238 29.8938V30.9355C24.6991 30.9355 25.1654 30.4691 25.1654 29.8938H24.1238ZM22.3599 29.8938H21.3182C21.3182 30.4691 21.7846 30.9355 22.3599 30.9355V29.8938ZM22.7505 28.6182L21.9093 28.0038L21.9048 28.01L22.7505 28.6182ZM23.8125 27.7698L23.3782 26.823L23.8125 27.7698ZM26.8582 27.7576L26.4447 28.7137L26.452 28.7168L26.8582 27.7576ZM27.9141 28.606L28.7779 28.0238L27.9141 28.606ZM28.0972 30.8154L29.0289 31.2813L29.0317 31.2755L28.0972 30.8154ZM27.5356 31.5234L28.2168 32.3115L28.2179 32.3106L27.5356 31.5234ZM26.6567 32.0239L27.0034 33.0063L27.0136 33.0025L26.6567 32.0239ZM24.2703 32.207H23.2286C23.2286 32.7823 23.695 33.2487 24.2703 33.2487V32.207ZM24.2703 32.6099H23.2286C23.2286 33.1852 23.695 33.6515 24.2703 33.6515V32.6099ZM24.2703 31.7004V30.6588C23.695 30.6588 23.2286 31.1251 23.2286 31.7004H24.2703ZM27.6882 32.3413L27.0201 33.1405L27.0279 33.1469L27.6882 32.3413ZM28.2498 33.0676L27.2996 33.4945L27.3019 33.4997L28.2498 33.0676ZM28.2009 35.1001L29.135 35.5612L29.1373 35.5566L28.2009 35.1001ZM27.5295 35.918L26.8916 35.0945L26.886 35.0989L27.5295 35.918ZM26.5286 36.4307L26.826 37.429L26.8356 37.426L26.5286 36.4307ZM24.1726 36.449L23.8774 37.448L23.8909 37.4518L24.1726 36.449ZM23.196 35.979L22.5806 36.8194C22.585 36.8226 22.5895 36.8259 22.5939 36.829L23.196 35.979ZM22.5002 35.1855L21.5805 35.6745C21.583 35.6792 21.5855 35.6838 21.588 35.6884L22.5002 35.1855ZM22.2439 34.0442V33.0025C21.6686 33.0025 21.2022 33.4689 21.2022 34.0442H22.2439ZM24.0078 34.0442H25.0495C25.0495 33.4689 24.5831 33.0025 24.0078 33.0025V34.0442ZM24.6487 35.0757L24.1753 36.0036L24.1828 36.0074L24.6487 35.0757ZM26.0464 35.0757L26.5198 36.0036L26.527 35.9999L26.0464 35.0757ZM26.5103 34.6362L25.607 34.1173L25.6034 34.1237L26.5103 34.6362ZM26.498 33.1897L25.6016 33.7203L25.6065 33.7284L26.498 33.1897ZM24.2703 31.2732V32.3149H25.2102V31.2732V30.2315H24.2703V31.2732ZM25.2102 31.2732V32.3149C25.6204 32.3149 26.0477 32.2467 26.436 32.0445L25.9548 31.1206L25.4737 30.1967C25.4713 30.1979 25.4023 30.2315 25.2102 30.2315V31.2732ZM25.9548 31.1206L26.451 32.0365C26.822 31.8356 27.1247 31.5374 27.3199 31.147L26.3882 30.6812L25.4565 30.2153C25.4568 30.2146 25.4581 30.2123 25.4605 30.2089C25.4629 30.2056 25.4655 30.2025 25.468 30.2C25.4704 30.1975 25.4716 30.1967 25.4708 30.1973C25.4699 30.198 25.4662 30.2006 25.4587 30.2047L25.9548 31.1206ZM26.3882 30.6812L27.3159 31.1549C27.5005 30.7933 27.5763 30.4041 27.5763 30.0159H26.5347H25.493C25.493 30.1322 25.4712 30.1865 25.4605 30.2074L26.3882 30.6812ZM26.5347 30.0159H27.5763C27.5763 29.6494 27.5035 29.2808 27.3277 28.9372L26.4004 29.4116L25.473 29.8861C25.4763 29.8924 25.493 29.9266 25.493 30.0159H26.5347ZM26.4004 29.4116L27.3405 28.9629C27.1578 28.5802 26.8682 28.2816 26.5025 28.0821L26.0037 28.9966L25.5049 29.9111C25.5063 29.9118 25.4969 29.9067 25.4841 29.8934C25.4711 29.8798 25.4634 29.8668 25.4603 29.8603L26.4004 29.4116ZM26.0037 28.9966L26.5183 28.0909C26.1396 27.8757 25.7226 27.8023 25.3262 27.8023V28.844V29.8857C25.4749 29.8857 25.5097 29.914 25.4891 29.9023L26.0037 28.9966ZM25.3262 28.844V27.8023C24.9687 27.8023 24.6177 27.8741 24.2875 28.0282L24.728 28.9722L25.1685 29.9161C25.2046 29.8993 25.2523 29.8857 25.3262 29.8857V28.844ZM24.728 28.9722L24.2875 28.0282C23.9521 28.1848 23.6606 28.4177 23.4394 28.7289L24.2886 29.3323L25.1377 29.9356C25.139 29.9337 25.1396 29.9332 25.1411 29.932C25.1428 29.9306 25.1505 29.9245 25.1685 29.9161L24.728 28.9722ZM24.2886 29.3323L23.4394 28.7289C23.1853 29.0866 23.0821 29.4932 23.0821 29.8938H24.1238H25.1654C25.1654 29.8709 25.1683 29.8691 25.1645 29.882C25.1626 29.8882 25.1596 29.8968 25.1548 29.9067C25.15 29.9167 25.1442 29.9265 25.1377 29.9356L24.2886 29.3323ZM24.1238 29.8938V28.8521H22.3599V29.8938V30.9355H24.1238V29.8938ZM22.3599 29.8938H23.4015C23.4015 29.602 23.4753 29.3944 23.5962 29.2263L22.7505 28.6182L21.9048 28.01C21.5048 28.5662 21.3182 29.209 21.3182 29.8938H22.3599ZM22.7505 28.6182L23.5917 29.2325C23.7421 29.0266 23.9505 28.8525 24.2468 28.7166L23.8125 27.7698L23.3782 26.823C22.7875 27.0939 22.2879 27.4854 21.9093 28.0038L22.7505 28.6182ZM23.8125 27.7698L24.2468 28.7166C24.5419 28.5812 24.8802 28.5063 25.2773 28.5063V27.4646V26.4229C24.6084 26.4229 23.9702 26.5514 23.3782 26.823L23.8125 27.7698ZM25.2773 27.4646V28.5063C25.7684 28.5063 26.1493 28.5859 26.4447 28.7137L26.8582 27.7576L27.2716 26.8015C26.6637 26.5386 25.9907 26.4229 25.2773 26.4229V27.4646ZM26.8582 27.7576L26.452 28.7168C26.7346 28.8364 26.9205 28.9956 27.0502 29.1881L27.9141 28.606L28.7779 28.0238C28.403 27.4676 27.8851 27.0612 27.2643 26.7983L26.8582 27.7576ZM27.9141 28.606L27.0502 29.1881C27.1627 29.355 27.2508 29.6043 27.2508 29.9976H28.2925H29.3341C29.3341 29.284 29.17 28.6056 28.7779 28.0238L27.9141 28.606ZM28.2925 29.9976H27.2508C27.2508 30.1108 27.226 30.2266 27.1626 30.3553L28.0972 30.8154L29.0317 31.2755C29.2288 30.8752 29.3341 30.4459 29.3341 29.9976H28.2925ZM28.0972 30.8154L27.1655 30.3496C27.1029 30.4748 27.0055 30.6045 26.8534 30.7363L27.5356 31.5234L28.2179 32.3106C28.5541 32.0192 28.831 31.6769 29.0289 31.2813L28.0972 30.8154ZM27.5356 31.5234L26.8544 30.7354C26.724 30.8481 26.5457 30.9557 26.2998 31.0453L26.6567 32.0239L27.0136 33.0025C27.4596 32.8399 27.8671 32.6138 28.2168 32.3115L27.5356 31.5234ZM26.6567 32.0239L26.3101 31.0416C26.0932 31.1182 25.8245 31.1654 25.491 31.1654V32.207V33.2487C26.0201 33.2487 26.5285 33.1738 27.0034 33.0062L26.6567 32.0239ZM25.491 32.207V31.1654H24.2703V32.207V33.2487H25.491V32.207ZM24.2703 32.207H25.3119V31.2732H24.2703H23.2286V32.207H24.2703ZM24.2703 32.6099H25.3119V31.7004H24.2703H23.2286V32.6099H24.2703ZM24.2703 31.7004V32.7421H25.491V31.7004V30.6588H24.2703V31.7004ZM25.491 31.7004V32.7421C25.8994 32.7421 26.22 32.7888 26.4673 32.863L26.7666 31.8652L27.0659 30.8675C26.5808 30.722 26.0509 30.6588 25.491 30.6588V31.7004ZM26.7666 31.8652L26.4673 32.863C26.7226 32.9396 26.8979 33.0383 27.0201 33.1405L27.6882 32.3413L28.3564 31.5422C27.9821 31.2292 27.5431 31.0106 27.0659 30.8675L26.7666 31.8652ZM27.6882 32.3413L27.0279 33.1469C27.157 33.2527 27.2423 33.367 27.2996 33.4945L28.2498 33.0676L29.1999 32.6407C29.0049 32.2067 28.7159 31.8368 28.3486 31.5357L27.6882 32.3413ZM28.2498 33.0676L27.3019 33.4997C27.3597 33.6264 27.3973 33.784 27.3973 33.9893H28.439H29.4806C29.4806 33.519 29.3921 33.0622 29.1976 32.6355L28.2498 33.0676ZM28.439 33.9893H27.3973C27.3973 34.2693 27.3445 34.4797 27.2646 34.6436L28.2009 35.1001L29.1373 35.5566C29.3747 35.0694 29.4806 34.5393 29.4806 33.9893H28.439ZM28.2009 35.1001L27.2669 34.639C27.1795 34.8159 27.0581 34.9655 26.8916 35.0945L27.5295 35.918L28.1675 36.7415C28.5788 36.4228 28.9049 36.0272 29.135 35.5612L28.2009 35.1001ZM27.5295 35.918L26.886 35.0989C26.7116 35.2359 26.4947 35.351 26.2215 35.4353L26.5286 36.4307L26.8356 37.426C27.3274 37.2743 27.7778 37.0476 28.1731 36.7371L27.5295 35.918ZM26.5286 36.4307L26.2312 35.4323C25.957 35.514 25.6413 35.5599 25.2773 35.5599V36.6016V37.6432C25.8167 37.6432 26.3352 37.5752 26.8259 37.429L26.5286 36.4307ZM25.2773 36.6016V35.5599C24.9987 35.5599 24.7252 35.5222 24.4543 35.4461L24.1726 36.449L23.8909 37.4518C24.3443 37.5792 24.8073 37.6432 25.2773 37.6432V36.6016ZM24.1726 36.449L24.4678 35.45C24.2151 35.3753 23.994 35.2677 23.7981 35.129L23.196 35.979L22.5939 36.829C22.984 37.1054 23.414 37.311 23.8775 37.448L24.1726 36.449ZM23.196 35.979L23.8115 35.1386C23.6464 35.0177 23.5152 34.8689 23.4125 34.6827L22.5002 35.1855L21.588 35.6884C21.8352 36.1369 22.1678 36.5171 22.5806 36.8194L23.196 35.979ZM22.5002 35.1855L23.42 34.6966C23.3441 34.5538 23.2856 34.3482 23.2856 34.0442H22.2439H21.2022C21.2022 34.6191 21.3146 35.1743 21.5805 35.6745L22.5002 35.1855ZM22.2439 34.0442V35.0859H24.0078V34.0442V33.0025H22.2439V34.0442ZM24.0078 34.0442H22.9661C22.9661 34.4549 23.0717 34.8552 23.2999 35.2138L24.1787 34.6545L25.0575 34.0953C25.0552 34.0916 25.0544 34.0897 25.0536 34.0868C25.0527 34.0834 25.0495 34.0706 25.0495 34.0442H24.0078ZM24.1787 34.6545L23.2999 35.2138C23.5192 35.5584 23.8197 35.8222 24.1753 36.0036L24.6487 35.0757L25.1221 34.1478C25.0789 34.1258 25.0661 34.1088 25.0575 34.0953L24.1787 34.6545ZM24.6487 35.0757L24.1828 36.0074C24.5438 36.1879 24.9313 36.2699 25.3262 36.2699V35.2283V34.1866C25.2247 34.1866 25.1605 34.167 25.1145 34.144L24.6487 35.0757ZM25.3262 35.2283V36.2699C25.7306 36.2699 26.1413 36.1967 26.5198 36.0036L26.0464 35.0757L25.573 34.1478C25.5527 34.1581 25.4833 34.1866 25.3262 34.1866V35.2283ZM26.0464 35.0757L26.527 35.9999C26.8969 35.8075 27.2054 35.5234 27.4171 35.1488L26.5103 34.6362L25.6034 34.1237C25.601 34.1279 25.5999 34.129 25.5985 34.1303C25.5968 34.1319 25.5881 34.1399 25.5658 34.1515L26.0464 35.0757ZM26.5103 34.6362L27.4135 35.1551C27.6264 34.7844 27.7167 34.3787 27.7167 33.9709H26.675H25.6334C25.6334 34.0677 25.6138 34.1056 25.607 34.1174L26.5103 34.6362ZM26.675 33.9709H27.7167C27.7167 33.5323 27.6391 33.0639 27.3896 32.651L26.498 33.1897L25.6065 33.7284C25.593 33.7061 25.6334 33.7586 25.6334 33.9709H26.675ZM26.498 33.1897L27.3945 32.6592C27.1598 32.2626 26.8168 31.9696 26.3996 31.7919L25.9915 32.7502L25.5833 33.7086C25.5922 33.7124 25.5972 33.7153 25.5992 33.7165C25.6012 33.7178 25.6013 33.718 25.6003 33.7172C25.5993 33.7163 25.5985 33.7154 25.5982 33.7151C25.598 33.7148 25.5992 33.7162 25.6016 33.7202L26.498 33.1897ZM25.9915 32.7502L26.3996 31.7919C26.0219 31.631 25.6163 31.5682 25.2102 31.5682V32.6099V33.6515C25.4063 33.6515 25.5215 33.6823 25.5833 33.7086L25.9915 32.7502ZM25.2102 32.6099V31.5682H24.2703V32.6099V33.6515H25.2102V32.6099Z" fill="#C28044" mask="url(#path-35-outside-1_2300_5205)"/>
</svg>
