<svg width="30" height="30" viewBox="0 0 30 30" fill="none" xmlns="http://www.w3.org/2000/svg">
<path fill-rule="evenodd" clip-rule="evenodd" d="M11.35 13.85H6.15V6.15H11.35V13.85ZM11.35 23.85V21.15H6.15V23.85H11.35ZM23.85 23.85V16.15H18.65V23.85H23.85ZM18.65 8.85H23.85V6.15H18.65V8.85ZM4.75 16.25C4.19772 16.25 3.75 15.8023 3.75 15.25V4.75C3.75 4.19772 4.19772 3.75 4.75 3.75H12.75C13.3023 3.75 13.75 4.19772 13.75 4.75V15.25C13.75 15.8023 13.3023 16.25 12.75 16.25H4.75ZM4.75 26.25C4.19772 26.25 3.75 25.8023 3.75 25.25V19.75C3.75 19.1977 4.19772 18.75 4.75 18.75H12.75C13.3023 18.75 13.75 19.1977 13.75 19.75V25.25C13.75 25.8023 13.3023 26.25 12.75 26.25H4.75ZM17.25 26.25C16.6977 26.25 16.25 25.8023 16.25 25.25V14.75C16.25 14.1977 16.6977 13.75 17.25 13.75H25.25C25.8023 13.75 26.25 14.1977 26.25 14.75V25.25C26.25 25.8023 25.8023 26.25 25.25 26.25H17.25ZM16.25 4.75C16.25 4.19772 16.6977 3.75 17.25 3.75H25.25C25.8023 3.75 26.25 4.19772 26.25 4.75V10.25C26.25 10.8023 25.8023 11.25 25.25 11.25H17.25C16.6977 11.25 16.25 10.8023 16.25 10.25V4.75Z" fill="#B542FB"/>
</svg>
