<svg width="50" height="51" viewBox="0 0 50 51" fill="none" xmlns="http://www.w3.org/2000/svg">
<path d="M41.6732 23.0339C41.6732 32.2386 34.2113 39.7005 25.0065 39.7005C15.8018 39.7005 8.33984 32.2386 8.33984 23.0339C8.33984 13.8291 15.8018 6.36719 25.0065 6.36719C34.2113 6.36719 41.6732 13.8291 41.6732 23.0339Z" fill="#FFBB0D"/>
<path fill-rule="evenodd" clip-rule="evenodd" d="M42.9079 23.034C42.9079 32.9206 34.8933 40.9353 25.0067 40.9353C15.1201 40.9353 7.10547 32.9206 7.10547 23.034C7.10547 13.1475 15.1201 5.13281 25.0067 5.13281C34.8933 5.13281 42.9079 13.1475 42.9079 23.034ZM25.0067 39.7007C34.2115 39.7007 41.6734 32.2388 41.6734 23.034C41.6734 13.8293 34.2115 6.36738 25.0067 6.36738C15.802 6.36738 8.34004 13.8293 8.34004 23.034C8.34004 32.2388 15.802 39.7007 25.0067 39.7007Z" fill="#E89B05"/>
<path fill-rule="evenodd" clip-rule="evenodd" d="M9.57171 23.6514C9.23079 23.6514 8.95443 23.375 8.95443 23.0341C8.95443 14.1703 16.14 6.9847 25.0038 6.9847C25.3447 6.9847 25.6211 7.26107 25.6211 7.60198C25.6211 7.9429 25.3447 8.21927 25.0038 8.21927C16.8218 8.21927 10.189 14.8521 10.189 23.0341C10.189 23.375 9.91263 23.6514 9.57171 23.6514Z" fill="#E8AA0A"/>
<path fill-rule="evenodd" clip-rule="evenodd" d="M40.44 22.416C40.7809 22.416 41.0573 22.6924 41.0573 23.0333C41.0573 31.8971 33.8717 39.0827 25.0079 39.0827C24.667 39.0827 24.3906 38.8063 24.3906 38.4654C24.3906 38.1245 24.667 37.8481 25.0079 37.8481C33.1899 37.8481 39.8227 31.2153 39.8227 23.0333C39.8227 22.6924 40.0991 22.416 40.44 22.416Z" fill="#E8AA0A"/>
<path d="M37.3515 23.0332C37.3515 29.8515 31.8242 35.3789 25.0058 35.3789C18.1875 35.3789 12.6602 29.8515 12.6602 23.0332C12.6602 16.2148 18.1875 10.6875 25.0058 10.6875C31.8242 10.6875 37.3515 16.2148 37.3515 23.0332Z" fill="#FFDD28"/>
<path fill-rule="evenodd" clip-rule="evenodd" d="M38.5863 23.0334C38.5863 30.5335 32.5062 36.6136 25.006 36.6136C17.5059 36.6136 11.4258 30.5335 11.4258 23.0334C11.4258 15.5332 17.5059 9.45312 25.006 9.45312C32.5062 9.45312 38.5863 15.5332 38.5863 23.0334ZM25.006 35.3791C31.8244 35.3791 37.3517 29.8517 37.3517 23.0334C37.3517 16.215 31.8244 10.6877 25.006 10.6877C18.1877 10.6877 12.6603 16.215 12.6603 23.0334C12.6603 29.8517 18.1877 35.3791 25.006 35.3791Z" fill="#E89B05"/>
<path fill-rule="evenodd" clip-rule="evenodd" d="M25.006 33.5281C30.8016 33.5281 35.4998 28.8299 35.4998 23.0343C35.4998 22.6934 35.7762 22.417 36.1171 22.417C36.458 22.417 36.7344 22.6934 36.7344 23.0343C36.7344 29.5117 31.4834 34.7627 25.006 34.7627C24.6651 34.7627 24.3887 34.4863 24.3887 34.1454C24.3887 33.8045 24.6651 33.5281 25.006 33.5281Z" fill="#ECC704"/>
<path fill-rule="evenodd" clip-rule="evenodd" d="M25.0057 12.5402C19.2102 12.5402 14.5119 17.2385 14.5119 23.0341C14.5119 23.375 14.2355 23.6513 13.8946 23.6513C13.5537 23.6513 13.2773 23.375 13.2773 23.0341C13.2773 16.5566 18.5283 11.3057 25.0057 11.3057C25.3467 11.3057 25.623 11.582 25.623 11.9229C25.623 12.2639 25.3467 12.5402 25.0057 12.5402Z" fill="#FFEF9C"/>
<path d="M6.12923 39.5314L4.53925 36.3514C4.36609 36.0051 4.61791 35.5977 5.00509 35.5977L11.9749 35.5977C12.2625 35.5977 12.4957 35.8308 12.4957 36.1185L12.4957 43.4102C12.4957 43.6978 12.2625 43.931 11.9749 43.931L5.00509 43.931C4.61791 43.931 4.36609 43.5235 4.53925 43.1772L6.12923 39.9972C6.20255 39.8506 6.20255 39.678 6.12923 39.5314Z" fill="#C52229"/>
<path d="M43.8622 39.5314L45.4522 36.3514C45.6253 36.0051 45.3735 35.5977 44.9863 35.5977L38.0165 35.5977C37.7289 35.5977 37.4957 35.8308 37.4957 36.1185L37.4957 43.4102C37.4957 43.6978 37.7289 43.931 38.0165 43.931L44.9863 43.931C45.3735 43.931 45.6253 43.5235 45.4522 43.1772L43.8622 39.9972C43.7888 39.8506 43.7888 39.678 43.8622 39.5314Z" fill="#C52229"/>
<path fill-rule="evenodd" clip-rule="evenodd" d="M5.08494 39.765L3.61141 36.8179C3.09196 35.779 3.84741 34.5566 5.00896 34.5566L11.9787 34.5566C12.8417 34.5566 13.5412 35.2562 13.5412 36.1191L13.5412 43.4108C13.5412 44.2738 12.8417 44.9733 11.9787 44.9733L5.00896 44.9733C3.84741 44.9733 3.09196 43.7509 3.61141 42.712L5.08494 39.765ZM5.2011 39.9973C5.20121 39.9975 5.20131 39.9977 5.20141 39.9979L5.66726 39.765L5.2014 39.9979L5.2011 39.9973ZM44.9142 39.765L46.3877 36.8179C46.9072 35.779 46.1517 34.5566 44.9902 34.5566L38.0204 34.5566C37.1575 34.5566 36.4579 35.2562 36.4579 36.1191L36.4579 43.4108C36.4579 44.2738 37.1575 44.9733 38.0204 44.9733L44.9902 44.9733C46.1517 44.9733 46.9072 43.7509 46.3877 42.712L44.9142 39.765ZM45.456 36.3521L43.866 39.5321C43.7927 39.6787 43.7927 39.8513 43.866 39.9979L45.456 43.1779C45.6292 43.5242 45.3773 43.9316 44.9902 43.9316L38.0204 43.9316C37.7327 43.9316 37.4996 43.6985 37.4996 43.4108L37.4996 36.1191C37.4996 35.8315 37.7327 35.5983 38.0204 35.5983L44.9902 35.5983C45.3773 35.5983 45.6292 36.0058 45.456 36.3521ZM4.54311 36.3521L6.1331 39.532C6.20642 39.6787 6.20642 39.8513 6.1331 39.9979L4.54311 43.1779C4.36996 43.5242 4.62178 43.9316 5.00896 43.9316L11.9787 43.9316C12.2664 43.9316 12.4996 43.6985 12.4996 43.4108L12.4996 36.1191C12.4996 35.8315 12.2664 35.5983 11.9787 35.5983L5.00896 35.5983C4.62178 35.5983 4.36996 36.0058 4.54311 36.3521Z" fill="#9B0F15"/>
<path fill-rule="evenodd" clip-rule="evenodd" d="M5.28724 36.0693C5.38261 35.918 5.54898 35.8262 5.72787 35.8262H7.94141C8.22906 35.8262 8.46224 36.0594 8.46224 36.347C8.46224 36.6347 8.22906 36.8678 7.94141 36.8678H6.55429L7.63002 39.1171C7.75413 39.3766 7.64437 39.6876 7.38487 39.8117C7.12538 39.9358 6.8144 39.826 6.6903 39.5665L5.258 36.5717C5.18082 36.4103 5.19186 36.2206 5.28724 36.0693Z" fill="#DF3840"/>
<path d="M39.582 41.3271L39.582 34.0355C39.582 33.7478 39.3488 33.5146 39.0612 33.5146L10.9362 33.5146C10.6485 33.5146 10.4154 33.7478 10.4154 34.0355L10.4154 41.3271C10.4154 41.6148 10.6485 41.848 10.9362 41.848L39.0612 41.848C39.3488 41.848 39.582 41.6148 39.582 41.3271Z" fill="#F1333B"/>
<path fill-rule="evenodd" clip-rule="evenodd" d="M40.6211 34.0352L40.6211 41.3268C40.6211 42.1898 39.9215 42.8893 39.0586 42.8893L10.9336 42.8893C10.0706 42.8893 9.37109 42.1898 9.37109 41.3268L9.37109 34.0352C9.37109 33.1722 10.0706 32.4727 10.9336 32.4727L39.0586 32.4727C39.9215 32.4727 40.6211 33.1722 40.6211 34.0352ZM39.5794 34.0352L39.5794 41.3268C39.5794 41.6145 39.3462 41.8477 39.0586 41.8477L10.9336 41.8477C10.6459 41.8477 10.4128 41.6145 10.4128 41.3268L10.4128 34.0352C10.4128 33.7475 10.6459 33.5143 10.9336 33.5143L39.0586 33.5143C39.3462 33.5143 39.5794 33.7475 39.5794 34.0352Z" fill="#9B0F15"/>
<path d="M38.1418 37.8789C37.8468 37.8789 37.6078 37.6456 37.6078 37.3579C37.6078 37.0702 37.8468 36.8369 38.1418 36.8369C38.4367 36.8369 38.6758 37.0702 38.6758 37.3579C38.6758 37.6456 38.4367 37.8789 38.1418 37.8789Z" fill="#DB1B24"/>
<path d="M36.1092 37.6711C35.7423 37.6711 35.4449 37.381 35.4449 37.0231C35.4449 36.6651 35.7423 36.375 36.1092 36.375C36.476 36.375 36.7734 36.6651 36.7734 37.0231C36.7734 37.381 36.476 37.6711 36.1092 37.6711Z" fill="#DB1B24"/>
<path d="M37.0155 39.152C36.8321 39.152 36.6834 39.0069 36.6834 38.8279C36.6834 38.649 36.8321 38.5039 37.0155 38.5039C37.199 38.5039 37.3477 38.649 37.3477 38.8279C37.3477 39.0069 37.199 39.152 37.0155 39.152Z" fill="#DB1B24"/>
<path d="M36.4413 35.7252C36.2579 35.7252 36.1092 35.5801 36.1092 35.4012C36.1092 35.2222 36.2579 35.0771 36.4413 35.0771C36.6247 35.0771 36.7734 35.2222 36.7734 35.4012C36.7734 35.5801 36.6247 35.7252 36.4413 35.7252Z" fill="#DB1B24"/>
<path d="M34.6952 38.8287C34.5118 38.8287 34.3631 38.6837 34.3631 38.5047C34.3631 38.3257 34.5118 38.1807 34.6952 38.1807C34.8786 38.1807 35.0273 38.3257 35.0273 38.5047C35.0273 38.6837 34.8786 38.8287 34.6952 38.8287Z" fill="#DB1B24"/>
<path d="M34.3632 37.1608C34.1798 37.1608 34.031 37.0157 34.031 36.8367C34.031 36.6578 34.1798 36.5127 34.3632 36.5127C34.5466 36.5127 34.6953 36.6578 34.6953 36.8367C34.6953 37.0157 34.5466 37.1608 34.3632 37.1608Z" fill="#DB1B24"/>
<path d="M32.0976 40.9195C31.9141 40.9195 31.7654 40.7745 31.7654 40.5955C31.7654 40.4166 31.9141 40.2715 32.0976 40.2715C32.281 40.2715 32.4297 40.4166 32.4297 40.5955C32.4297 40.7745 32.281 40.9195 32.0976 40.9195Z" fill="#DB1B24"/>
<path d="M38.7069 39.6832C38.5235 39.6832 38.3748 39.5381 38.3748 39.3592C38.3748 39.1802 38.5235 39.0352 38.7069 39.0352C38.8904 39.0352 39.0391 39.1802 39.0391 39.3592C39.0391 39.5381 38.8904 39.6832 38.7069 39.6832Z" fill="#DB1B24"/>
<path d="M35.5688 40.3926C35.2703 40.3926 35.0283 40.1565 35.0283 39.8652C35.0283 39.574 35.2703 39.3379 35.5688 39.3379C35.8674 39.3379 36.1094 39.574 36.1094 39.8652C36.1094 40.1565 35.8674 40.3926 35.5688 40.3926Z" fill="#DB1B24"/>
<path d="M37.8853 40.9199C37.5867 40.9199 37.3447 40.6838 37.3447 40.3926C37.3447 40.1013 37.5867 39.8652 37.8853 39.8652C38.1838 39.8652 38.4258 40.1013 38.4258 40.3926C38.4258 40.6838 38.1838 40.9199 37.8853 40.9199Z" fill="#DB1B24"/>
<path d="M33.1587 39.8828C32.8602 39.8828 32.6182 39.6467 32.6182 39.3555C32.6182 39.0642 32.8602 38.8281 33.1587 38.8281C33.4572 38.8281 33.6992 39.0642 33.6992 39.3555C33.6992 39.6467 33.4572 39.8828 33.1587 39.8828Z" fill="#DB1B24"/>
<path d="M34.0311 41.0797C33.8477 41.0797 33.699 40.9346 33.699 40.7557C33.699 40.5767 33.8477 40.4316 34.0311 40.4316C34.2146 40.4316 34.3633 40.5767 34.3633 40.7557C34.3633 40.9346 34.2146 41.0797 34.0311 41.0797Z" fill="#DB1B24"/>
<path fill-rule="evenodd" clip-rule="evenodd" d="M10.7383 34.263C10.7383 33.9754 10.9715 33.7422 11.2591 33.7422H30.7904C31.078 33.7422 31.3112 33.9754 31.3112 34.263C31.3112 34.5507 31.078 34.7839 30.7904 34.7839H11.7799V38.4297C11.7799 38.7173 11.5468 38.9505 11.2591 38.9505C10.9715 38.9505 10.7383 38.7173 10.7383 38.4297V34.263Z" fill="#FE666D"/>
<path d="M26.3438 27.5132H24.4492V20.2102L22.1875 20.9117V19.3711L26.1405 17.9551H26.3438V27.5132Z" fill="#FFEF9C"/>
<path fill-rule="evenodd" clip-rule="evenodd" d="M27.4642 27.5129C27.4642 28.1308 26.9633 28.6317 26.3454 28.6317H24.4508C23.8329 28.6317 23.332 28.1308 23.332 27.5129V21.7283L22.5206 21.98C22.181 22.0853 21.8116 22.023 21.5255 21.8121C21.2393 21.6012 21.0703 21.2668 21.0703 20.9114V19.3708C21.0703 18.8983 21.3671 18.4768 21.8118 18.3175L25.7649 16.9015C25.886 16.8581 26.0136 16.8359 26.1422 16.8359H26.3454C26.9633 16.8359 27.4642 17.3369 27.4642 17.9548V27.5129ZM24.4508 20.2099V27.5129H26.3454V17.9548H26.1422L22.1891 19.3708V20.9114L24.4508 20.2099Z" fill="#E89B05"/>
</svg>
