<svg width="51" height="50" viewBox="0 0 51 50" fill="none" xmlns="http://www.w3.org/2000/svg">
<path d="M38.3372 4.49316C38.9125 4.49316 39.3789 4.95953 39.3789 5.53483L39.3789 11.7848C39.3789 12.3601 38.9125 12.8265 38.3372 12.8265L12.2956 12.8265C11.7203 12.8265 11.2539 12.3601 11.2539 11.7848L11.2539 5.53483C11.2539 4.95953 11.7203 4.49316 12.2956 4.49316L38.3372 4.49316Z" fill="#C52229"/>
<path fill-rule="evenodd" clip-rule="evenodd" d="M40.418 5.53548L40.418 11.7855C40.418 12.9361 39.4852 13.8688 38.3346 13.8688L12.293 13.8688C11.1424 13.8688 10.2096 12.9361 10.2096 11.7855L10.2096 5.53548C10.2096 4.38489 11.1424 3.45215 12.293 3.45215L38.3346 3.45215C39.4852 3.45215 40.418 4.38489 40.418 5.53548ZM39.3763 5.53548C39.3763 4.96019 38.9099 4.49381 38.3346 4.49381L12.293 4.49381C11.7177 4.49381 11.2513 4.96018 11.2513 5.53548L11.2513 11.7855C11.2513 12.3608 11.7177 12.8271 12.293 12.8271L38.3346 12.8271C38.9099 12.8271 39.3763 12.3608 39.3763 11.7855L39.3763 5.53548Z" fill="#9B0F15"/>
<path fill-rule="evenodd" clip-rule="evenodd" d="M12.1992 5.014C12.1992 4.72635 12.4324 4.49316 12.7201 4.49316H38.2058C38.4935 4.49316 38.7267 4.72635 38.7267 5.014C38.7267 5.30165 38.4935 5.53483 38.2058 5.53483H12.7201C12.4324 5.53483 12.1992 5.30165 12.1992 5.014Z" fill="#DF3840"/>
<path fill-rule="evenodd" clip-rule="evenodd" d="M12 8.04134C12 7.75369 12.2332 7.52051 12.5208 7.52051H38.0066C38.2943 7.52051 38.5274 7.75369 38.5274 8.04134C38.5274 8.32899 38.2943 8.56217 38.0066 8.56217H12.5208C12.2332 8.56217 12 8.32899 12 8.04134Z" fill="#AF1B22"/>
<path fill-rule="evenodd" clip-rule="evenodd" d="M12 6.12142C12 5.83377 12.2332 5.60059 12.5208 5.60059H38.0066C38.2943 5.60059 38.5274 5.83377 38.5274 6.12142C38.5274 6.40907 38.2943 6.64225 38.0066 6.64225H12.5208C12.2332 6.64225 12 6.40907 12 6.12142Z" fill="#AF1B22"/>
<path fill-rule="evenodd" clip-rule="evenodd" d="M12 9.93001C12 9.64236 12.2332 9.40918 12.5208 9.40918H38.0066C38.2943 9.40918 38.5274 9.64236 38.5274 9.93001C38.5274 10.2177 38.2943 10.4508 38.0066 10.4508H12.5208C12.2332 10.4508 12 10.2177 12 9.93001Z" fill="#AF1B22"/>
<path fill-rule="evenodd" clip-rule="evenodd" d="M12.1992 11.6546C12.1992 11.367 12.4324 11.1338 12.7201 11.1338H38.2058C38.4935 11.1338 38.7267 11.367 38.7267 11.6546C38.7267 11.9423 38.4935 12.1755 38.2058 12.1755H12.7201C12.4324 12.1755 12.1992 11.9423 12.1992 11.6546Z" fill="#AF1B22"/>
<path d="M12.8616 4.90356C12.4548 4.49677 11.7952 4.49677 11.3884 4.90356L6.96901 9.32298C6.56222 9.72977 6.56222 10.3893 6.96901 10.7961L24.736 28.5631C25.1428 28.9699 25.8024 28.9699 26.2092 28.5631L30.6286 24.1437C31.0354 23.7369 31.0354 23.0774 30.6286 22.6706L12.8616 4.90356Z" fill="#F1333B"/>
<path fill-rule="evenodd" clip-rule="evenodd" d="M10.6519 4.16747L6.23244 8.58689C5.41885 9.40048 5.41885 10.7196 6.23244 11.5332L23.9995 29.3002C24.8131 30.1138 26.1322 30.1138 26.9458 29.3002L31.3652 24.8808C32.1788 24.0672 32.1788 22.7481 31.3652 21.9345L13.5981 4.16747C12.7845 3.35388 11.4655 3.35388 10.6519 4.16747ZM11.3884 4.90404C11.7952 4.49725 12.4548 4.49725 12.8616 4.90404L30.6286 22.6711C31.0354 23.0779 31.0354 23.7374 30.6286 24.1442L26.2092 28.5636C25.8024 28.9704 25.1428 28.9704 24.736 28.5636L6.96901 10.7966C6.56222 10.3898 6.56222 9.73026 6.96901 9.32346L11.3884 4.90404Z" fill="#9B0F15"/>
<path d="M37.7573 4.9235C38.1624 4.50716 38.8297 4.50258 39.2405 4.91333L43.6598 9.33261C44.0626 9.73546 44.0671 10.3872 43.6698 10.7956L26.4034 28.5424C25.9983 28.9587 25.331 28.9633 24.9202 28.5526L20.5009 24.1333C20.0981 23.7304 20.0936 23.0787 20.4909 22.6703L37.7573 4.9235Z" fill="#F1333B"/>
<path fill-rule="evenodd" clip-rule="evenodd" d="M39.977 4.17724L44.3963 8.59652C45.202 9.40223 45.211 10.7058 44.4164 11.5225L27.15 29.2693C26.3398 30.102 25.0051 30.1111 24.1836 29.2896L19.7644 24.8703C18.9586 24.0646 18.9497 22.7611 19.7443 21.9444L37.0107 4.19759C37.8208 3.3649 39.1556 3.35575 39.977 4.17724ZM39.2405 4.91381C38.8297 4.50306 38.1624 4.50764 37.7573 4.92399L20.4909 22.6708C20.0936 23.0791 20.0981 23.7309 20.5009 24.1338L24.9202 28.553C25.331 28.9638 25.9983 28.9592 26.4034 28.5429L43.6698 10.7961C44.0671 10.3877 44.0626 9.73595 43.6598 9.33309L39.2405 4.91381Z" fill="#9B0F15"/>
<path fill-rule="evenodd" clip-rule="evenodd" d="M38.6023 5.36083C38.8066 5.5633 38.8081 5.89307 38.6056 6.09739L27.9611 16.8396C27.7586 17.0439 27.4289 17.0454 27.2245 16.8429C27.0202 16.6405 27.0187 16.3107 27.2212 16.1064L37.8657 5.3642C38.0682 5.15987 38.398 5.15836 38.6023 5.36083Z" fill="#FE666D"/>
<path fill-rule="evenodd" clip-rule="evenodd" d="M7.10567 9.72384C7.30907 9.52044 7.63885 9.52044 7.84224 9.72384L14.6131 16.4947C14.8165 16.6981 14.8165 17.0278 14.6131 17.2312C14.4097 17.4346 14.0799 17.4346 13.8765 17.2312L7.10567 10.4604C6.90228 10.257 6.90228 9.92724 7.10567 9.72384Z" fill="#FE666D"/>
<path d="M40.7186 8.3478C40.51 8.55634 40.176 8.56047 39.9726 8.35701C39.7691 8.15355 39.7732 7.81955 39.9818 7.611C40.1903 7.40246 40.5243 7.39833 40.7278 7.60179C40.9312 7.80525 40.9271 8.13925 40.7186 8.3478Z" fill="#DB1B24"/>
<path d="M39.1343 9.63718C38.8749 9.89659 38.4594 9.90172 38.2063 9.64863C37.9533 9.39555 37.9584 8.98009 38.2178 8.72068C38.4772 8.46127 38.8927 8.45614 39.1457 8.70923C39.3988 8.96231 39.3937 9.37777 39.1343 9.63718Z" fill="#DB1B24"/>
<path d="M40.8211 10.0447C40.6913 10.1744 40.4836 10.1769 40.3571 10.0504C40.2305 9.92385 40.2331 9.71612 40.3628 9.58641C40.4925 9.45671 40.7002 9.45414 40.8268 9.58069C40.9533 9.70723 40.9508 9.91496 40.8211 10.0447Z" fill="#DB1B24"/>
<path d="M37.0711 14.4451C36.9413 14.5748 36.7336 14.5773 36.6071 14.4508C36.4805 14.3242 36.4831 14.1165 36.6128 13.9868C36.7425 13.8571 36.9502 13.8545 37.0768 13.9811C37.2033 14.1076 37.2008 14.3153 37.0711 14.4451Z" fill="#DB1B24"/>
<path d="M38.9539 11.4548C38.8242 11.5845 38.6164 11.5871 38.4899 11.4605C38.3633 11.334 38.3659 11.1263 38.4956 10.9966C38.6253 10.8669 38.8331 10.8643 38.9596 10.9908C39.0861 11.1174 39.0836 11.3251 38.9539 11.4548Z" fill="#DB1B24"/>
<path d="M37.0632 16.238C36.9335 16.3677 36.7258 16.3703 36.5993 16.2438C36.4727 16.1172 36.4753 15.9095 36.605 15.7798C36.7347 15.6501 36.9424 15.6475 37.069 15.774C37.1955 15.9006 37.1929 16.1083 37.0632 16.238Z" fill="#DB1B24"/>
<path d="M37.5398 11.0583C37.4101 11.188 37.2024 11.1906 37.0758 11.0641C36.9493 10.9375 36.9518 10.7298 37.0816 10.6001C37.2113 10.4704 37.419 10.4678 37.5455 10.5944C37.6721 10.7209 37.6695 10.9286 37.5398 11.0583Z" fill="#DB1B24"/>
<path d="M38.5945 14.7693C38.4648 14.899 38.2571 14.9015 38.1305 14.775C38.004 14.6485 38.0065 14.4407 38.1362 14.311C38.2659 14.1813 38.4737 14.1788 38.6002 14.3053C38.7268 14.4318 38.7242 14.6396 38.5945 14.7693Z" fill="#DB1B24"/>
<path d="M42.3953 9.2224C42.2656 9.3521 42.0578 9.35467 41.9313 9.22813C41.8048 9.10158 41.8073 8.89385 41.937 8.76415C42.0667 8.63444 42.2745 8.63188 42.401 8.75842C42.5275 8.88496 42.525 9.09269 42.3953 9.2224Z" fill="#DB1B24"/>
<path d="M40.6761 11.9434C40.465 12.1545 40.1269 12.1587 39.921 11.9527C39.715 11.7468 39.7192 11.4087 39.9303 11.1976C40.1414 10.9866 40.4794 10.9824 40.6854 11.1883C40.8913 11.3943 40.8872 11.7323 40.6761 11.9434Z" fill="#DB1B24"/>
<path d="M42.6878 10.6768C42.4767 10.8879 42.1386 10.8921 41.9327 10.6861C41.7267 10.4802 41.7309 10.1421 41.942 9.93104C42.1531 9.71995 42.4912 9.71578 42.6971 9.92172C42.903 10.1277 42.8989 10.4657 42.6878 10.6768Z" fill="#DB1B24"/>
<path d="M38.6136 13.2872C38.4025 13.4983 38.0644 13.5024 37.8585 13.2965C37.6525 13.0905 37.6567 12.7525 37.8678 12.5414C38.0789 12.3303 38.4169 12.3261 38.6229 12.5321C38.8288 12.738 38.8247 13.0761 38.6136 13.2872Z" fill="#DB1B24"/>
<path d="M40.075 13.5163C39.9453 13.646 39.7375 13.6486 39.611 13.5221C39.4844 13.3955 39.487 13.1878 39.6167 13.0581C39.7464 12.9284 39.9541 12.9258 40.0807 13.0524C40.2072 13.1789 40.2047 13.3866 40.075 13.5163Z" fill="#DB1B24"/>
<path d="M39.5664 31.7705C39.5664 39.537 33.2704 45.833 25.5039 45.833C17.7374 45.833 11.4414 39.537 11.4414 31.7705C11.4414 24.004 17.7374 17.708 25.5039 17.708C33.2704 17.708 39.5664 24.004 39.5664 31.7705Z" fill="#FFBB0D"/>
<path fill-rule="evenodd" clip-rule="evenodd" d="M40.6068 31.7702C40.6068 40.112 33.8444 46.8743 25.5026 46.8743C17.1608 46.8743 10.3984 40.112 10.3984 31.7702C10.3984 23.4284 17.1608 16.666 25.5026 16.666C33.8444 16.666 40.6068 23.4284 40.6068 31.7702ZM25.5026 45.8327C33.2691 45.8327 39.5651 39.5367 39.5651 31.7702C39.5651 24.0037 33.2691 17.7077 25.5026 17.7077C17.7361 17.7077 11.4401 24.0037 11.4401 31.7702C11.4401 39.5367 17.7361 45.8327 25.5026 45.8327Z" fill="#E89B05"/>
<path fill-rule="evenodd" clip-rule="evenodd" d="M12.4818 32.291C12.1941 32.291 11.9609 32.0578 11.9609 31.7702C11.9609 24.2913 18.0237 18.2285 25.5026 18.2285C25.7903 18.2285 26.0234 18.4617 26.0234 18.7493C26.0234 19.037 25.7903 19.2702 25.5026 19.2702C18.599 19.2702 13.0026 24.8666 13.0026 31.7702C13.0026 32.0578 12.7694 32.291 12.4818 32.291Z" fill="#E8AA0A"/>
<path fill-rule="evenodd" clip-rule="evenodd" d="M38.526 31.25C38.8137 31.25 39.0469 31.4832 39.0469 31.7708C39.0469 39.2497 32.9841 45.3125 25.5052 45.3125C25.2176 45.3125 24.9844 45.0793 24.9844 44.7917C24.9844 44.504 25.2176 44.2708 25.5052 44.2708C32.4088 44.2708 38.0052 38.6744 38.0052 31.7708C38.0052 31.4832 38.2384 31.25 38.526 31.25Z" fill="#E8AA0A"/>
<path d="M35.9193 31.7702C35.9193 37.5231 31.2556 42.1868 25.5026 42.1868C19.7496 42.1868 15.0859 37.5231 15.0859 31.7702C15.0859 26.0172 19.7496 21.3535 25.5026 21.3535C31.2556 21.3535 35.9193 26.0172 35.9193 31.7702Z" fill="#FFDD28"/>
<path fill-rule="evenodd" clip-rule="evenodd" d="M36.9635 31.7708C36.9635 38.0991 31.8335 43.2292 25.5052 43.2292C19.1769 43.2292 14.0469 38.0991 14.0469 31.7708C14.0469 25.4426 19.1769 20.3125 25.5052 20.3125C31.8335 20.3125 36.9635 25.4426 36.9635 31.7708ZM25.5052 42.1875C31.2582 42.1875 35.9219 37.5238 35.9219 31.7708C35.9219 26.0179 31.2582 21.3542 25.5052 21.3542C19.7522 21.3542 15.0885 26.0179 15.0885 31.7708C15.0885 37.5238 19.7522 42.1875 25.5052 42.1875Z" fill="#E89B05"/>
<path fill-rule="evenodd" clip-rule="evenodd" d="M25.5026 40.6243C30.3926 40.6243 34.3568 36.6602 34.3568 31.7702C34.3568 31.4825 34.59 31.2493 34.8776 31.2493C35.1653 31.2493 35.3984 31.4825 35.3984 31.7702C35.3984 37.2355 30.9679 41.666 25.5026 41.666C25.215 41.666 24.9818 41.4328 24.9818 41.1452C24.9818 40.8575 25.215 40.6243 25.5026 40.6243Z" fill="#ECC704"/>
<path fill-rule="evenodd" clip-rule="evenodd" d="M25.5052 22.9167C20.6152 22.9167 16.651 26.8808 16.651 31.7708C16.651 32.0585 16.4179 32.2917 16.1302 32.2917C15.8426 32.2917 15.6094 32.0585 15.6094 31.7708C15.6094 26.3055 20.0399 21.875 25.5052 21.875C25.7929 21.875 26.026 22.1082 26.026 22.3958C26.026 22.6835 25.7929 22.9167 25.5052 22.9167Z" fill="#FFEF9C"/>
<path d="M26.7485 35.937H24.9846V29.1377L22.8789 29.7908V28.3564L26.5593 27.0381H26.7485V35.937Z" fill="#FFEF9C"/>
<path fill-rule="evenodd" clip-rule="evenodd" d="M27.7889 35.9367C27.7889 36.512 27.3225 36.9784 26.7472 36.9784H24.9833C24.408 36.9784 23.9417 36.512 23.9417 35.9367V30.5511L23.1862 30.7854C22.87 30.8834 22.5261 30.8254 22.2597 30.629C21.9932 30.4327 21.8359 30.1214 21.8359 29.7904V28.3561C21.8359 27.9163 22.1122 27.5238 22.5263 27.3755L26.2067 26.0571C26.3195 26.0167 26.4383 25.9961 26.558 25.9961H26.7472C27.3225 25.9961 27.7889 26.4625 27.7889 27.0378V35.9367ZM24.9833 29.1374V35.9367H26.7472V27.0378H26.558L22.8776 28.3561V29.7904L24.9833 29.1374Z" fill="#E89B05"/>
</svg>
