<svg width="30" height="30" viewBox="0 0 30 30" fill="none" xmlns="http://www.w3.org/2000/svg">
<path fill-rule="evenodd" clip-rule="evenodd" d="M15 4.9C13.6737 4.9 12.3603 5.16124 11.1349 5.66881C9.90951 6.17639 8.7961 6.92035 7.85823 7.85822C6.92035 8.79609 6.17639 9.9095 5.66882 11.1349C5.16125 12.3603 4.9 13.6736 4.9 15C4.9 16.3263 5.16124 17.6397 5.66882 18.8651C6.17639 20.0905 6.92035 21.2039 7.85822 22.1418C8.79609 23.0796 9.90951 23.8236 11.1349 24.3312C12.3603 24.8388 13.6736 25.1 15 25.1C16.3263 25.1 17.6397 24.8388 18.8651 24.3312C20.0905 23.8236 21.2039 23.0797 22.1418 22.1418C23.0796 21.2039 23.8236 20.0905 24.3312 18.8651C24.8388 17.6397 25.1 16.3264 25.1 15C25.1 13.6737 24.8388 12.3603 24.3312 11.1349C23.8236 9.90951 23.0797 8.79609 22.1418 7.85822C21.2039 6.92035 20.0905 6.17639 18.8651 5.66882C17.6397 5.16124 16.3264 4.9 15 4.9ZM10.2165 3.4515C11.733 2.82332 13.3585 2.5 15 2.5C16.6415 2.5 18.267 2.82332 19.7835 3.45151C21.3001 4.07969 22.6781 5.00043 23.8388 6.16117C24.9996 7.3219 25.9203 8.69989 26.5485 10.2165C27.1767 11.733 27.5 13.3585 27.5 15C27.5 16.6415 27.1767 18.267 26.5485 19.7835C25.9203 21.3001 24.9996 22.6781 23.8388 23.8388C22.6781 24.9996 21.3001 25.9203 19.7835 26.5485C18.267 27.1767 16.6415 27.5 15 27.5C13.3585 27.5 11.733 27.1767 10.2165 26.5485C8.69988 25.9203 7.32189 24.9996 6.16116 23.8388C5.00043 22.6781 4.07969 21.3001 3.4515 19.7835C2.82332 18.267 2.5 16.6415 2.5 15C2.5 13.3585 2.82332 11.733 3.45151 10.2165C4.07969 8.69988 5.00044 7.32189 6.16117 6.16116C7.3219 5.00043 8.69989 4.07969 10.2165 3.4515Z" fill="#B542FB"/>
<path fill-rule="evenodd" clip-rule="evenodd" d="M15.1999 12.5C15.8626 12.5 16.3999 13.0373 16.3999 13.7L16.3999 20.05C16.3999 20.7127 15.8626 21.25 15.1999 21.25C14.5372 21.25 13.9999 20.7127 13.9999 20.05L13.9999 13.7C13.9999 13.0373 14.5372 12.5 15.1999 12.5Z" fill="#B542FB"/>
<circle cx="15.2" cy="9.2" r="1.2" fill="#B542FB"/>
</svg>
