<svg width="30" height="30" viewBox="0 0 30 30" fill="none" xmlns="http://www.w3.org/2000/svg">
<g clip-path="url(#clip0_1188_756)">
<path d="M14.0628 5.625H17.8128C18.0614 5.625 18.2999 5.52623 18.4757 5.35041C18.6515 5.1746 18.7503 4.93614 18.7503 4.6875V2.8125C18.7503 2.56386 18.6515 2.3254 18.4757 2.14959C18.2999 1.97377 18.0614 1.875 17.8128 1.875H14.0628C13.8141 1.875 13.5757 1.97377 13.3998 2.14959C13.224 2.3254 13.1253 2.56386 13.1253 2.8125V4.6875C13.1253 4.93614 13.224 5.1746 13.3998 5.35041C13.5757 5.52623 13.8141 5.625 14.0628 5.625ZM14.0628 13.125H21.5628C21.8114 13.125 22.0499 13.0262 22.2257 12.8504C22.4015 12.6746 22.5003 12.4361 22.5003 12.1875V10.3125C22.5003 10.0639 22.4015 9.8254 22.2257 9.64959C22.0499 9.47377 21.8114 9.375 21.5628 9.375H14.0628C13.8141 9.375 13.5757 9.47377 13.3998 9.64959C13.224 9.8254 13.1253 10.0639 13.1253 10.3125V12.1875C13.1253 12.4361 13.224 12.6746 13.3998 12.8504C13.5757 13.0262 13.8141 13.125 14.0628 13.125ZM29.0628 24.375H14.0628C13.8141 24.375 13.5757 24.4738 13.3998 24.6496C13.224 24.8254 13.1253 25.0639 13.1253 25.3125V27.1875C13.1253 27.4361 13.224 27.6746 13.3998 27.8504C13.5757 28.0262 13.8141 28.125 14.0628 28.125H29.0628C29.3114 28.125 29.5499 28.0262 29.7257 27.8504C29.9015 27.6746 30.0003 27.4361 30.0003 27.1875V25.3125C30.0003 25.0639 29.9015 24.8254 29.7257 24.6496C29.5499 24.4738 29.3114 24.375 29.0628 24.375ZM14.0628 20.625H25.3128C25.5614 20.625 25.7999 20.5262 25.9757 20.3504C26.1515 20.1746 26.2503 19.9361 26.2503 19.6875V17.8125C26.2503 17.5639 26.1515 17.3254 25.9757 17.1496C25.7999 16.9738 25.5614 16.875 25.3128 16.875H14.0628C13.8141 16.875 13.5757 16.9738 13.3998 17.1496C13.224 17.3254 13.1253 17.5639 13.1253 17.8125V19.6875C13.1253 19.9361 13.224 20.1746 13.3998 20.3504C13.5757 20.5262 13.8141 20.625 14.0628 20.625ZM0.937761 9.375H3.75026V27.1875C3.75026 27.4361 3.84903 27.6746 4.02485 27.8504C4.20066 28.0262 4.43912 28.125 4.68776 28.125H6.56276C6.8114 28.125 7.04986 28.0262 7.22567 27.8504C7.40149 27.6746 7.50026 27.4361 7.50026 27.1875V9.375H10.3128C11.1454 9.375 11.5661 8.36484 10.9755 7.77481L6.28796 2.1498C6.11216 1.97412 5.87379 1.87543 5.62526 1.87543C5.37673 1.87543 5.13836 1.97412 4.96257 2.1498L0.275066 7.77481C-0.313216 8.36367 0.104558 9.375 0.937761 9.375Z" fill="#B542FB"/>
</g>
<defs>
<clipPath id="clip0_1188_756">
<rect width="30" height="30" fill="white"/>
</clipPath>
</defs>
</svg>
