<svg width="30" height="30" viewBox="0 0 30 30" fill="none" xmlns="http://www.w3.org/2000/svg">
<path fill-rule="evenodd" clip-rule="evenodd" d="M2.85291 15.7972C2.44877 15.3425 2.44877 14.6574 2.85291 14.2027L9.51958 6.7027C9.95988 6.20736 10.7184 6.16275 11.2137 6.60305C11.709 7.04335 11.7537 7.80183 11.3134 8.29717L6.42202 13.7999L21.2498 13.7999C21.9125 13.7999 22.4498 14.3372 22.4498 14.9999C22.4498 15.6627 21.9125 16.1999 21.2498 16.1999L6.42202 16.1999L11.3134 21.7027C11.7537 22.198 11.709 22.9565 11.2137 23.3968C10.7184 23.8371 9.95988 23.7925 9.51958 23.2972L2.85291 15.7972Z" fill="#C2CFE0"/>
<path fill-rule="evenodd" clip-rule="evenodd" d="M20.0498 27.5C20.0498 26.8372 20.5871 26.3 21.2498 26.3L25.0498 26.3L25.0498 3.69995L21.2498 3.69995C20.5871 3.69995 20.0498 3.16269 20.0498 2.49995C20.0498 1.83721 20.5871 1.29995 21.2498 1.29995L26.2498 1.29995C26.9125 1.29995 27.4498 1.83721 27.4498 2.49995L27.4498 27.5C27.4498 28.1627 26.9125 28.7 26.2498 28.7L21.2498 28.7C20.5871 28.7 20.0498 28.1627 20.0498 27.5Z" fill="#C2CFE0"/>
</svg>
