<svg width="30" height="30" viewBox="0 0 30 30" fill="none" xmlns="http://www.w3.org/2000/svg">
<path fill-rule="evenodd" clip-rule="evenodd" d="M13.8 3.7C13.8 3.03726 14.3373 2.5 15 2.5C17.4723 2.5 19.889 3.23311 21.9446 4.60663C24.0002 5.98015 25.6024 7.93238 26.5485 10.2165C27.4946 12.5005 27.7421 15.0139 27.2598 17.4386C26.7775 19.8634 25.587 22.0907 23.8388 23.8388C22.0907 25.587 19.8634 26.7775 17.4386 27.2598C15.0139 27.7421 12.5005 27.4946 10.2165 26.5485C7.93238 25.6024 5.98015 24.0002 4.60663 21.9446C3.23311 19.889 2.5 17.4723 2.5 15C2.5 14.3373 3.03726 13.8 3.7 13.8C4.36274 13.8 4.9 14.3373 4.9 15C4.9 16.9976 5.49235 18.9503 6.60216 20.6113C7.71196 22.2722 9.28936 23.5667 11.1349 24.3312C12.9804 25.0956 15.0112 25.2956 16.9704 24.9059C18.9296 24.5162 20.7293 23.5543 22.1418 22.1418C23.5543 20.7293 24.5162 18.9296 24.9059 16.9704C25.2956 15.0112 25.0956 12.9804 24.3312 11.1349C23.5667 9.28936 22.2722 7.71196 20.6113 6.60216C18.9503 5.49235 16.9976 4.9 15 4.9C14.3373 4.9 13.8 4.36274 13.8 3.7Z" fill="#B542FB"/>
</svg>
