<svg width="30" height="30" viewBox="0 0 30 30" fill="none" xmlns="http://www.w3.org/2000/svg">
<path fill-rule="evenodd" clip-rule="evenodd" d="M11.8327 16.7692C7.93649 17.461 3.33301 19.3063 3.33301 22.2916V26.6666H26.6663V22.2916C26.6663 19.3063 22.0629 17.461 18.1667 16.7692C17.0001 16.562 15.8969 16.4583 14.9997 16.4583C14.1025 16.4583 12.9993 16.562 11.8327 16.7692ZM12.1902 14.2806C13.0234 14.7391 13.981 14.9999 14.9997 14.9999C16.0184 14.9999 16.9759 14.7391 17.8091 14.2806C19.612 13.2885 20.833 11.3708 20.833 9.16659C20.833 5.94367 18.2226 3.33325 14.9997 3.33325C11.7768 3.33325 9.16634 5.94367 9.16634 9.16659C9.16634 11.3708 10.3873 13.2885 12.1902 14.2806ZM24.2663 24.2666V22.2916C24.2663 22.2033 24.2412 21.9483 23.7632 21.5072C23.269 21.0511 22.4692 20.5762 21.4007 20.1481C19.2598 19.2905 16.6465 18.8583 14.9997 18.8583C13.3528 18.8583 10.7395 19.2905 8.59867 20.1481C7.53017 20.5762 6.73034 21.0511 6.23611 21.5072C5.75819 21.9483 5.73301 22.2033 5.73301 22.2916V24.2666H24.2663ZM14.9997 5.73325C13.1022 5.73325 11.5663 7.26915 11.5663 9.16659C11.5663 11.064 13.1022 12.5999 14.9997 12.5999C16.8971 12.5999 18.433 11.064 18.433 9.16659C18.433 7.26915 16.8971 5.73325 14.9997 5.73325Z" fill="#C2CFE0"/>
</svg>
