<svg width="51" height="50" viewBox="0 0 51 50" fill="none" xmlns="http://www.w3.org/2000/svg">
<path d="M38.3333 4.49316C38.9086 4.49316 39.375 4.95953 39.375 5.53483L39.375 11.7848C39.375 12.3601 38.9086 12.8265 38.3333 12.8265L12.2917 12.8265C11.7164 12.8265 11.25 12.3601 11.25 11.7848L11.25 5.53483C11.25 4.95953 11.7164 4.49316 12.2917 4.49316L38.3333 4.49316Z" fill="#C52229"/>
<path fill-rule="evenodd" clip-rule="evenodd" d="M40.418 5.53548L40.418 11.7855C40.418 12.9361 39.4852 13.8688 38.3346 13.8688L12.293 13.8688C11.1424 13.8688 10.2096 12.9361 10.2096 11.7855L10.2096 5.53548C10.2096 4.38489 11.1424 3.45215 12.293 3.45215L38.3346 3.45215C39.4852 3.45215 40.418 4.38489 40.418 5.53548ZM39.3763 5.53548C39.3763 4.96019 38.9099 4.49381 38.3346 4.49381L12.293 4.49381C11.7177 4.49381 11.2513 4.96018 11.2513 5.53548L11.2513 11.7855C11.2513 12.3608 11.7177 12.8271 12.293 12.8271L38.3346 12.8271C38.9099 12.8271 39.3763 12.3608 39.3763 11.7855L39.3763 5.53548Z" fill="#9B0F15"/>
<path fill-rule="evenodd" clip-rule="evenodd" d="M12.1953 5.014C12.1953 4.72635 12.4285 4.49316 12.7161 4.49316H38.2019C38.4896 4.49316 38.7228 4.72635 38.7228 5.014C38.7228 5.30165 38.4896 5.53483 38.2019 5.53483H12.7161C12.4285 5.53483 12.1953 5.30165 12.1953 5.014Z" fill="#DF3840"/>
<path fill-rule="evenodd" clip-rule="evenodd" d="M12 8.04134C12 7.75369 12.2332 7.52051 12.5208 7.52051H38.0066C38.2943 7.52051 38.5274 7.75369 38.5274 8.04134C38.5274 8.32899 38.2943 8.56217 38.0066 8.56217H12.5208C12.2332 8.56217 12 8.32899 12 8.04134Z" fill="#AF1B22"/>
<path fill-rule="evenodd" clip-rule="evenodd" d="M12 6.12142C12 5.83377 12.2332 5.60059 12.5208 5.60059H38.0066C38.2943 5.60059 38.5274 5.83377 38.5274 6.12142C38.5274 6.40907 38.2943 6.64225 38.0066 6.64225H12.5208C12.2332 6.64225 12 6.40907 12 6.12142Z" fill="#AF1B22"/>
<path fill-rule="evenodd" clip-rule="evenodd" d="M12 9.93001C12 9.64236 12.2332 9.40918 12.5208 9.40918H38.0066C38.2943 9.40918 38.5274 9.64236 38.5274 9.93001C38.5274 10.2177 38.2943 10.4508 38.0066 10.4508H12.5208C12.2332 10.4508 12 10.2177 12 9.93001Z" fill="#AF1B22"/>
<path fill-rule="evenodd" clip-rule="evenodd" d="M12.1953 11.6546C12.1953 11.367 12.4285 11.1338 12.7161 11.1338H38.2019C38.4896 11.1338 38.7228 11.367 38.7228 11.6546C38.7228 11.9423 38.4896 12.1755 38.2019 12.1755H12.7161C12.4285 12.1755 12.1953 11.9423 12.1953 11.6546Z" fill="#AF1B22"/>
<path d="M12.8616 4.90356C12.4548 4.49677 11.7952 4.49677 11.3884 4.90356L6.96901 9.32298C6.56222 9.72977 6.56222 10.3893 6.96901 10.7961L24.736 28.5631C25.1428 28.9699 25.8024 28.9699 26.2092 28.5631L30.6286 24.1437C31.0354 23.7369 31.0354 23.0774 30.6286 22.6706L12.8616 4.90356Z" fill="#F1333B"/>
<path fill-rule="evenodd" clip-rule="evenodd" d="M10.6519 4.16747L6.23244 8.58689C5.41885 9.40048 5.41885 10.7196 6.23244 11.5332L23.9995 29.3002C24.8131 30.1138 26.1322 30.1138 26.9458 29.3002L31.3652 24.8808C32.1788 24.0672 32.1788 22.7481 31.3652 21.9345L13.5981 4.16747C12.7845 3.35388 11.4655 3.35388 10.6519 4.16747ZM11.3884 4.90404C11.7952 4.49725 12.4548 4.49725 12.8616 4.90404L30.6286 22.6711C31.0354 23.0779 31.0354 23.7374 30.6286 24.1442L26.2092 28.5636C25.8024 28.9704 25.1428 28.9704 24.736 28.5636L6.96901 10.7966C6.56222 10.3898 6.56222 9.73026 6.96901 9.32346L11.3884 4.90404Z" fill="#9B0F15"/>
<path d="M37.7573 4.9235C38.1624 4.50716 38.8297 4.50258 39.2405 4.91333L43.6598 9.33261C44.0626 9.73546 44.0671 10.3872 43.6698 10.7956L26.4034 28.5424C25.9983 28.9587 25.331 28.9633 24.9202 28.5526L20.5009 24.1333C20.0981 23.7304 20.0936 23.0787 20.4909 22.6703L37.7573 4.9235Z" fill="#F1333B"/>
<path fill-rule="evenodd" clip-rule="evenodd" d="M39.977 4.17724L44.3963 8.59652C45.202 9.40223 45.211 10.7058 44.4164 11.5225L27.15 29.2693C26.3398 30.102 25.0051 30.1111 24.1836 29.2896L19.7644 24.8703C18.9586 24.0646 18.9497 22.7611 19.7443 21.9444L37.0107 4.19759C37.8208 3.3649 39.1556 3.35575 39.977 4.17724ZM39.2405 4.91381C38.8297 4.50306 38.1624 4.50764 37.7573 4.92399L20.4909 22.6708C20.0936 23.0791 20.0981 23.7309 20.5009 24.1338L24.9202 28.553C25.331 28.9638 25.9983 28.9592 26.4034 28.5429L43.6698 10.7961C44.0671 10.3877 44.0626 9.73595 43.6598 9.33309L39.2405 4.91381Z" fill="#9B0F15"/>
<path fill-rule="evenodd" clip-rule="evenodd" d="M38.6023 5.36083C38.8066 5.5633 38.8081 5.89307 38.6056 6.09739L27.9611 16.8396C27.7586 17.0439 27.4289 17.0454 27.2245 16.8429C27.0202 16.6405 27.0187 16.3107 27.2212 16.1064L37.8657 5.3642C38.0682 5.15987 38.398 5.15836 38.6023 5.36083Z" fill="#FE666D"/>
<path fill-rule="evenodd" clip-rule="evenodd" d="M7.10567 9.72384C7.30907 9.52044 7.63885 9.52044 7.84224 9.72384L14.6131 16.4947C14.8165 16.6981 14.8165 17.0278 14.6131 17.2312C14.4097 17.4346 14.0799 17.4346 13.8765 17.2312L7.10567 10.4604C6.90228 10.257 6.90228 9.92724 7.10567 9.72384Z" fill="#FE666D"/>
<path d="M40.7225 8.34682C40.5139 8.55537 40.1799 8.55949 39.9765 8.35603C39.773 8.15257 39.7771 7.81857 39.9857 7.61003C40.1942 7.40148 40.5282 7.39736 40.7317 7.60082C40.9351 7.80428 40.931 8.13827 40.7225 8.34682Z" fill="#DB1B24"/>
<path d="M39.1343 9.6362C38.8749 9.89561 38.4594 9.90074 38.2063 9.64766C37.9533 9.39457 37.9584 8.97912 38.2178 8.7197C38.4772 8.46029 38.8927 8.45516 39.1457 8.70825C39.3988 8.96133 39.3937 9.37679 39.1343 9.6362Z" fill="#DB1B24"/>
<path d="M40.825 10.0437C40.6953 10.1734 40.4875 10.176 40.361 10.0494C40.2344 9.92287 40.237 9.71514 40.3667 9.58544C40.4964 9.45573 40.7041 9.45317 40.8307 9.57971C40.9572 9.70625 40.9547 9.91398 40.825 10.0437Z" fill="#DB1B24"/>
<path d="M37.075 14.4441C36.9453 14.5738 36.7375 14.5763 36.611 14.4498C36.4844 14.3233 36.487 14.1155 36.6167 13.9858C36.7464 13.8561 36.9541 13.8536 37.0807 13.9801C37.2072 14.1066 37.2047 14.3144 37.075 14.4441Z" fill="#DB1B24"/>
<path d="M38.9539 11.4538C38.8242 11.5835 38.6164 11.5861 38.4899 11.4596C38.3633 11.333 38.3659 11.1253 38.4956 10.9956C38.6253 10.8659 38.8331 10.8633 38.9596 10.9899C39.0861 11.1164 39.0836 11.3241 38.9539 11.4538Z" fill="#DB1B24"/>
<path d="M37.0671 16.238C36.9374 16.3677 36.7297 16.3703 36.6032 16.2438C36.4766 16.1172 36.4792 15.9095 36.6089 15.7798C36.7386 15.6501 36.9463 15.6475 37.0729 15.774C37.1994 15.9006 37.1969 16.1083 37.0671 16.238Z" fill="#DB1B24"/>
<path d="M37.5398 11.0583C37.4101 11.188 37.2024 11.1906 37.0758 11.0641C36.9493 10.9375 36.9518 10.7298 37.0816 10.6001C37.2113 10.4704 37.419 10.4678 37.5455 10.5944C37.6721 10.7209 37.6695 10.9286 37.5398 11.0583Z" fill="#DB1B24"/>
<path d="M38.5984 14.7693C38.4687 14.899 38.261 14.9015 38.1344 14.775C38.0079 14.6485 38.0104 14.4407 38.1401 14.311C38.2699 14.1813 38.4776 14.1788 38.6041 14.3053C38.7307 14.4318 38.7281 14.6396 38.5984 14.7693Z" fill="#DB1B24"/>
<path d="M42.3992 9.22142C42.2695 9.35113 42.0617 9.35369 41.9352 9.22715C41.8087 9.10061 41.8112 8.89288 41.9409 8.76317C42.0706 8.63347 42.2784 8.6309 42.4049 8.75744C42.5314 8.88399 42.5289 9.09172 42.3992 9.22142Z" fill="#DB1B24"/>
<path d="M40.68 11.9434C40.4689 12.1545 40.1308 12.1587 39.9249 11.9527C39.7189 11.7468 39.7231 11.4087 39.9342 11.1976C40.1453 10.9866 40.4834 10.9824 40.6893 11.1883C40.8952 11.3943 40.8911 11.7323 40.68 11.9434Z" fill="#DB1B24"/>
<path d="M42.6917 10.6768C42.4806 10.8879 42.1425 10.8921 41.9366 10.6861C41.7307 10.4802 41.7348 10.1421 41.9459 9.93104C42.157 9.71995 42.4951 9.71578 42.701 9.92172C42.907 10.1277 42.9028 10.4657 42.6917 10.6768Z" fill="#DB1B24"/>
<path d="M38.6136 13.2862C38.4025 13.4973 38.0644 13.5015 37.8585 13.2955C37.6525 13.0896 37.6567 12.7515 37.8678 12.5404C38.0789 12.3293 38.4169 12.3252 38.6229 12.5311C38.8288 12.737 38.8247 13.0751 38.6136 13.2862Z" fill="#DB1B24"/>
<path d="M40.0789 13.5163C39.9492 13.646 39.7414 13.6486 39.6149 13.5221C39.4883 13.3955 39.4909 13.1878 39.6206 13.0581C39.7503 12.9284 39.9581 12.9258 40.0846 13.0524C40.2111 13.1789 40.2086 13.3866 40.0789 13.5163Z" fill="#DB1B24"/>
<path d="M39.5664 31.7705C39.5664 39.537 33.2704 45.833 25.5039 45.833C17.7374 45.833 11.4414 39.537 11.4414 31.7705C11.4414 24.004 17.7374 17.708 25.5039 17.708C33.2704 17.708 39.5664 24.004 39.5664 31.7705Z" fill="#BCCCD2"/>
<path fill-rule="evenodd" clip-rule="evenodd" d="M40.6068 31.7702C40.6068 40.112 33.8444 46.8743 25.5026 46.8743C17.1608 46.8743 10.3984 40.112 10.3984 31.7702C10.3984 23.4284 17.1608 16.666 25.5026 16.666C33.8444 16.666 40.6068 23.4284 40.6068 31.7702ZM25.5026 45.8327C33.2691 45.8327 39.5651 39.5367 39.5651 31.7702C39.5651 24.0037 33.2691 17.7077 25.5026 17.7077C17.7361 17.7077 11.4401 24.0037 11.4401 31.7702C11.4401 39.5367 17.7361 45.8327 25.5026 45.8327Z" fill="#81A5B0"/>
<path fill-rule="evenodd" clip-rule="evenodd" d="M12.4818 32.291C12.1941 32.291 11.9609 32.0578 11.9609 31.7702C11.9609 24.2913 18.0237 18.2285 25.5026 18.2285C25.7903 18.2285 26.0234 18.4617 26.0234 18.7493C26.0234 19.037 25.7903 19.2702 25.5026 19.2702C18.599 19.2702 13.0026 24.8666 13.0026 31.7702C13.0026 32.0578 12.7694 32.291 12.4818 32.291Z" fill="#D0DEE3"/>
<path fill-rule="evenodd" clip-rule="evenodd" d="M38.526 31.25C38.8137 31.25 39.0469 31.4832 39.0469 31.7708C39.0469 39.2497 32.9841 45.3125 25.5052 45.3125C25.2176 45.3125 24.9844 45.0793 24.9844 44.7917C24.9844 44.504 25.2176 44.2708 25.5052 44.2708C32.4088 44.2708 38.0052 38.6744 38.0052 31.7708C38.0052 31.4832 38.2384 31.25 38.526 31.25Z" fill="#A2B9C1"/>
<path d="M35.9193 31.7702C35.9193 37.5231 31.2556 42.1868 25.5026 42.1868C19.7496 42.1868 15.0859 37.5231 15.0859 31.7702C15.0859 26.0172 19.7496 21.3535 25.5026 21.3535C31.2556 21.3535 35.9193 26.0172 35.9193 31.7702Z" fill="#C7D4D8"/>
<path fill-rule="evenodd" clip-rule="evenodd" d="M36.9635 31.7708C36.9635 38.0991 31.8335 43.2292 25.5052 43.2292C19.1769 43.2292 14.0469 38.0991 14.0469 31.7708C14.0469 25.4426 19.1769 20.3125 25.5052 20.3125C31.8335 20.3125 36.9635 25.4426 36.9635 31.7708ZM25.5052 42.1875C31.2582 42.1875 35.9219 37.5238 35.9219 31.7708C35.9219 26.0179 31.2582 21.3542 25.5052 21.3542C19.7522 21.3542 15.0885 26.0179 15.0885 31.7708C15.0885 37.5238 19.7522 42.1875 25.5052 42.1875Z" fill="#81A5B0"/>
<path fill-rule="evenodd" clip-rule="evenodd" d="M25.5026 40.6243C30.3926 40.6243 34.3568 36.6602 34.3568 31.7702C34.3568 31.4825 34.59 31.2493 34.8776 31.2493C35.1653 31.2493 35.3984 31.4825 35.3984 31.7702C35.3984 37.2355 30.9679 41.666 25.5026 41.666C25.215 41.666 24.9818 41.4328 24.9818 41.1452C24.9818 40.8575 25.215 40.6243 25.5026 40.6243Z" fill="#B5C3C8"/>
<path fill-rule="evenodd" clip-rule="evenodd" d="M25.5052 22.9167C20.6152 22.9167 16.651 26.8808 16.651 31.7708C16.651 32.0585 16.4179 32.2917 16.1302 32.2917C15.8426 32.2917 15.6094 32.0585 15.6094 31.7708C15.6094 26.3055 20.0399 21.875 25.5052 21.875C25.7929 21.875 26.026 22.1082 26.026 22.3958C26.026 22.6835 25.7929 22.9167 25.5052 22.9167Z" fill="#D9EAEF"/>
<path d="M28.5535 35.9375H22.4622V34.729L25.3369 31.665C25.7316 31.2337 26.0225 30.8573 26.2097 30.5359C26.401 30.2144 26.4966 29.9093 26.4966 29.6204C26.4966 29.2257 26.3969 28.9164 26.1975 28.6926C25.9981 28.4648 25.7133 28.3508 25.343 28.3508C24.9443 28.3508 24.6289 28.4892 24.397 28.7659C24.1691 29.0385 24.0552 29.3986 24.0552 29.8462H22.2852C22.2852 29.305 22.4133 28.8106 22.6697 28.363C22.9301 27.9154 23.2963 27.5655 23.7683 27.3132C24.2403 27.0569 24.7754 26.9287 25.3735 26.9287C26.2891 26.9287 26.9991 27.1484 27.5037 27.5879C28.0123 28.0273 28.2666 28.6479 28.2666 29.4495C28.2666 29.8889 28.1527 30.3365 27.9248 30.7922C27.6969 31.248 27.3063 31.779 26.7529 32.3853L24.7327 34.5154H28.5535V35.9375Z" fill="#D9EAEF"/>
<path fill-rule="evenodd" clip-rule="evenodd" d="M29.5938 35.9372C29.5938 36.5125 29.1275 36.9788 28.5522 36.9788H22.4609C21.8856 36.9788 21.4192 36.5125 21.4192 35.9372V34.7287C21.4192 34.4639 21.52 34.209 21.7012 34.0159L24.5714 30.9568C24.9385 30.5553 25.1739 30.2422 25.3082 30.0114L25.3132 30.003C25.4362 29.7961 25.4536 29.6739 25.4536 29.62C25.4536 29.5087 25.4394 29.4436 25.4291 29.4117C25.4273 29.4062 25.4257 29.4017 25.4242 29.398C25.4076 29.3951 25.3808 29.3922 25.3417 29.3922C25.2638 29.3922 25.2311 29.4053 25.2246 29.4082C25.2205 29.41 25.2177 29.4117 25.2147 29.414C25.2116 29.4163 25.2046 29.4221 25.1944 29.4342C25.1603 29.4753 25.0955 29.5786 25.0955 29.8459C25.0955 30.4212 24.6292 30.8875 24.0539 30.8875H22.2839C21.7086 30.8875 21.2422 30.4212 21.2422 29.8459C21.2422 29.1324 21.4133 28.4581 21.7645 27.845L21.768 27.8389C22.1284 27.2194 22.6379 26.7359 23.2729 26.3959C23.9135 26.0487 24.6217 25.8867 25.3722 25.8867C26.4456 25.8867 27.431 26.1449 28.1849 26.8007C28.9658 27.4762 29.307 28.4096 29.307 29.4491C29.307 30.0743 29.1438 30.6805 28.8552 31.2578C28.5664 31.8354 28.1048 32.4476 27.521 33.0872C27.5165 33.0921 27.512 33.0969 27.5074 33.1017L27.155 33.4734H28.5522C29.1275 33.4734 29.5938 33.9398 29.5938 34.5151V35.9372ZM24.7314 34.5151L26.7516 32.3849C27.305 31.7786 27.6956 31.2476 27.9235 30.7919C28.1514 30.3362 28.2653 29.8886 28.2653 29.4491C28.2653 28.6475 28.011 28.027 27.5024 27.5876C26.9978 27.1481 26.2878 26.9284 25.3722 26.9284C24.7741 26.9284 24.239 27.0566 23.767 27.3129C23.295 27.5652 22.9288 27.9151 22.6684 28.3627C22.5868 28.5051 22.5182 28.6523 22.4626 28.8042C22.3434 29.1297 22.2839 29.4769 22.2839 29.8459H24.0539C24.0539 29.3983 24.1678 29.0382 24.3957 28.7655C24.6276 28.4889 24.943 28.3505 25.3417 28.3505C25.712 28.3505 25.9968 28.4644 26.1962 28.6923C26.3956 28.9161 26.4953 29.2253 26.4953 29.62C26.4953 29.9089 26.3997 30.2141 26.2084 30.5356C26.0212 30.857 25.7303 31.2334 25.3356 31.6647L22.4609 34.7287V35.9372H28.5522V34.5151H24.7314Z" fill="#81A5B0"/>
</svg>
