<svg width="50" height="51" viewBox="0 0 50 51" fill="none" xmlns="http://www.w3.org/2000/svg">
<path d="M41.6732 22.9753C41.6732 32.18 34.2113 39.6419 25.0065 39.6419C15.8018 39.6419 8.33984 32.18 8.33984 22.9753C8.33984 13.7705 15.8018 6.30859 25.0065 6.30859C34.2113 6.30859 41.6732 13.7705 41.6732 22.9753Z" fill="#BCCCD2"/>
<path fill-rule="evenodd" clip-rule="evenodd" d="M42.9079 22.9755C42.9079 32.862 34.8933 40.8767 25.0067 40.8767C15.1201 40.8767 7.10547 32.862 7.10547 22.9755C7.10547 13.0889 15.1201 5.07422 25.0067 5.07422C34.8933 5.07422 42.9079 13.0889 42.9079 22.9755ZM25.0067 39.6421C34.2115 39.6421 41.6734 32.1802 41.6734 22.9755C41.6734 13.7707 34.2115 6.30879 25.0067 6.30879C15.802 6.30879 8.34004 13.7707 8.34004 22.9755C8.34004 32.1802 15.802 39.6421 25.0067 39.6421Z" fill="#81A5B0"/>
<path fill-rule="evenodd" clip-rule="evenodd" d="M9.57171 23.5928C9.23079 23.5928 8.95443 23.3164 8.95443 22.9755C8.95443 14.1117 16.14 6.9261 25.0038 6.92611C25.3447 6.92611 25.6211 7.20247 25.6211 7.54339C25.6211 7.88431 25.3447 8.16067 25.0038 8.16067C16.8218 8.16067 10.189 14.7935 10.189 22.9755C10.189 23.3164 9.91263 23.5928 9.57171 23.5928Z" fill="#D0DEE3"/>
<path fill-rule="evenodd" clip-rule="evenodd" d="M40.44 22.3574C40.7809 22.3574 41.0573 22.6338 41.0573 22.9747C41.0573 31.8385 33.8717 39.0241 25.0079 39.0241C24.667 39.0241 24.3906 38.7477 24.3906 38.4068C24.3906 38.0659 24.667 37.7895 25.0079 37.7895C33.1899 37.7895 39.8227 31.1567 39.8227 22.9747C39.8227 22.6338 40.0991 22.3574 40.44 22.3574Z" fill="#A2B9C1"/>
<path d="M37.3515 22.9746C37.3515 29.7929 31.8242 35.3203 25.0058 35.3203C18.1875 35.3203 12.6602 29.7929 12.6602 22.9746C12.6602 16.1563 18.1875 10.6289 25.0058 10.6289C31.8242 10.6289 37.3515 16.1563 37.3515 22.9746Z" fill="#C7D4D8"/>
<path fill-rule="evenodd" clip-rule="evenodd" d="M38.5863 22.9748C38.5863 30.4749 32.5062 36.555 25.006 36.555C17.5059 36.555 11.4258 30.4749 11.4258 22.9748C11.4258 15.4746 17.5059 9.39453 25.006 9.39453C32.5062 9.39453 38.5863 15.4746 38.5863 22.9748ZM25.006 35.3205C31.8244 35.3205 37.3517 29.7931 37.3517 22.9748C37.3517 16.1564 31.8244 10.6291 25.006 10.6291C18.1877 10.6291 12.6603 16.1564 12.6603 22.9748C12.6603 29.7931 18.1877 35.3205 25.006 35.3205Z" fill="#81A5B0"/>
<path fill-rule="evenodd" clip-rule="evenodd" d="M25.006 33.4695C30.8016 33.4695 35.4998 28.7713 35.4998 22.9757C35.4998 22.6348 35.7762 22.3584 36.1171 22.3584C36.458 22.3584 36.7344 22.6348 36.7344 22.9757C36.7344 29.4531 31.4834 34.7041 25.006 34.7041C24.6651 34.7041 24.3887 34.4277 24.3887 34.0868C24.3887 33.7459 24.6651 33.4695 25.006 33.4695Z" fill="#B5C3C8"/>
<path fill-rule="evenodd" clip-rule="evenodd" d="M25.0057 12.4816C19.2102 12.4816 14.5119 17.1799 14.5119 22.9755C14.5119 23.3164 14.2355 23.5927 13.8946 23.5927C13.5537 23.5927 13.2773 23.3164 13.2773 22.9755C13.2773 16.4981 18.5283 11.2471 25.0057 11.2471C25.3467 11.2471 25.623 11.5234 25.623 11.8644C25.623 12.2053 25.3467 12.4816 25.0057 12.4816Z" fill="#D9EAEF"/>
<path d="M6.12923 39.4718L4.53925 36.2918C4.36609 35.9455 4.61791 35.5381 5.00509 35.5381L11.9749 35.5381C12.2625 35.5381 12.4957 35.7713 12.4957 36.0589L12.4957 43.3506C12.4957 43.6382 12.2625 43.8714 11.9749 43.8714L5.00509 43.8714C4.61791 43.8714 4.36609 43.464 4.53925 43.1177L6.12923 39.9377C6.20255 39.791 6.20255 39.6185 6.12923 39.4718Z" fill="#C52229"/>
<path d="M43.8622 39.4718L45.4522 36.2918C45.6253 35.9455 45.3735 35.5381 44.9863 35.5381L38.0165 35.5381C37.7289 35.5381 37.4957 35.7713 37.4957 36.0589L37.4957 43.3506C37.4957 43.6382 37.7289 43.8714 38.0165 43.8714L44.9863 43.8714C45.3735 43.8714 45.6253 43.464 45.4522 43.1177L43.8622 39.9377C43.7888 39.791 43.7888 39.6185 43.8622 39.4718Z" fill="#C52229"/>
<path fill-rule="evenodd" clip-rule="evenodd" d="M5.08494 39.7054L3.61141 36.7583C3.09196 35.7194 3.84741 34.4971 5.00896 34.4971L11.9787 34.4971C12.8417 34.4971 13.5412 35.1966 13.5412 36.0596L13.5412 43.3512C13.5412 44.2142 12.8417 44.9137 11.9787 44.9137L5.00896 44.9137C3.84741 44.9137 3.09196 43.6914 3.61141 42.6525L5.08494 39.7054ZM5.2011 39.9377C5.20121 39.9379 5.20131 39.9381 5.20141 39.9383L5.66726 39.7054L5.2014 39.9383L5.2011 39.9377ZM44.9142 39.7054L46.3877 36.7583C46.9072 35.7194 46.1517 34.4971 44.9902 34.4971L38.0204 34.4971C37.1575 34.4971 36.4579 35.1966 36.4579 36.0596L36.4579 43.3512C36.4579 44.2142 37.1575 44.9137 38.0204 44.9137L44.9902 44.9137C46.1517 44.9137 46.9072 43.6914 46.3877 42.6525L44.9142 39.7054ZM45.456 36.2925L43.866 39.4725C43.7927 39.6191 43.7927 39.7917 43.866 39.9383L45.456 43.1183C45.6292 43.4646 45.3773 43.8721 44.9902 43.8721L38.0204 43.8721C37.7327 43.8721 37.4996 43.6389 37.4996 43.3512L37.4996 36.0596C37.4996 35.7719 37.7327 35.5387 38.0204 35.5387L44.9902 35.5387C45.3773 35.5387 45.6292 35.9462 45.456 36.2925ZM4.54311 36.2925L6.1331 39.4725C6.20642 39.6191 6.20642 39.7917 6.1331 39.9383L4.54311 43.1183C4.36996 43.4646 4.62178 43.8721 5.00896 43.8721L11.9787 43.8721C12.2664 43.8721 12.4996 43.6389 12.4996 43.3512L12.4996 36.0596C12.4996 35.7719 12.2664 35.5387 11.9787 35.5387L5.00896 35.5387C4.62178 35.5387 4.36996 35.9462 4.54311 36.2925Z" fill="#9B0F15"/>
<path fill-rule="evenodd" clip-rule="evenodd" d="M5.28724 36.0097C5.38261 35.8584 5.54898 35.7666 5.72787 35.7666H7.94141C8.22906 35.7666 8.46224 35.9998 8.46224 36.2874C8.46224 36.5751 8.22906 36.8083 7.94141 36.8083H6.55429L7.63002 39.0575C7.75413 39.317 7.64437 39.628 7.38487 39.7521C7.12538 39.8762 6.8144 39.7664 6.6903 39.5069L5.258 36.5122C5.18082 36.3508 5.19186 36.1611 5.28724 36.0097Z" fill="#DF3840"/>
<path d="M39.582 41.2676L39.582 33.9759C39.582 33.6883 39.3488 33.4551 39.0612 33.4551L10.9362 33.4551C10.6485 33.4551 10.4154 33.6883 10.4154 33.9759L10.4154 41.2676C10.4154 41.5552 10.6485 41.7884 10.9362 41.7884L39.0612 41.7884C39.3488 41.7884 39.582 41.5552 39.582 41.2676Z" fill="#F1333B"/>
<path fill-rule="evenodd" clip-rule="evenodd" d="M40.6211 33.9756L40.6211 41.2673C40.6211 42.1302 39.9215 42.8298 39.0586 42.8298L10.9336 42.8298C10.0706 42.8298 9.37109 42.1302 9.37109 41.2673L9.37109 33.9756C9.37109 33.1126 10.0706 32.4131 10.9336 32.4131L39.0586 32.4131C39.9215 32.4131 40.6211 33.1126 40.6211 33.9756ZM39.5794 33.9756L39.5794 41.2673C39.5794 41.5549 39.3462 41.7881 39.0586 41.7881L10.9336 41.7881C10.6459 41.7881 10.4128 41.5549 10.4128 41.2673L10.4128 33.9756C10.4128 33.6879 10.6459 33.4548 10.9336 33.4548L39.0586 33.4548C39.3462 33.4548 39.5794 33.6879 39.5794 33.9756Z" fill="#9B0F15"/>
<path d="M38.1418 37.8193C37.8468 37.8193 37.6078 37.5861 37.6078 37.2983C37.6078 37.0106 37.8468 36.7773 38.1418 36.7773C38.4367 36.7773 38.6758 37.0106 38.6758 37.2983C38.6758 37.5861 38.4367 37.8193 38.1418 37.8193Z" fill="#DB1B24"/>
<path d="M36.1092 37.6116C35.7423 37.6116 35.4449 37.3214 35.4449 36.9635C35.4449 36.6056 35.7423 36.3154 36.1092 36.3154C36.476 36.3154 36.7734 36.6056 36.7734 36.9635C36.7734 37.3214 36.476 37.6116 36.1092 37.6116Z" fill="#DB1B24"/>
<path d="M37.0155 39.0924C36.8321 39.0924 36.6834 38.9473 36.6834 38.7684C36.6834 38.5894 36.8321 38.4443 37.0155 38.4443C37.199 38.4443 37.3477 38.5894 37.3477 38.7684C37.3477 38.9473 37.199 39.0924 37.0155 39.0924Z" fill="#DB1B24"/>
<path d="M36.4413 35.6656C36.2579 35.6656 36.1092 35.5206 36.1092 35.3416C36.1092 35.1627 36.2579 35.0176 36.4413 35.0176C36.6247 35.0176 36.7734 35.1627 36.7734 35.3416C36.7734 35.5206 36.6247 35.6656 36.4413 35.6656Z" fill="#DB1B24"/>
<path d="M34.6952 38.7692C34.5118 38.7692 34.3631 38.6241 34.3631 38.4451C34.3631 38.2662 34.5118 38.1211 34.6952 38.1211C34.8786 38.1211 35.0273 38.2662 35.0273 38.4451C35.0273 38.6241 34.8786 38.7692 34.6952 38.7692Z" fill="#DB1B24"/>
<path d="M34.3632 37.1012C34.1798 37.1012 34.031 36.9561 34.031 36.7772C34.031 36.5982 34.1798 36.4531 34.3632 36.4531C34.5466 36.4531 34.6953 36.5982 34.6953 36.7772C34.6953 36.9561 34.5466 37.1012 34.3632 37.1012Z" fill="#DB1B24"/>
<path d="M32.0976 40.86C31.9141 40.86 31.7654 40.7149 31.7654 40.5359C31.7654 40.357 31.9141 40.2119 32.0976 40.2119C32.281 40.2119 32.4297 40.357 32.4297 40.5359C32.4297 40.7149 32.281 40.86 32.0976 40.86Z" fill="#DB1B24"/>
<path d="M38.7069 39.6236C38.5235 39.6236 38.3748 39.4786 38.3748 39.2996C38.3748 39.1207 38.5235 38.9756 38.7069 38.9756C38.8904 38.9756 39.0391 39.1207 39.0391 39.2996C39.0391 39.4786 38.8904 39.6236 38.7069 39.6236Z" fill="#DB1B24"/>
<path d="M35.5688 40.333C35.2703 40.333 35.0283 40.0969 35.0283 39.8057C35.0283 39.5144 35.2703 39.2783 35.5688 39.2783C35.8674 39.2783 36.1094 39.5144 36.1094 39.8057C36.1094 40.0969 35.8674 40.333 35.5688 40.333Z" fill="#DB1B24"/>
<path d="M37.8853 40.8604C37.5867 40.8604 37.3447 40.6243 37.3447 40.333C37.3447 40.0418 37.5867 39.8057 37.8853 39.8057C38.1838 39.8057 38.4258 40.0418 38.4258 40.333C38.4258 40.6243 38.1838 40.8604 37.8853 40.8604Z" fill="#DB1B24"/>
<path d="M33.1587 39.8232C32.8602 39.8232 32.6182 39.5871 32.6182 39.2959C32.6182 39.0047 32.8602 38.7686 33.1587 38.7686C33.4572 38.7686 33.6992 39.0047 33.6992 39.2959C33.6992 39.5871 33.4572 39.8232 33.1587 39.8232Z" fill="#DB1B24"/>
<path d="M34.0311 41.0201C33.8477 41.0201 33.699 40.8751 33.699 40.6961C33.699 40.5171 33.8477 40.3721 34.0311 40.3721C34.2146 40.3721 34.3633 40.5171 34.3633 40.6961C34.3633 40.8751 34.2146 41.0201 34.0311 41.0201Z" fill="#DB1B24"/>
<path fill-rule="evenodd" clip-rule="evenodd" d="M10.7383 34.2035C10.7383 33.9158 10.9715 33.6826 11.2591 33.6826H30.7904C31.078 33.6826 31.3112 33.9158 31.3112 34.2035C31.3112 34.4911 31.078 34.7243 30.7904 34.7243H11.7799V38.3701C11.7799 38.6578 11.5468 38.891 11.2591 38.891C10.9715 38.891 10.7383 38.6578 10.7383 38.3701V34.2035Z" fill="#FE666D"/>
<path d="M28.2873 27.4544H21.7448V26.1564L24.8325 22.8655C25.2564 22.4022 25.5689 21.998 25.77 21.6527C25.9754 21.3074 26.0781 20.9797 26.0781 20.6694C26.0781 20.2454 25.971 19.9133 25.7568 19.6729C25.5427 19.4282 25.2368 19.3058 24.8391 19.3058C24.4108 19.3058 24.072 19.4544 23.8229 19.7516C23.5782 20.0444 23.4558 20.4312 23.4558 20.9119H21.5547C21.5547 20.3306 21.6924 19.7996 21.9677 19.3189C22.2474 18.8381 22.6407 18.4623 23.1477 18.1913C23.6547 17.916 24.2294 17.7783 24.8718 17.7783C25.8552 17.7783 26.6178 18.0143 27.1597 18.4863C27.7061 18.9583 27.9792 19.6248 27.9792 20.4858C27.9792 20.9578 27.8568 21.4385 27.6121 21.928C27.3673 22.4175 26.9478 22.9879 26.3534 23.6391L24.1835 25.927H28.2873V27.4544Z" fill="#D9EAEF"/>
<path fill-rule="evenodd" clip-rule="evenodd" d="M29.4039 27.4541C29.4039 28.072 28.903 28.5729 28.2851 28.5729H21.7425C21.1246 28.5729 20.6237 28.072 20.6237 27.4541V26.1561C20.6237 25.8717 20.732 25.598 20.9266 25.3906L24.0094 22.1048C24.4037 21.6735 24.6565 21.3372 24.8008 21.0894L24.8062 21.0803C24.9383 20.8582 24.957 20.7269 24.957 20.669C24.957 20.5495 24.9417 20.4796 24.9306 20.4453C24.9287 20.4394 24.927 20.4346 24.9254 20.4306C24.9075 20.4275 24.8788 20.4243 24.8368 20.4243C24.7531 20.4243 24.718 20.4384 24.711 20.4415C24.7066 20.4434 24.7036 20.4452 24.7004 20.4477C24.697 20.4502 24.6896 20.4564 24.6786 20.4694C24.6419 20.5135 24.5724 20.6246 24.5724 20.9116C24.5724 21.5295 24.0715 22.0304 23.4536 22.0304H21.5524C20.9345 22.0304 20.4336 21.5295 20.4336 20.9116C20.4336 20.1452 20.6174 19.421 20.9946 18.7625L20.9983 18.7559C21.3854 18.0906 21.9327 17.5713 22.6148 17.206C23.3027 16.8332 24.0635 16.6592 24.8696 16.6592C26.0225 16.6592 27.0808 16.9364 27.8906 17.6409C28.7294 18.3665 29.0958 19.3689 29.0958 20.4855C29.0958 21.1569 28.9206 21.808 28.6105 22.4281C28.3003 23.0485 27.8046 23.706 27.1775 24.393C27.1727 24.3983 27.1678 24.4035 27.1629 24.4087L26.7843 24.8078H28.2851C28.903 24.8078 29.4039 25.3087 29.4039 25.9267V27.4541ZM24.1812 25.9267L26.3511 23.6387C26.9455 22.9875 27.3651 22.4172 27.6098 21.9277C27.8546 21.4382 27.9769 20.9575 27.9769 20.4855C27.9769 19.6245 27.7038 18.958 27.1575 18.486C26.6156 18.014 25.8529 17.778 24.8696 17.778C24.2271 17.778 23.6524 17.9157 23.1454 18.191C22.6385 18.462 22.2451 18.8378 21.9654 19.3186C21.8778 19.4716 21.8041 19.6296 21.7444 19.7928C21.6164 20.1423 21.5524 20.5153 21.5524 20.9116H23.4536C23.4536 20.4309 23.5759 20.0441 23.8207 19.7513C24.0698 19.4541 24.4085 19.3055 24.8368 19.3055C25.2345 19.3055 25.5404 19.4278 25.7546 19.6726C25.9687 19.913 26.0758 20.2451 26.0758 20.669C26.0758 20.9793 25.9731 21.3071 25.7677 21.6524C25.5667 21.9976 25.2542 22.4019 24.8302 22.8652L21.7425 26.1561V27.4541H28.2851V25.9267H24.1812Z" fill="#81A5B0"/>
</svg>
