<svg width="30" height="30" viewBox="0 0 30 30" fill="none" xmlns="http://www.w3.org/2000/svg">
<g id="icon">
<path id="Vector (Stroke)" fill-rule="evenodd" clip-rule="evenodd" d="M2.4998 20.0498C3.16255 20.0498 3.6998 20.5871 3.6998 21.2498V25.0498H26.2998V21.2498C26.2998 20.5871 26.8371 20.0498 27.4998 20.0498C28.1625 20.0498 28.6998 20.5871 28.6998 21.2498V26.2498C28.6998 26.9125 28.1625 27.4498 27.4998 27.4498H2.4998C1.83706 27.4498 1.2998 26.9125 1.2998 26.2498V21.2498C1.2998 20.5871 1.83706 20.0498 2.4998 20.0498Z" fill="#109CF1"/>
<path id="Vector (Stroke)_2" fill-rule="evenodd" clip-rule="evenodd" d="M14.2026 2.85291C14.6572 2.44877 15.3424 2.44877 15.7971 2.85291L23.2971 9.51958C23.7924 9.95988 23.837 10.7184 23.3967 11.2137C22.9564 11.709 22.1979 11.7537 21.7026 11.3134L16.1998 6.42202V21.2498C16.1998 21.9125 15.6626 22.4498 14.9998 22.4498C14.3371 22.4498 13.7998 21.9125 13.7998 21.2498V6.42202L8.29705 11.3134C7.80171 11.7537 7.04323 11.709 6.60293 11.2137C6.16262 10.7184 6.20724 9.95988 6.70258 9.51958L14.2026 2.85291Z" fill="#109CF1"/>
</g>
</svg>
