<svg width="30" height="30" viewBox="0 0 30 30" fill="none" xmlns="http://www.w3.org/2000/svg">
<g id="Property 1=Submissions, Active=No">
<path id="Vector (Stroke)" fill-rule="evenodd" clip-rule="evenodd" d="M14.2026 2.85316C14.6572 2.44901 15.3424 2.44901 15.7971 2.85316L23.2971 9.51982C23.7924 9.96013 23.837 10.7186 23.3967 11.214C22.9564 11.7093 22.1979 11.7539 21.7026 11.3136L16.1998 6.42226V21.25C16.1998 21.9128 15.6626 22.45 14.9998 22.45C14.3371 22.45 13.7998 21.9128 13.7998 21.25V6.42226L8.29705 11.3136C7.80171 11.7539 7.04323 11.7093 6.60293 11.214C6.16262 10.7186 6.20724 9.96013 6.70258 9.51982L14.2026 2.85316Z" fill="#C2CFE0"/>
<path id="Vector (Stroke)_2" fill-rule="evenodd" clip-rule="evenodd" d="M2.4998 20.05C3.16255 20.05 3.6998 20.5873 3.6998 21.25V25.05H26.2998V21.25C26.2998 20.5873 26.8371 20.05 27.4998 20.05C28.1625 20.05 28.6998 20.5873 28.6998 21.25V26.25C28.6998 26.9128 28.1625 27.45 27.4998 27.45H2.4998C1.83706 27.45 1.2998 26.9128 1.2998 26.25V21.25C1.2998 20.5873 1.83706 20.05 2.4998 20.05Z" fill="#C2CFE0"/>
</g>
</svg>
