<svg width="30" height="30" viewBox="0 0 30 30" fill="none" xmlns="http://www.w3.org/2000/svg">
<path fill-rule="evenodd" clip-rule="evenodd" d="M4.9 6.15V11.35H23.85V6.15H4.9ZM4.9 18.65V23.85H23.85V18.65H4.9ZM3.75 3.75H25C25.6875 3.75 26.25 4.3125 26.25 5V12.5C26.25 13.1875 25.6875 13.75 25 13.75H3.75C3.0625 13.75 2.5 13.1875 2.5 12.5V5C2.5 4.3125 3.0625 3.75 3.75 3.75ZM3.75 16.25H25C25.6875 16.25 26.25 16.8125 26.25 17.5V25C26.25 25.6875 25.6875 26.25 25 26.25H3.75C3.0625 26.25 2.5 25.6875 2.5 25V17.5C2.5 16.8125 3.0625 16.25 3.75 16.25Z" fill="#C2CFE0"/>
</svg>
