<svg width="209" height="45" viewBox="0 0 209 45" fill="none" xmlns="http://www.w3.org/2000/svg">
<path d="M38.8042 22.3674H42.8782L44.2528 18.9853H52.3508L53.7254 22.3674H57.9494L50.4763 4.95979H46.4023L38.8042 22.3674ZM45.5525 15.8271L48.3268 9.063L51.0761 15.8271H45.5525Z" fill="#B542FB"/>
<path d="M59.7686 22.3674H71.2157V18.9356H63.7176V4.95979H59.7686V22.3674Z" fill="#B542FB"/>
<path d="M72.3094 13.6387C72.3094 18.6869 76.2584 22.5414 81.4821 22.5414C84.0314 22.5414 86.7058 21.3229 88.5553 19.433L86.2309 16.9213C84.9812 18.1647 83.2566 18.9605 81.682 18.9605C78.6828 18.9605 76.3584 16.6229 76.3584 13.589C76.3584 10.5551 78.6828 8.24236 81.682 8.24236C83.3066 8.24236 85.0312 9.13761 86.2309 10.5053L88.5303 7.72013C86.8057 5.95451 84.1564 4.83545 81.6321 4.83545C76.3334 4.83545 72.3094 8.61538 72.3094 13.6387Z" fill="#B542FB"/>
<path d="M90.9131 22.3674H94.8621V15.5038H102.785V22.3674H106.734V4.95979H102.785V12.2212H94.8621V4.95979H90.9131V22.3674Z" fill="#B542FB"/>
<path d="M110.586 22.3674H124.182V19.1097H114.535V15.2551H122.983V11.9974H114.535V8.21749H123.908V4.95979H110.586V22.3674Z" fill="#B542FB"/>
<path d="M127.281 22.3674H131.23V17.3938H135.254L138.028 22.3674H142.502L138.778 16.6229C140.902 15.6281 142.052 13.6884 142.052 11.0027C142.052 7.14817 139.453 4.95979 134.879 4.95979H127.281V22.3674ZM131.23 14.1112V8.21749H134.879C137.053 8.21749 138.303 9.18735 138.303 11.127C138.303 13.1165 137.053 14.1112 134.879 14.1112H131.23Z" fill="#B542FB"/>
<path d="M145.367 22.3674H149.316V4.95979H145.367V22.3674Z" fill="#B542FB"/>
<path d="M153.202 22.3674H156.976V11.2017L165.449 22.3674H169.048V4.95979H165.299V16.1504L156.801 4.95979H153.202V22.3674Z" fill="#B542FB"/>
<path d="M171.65 13.6636C171.65 18.7118 175.674 22.5414 180.972 22.5414C183.397 22.5414 186.221 21.6213 188.07 20.2785V13.589H184.646V18.1647C183.522 18.7366 182.272 19.1097 181.222 19.1097C178.123 19.1097 175.699 16.7472 175.699 13.6636C175.699 10.6048 178.098 8.24236 181.197 8.24236C182.897 8.24236 184.696 8.9884 185.996 10.1821L188.22 7.37198C186.446 5.83017 183.796 4.83545 181.197 4.83545C175.749 4.83545 171.65 8.64025 171.65 13.6636Z" fill="#B542FB"/>
<path d="M189.523 22.3674H193.597L194.972 18.9853H203.07L204.444 22.3674H208.668L201.195 4.95979H197.121L189.523 22.3674ZM196.271 15.8271L199.046 9.063L201.795 15.8271H196.271Z" fill="#B542FB"/>
<path d="M44.959 32.1054V33.2185C44.6405 33.0421 44.351 32.9209 44.0904 32.8548C43.8371 32.7813 43.5114 32.7446 43.1133 32.7446C42.3822 32.7446 41.7706 32.9981 41.2784 33.505C40.7935 34.0046 40.551 34.6695 40.551 35.4997C40.551 36.3446 40.7935 37.0168 41.2784 37.5164C41.7634 38.016 42.4039 38.2658 43.2001 38.2658C43.9022 38.2658 44.4921 38.0821 44.9698 37.7148V38.8609C44.5211 39.1621 43.8986 39.3127 43.1024 39.3127C42.0095 39.3127 41.1156 38.9674 40.4207 38.2768C39.7258 37.5862 39.3784 36.6605 39.3784 35.4997C39.3784 34.3756 39.7258 33.4609 40.4207 32.7556C41.1228 32.0503 42.0095 31.6976 43.0807 31.6976C43.8624 31.6976 44.4885 31.8336 44.959 32.1054Z" fill="#13141D"/>
<path d="M51.2829 36.4585H53.6281L53.5087 36.0838C53.2336 35.2168 53.0092 34.5005 52.8355 33.9348C52.6618 33.3617 52.5568 33.0054 52.5207 32.8658L52.4664 32.6564C52.3867 33.0017 52.0321 34.1442 51.4024 36.0838L51.2829 36.4585ZM54.5075 39.2246L53.9321 37.4062H50.9789L50.3927 39.2246H49.2092L51.7389 31.7968H53.2047L55.7018 39.2246H54.5075Z" fill="#13141D"/>
<path d="M60.1549 39.2246L60.7195 31.7968H62.0441L63.0212 34.5078C63.1949 34.9707 63.3686 35.463 63.5423 35.9846C63.7161 36.4989 63.8463 36.8993 63.9332 37.1858L64.0743 37.6156C64.4073 36.6164 64.7728 35.5805 65.1709 34.5078L66.1915 31.7968H67.5161L68.1892 39.2246H67.0818L66.8212 36.3152L66.5932 33.3397C66.2675 34.2727 65.9128 35.2646 65.5292 36.3152L64.5086 39.0813H63.6292L62.6412 36.3152L61.6532 33.3838C61.6532 33.707 61.5953 34.6842 61.4795 36.3152L61.2623 39.2246H60.1549Z" fill="#13141D"/>
<path d="M74.2167 35.654H75.1721C75.7005 35.654 76.1022 35.5217 76.3773 35.2572C76.6596 34.9927 76.8007 34.6438 76.8007 34.2103C76.8007 33.7548 76.6596 33.3948 76.3773 33.1303C76.095 32.8658 75.686 32.7336 75.1504 32.7336H74.2167V35.654ZM73.0984 31.7968H75.1938C76.0335 31.7968 76.6994 32.0246 77.1916 32.4801C77.6838 32.9283 77.9298 33.505 77.9298 34.2103C77.9298 34.9156 77.6801 35.4887 77.1807 35.9295C76.6885 36.3703 76.0479 36.5907 75.259 36.5907H74.2167V39.2246H73.0984V31.7968Z" fill="#13141D"/>
<path d="M86.8849 36.4034V31.7968H88.0032V36.3813C88.0032 37.3438 87.7571 38.0748 87.2649 38.5744C86.7727 39.074 86.0923 39.3238 85.2237 39.3238C84.3696 39.3238 83.6965 39.0813 83.2043 38.5964C82.7121 38.1042 82.466 37.3952 82.466 36.4695V31.7968H83.5843V36.4585C83.5843 37.0903 83.7327 37.5532 84.0294 37.847C84.3334 38.1336 84.7315 38.2768 85.2237 38.2768C86.3312 38.2768 86.8849 37.6523 86.8849 36.4034Z" fill="#13141D"/>
<path d="M96.9423 32.0944V33.2185C96.4574 32.9099 95.9073 32.7556 95.292 32.7556C94.8939 32.7556 94.5791 32.8474 94.3475 33.0311C94.1231 33.2074 94.0109 33.4425 94.0109 33.7364C94.0109 34.0303 94.1231 34.2654 94.3475 34.4417C94.5718 34.6181 94.9156 34.8091 95.3789 35.0148C95.6829 35.147 95.9181 35.2609 96.0846 35.3564C96.2583 35.4519 96.4537 35.5878 96.6709 35.7642C96.8953 35.9332 97.0581 36.1389 97.1595 36.3813C97.268 36.6164 97.3223 36.8883 97.3223 37.1968C97.3223 37.8507 97.0943 38.365 96.6383 38.7397C96.1823 39.1144 95.5924 39.3017 94.8686 39.3017C94.0652 39.3017 93.3993 39.1438 92.8709 38.8278V37.6487C93.4427 38.0821 94.105 38.2989 94.8577 38.2989C95.2558 38.2989 95.5707 38.207 95.8023 38.0234C96.0339 37.8323 96.1497 37.5715 96.1497 37.2409C96.1497 37.0425 96.081 36.8625 95.9435 36.7009C95.8059 36.5319 95.6576 36.407 95.4983 36.3262C95.3391 36.2381 95.1002 36.1205 94.7817 35.9736C94.5936 35.8854 94.4597 35.823 94.38 35.7862C94.3077 35.7495 94.1846 35.6834 94.0109 35.5878C93.8372 35.4923 93.7069 35.4115 93.62 35.3454C93.5404 35.2793 93.4391 35.1874 93.316 35.0699C93.193 34.9523 93.1025 34.8348 93.0446 34.7172C92.9939 34.5997 92.9433 34.4638 92.8926 34.3095C92.8492 34.1478 92.8275 33.9752 92.8275 33.7915C92.8275 33.1597 93.0518 32.6601 93.5006 32.2927C93.9566 31.9254 94.5429 31.7417 95.2595 31.7417C95.9181 31.7417 96.4791 31.8593 96.9423 32.0944Z" fill="#13141D"/>
<path d="M109.782 36.4585H112.127L112.007 36.0838C111.732 35.2168 111.508 34.5005 111.334 33.9348C111.161 33.3617 111.056 33.0054 111.019 32.8658L110.965 32.6564C110.886 33.0017 110.531 34.1442 109.901 36.0838L109.782 36.4585ZM113.006 39.2246L112.431 37.4062H109.478L108.891 39.2246H107.708L110.238 31.7968H111.703L114.201 39.2246H113.006Z" fill="#13141D"/>
<path d="M118.654 39.2246L119.218 31.7968H120.543L121.52 34.5078C121.694 34.9707 121.867 35.463 122.041 35.9846C122.215 36.4989 122.345 36.8993 122.432 37.1858L122.573 37.6156C122.906 36.6164 123.272 35.5805 123.67 34.5078L124.69 31.7968H126.015L126.688 39.2246H125.581L125.32 36.3152L125.092 33.3397C124.766 34.2727 124.412 35.2646 124.028 36.3152L123.007 39.0813H122.128L121.14 36.3152L120.152 33.3838C120.152 33.707 120.094 34.6842 119.978 36.3152L119.761 39.2246H118.654Z" fill="#13141D"/>
<path d="M132.715 38.2878H134.149C135.068 38.2878 135.527 37.9021 135.527 37.1307C135.527 36.756 135.401 36.4658 135.147 36.2601C134.901 36.047 134.532 35.9405 134.04 35.9405H132.715V38.2878ZM132.715 32.7336V35.0148H133.725C134.268 35.0148 134.67 34.9046 134.93 34.6842C135.198 34.4564 135.332 34.1625 135.332 33.8025C135.332 33.4866 135.213 33.2295 134.974 33.0311C134.742 32.8327 134.387 32.7336 133.91 32.7336H132.715ZM131.597 31.7968H133.997C134.764 31.7968 135.368 31.9805 135.81 32.3479C136.251 32.7078 136.472 33.1854 136.472 33.7805C136.472 34.1919 136.356 34.5519 136.125 34.8605C135.9 35.1691 135.611 35.3674 135.256 35.4556C135.654 35.5291 135.987 35.7164 136.255 36.0176C136.53 36.3189 136.667 36.723 136.667 37.2299C136.667 37.8176 136.468 38.2989 136.07 38.6736C135.679 39.0409 135.126 39.2246 134.409 39.2246H131.597V31.7968Z" fill="#13141D"/>
<path d="M142.944 36.4585H145.289L145.169 36.0838C144.894 35.2168 144.67 34.5005 144.496 33.9348C144.322 33.3617 144.217 33.0054 144.181 32.8658L144.127 32.6564C144.047 33.0017 143.693 34.1442 143.063 36.0838L142.944 36.4585ZM146.168 39.2246L145.593 37.4062H142.64L142.053 39.2246H140.87L143.4 31.7968H144.865L147.362 39.2246H146.168Z" fill="#13141D"/>
<path d="M155.865 32.0944V33.2185C155.38 32.9099 154.83 32.7556 154.215 32.7556C153.817 32.7556 153.502 32.8474 153.27 33.0311C153.046 33.2074 152.934 33.4425 152.934 33.7364C152.934 34.0303 153.046 34.2654 153.27 34.4417C153.495 34.6181 153.839 34.8091 154.302 35.0148C154.606 35.147 154.841 35.2609 155.008 35.3564C155.181 35.4519 155.377 35.5878 155.594 35.7642C155.818 35.9332 155.981 36.1389 156.082 36.3813C156.191 36.6164 156.245 36.8883 156.245 37.1968C156.245 37.8507 156.017 38.365 155.561 38.7397C155.105 39.1144 154.515 39.3017 153.792 39.3017C152.988 39.3017 152.322 39.1438 151.794 38.8278V37.6487C152.366 38.0821 153.028 38.2989 153.781 38.2989C154.179 38.2989 154.494 38.207 154.725 38.0234C154.957 37.8323 155.073 37.5715 155.073 37.2409C155.073 37.0425 155.004 36.8625 154.866 36.7009C154.729 36.5319 154.58 36.407 154.421 36.3262C154.262 36.2381 154.023 36.1205 153.705 35.9736C153.516 35.8854 153.383 35.823 153.303 35.7862C153.231 35.7495 153.108 35.6834 152.934 35.5878C152.76 35.4923 152.63 35.4115 152.543 35.3454C152.463 35.2793 152.362 35.1874 152.239 35.0699C152.116 34.9523 152.025 34.8348 151.968 34.7172C151.917 34.5997 151.866 34.4638 151.816 34.3095C151.772 34.1478 151.75 33.9752 151.75 33.7915C151.75 33.1597 151.975 32.6601 152.424 32.2927C152.88 31.9254 153.466 31.7417 154.182 31.7417C154.841 31.7417 155.402 31.8593 155.865 32.0944Z" fill="#13141D"/>
<path d="M164.947 32.0944V33.2185C164.462 32.9099 163.912 32.7556 163.297 32.7556C162.899 32.7556 162.584 32.8474 162.352 33.0311C162.128 33.2074 162.016 33.4425 162.016 33.7364C162.016 34.0303 162.128 34.2654 162.352 34.4417C162.577 34.6181 162.92 34.8091 163.384 35.0148C163.688 35.147 163.923 35.2609 164.089 35.3564C164.263 35.4519 164.458 35.5878 164.676 35.7642C164.9 35.9332 165.063 36.1389 165.164 36.3813C165.273 36.6164 165.327 36.8883 165.327 37.1968C165.327 37.8507 165.099 38.365 164.643 38.7397C164.187 39.1144 163.597 39.3017 162.873 39.3017C162.07 39.3017 161.404 39.1438 160.876 38.8278V37.6487C161.447 38.0821 162.11 38.2989 162.862 38.2989C163.261 38.2989 163.575 38.207 163.807 38.0234C164.039 37.8323 164.154 37.5715 164.154 37.2409C164.154 37.0425 164.086 36.8625 163.948 36.7009C163.811 36.5319 163.662 36.407 163.503 36.3262C163.344 36.2381 163.105 36.1205 162.786 35.9736C162.598 35.8854 162.464 35.823 162.385 35.7862C162.312 35.7495 162.189 35.6834 162.016 35.5878C161.842 35.4923 161.712 35.4115 161.625 35.3454C161.545 35.2793 161.444 35.1874 161.321 35.0699C161.198 34.9523 161.107 34.8348 161.049 34.7172C160.999 34.5997 160.948 34.4638 160.897 34.3095C160.854 34.1478 160.832 33.9752 160.832 33.7915C160.832 33.1597 161.057 32.6601 161.505 32.2927C161.961 31.9254 162.548 31.7417 163.264 31.7417C163.923 31.7417 164.484 31.8593 164.947 32.0944Z" fill="#13141D"/>
<path d="M171.695 36.4585H174.04L173.92 36.0838C173.645 35.2168 173.421 34.5005 173.247 33.9348C173.073 33.3617 172.968 33.0054 172.932 32.8658L172.878 32.6564C172.798 33.0017 172.444 34.1442 171.814 36.0838L171.695 36.4585ZM174.919 39.2246L174.344 37.4062H171.391L170.804 39.2246H169.621L172.151 31.7968H173.616L176.113 39.2246H174.919Z" fill="#13141D"/>
<path d="M181.804 38.2658H182.955C183.788 38.2658 184.421 38.0013 184.855 37.4723C185.289 36.9434 185.507 36.2638 185.507 35.4336C185.507 34.6695 185.271 34.034 184.801 33.527C184.33 33.0201 183.704 32.7666 182.923 32.7666H181.804V38.2658ZM180.664 31.7968H182.944C184.03 31.7968 184.92 32.1385 185.615 32.8217C186.31 33.505 186.657 34.3756 186.657 35.4336C186.657 36.5356 186.328 37.443 185.669 38.1556C185.018 38.8683 184.117 39.2246 182.966 39.2246H180.664V31.7968Z" fill="#13141D"/>
<path d="M191.033 35.4776C191.033 34.3242 191.337 33.3985 191.945 32.7005C192.553 32.0025 193.367 31.6536 194.388 31.6536C195.43 31.6536 196.251 32.0025 196.852 32.7005C197.453 33.3911 197.753 34.3168 197.753 35.4776C197.753 36.6385 197.449 37.5678 196.841 38.2658C196.241 38.9638 195.426 39.3127 194.398 39.3127C193.378 39.3127 192.56 38.9638 191.945 38.2658C191.337 37.5678 191.033 36.6385 191.033 35.4776ZM192.781 33.4609C192.397 33.9532 192.205 34.6254 192.205 35.4776C192.205 36.3299 192.404 37.0058 192.802 37.5054C193.201 38.005 193.733 38.2548 194.398 38.2548C195.086 38.2548 195.622 38.0087 196.005 37.5164C196.389 37.0242 196.581 36.3446 196.581 35.4776C196.581 34.6181 196.385 33.9421 195.994 33.4499C195.611 32.9576 195.075 32.7115 194.388 32.7115C193.707 32.7115 193.172 32.9613 192.781 33.4609Z" fill="#13141D"/>
<path d="M203.583 32.7446V35.4556H204.593C205.056 35.4556 205.407 35.3344 205.646 35.0919C205.885 34.8421 206.004 34.5115 206.004 34.1001C206.004 33.1964 205.516 32.7446 204.538 32.7446H203.583ZM206.265 39.2246L204.549 36.4034H203.583V39.2246H202.465V31.7968H204.506C205.345 31.7968 205.993 32.0062 206.449 32.425C206.905 32.8364 207.133 33.3985 207.133 34.1111C207.126 34.6327 206.996 35.0772 206.742 35.4446C206.489 35.8046 206.138 36.0654 205.689 36.227L207.6 39.2246H206.265Z" fill="#13141D"/>
<g clip-path="url(#clip0_596_2119)">
<path d="M16.9002 41.7999C16.8002 41.6999 16.9002 41.4999 16.8002 41.3999C16.8002 41.4999 16.7002 41.5999 16.7002 41.6999C16.7002 41.7999 16.7002 41.8999 16.7002 41.9999C16.7002 42.1999 16.7002 42.1999 16.5002 42.1999C16.4002 42.1999 16.3002 42.1999 16.3002 42.1999C16.1002 42.1999 15.9002 42.1999 15.7002 42.2999C15.5002 42.2999 15.3002 42.3999 15.2002 42.3999C15.0002 42.3999 14.8002 42.3999 14.6002 42.3999C14.3002 42.3999 14.1002 42.3999 13.8002 42.3999C13.4002 42.3999 13.0002 42.3999 12.6002 42.3999C12.6002 42.3999 12.6002 42.3999 12.6002 42.4999C12.6002 42.4999 12.7002 42.5999 12.6002 42.5999C12.6002 42.5999 12.5002 42.5999 12.5002 42.4999C12.4002 42.4999 12.5002 42.3999 12.5002 42.3999C12.2002 42.3999 11.8002 42.3999 11.5002 42.3999C11.2002 42.3999 10.9002 42.3999 10.7002 42.3999C10.5002 42.3999 10.3002 42.3999 10.1002 42.3999H10.0002C9.9002 42.4999 9.8002 42.4999 9.7002 42.4999C9.10019 42.4999 8.5002 42.4999 8.0002 42.4999C7.6002 42.4999 7.3002 42.4999 6.9002 42.4999C6.7002 42.4999 6.5002 42.4999 6.4002 42.4999H6.3002C6.1002 42.3999 5.9002 42.3999 5.8002 42.5999C5.8002 42.5999 5.7002 42.6999 5.7002 42.5999C5.5002 42.5999 5.3002 42.5999 5.1002 42.5999C5.0002 42.5999 4.8002 42.5999 4.7002 42.5999C4.7002 42.5999 4.6002 42.5999 4.6002 42.4999C4.5002 42.3999 4.3002 42.3999 4.1002 42.3999C4.1002 42.4999 4.2002 42.4999 4.2002 42.4999C4.2002 42.5999 4.1002 42.4999 4.0002 42.4999C3.4002 42.4999 2.7002 42.4999 2.1002 42.4999C1.9002 42.4999 1.7002 42.4999 1.4002 42.4999C1.1002 42.4999 0.900195 42.4999 0.600195 42.3999C0.500195 42.3999 0.500195 42.3999 0.500195 42.2999C0.400195 42.1999 0.300195 41.9999 0.200195 41.8999C0.200195 41.8999 0.200195 41.7999 0.200195 41.6999C0.200195 39.8999 0.200195 37.9999 0.200195 36.1999C0.200195 34.5999 0.200195 32.8999 0.200195 31.2999C0.200195 30.8999 0.200195 30.5999 0.200195 30.1999C0.200195 29.9999 0.200195 29.7999 0.200195 29.5999C0.200195 29.4999 0.200195 29.2999 0.200195 29.1999C0.200195 28.9999 0.200195 28.8999 0.200195 28.6999V28.5999C0.200195 28.2999 0.200195 27.9999 0.200195 27.6999C0.200195 27.5999 0.200195 27.3999 0.200195 27.2999V27.1999C0.300195 27.0999 0.300195 27.0999 0.300195 26.9999V26.8999C0.300195 26.6999 0.300195 26.3999 0.200195 26.1999C0.200195 26.0999 0.200195 25.9999 0.200195 25.8999C0.200195 25.5999 0.200195 25.3999 0.200195 25.0999V24.9999C0.400195 24.7999 0.500195 24.6999 0.700195 24.4999C0.800195 24.4999 0.800195 24.3999 0.900195 24.3999C1.4002 24.3999 1.9002 24.3999 2.4002 24.3999C4.0002 24.3999 5.5002 24.3999 7.1002 24.3999C7.7002 24.3999 8.30019 24.3999 8.9002 24.3999C9.30019 24.3999 9.7002 24.3999 10.1002 24.3999C10.4002 24.3999 10.7002 24.3999 11.0002 24.3999C11.3002 24.3999 11.5002 24.3999 11.8002 24.3999C12.2002 24.3999 12.6002 24.3999 13.0002 24.3999C13.6002 24.3999 14.2002 24.3999 14.9002 24.3999C15.1002 24.3999 15.1002 24.3999 15.1002 24.5999C15.1002 24.7999 15.1002 24.9999 15.0002 25.1999C15.0002 25.3999 14.9002 25.6999 14.9002 25.8999C14.9002 26.0999 14.8002 26.3999 14.8002 26.5999C14.7002 26.8999 14.7002 27.0999 14.6002 27.3999C14.5002 27.7999 14.4002 28.1999 14.3002 28.5999C14.2002 29.1999 14.0002 29.6999 13.8002 30.1999C13.6002 30.7999 13.3002 31.2999 12.9002 31.7999C12.7002 32.0999 12.4002 32.4999 12.2002 32.7999C11.8002 33.2999 11.4002 33.6999 10.9002 34.1999C10.7002 34.3999 10.4002 34.6999 10.2002 34.8999C10.0002 35.0999 9.7002 35.3999 9.5002 35.5999C9.3002 35.7999 9.1002 35.9999 8.8002 36.1999C8.4002 36.4999 8.1002 36.8999 7.7002 37.2999C7.6002 37.3999 7.5002 37.3999 7.5002 37.2999C7.4002 37.1999 7.3002 37.1999 7.2002 37.2999C7.0002 37.4999 6.8002 37.7999 6.7002 37.9999C6.4002 38.3999 6.2002 38.8999 6.0002 39.2999C5.8002 39.5999 5.7002 39.9999 5.7002 40.2999C5.7002 40.5999 5.7002 40.9999 5.8002 41.2999C5.9002 41.4999 6.0002 41.5999 6.2002 41.7999C6.3002 41.7999 6.3002 41.7999 6.4002 41.6999C6.6002 41.3999 6.7002 41.0999 6.9002 40.8999C7.2002 40.2999 7.5002 39.6999 7.9002 39.0999C7.7002 38.9999 8.0002 38.6999 8.2002 38.3999C8.4002 38.0999 8.7002 37.8999 8.9002 37.5999C9.2002 37.2999 9.5002 36.9999 9.8002 36.6999C10.0002 36.3999 10.3002 36.1999 10.6002 35.9999C11.1002 35.4999 11.7002 35.0999 12.3002 34.6999C12.6002 34.4999 13.0002 34.1999 13.3002 33.9999C13.4002 33.9999 13.4002 33.9999 13.4002 34.0999C13.5002 34.4999 13.5002 34.8999 13.4002 35.2999C13.3002 35.8999 13.1002 36.4999 13.0002 37.0999C12.9002 37.4999 12.8002 37.8999 12.7002 38.2999C12.7002 38.3999 12.7002 38.4999 12.7002 38.6999C12.7002 38.9999 12.6002 39.1999 12.5002 39.3999C12.4002 39.4999 12.4002 39.5999 12.3002 39.6999C12.2002 39.8999 12.3002 39.9999 12.4002 40.0999C12.6002 40.2999 12.8002 40.4999 13.0002 40.5999C13.5002 40.8999 13.9002 41.1999 14.4002 41.4999C14.7002 41.5999 15.0002 41.7999 15.3002 41.7999C15.6002 41.8999 15.9002 41.8999 16.2002 41.7999C16.2002 41.7999 16.3002 41.7999 16.3002 41.6999C16.3002 41.5999 16.2002 41.5999 16.2002 41.4999C16.0002 41.2999 15.7002 41.0999 15.4002 40.9999C15.1002 40.7999 14.8002 40.5999 14.6002 40.3999C14.4002 40.1999 14.2002 39.8999 14.1002 39.5999C14.0002 39.3999 14.0002 39.2999 14.0002 39.0999C14.0002 38.3999 14.1002 37.7999 14.3002 37.1999C14.4002 36.6999 14.6002 36.0999 14.8002 35.5999C15.0002 35.1999 15.2002 34.7999 15.4002 34.3999C15.8002 33.5999 16.1002 32.8999 16.5002 32.0999C16.6002 31.8999 16.7002 31.7999 16.7002 31.5999L16.8002 31.4999V31.5999C16.8002 32.5999 16.8002 33.6999 16.8002 34.6999C16.8002 35.6999 16.8002 36.6999 16.8002 37.6999C16.8002 37.9999 16.8002 38.3999 16.8002 38.6999C16.8002 38.7999 16.8002 38.9999 16.8002 39.0999C16.8002 39.2999 16.8002 39.4999 16.8002 39.5999C16.8002 39.9999 16.8002 40.3999 16.8002 40.7999C16.9002 41.2999 17.0002 41.4999 16.9002 41.7999ZM0.400195 40.3999C0.300195 40.1999 0.300195 40.2999 0.400195 40.3999C0.300195 40.2999 0.200195 40.3999 0.200195 40.3999C0.200195 40.3999 0.200195 40.3999 0.400195 40.3999C0.300195 40.3999 0.300195 40.3999 0.400195 40.3999Z" fill="#B542FB"/>
<path d="M25.0998 22.1C25.6998 22.1 26.0998 22.1 26.5998 22.1H26.6998C26.5998 22.1 26.5998 22.1 26.4998 22.1C26.2998 22.1 25.9998 22.1 25.7998 22.1C25.3998 22.1 25.0998 22.1 24.6998 22.1C24.4998 22.1 24.2998 22.1 23.9998 22.1C23.8998 22.1 23.7998 22.1 23.6998 22C23.6998 21.9 23.5998 21.9 23.4998 21.9C23.0998 21.9 22.7998 21.9 22.3998 21.9C22.4998 21.9 22.6998 21.9 22.7998 22C22.4998 22.2 21.4998 22.2 21.3998 22C21.4998 22 21.5998 22 21.6998 21.9C21.4998 21.8 21.0998 21.8 20.9998 21.9L21.0998 22C21.1998 22.1 21.0998 22.1 21.0998 22.1C20.8998 22.1 20.5998 22.1 20.3998 22.1C20.2998 22.1 20.2998 22 20.2998 22C20.2998 21.9 20.2998 21.7 20.2998 21.6C20.2998 21.4 20.3998 21.2 20.3998 21C20.3998 20.8 20.4998 20.6 20.4998 20.4C20.4998 20.2 20.4998 20 20.5998 19.8C20.5998 19.6 20.6998 19.3 20.6998 19.1C20.6998 19 20.6998 18.9 20.6998 18.8C20.6998 18.6 20.6998 18.4 20.6998 18.2C20.6998 17.6 20.6998 16.9 20.6998 16.3C20.6998 16 20.6998 15.7 20.6998 15.4C20.6998 15.1 20.6998 14.8 20.6998 14.5C20.6998 14.1 20.7998 13.7 20.9998 13.3C21.1998 12.8 21.4998 12.4 21.6998 12C21.9998 11.5 22.1998 11 22.4998 10.5C22.7998 10 22.9998 9.5 23.1998 8.9C23.4998 8.3 23.6998 7.7 23.9998 7.1C24.1998 6.6 24.3998 6.1 24.4998 5.6C24.5998 5.3 24.6998 5 24.6998 4.7C24.5998 4.7 24.5998 4.8 24.4998 4.9C24.3998 5.4 24.1998 5.9 23.8998 6.3C23.7998 6.5 23.4998 6.5 23.2998 6.5C23.2998 6.5 23.1998 6.5 23.0998 6.5C23.0998 6.5 22.9998 6.5 22.9998 6.6V6.7C22.9998 7.3 22.8998 7.8 22.6998 8.3C22.5998 8.6 22.3998 8.9 22.2998 9.3C21.9998 9.9 21.6998 10.4 21.2998 11C21.0998 11.3 20.8998 11.5 20.6998 11.8C20.5998 11.9 20.4998 12.1 20.2998 12.2C19.9998 12.5 19.5998 12.8 18.9998 13C18.9998 13 18.8998 13 18.7998 13C18.7998 12.9 18.7998 12.9 18.7998 12.8C18.7998 10.4 18.7998 8 18.7998 5.5C18.7998 5.3 18.7998 5.1 18.7998 4.9C18.7998 4.7 18.7998 4.5 18.9998 4.4C19.0998 4.3 19.1998 4.2 19.2998 4.1C19.1998 4 19.2998 4 19.3998 4C19.9998 4 20.5998 4 21.1998 4C22.4998 4 23.7998 4 25.0998 4C26.6998 4 28.3998 4 29.9998 4C30.8998 4 31.7998 4 32.6998 4C32.7998 4 32.9998 4 33.0998 4.2C33.1998 4.3 33.3998 4.5 33.4998 4.6C33.5998 4.7 33.5998 4.7 33.3998 4.8C33.2998 4.8 33.2998 4.8 33.2998 4.9C33.2998 5.2 33.2998 5.4 33.2998 5.7C33.2998 6 33.2998 6.3 33.2998 6.6C33.2998 6.8 33.1998 7.1 33.1998 7.3C33.1998 7.4 33.1998 7.6 33.1998 7.7C33.1998 8.4 33.1998 9.1 33.1998 9.9C33.1998 11.8 33.1998 13.6 33.1998 15.5C33.1998 16.1 33.1998 16.7 33.1998 17.3C33.1998 17.6 33.2998 17.9 33.2998 18.2C33.2998 18.3 33.2998 18.5 33.2998 18.6C33.1998 18.9 33.1998 19.2 33.1998 19.5C33.1998 19.8 33.1998 20.2 33.1998 20.5C33.1998 20.7 33.1998 21 33.0998 21.2C33.0998 21.2 33.0998 21.3 33.0998 21.2C32.9998 21.2 32.9998 21.2 32.9998 21.3C32.9998 21.5 32.9998 21.7 32.9998 21.9C32.9998 22 32.9998 22 32.8998 22C32.7998 22 32.5998 22 32.4998 22C32.2998 22 32.1998 22 31.9998 22C31.5998 22 31.2998 22 30.8998 22C30.1998 22 29.3998 22 28.6998 22C28.0998 22 27.5998 22 26.9998 22C26.7998 22 26.4998 22 26.2998 22C25.9998 22 25.7998 22 25.4998 22C25.3998 22 25.2998 22 25.0998 22.1Z" fill="#B542FB"/>
<path d="M31.6 39.8C31.6 40 31.6 40.2001 31.6 40.4001C31.6 40.6001 31.6 40.6 31.4 40.6C31.1 40.6 30.9 40.6 30.6 40.6C30.1 40.6 29.7 40.6 29.2 40.6C28.9 40.6 28.5 40.6 28.2 40.6C28.1 40.6 28 40.6 27.9 40.7001C27.8 40.8001 27.7 40.8001 27.7 40.7001C27.7 40.7001 27.7 40.6 27.8 40.5C27.6 40.5 27.4 40.5 27.3 40.5C26.3 40.5 25.4 40.5 24.4 40.5C24.2 40.5 24.1 40.5 23.9 40.6C24 40.6 24 40.7001 24.1 40.7001C24.6 40.7001 25.1 40.7001 25.5 40.7001H25.6C25.6 40.8001 25.6 40.8 25.5 40.8C25.3 40.8 25.2 40.9001 25 40.9001C24.5 40.9001 24 40.9001 23.5 40.9001C23.3 40.9001 23 40.9001 22.8 40.9001C22.7 40.9001 22.7 40.9 22.6 40.8C22.6 40.7 22.5 40.7001 22.4 40.7001C22.1 40.7001 21.8 40.7001 21.4 40.7001C21.5 40.7001 21.6 40.7 21.7 40.8H21.8C21.6 41 21.5 41 21.4 41C21.1 41 20.9 41 20.6 41C20.5 41 20.5 41.0001 20.4 40.9001C20.4 40.9001 20.5 40.9 20.6 40.8C20.5 40.8 20.4 40.8 20.4 40.8C20.3 40.8 20.3 40.9001 20.3 40.9001C20.3 41.0001 20.3 41 20.2 41C20 41 19.8 41.1 19.5 41.1C19.3 41.1 19 41.1 18.8 41.1C18.6 41.1 18.5 41.0001 18.4 40.9001C18.3 40.8001 18.2 40.6 18.1 40.5C18 40.5 18 40.4 18 40.3C18 36.7 18 33.1 18 29.6C18 29.3 18.1 29.1 18.2 28.9C18.5 27.9 18.9 27 19.2 26C19.4 25.2 19.7 24.5001 19.9 23.7001C19.9 23.6001 20 23.5 20 23.4C20 23.3 20.2 23.3 20.3 23.3C20.8 23.3 21.2 23.3 21.7 23.3C22 23.3 22.2 23.3 22.5 23.3C25.5 23.3 28.5 23.3 31.5 23.3C31.6 23.3 31.7 23.3 31.8 23.4C31.9 23.5 32 23.6001 32 23.7001C32.1 23.9001 32.2 24.1 32.1 24.3C32 24.4 32 24.6001 32.1 24.7001C32.1 24.8001 32.1 24.9 32.1 25C32.1 25.4 32.1 25.7 32.1 26.1C32.1 26.5001 32.1 26.8001 32.1 27.2001C32.1 27.5001 32.1 27.8 32.1 28.1C32.1 28.9001 32.1 29.7 32.1 30.5C32.1 31.4 32.1 32.3001 32.1 33.2001C32.1 33.5001 32.1 33.8 32.1 34.1C32.1 34.4001 32.1 34.7 32.1 35C32.1 35.2 32.1 35.3 32.1 35.5C32.1 35.9 32.1 36.3 32.2 36.6C32.2 36.8 32.2 36.9 32.2 37.1C32.2 37.3 32.2 37.5001 32.1 37.7001C32.1 37.8001 32.1 37.8001 32.1 37.9001C32.1 38.2001 32.1 38.6001 32.1 38.9001C32.1 39.2001 32.1 39.4001 32.1 39.7001C32.1 39.8001 32.1 39.8001 32.1 39.9001C31.7 39.9001 31.7 39.9 31.6 39.8Z" fill="#B542FB"/>
<path d="M5.4001 7.4001C5.5001 7.7001 5.7001 7.8001 5.9001 8.0001C6.1001 8.3001 6.3001 8.5001 6.5001 8.8001C6.7001 9.1001 6.9001 9.4001 7.2001 9.6001C7.5001 9.9001 7.7001 10.3001 8.0001 10.6001C8.3001 11.0001 8.5001 11.4001 8.9001 11.7001C9.1001 12.2001 9.5001 12.4001 10.0001 12.5001C10.4001 12.6001 10.7001 12.7001 11.1001 12.8001C11.5001 12.9001 11.8001 13.0001 12.1001 13.2001C12.5001 13.4001 12.8001 13.6001 13.1001 13.9001C13.3001 14.1001 13.6001 14.3001 13.8001 14.5001C14.1001 14.8001 14.5001 15.1001 14.8001 15.4001C15.2001 15.8001 15.6001 16.3001 16.0001 16.8001C16.2001 17.1001 16.4001 17.5001 16.5001 17.9001C16.5001 18.0001 16.5001 18.2001 16.5001 18.4001C16.5001 18.8001 16.5001 19.1001 16.4001 19.5001C16.3001 19.8001 16.1001 20.1001 16.0001 20.3001C15.9001 20.6001 15.7001 20.8001 15.6001 21.1001C15.4001 21.4001 15.3001 21.7001 15.3001 22.1001C15.2001 22.4001 15.2001 22.7001 15.1001 23.0001C15.1001 23.2001 15.1001 23.4001 15.0001 23.5001C15.0001 23.6001 15.0001 23.6001 14.9001 23.6001C14.4001 23.6001 14.0001 23.6001 13.5001 23.6001C12.8001 23.6001 12.1001 23.6001 11.4001 23.6001C10.9001 23.6001 10.4001 23.6001 9.9001 23.6001H10.0001C10.3001 23.6001 10.6001 23.6001 10.8001 23.6001C10.8001 23.6001 11.0001 23.6001 10.9001 23.7001C10.9001 23.7001 10.8001 23.7001 10.7001 23.7001C10.5001 23.7001 10.3001 23.7001 10.0001 23.7001C9.4001 23.7001 8.8001 23.7001 8.1001 23.7001C8.0001 23.7001 7.8001 23.7001 7.7001 23.6001C7.7001 23.6001 7.6001 23.5001 7.6001 23.6001V23.7001C7.6001 23.7001 7.6001 23.7001 7.6001 23.8001C7.5001 23.9001 7.5001 23.9001 7.4001 23.9001C7.4001 23.9001 7.3001 23.9001 7.3001 23.8001C7.3001 23.6001 7.1001 23.6001 7.0001 23.6001C6.5001 23.5001 5.9001 23.6001 5.4001 23.6001C5.3001 23.6001 5.2001 23.6001 5.0001 23.6001C5.1001 23.6001 5.2001 23.7001 5.2001 23.7001C5.2001 23.7001 5.3001 23.7001 5.3001 23.8001C5.3001 23.8001 5.3001 23.8001 5.2001 23.8001C5.1001 23.8001 5.1001 23.8001 5.0001 23.8001C4.4001 23.9001 3.9001 23.9001 3.3001 23.9001C3.1001 23.9001 3.0001 23.9001 2.9001 23.7001L2.8001 23.6001C2.6001 23.5001 2.6001 23.3001 2.6001 23.1001C2.6001 20.3001 2.6001 17.6001 2.6001 14.8001C2.6001 12.0001 2.6001 9.1001 2.6001 6.3001C2.6001 6.1001 2.6001 5.9001 2.8001 5.8001C3.0001 5.8001 3.1001 5.7001 3.2001 5.6001H3.3001C3.7001 5.6001 4.2001 5.6001 4.6001 5.6001C6.7001 5.6001 8.9001 5.6001 11.0001 5.6001C11.2001 5.6001 11.5001 5.6001 11.7001 5.6001C12.3001 5.6001 12.9001 5.6001 13.5001 5.6001C14.0001 5.6001 14.6001 5.6001 15.1001 5.6001C15.7001 5.6001 16.3001 5.6001 16.8001 5.6001C16.9001 5.6001 17.0001 5.6001 17.0001 5.7001C17.1001 5.8001 17.3001 6.0001 17.4001 6.1001C17.5001 6.2001 17.5001 6.2001 17.5001 6.3001C17.5001 7.1001 17.5001 7.9001 17.5001 8.7001C17.5001 9.8001 17.5001 10.9001 17.5001 12.0001C17.5001 12.2001 17.5001 12.4001 17.4001 12.6001C17.4001 12.6001 17.4001 12.7001 17.3001 12.7001C17.3001 12.7001 17.2001 12.7001 17.2001 12.6001C17.1001 12.5001 17.1001 12.4001 17.1001 12.3001C17.0001 12.0001 17.0001 11.6001 17.0001 11.3001C17.0001 10.9001 17.1001 10.6001 17.1001 10.2001C17.1001 9.8001 17.2001 9.5001 17.0001 9.1001C16.9001 8.9001 16.8001 8.8001 16.6001 8.7001C16.4001 8.6001 16.2001 8.5001 15.9001 8.4001C15.4001 8.3001 14.9001 8.4001 14.5001 8.9001C14.3001 9.2001 14.1001 9.6001 14.0001 10.0001C13.9001 10.4001 13.9001 10.8001 14.1001 11.2001C14.2001 11.4001 14.3001 11.6001 14.5001 11.8001C14.6001 11.9001 14.8001 12.0001 14.9001 12.2001C15.0001 12.3001 15.0001 12.3001 14.9001 12.4001C14.9001 12.4001 14.9001 12.4001 14.8001 12.4001C14.6001 12.4001 14.3001 12.4001 14.1001 12.4001C13.5001 12.4001 12.9001 12.3001 12.4001 12.1001C11.9001 11.9001 11.4001 11.7001 10.9001 11.5001C10.4001 11.3001 9.8001 11.0001 9.2001 10.6001C8.8001 10.3001 8.4001 10.1001 8.0001 9.7001C7.6001 9.4001 7.2001 9.0001 7.0001 8.5001C7.0001 8.4001 6.9001 8.3001 6.8001 8.2001C6.8001 8.1001 6.7001 8.1001 6.7001 8.2001C6.5001 8.4001 6.5001 8.4001 6.3001 8.2001C6.1001 8.1001 5.9001 7.8001 5.6001 7.6001C5.6001 7.5001 5.5001 7.5001 5.4001 7.4001Z" fill="#B542FB"/>
<path d="M6.3 23.7C6.4 23.7 6.6 23.7 6.8 23.7C6.8 23.7 6.9 23.7 6.9 23.8L6.8 23.9C6.5 23.9 6.3 23.9 6 23.9C5.9 23.9 5.8 23.9 5.6 23.8C5.6 23.8 5.5 23.8 5.5 23.7C5.5 23.7 5.5 23.7 5.6 23.6C5.7 23.5 5.9 23.5 6 23.5C6.1 23.6 6.2 23.7 6.3 23.7Z" fill="#B542FB"/>
<path d="M22.5001 40.9001C22.5001 41.0001 22.5001 41.0001 22.5001 40.9001C22.4001 41.0001 22.3001 41 22.2001 41C22.2001 41 22.1001 41.0001 22.1001 40.9001C22.1001 40.9001 22.1001 40.8 22.2001 40.8C22.3001 40.9 22.4001 40.9001 22.5001 40.9001Z" fill="#B542FB"/>
<path d="M23.4001 22.2999H23.3001C23.2001 22.1999 23.2001 22.2 23.3001 22.2C23.4001 22.2 23.4001 22.2 23.5001 22.2L23.6001 22.2999C23.6001 22.2999 23.5001 22.2999 23.4001 22.2999Z" fill="#B542FB"/>
<path d="M13.3001 23.7001C13.3001 23.8001 13.2001 23.8001 13.2001 23.8001C13.1001 23.8001 13.1001 23.8001 13.1001 23.7001C13.1001 23.6001 13.2001 23.6001 13.2001 23.6001C13.2001 23.6001 13.2001 23.7001 13.3001 23.7001Z" fill="#B542FB"/>
</g>
<defs>
<clipPath id="clip0_596_2119">
<rect width="33.6" height="38.7" fill="white" transform="translate(0 4)"/>
</clipPath>
</defs>
</svg>
