<svg width="242" height="50" viewBox="0 0 242 50" fill="none" xmlns="http://www.w3.org/2000/svg">
<path d="M44.9321 24.3793H49.6493L51.241 20.6931H60.6176L62.2093 24.3793H67.1002L58.4471 5.40603H53.7299L44.9321 24.3793ZM52.7459 17.2508L55.9583 9.87831L59.1417 17.2508H52.7459Z" fill="#F8F1E7"/>
<path d="M69.2067 24.3793H82.4613V20.6389H73.7792V5.40603H69.2067V24.3793Z" fill="#F8F1E7"/>
<path d="M83.7276 14.8656C83.7276 20.3678 88.3001 24.5691 94.3486 24.5691C97.3005 24.5691 100.397 23.2409 102.539 21.181L99.8472 18.4434C98.4002 19.7986 96.4034 20.666 94.5801 20.666C91.1073 20.666 88.4159 18.1181 88.4159 14.8114C88.4159 11.5046 91.1073 8.98385 94.5801 8.98385C96.4612 8.98385 98.4581 9.95962 99.8472 11.4504L102.51 8.41465C100.513 6.49022 97.4452 5.27051 94.5222 5.27051C88.387 5.27051 83.7276 9.39042 83.7276 14.8656Z" fill="#F8F1E7"/>
<path d="M105.269 24.3793H109.841V16.8984H119.015V24.3793H123.588V5.40603H119.015V13.3206H109.841V5.40603H105.269V24.3793Z" fill="#F8F1E7"/>
<path d="M128.048 24.3793H143.791V20.8286H132.62V16.6274H142.402V13.0767H132.62V8.95675H143.473V5.40603H128.048V24.3793Z" fill="#F8F1E7"/>
<path d="M147.379 24.3793H151.951V18.9584H156.611L159.823 24.3793H165.003L160.691 18.1181C163.151 17.0339 164.482 14.9198 164.482 11.9925C164.482 7.79125 161.473 5.40603 156.177 5.40603H147.379V24.3793ZM151.951 15.3806V8.95675H156.177C158.694 8.95675 160.141 10.0138 160.141 12.128C160.141 14.2964 158.694 15.3806 156.177 15.3806H151.951Z" fill="#F8F1E7"/>
<path d="M168.321 24.3793H172.893V5.40603H168.321V24.3793Z" fill="#F8F1E7"/>
<path d="M177.393 24.3793H181.763V12.2093L191.573 24.3793H195.741V5.40603H191.4V17.6031L181.56 5.40603H177.393V24.3793Z" fill="#F8F1E7"/>
<path d="M198.753 14.8927C198.753 20.3949 203.412 24.5691 209.548 24.5691C212.355 24.5691 215.625 23.5662 217.767 22.1025V14.8114H213.802V19.7986C212.5 20.422 211.053 20.8286 209.837 20.8286C206.249 20.8286 203.441 18.2537 203.441 14.8927C203.441 11.5588 206.22 8.98385 209.808 8.98385C211.776 8.98385 213.86 9.79699 215.365 11.098L217.94 8.03519C215.886 6.3547 212.818 5.27051 209.808 5.27051C203.499 5.27051 198.753 9.41753 198.753 14.8927Z" fill="#F8F1E7"/>
<path d="M219.449 24.3793H224.166L225.758 20.6931H235.134L236.726 24.3793H241.617L232.964 5.40603H228.246L219.449 24.3793ZM227.262 17.2508L230.475 9.87831L233.658 17.2508H227.262Z" fill="#F8F1E7"/>
<path d="M52.0574 34.9925V36.2057C51.6886 36.0135 51.3534 35.8813 51.0517 35.8093C50.7584 35.7292 50.3812 35.6892 49.9203 35.6892C49.0738 35.6892 48.3656 35.9654 47.7957 36.518C47.2342 37.0625 46.9534 37.7872 46.9534 38.6921C46.9534 39.6129 47.2342 40.3457 47.7957 40.8902C48.3572 41.4347 49.0989 41.707 50.0208 41.707C50.8338 41.707 51.5168 41.5068 52.07 41.1064V42.3556C51.5504 42.6839 50.8296 42.8481 49.9077 42.8481C48.6422 42.8481 47.6071 42.4717 46.8025 41.719C45.998 40.9663 45.5957 39.9573 45.5957 38.6921C45.5957 37.4669 45.998 36.4699 46.8025 35.7012C47.6155 34.9324 48.6422 34.548 49.8825 34.548C50.7877 34.548 51.5126 34.6962 52.0574 34.9925Z" fill="#F8F1E7"/>
<path d="M59.3799 39.7371H62.0953L61.957 39.3287C61.6385 38.3838 61.3787 37.603 61.1776 36.9864C60.9764 36.3618 60.8549 35.9734 60.813 35.8213L60.7502 35.5931C60.658 35.9694 60.2473 37.2146 59.5182 39.3287L59.3799 39.7371ZM63.1136 42.752L62.4473 40.7701H59.0279L58.349 42.752H56.9787L59.9079 34.6562H61.605L64.4964 42.752H63.1136Z" fill="#F8F1E7"/>
<path d="M69.6527 42.752L70.3064 34.6562H71.8401L72.9715 37.611C73.1727 38.1155 73.3738 38.652 73.575 39.2206C73.7761 39.7811 73.927 40.2175 74.0275 40.5298L74.191 40.9983C74.5765 39.9092 74.9997 38.7801 75.4607 37.611L76.6424 34.6562H78.1761L78.9555 42.752H77.6733L77.3715 39.5809L77.1075 36.3378C76.7304 37.3548 76.3197 38.4358 75.8755 39.5809L74.6938 42.5958H73.6755L72.5315 39.5809L71.3875 36.3858C71.3875 36.7382 71.3205 37.8032 71.1864 39.5809L70.935 42.752H69.6527Z" fill="#F8F1E7"/>
<path d="M85.9348 38.8602H87.041C87.6529 38.8602 88.118 38.7161 88.4365 38.4278C88.7633 38.1395 88.9268 37.7592 88.9268 37.2867C88.9268 36.7902 88.7633 36.3978 88.4365 36.1096C88.1096 35.8213 87.6361 35.6771 87.0159 35.6771H85.9348V38.8602ZM84.6399 34.6562H87.0662C88.0384 34.6562 88.8094 34.9044 89.3793 35.4009C89.9492 35.8893 90.2342 36.518 90.2342 37.2867C90.2342 38.0554 89.945 38.68 89.3668 39.1605C88.7968 39.641 88.0551 39.8812 87.1416 39.8812H85.9348V42.752H84.6399V34.6562Z" fill="#F8F1E7"/>
<path d="M100.603 39.677V34.6562H101.898V39.653C101.898 40.702 101.613 41.4988 101.043 42.0433C100.473 42.5878 99.6854 42.8601 98.6797 42.8601C97.6908 42.8601 96.9113 42.5958 96.3414 42.0673C95.7715 41.5308 95.4866 40.7581 95.4866 39.7491V34.6562H96.7814V39.7371C96.7814 40.4257 96.9533 40.9302 97.2969 41.2505C97.6489 41.5628 98.1098 41.719 98.6797 41.719C99.962 41.719 100.603 41.0383 100.603 39.677Z" fill="#F8F1E7"/>
<path d="M112.249 34.9805V36.2057C111.687 35.8693 111.05 35.7012 110.338 35.7012C109.877 35.7012 109.512 35.8013 109.244 36.0015C108.984 36.1936 108.854 36.4499 108.854 36.7702C108.854 37.0905 108.984 37.3468 109.244 37.5389C109.504 37.7311 109.902 37.9393 110.438 38.1635C110.79 38.3077 111.063 38.4318 111.255 38.5359C111.457 38.64 111.683 38.7882 111.934 38.9803C112.194 39.1645 112.383 39.3887 112.5 39.653C112.626 39.9092 112.689 40.2055 112.689 40.5418C112.689 41.2545 112.425 41.8151 111.897 42.2235C111.369 42.6319 110.686 42.8361 109.847 42.8361C108.917 42.8361 108.146 42.6639 107.534 42.3196V41.0343C108.196 41.5068 108.963 41.743 109.835 41.743C110.296 41.743 110.66 41.6429 110.929 41.4427C111.197 41.2345 111.331 40.9502 111.331 40.5899C111.331 40.3737 111.251 40.1775 111.092 40.0013C110.933 39.8171 110.761 39.681 110.577 39.5929C110.392 39.4968 110.116 39.3687 109.747 39.2086C109.529 39.1125 109.374 39.0444 109.282 39.0044C109.198 38.9643 109.055 38.8923 108.854 38.7882C108.653 38.6841 108.502 38.596 108.402 38.5239C108.31 38.4518 108.192 38.3517 108.05 38.2236C107.907 38.0955 107.803 37.9674 107.735 37.8392C107.677 37.7111 107.618 37.563 107.559 37.3948C107.509 37.2186 107.484 37.0304 107.484 36.8303C107.484 36.1416 107.744 35.5971 108.263 35.1967C108.791 34.7963 109.47 34.5961 110.3 34.5961C111.063 34.5961 111.712 34.7242 112.249 34.9805Z" fill="#F8F1E7"/>
<path d="M127.115 39.7371H129.831L129.692 39.3287C129.374 38.3838 129.114 37.603 128.913 36.9864C128.712 36.3618 128.59 35.9734 128.548 35.8213L128.486 35.5931C128.393 35.9694 127.983 37.2146 127.254 39.3287L127.115 39.7371ZM130.849 42.752L130.183 40.7701H126.763L126.084 42.752H124.714L127.643 34.6562H129.34L132.232 42.752H130.849Z" fill="#F8F1E7"/>
<path d="M137.388 42.752L138.042 34.6562H139.576L140.707 37.611C140.908 38.1155 141.109 38.652 141.31 39.2206C141.512 39.7811 141.662 40.2175 141.763 40.5298L141.926 40.9983C142.312 39.9092 142.735 38.7801 143.196 37.611L144.378 34.6562H145.912L146.691 42.752H145.409L145.107 39.5809L144.843 36.3378C144.466 37.3548 144.055 38.4358 143.611 39.5809L142.429 42.5958H141.411L140.267 39.5809L139.123 36.3858C139.123 36.7382 139.056 37.8032 138.922 39.5809L138.67 42.752H137.388Z" fill="#F8F1E7"/>
<path d="M153.67 41.731H155.33C156.394 41.731 156.926 41.3106 156.926 40.4698C156.926 40.0614 156.78 39.7451 156.486 39.5209C156.201 39.2886 155.774 39.1725 155.204 39.1725H153.67V41.731ZM153.67 35.6771V38.1635H154.839C155.468 38.1635 155.933 38.0434 156.235 37.8032C156.545 37.555 156.7 37.2346 156.7 36.8423C156.7 36.4979 156.562 36.2177 156.285 36.0015C156.017 35.7852 155.606 35.6771 155.053 35.6771H153.67ZM152.375 34.6562H155.154C156.042 34.6562 156.742 34.8563 157.253 35.2567C157.764 35.6491 158.02 36.1696 158.02 36.8182C158.02 37.2667 157.886 37.6591 157.618 37.9954C157.358 38.3317 157.023 38.5479 156.612 38.644C157.073 38.7241 157.458 38.9283 157.768 39.2566C158.087 39.5849 158.246 40.0253 158.246 40.5779C158.246 41.2185 158.016 41.743 157.555 42.1514C157.102 42.5518 156.461 42.752 155.631 42.752H152.375V34.6562Z" fill="#F8F1E7"/>
<path d="M165.513 39.7371H168.229L168.09 39.3287C167.772 38.3838 167.512 37.603 167.311 36.9864C167.11 36.3618 166.988 35.9734 166.946 35.8213L166.883 35.5931C166.791 35.9694 166.381 37.2146 165.651 39.3287L165.513 39.7371ZM169.247 42.752L168.581 40.7701H165.161L164.482 42.752H163.112L166.041 34.6562H167.738L170.63 42.752H169.247Z" fill="#F8F1E7"/>
<path d="M180.475 34.9805V36.2057C179.914 35.8693 179.277 35.7012 178.564 35.7012C178.103 35.7012 177.739 35.8013 177.471 36.0015C177.211 36.1936 177.081 36.4499 177.081 36.7702C177.081 37.0905 177.211 37.3468 177.471 37.5389C177.73 37.7311 178.128 37.9393 178.665 38.1635C179.017 38.3077 179.289 38.4318 179.482 38.5359C179.683 38.64 179.909 38.7882 180.161 38.9803C180.421 39.1645 180.609 39.3887 180.727 39.653C180.852 39.9092 180.915 40.2055 180.915 40.5418C180.915 41.2545 180.651 41.8151 180.123 42.2235C179.595 42.6319 178.912 42.8361 178.074 42.8361C177.144 42.8361 176.373 42.6639 175.761 42.3196V41.0343C176.423 41.5068 177.19 41.743 178.061 41.743C178.522 41.743 178.887 41.6429 179.155 41.4427C179.423 41.2345 179.557 40.9502 179.557 40.5899C179.557 40.3737 179.478 40.1775 179.319 40.0013C179.159 39.8171 178.988 39.681 178.803 39.5929C178.619 39.4968 178.342 39.3687 177.973 39.2086C177.756 39.1125 177.6 39.0444 177.508 39.0044C177.424 38.9643 177.282 38.8923 177.081 38.7882C176.88 38.6841 176.729 38.596 176.628 38.5239C176.536 38.4518 176.419 38.3517 176.276 38.2236C176.134 38.0955 176.029 37.9674 175.962 37.8392C175.903 37.7111 175.845 37.563 175.786 37.3948C175.736 37.2186 175.711 37.0304 175.711 36.8303C175.711 36.1416 175.97 35.5971 176.49 35.1967C177.018 34.7963 177.697 34.5961 178.527 34.5961C179.289 34.5961 179.939 34.7242 180.475 34.9805Z" fill="#F8F1E7"/>
<path d="M190.991 34.9805V36.2057C190.429 35.8693 189.792 35.7012 189.08 35.7012C188.619 35.7012 188.255 35.8013 187.986 36.0015C187.727 36.1936 187.597 36.4499 187.597 36.7702C187.597 37.0905 187.727 37.3468 187.986 37.5389C188.246 37.7311 188.644 37.9393 189.181 38.1635C189.533 38.3077 189.805 38.4318 189.998 38.5359C190.199 38.64 190.425 38.7882 190.677 38.9803C190.936 39.1645 191.125 39.3887 191.242 39.653C191.368 39.9092 191.431 40.2055 191.431 40.5418C191.431 41.2545 191.167 41.8151 190.639 42.2235C190.111 42.6319 189.428 42.8361 188.59 42.8361C187.66 42.8361 186.888 42.6639 186.277 42.3196V41.0343C186.939 41.5068 187.706 41.743 188.577 41.743C189.038 41.743 189.403 41.6429 189.671 41.4427C189.939 41.2345 190.073 40.9502 190.073 40.5899C190.073 40.3737 189.994 40.1775 189.834 40.0013C189.675 39.8171 189.503 39.681 189.319 39.5929C189.135 39.4968 188.858 39.3687 188.489 39.2086C188.271 39.1125 188.116 39.0444 188.024 39.0044C187.94 38.9643 187.798 38.8923 187.597 38.7882C187.396 38.6841 187.245 38.596 187.144 38.5239C187.052 38.4518 186.935 38.3517 186.792 38.2236C186.65 38.0955 186.545 37.9674 186.478 37.8392C186.419 37.7111 186.36 37.563 186.302 37.3948C186.252 37.2186 186.226 37.0304 186.226 36.8303C186.226 36.1416 186.486 35.5971 187.006 35.1967C187.534 34.7963 188.213 34.5961 189.042 34.5961C189.805 34.5961 190.455 34.7242 190.991 34.9805Z" fill="#F8F1E7"/>
<path d="M198.804 39.7371H201.519L201.381 39.3287C201.063 38.3838 200.803 37.603 200.602 36.9864C200.4 36.3618 200.279 35.9734 200.237 35.8213L200.174 35.5931C200.082 35.9694 199.671 37.2146 198.942 39.3287L198.804 39.7371ZM202.538 42.752L201.871 40.7701H198.452L197.773 42.752H196.403L199.332 34.6562H201.029L203.92 42.752H202.538Z" fill="#F8F1E7"/>
<path d="M210.51 41.707H211.842C212.806 41.707 213.54 41.4187 214.042 40.8421C214.545 40.2656 214.797 39.5249 214.797 38.62C214.797 37.7872 214.524 37.0945 213.98 36.542C213.435 35.9894 212.71 35.7132 211.805 35.7132H210.51V41.707ZM209.19 34.6562H211.83C213.087 34.6562 214.118 35.0285 214.922 35.7732C215.727 36.518 216.129 37.4669 216.129 38.62C216.129 39.8212 215.748 40.8101 214.985 41.5869C214.231 42.3636 213.188 42.752 211.855 42.752H209.19V34.6562Z" fill="#F8F1E7"/>
<path d="M221.195 38.668C221.195 37.4108 221.547 36.4018 222.251 35.6411C222.955 34.8804 223.898 34.5 225.08 34.5C226.287 34.5 227.238 34.8804 227.934 35.6411C228.629 36.3938 228.977 37.4028 228.977 38.668C228.977 39.9333 228.625 40.9462 227.921 41.707C227.226 42.4677 226.283 42.8481 225.093 42.8481C223.911 42.8481 222.964 42.4677 222.251 41.707C221.547 40.9462 221.195 39.9333 221.195 38.668ZM223.219 36.4699C222.775 37.0064 222.553 37.7391 222.553 38.668C222.553 39.5969 222.784 40.3336 223.245 40.8782C223.706 41.4227 224.322 41.695 225.093 41.695C225.889 41.695 226.509 41.4267 226.953 40.8902C227.397 40.3537 227.619 39.6129 227.619 38.668C227.619 37.7311 227.393 36.9944 226.941 36.4579C226.496 35.9214 225.876 35.6531 225.08 35.6531C224.292 35.6531 223.672 35.9254 223.219 36.4699Z" fill="#F8F1E7"/>
<path d="M235.727 35.6892V38.644H236.896C237.433 38.644 237.839 38.5119 238.116 38.2476C238.392 37.9754 238.531 37.615 238.531 37.1666C238.531 36.1816 237.965 35.6892 236.834 35.6892H235.727ZM238.832 42.752L236.846 39.677H235.727V42.752H234.432V34.6562H236.796C237.768 34.6562 238.518 34.8844 239.046 35.3408C239.574 35.7892 239.838 36.4018 239.838 37.1786C239.83 37.7471 239.679 38.2316 239.386 38.632C239.092 39.0244 238.686 39.3087 238.166 39.4848L240.379 42.752H238.832Z" fill="#F8F1E7"/>
<g clip-path="url(#clip0_1486_16562)">
<path d="M19.571 45.5598C19.4552 45.4508 19.571 45.2328 19.4552 45.1238C19.4552 45.2328 19.3395 45.3418 19.3395 45.4508C19.3395 45.5598 19.3395 45.6688 19.3395 45.7777C19.3395 45.9957 19.3395 45.9957 19.1079 45.9957C18.9921 45.9957 18.8763 45.9957 18.8763 45.9957C18.6447 45.9957 18.4131 45.9957 18.1816 46.1047C17.95 46.1047 17.7184 46.2137 17.6026 46.2137C17.371 46.2137 17.1395 46.2137 16.9079 46.2137C16.5605 46.2137 16.3289 46.2137 15.9816 46.2137C15.5184 46.2137 15.0552 46.2137 14.5921 46.2137C14.5921 46.2137 14.5921 46.2137 14.5921 46.3227C14.5921 46.3227 14.7079 46.4317 14.5921 46.4317C14.5921 46.4317 14.4763 46.4317 14.4763 46.3227C14.3605 46.3227 14.4763 46.2137 14.4763 46.2137C14.1289 46.2137 13.6658 46.2137 13.3184 46.2137C12.971 46.2137 12.6237 46.2137 12.3921 46.2137C12.1605 46.2137 11.9289 46.2137 11.6974 46.2137H11.5816C11.4658 46.3227 11.35 46.3227 11.2342 46.3227C10.5395 46.3227 9.84472 46.3227 9.26577 46.3227C8.80261 46.3227 8.45525 46.3227 7.99209 46.3227C7.76051 46.3227 7.52893 46.3227 7.41314 46.3227H7.29735C7.06577 46.2137 6.83419 46.2137 6.7184 46.4317C6.7184 46.4317 6.60261 46.5407 6.60261 46.4317C6.37103 46.4317 6.13946 46.4317 5.90788 46.4317C5.79209 46.4317 5.56051 46.4317 5.44472 46.4317C5.44472 46.4317 5.32893 46.4317 5.32893 46.3227C5.21314 46.2137 4.98156 46.2137 4.74998 46.2137C4.74998 46.3227 4.86577 46.3227 4.86577 46.3227C4.86577 46.4317 4.74998 46.3227 4.63419 46.3227C3.93946 46.3227 3.12893 46.3227 2.43419 46.3227C2.20261 46.3227 1.97103 46.3227 1.62367 46.3227C1.2763 46.3227 1.04472 46.3227 0.69735 46.2137C0.58156 46.2137 0.58156 46.2137 0.58156 46.1047C0.465771 45.9957 0.349981 45.7777 0.234192 45.6688C0.234192 45.6688 0.234192 45.5598 0.234192 45.4508C0.234192 43.4889 0.234192 41.418 0.234192 39.4561C0.234192 37.7122 0.234192 35.8593 0.234192 34.1153C0.234192 33.6794 0.234192 33.3524 0.234192 32.9164C0.234192 32.6984 0.234192 32.4804 0.234192 32.2624C0.234192 32.1534 0.234192 31.9355 0.234192 31.8265C0.234192 31.6085 0.234192 31.4995 0.234192 31.2815V31.1725C0.234192 30.8455 0.234192 30.5185 0.234192 30.1915C0.234192 30.0825 0.234192 29.8646 0.234192 29.7556V29.6466C0.349981 29.5376 0.349981 29.5376 0.349981 29.4286V29.3196C0.349981 29.1016 0.349981 28.7746 0.234192 28.5566C0.234192 28.4476 0.234192 28.3386 0.234192 28.2296C0.234192 27.9027 0.234192 27.6847 0.234192 27.3577V27.2487C0.465771 27.0307 0.58156 26.9217 0.813139 26.7037C0.928929 26.7037 0.928929 26.5947 1.04472 26.5947C1.62367 26.5947 2.20261 26.5947 2.78156 26.5947C4.63419 26.5947 6.37103 26.5947 8.22367 26.5947C8.9184 26.5947 9.61314 26.5947 10.3079 26.5947C10.771 26.5947 11.2342 26.5947 11.6974 26.5947C12.0447 26.5947 12.3921 26.5947 12.7395 26.5947C13.0868 26.5947 13.3184 26.5947 13.6658 26.5947C14.1289 26.5947 14.5921 26.5947 15.0552 26.5947C15.75 26.5947 16.4447 26.5947 17.2552 26.5947C17.4868 26.5947 17.4868 26.5947 17.4868 26.8127C17.4868 27.0307 17.4868 27.2487 17.371 27.4667C17.371 27.6847 17.2552 28.0117 17.2552 28.2296C17.2552 28.4476 17.1395 28.7746 17.1395 28.9926C17.0237 29.3196 17.0237 29.5376 16.9079 29.8646C16.7921 30.3005 16.6763 30.7365 16.5605 31.1725C16.4447 31.8265 16.2131 32.3714 15.9816 32.9164C15.75 33.5704 15.4026 34.1153 14.9395 34.6603C14.7079 34.9873 14.3605 35.4233 14.1289 35.7503C13.6658 36.2952 13.2026 36.7312 12.6237 37.2762C12.3921 37.4942 12.0447 37.8212 11.8131 38.0391C11.5816 38.2571 11.2342 38.5841 11.0026 38.8021C10.771 39.0201 10.5395 39.2381 10.1921 39.4561C9.72893 39.7831 9.38156 40.219 8.9184 40.655C8.80261 40.764 8.68682 40.764 8.68682 40.655C8.57103 40.546 8.45524 40.546 8.33945 40.655C8.10788 40.873 7.8763 41.2 7.76051 41.418C7.41314 41.8539 7.18156 42.3989 6.94998 42.8349C6.7184 43.1619 6.60261 43.5979 6.60261 43.9248C6.60261 44.2518 6.60261 44.6878 6.7184 45.0148C6.83419 45.2328 6.94998 45.3418 7.18156 45.5598C7.29735 45.5598 7.29735 45.5598 7.41314 45.4508C7.64472 45.1238 7.76051 44.7968 7.99209 44.5788C8.33946 43.9248 8.68682 43.2709 9.14998 42.6169C8.9184 42.5079 9.26577 42.1809 9.49735 41.8539C9.72893 41.527 10.0763 41.309 10.3079 40.982C10.6552 40.655 11.0026 40.328 11.35 40.001C11.5816 39.6741 11.9289 39.4561 12.2763 39.2381C12.8552 38.6931 13.55 38.2571 14.2447 37.8212C14.5921 37.6032 15.0552 37.2762 15.4026 37.0582C15.5184 37.0582 15.5184 37.0582 15.5184 37.1672C15.6342 37.6032 15.6342 38.0391 15.5184 38.4751C15.4026 39.1291 15.171 39.7831 15.0552 40.437C14.9395 40.873 14.8237 41.309 14.7079 41.745C14.7079 41.8539 14.7079 41.9629 14.7079 42.1809C14.7079 42.5079 14.5921 42.7259 14.4763 42.9439C14.3605 43.0529 14.3605 43.1619 14.2447 43.2709C14.1289 43.4889 14.2447 43.5979 14.3605 43.7069C14.5921 43.9248 14.8237 44.1428 15.0552 44.2518C15.6342 44.5788 16.0973 44.9058 16.6763 45.2328C17.0237 45.3418 17.371 45.5598 17.7184 45.5598C18.0658 45.6688 18.4131 45.6688 18.7605 45.5598C18.7605 45.5598 18.8763 45.5598 18.8763 45.4508C18.8763 45.3418 18.7605 45.3418 18.7605 45.2328C18.5289 45.0148 18.1816 44.7968 17.8342 44.6878C17.4868 44.4698 17.1395 44.2518 16.9079 44.0338C16.6763 43.8158 16.4447 43.4889 16.3289 43.1619C16.2131 42.9439 16.2131 42.8349 16.2131 42.6169C16.2131 41.8539 16.3289 41.2 16.5605 40.546C16.6763 40.001 16.9079 39.3471 17.1395 38.8021C17.371 38.3661 17.6026 37.9301 17.8342 37.4942C18.2973 36.6222 18.6447 35.8593 19.1079 34.9873C19.2237 34.7693 19.3395 34.6603 19.3395 34.4423L19.4552 34.3333V34.4423C19.4552 35.5323 19.4552 36.7312 19.4552 37.8212C19.4552 38.9111 19.4552 40.001 19.4552 41.091C19.4552 41.418 19.4552 41.8539 19.4552 42.1809C19.4552 42.2899 19.4552 42.5079 19.4552 42.6169C19.4552 42.8349 19.4552 43.0529 19.4552 43.1619C19.4552 43.5979 19.4552 44.0338 19.4552 44.4698C19.571 45.0148 19.6868 45.2328 19.571 45.5598ZM0.465771 44.0338C0.349981 43.8158 0.349981 43.9248 0.465771 44.0338C0.349981 43.9248 0.234192 44.0338 0.234192 44.0338C0.234192 44.0338 0.234192 44.0338 0.465771 44.0338C0.349981 44.0338 0.349981 44.0338 0.465771 44.0338Z" fill="#F8F1E7"/>
<path d="M29.0645 24.0874C29.7593 24.0874 30.2224 24.0874 30.8014 24.0874H30.9171C30.8014 24.0874 30.8014 24.0874 30.6856 24.0874C30.454 24.0874 30.1066 24.0874 29.875 24.0874C29.4119 24.0874 29.0645 24.0874 28.6014 24.0874C28.3698 24.0874 28.1382 24.0874 27.7908 24.0874C27.675 24.0874 27.5593 24.0874 27.4435 23.9784C27.4435 23.8694 27.3277 23.8694 27.2119 23.8694C26.7487 23.8694 26.4014 23.8694 25.9382 23.8694C26.054 23.8694 26.2856 23.8694 26.4014 23.9784C26.054 24.1964 24.8961 24.1964 24.7803 23.9784C24.8961 23.9784 25.0119 23.9784 25.1277 23.8694C24.8961 23.7604 24.4329 23.7604 24.3171 23.8694L24.4329 23.9784C24.5487 24.0874 24.4329 24.0874 24.4329 24.0874C24.2014 24.0874 23.854 24.0874 23.6224 24.0874C23.5066 24.0874 23.5066 23.9784 23.5066 23.9784C23.5066 23.8694 23.5066 23.6514 23.5066 23.5424C23.5066 23.3244 23.6224 23.1064 23.6224 22.8884C23.6224 22.6704 23.7382 22.4524 23.7382 22.2345C23.7382 22.0165 23.7382 21.7985 23.854 21.5805C23.854 21.3625 23.9698 21.0355 23.9698 20.8175C23.9698 20.7085 23.9698 20.5995 23.9698 20.4905C23.9698 20.2726 23.9698 20.0546 23.9698 19.8366C23.9698 19.1826 23.9698 18.4197 23.9698 17.7657C23.9698 17.4387 23.9698 17.1117 23.9698 16.7847C23.9698 16.4578 23.9698 16.1308 23.9698 15.8038C23.9698 15.3678 24.0856 14.9318 24.3171 14.4959C24.5487 13.9509 24.8961 13.5149 25.1277 13.0789C25.475 12.534 25.7066 11.989 26.054 11.444C26.4014 10.899 26.6329 10.3541 26.8645 9.7001C27.2119 9.04614 27.4435 8.39217 27.7908 7.7382C28.0224 7.19323 28.254 6.64826 28.3698 6.10329C28.4856 5.7763 28.6014 5.44932 28.6014 5.12234C28.4856 5.12234 28.4856 5.23133 28.3698 5.34032C28.254 5.8853 28.0224 6.43027 27.675 6.86625C27.5592 7.08424 27.2119 7.08424 26.9803 7.08424C26.9803 7.08424 26.8645 7.08424 26.7487 7.08424C26.7487 7.08424 26.6329 7.08424 26.6329 7.19323V7.30222C26.6329 7.95619 26.5171 8.50116 26.2856 9.04614C26.1698 9.37312 25.9382 9.7001 25.8224 10.1361C25.475 10.79 25.1277 11.335 24.6645 11.989C24.4329 12.316 24.2014 12.534 23.9698 12.8609C23.854 12.9699 23.7382 13.1879 23.5066 13.2969C23.1592 13.6239 22.6961 13.9509 22.0014 14.1689C22.0014 14.1689 21.8856 14.1689 21.7698 14.1689C21.7698 14.0599 21.7698 14.0599 21.7698 13.9509C21.7698 11.335 21.7698 8.71915 21.7698 5.99429C21.7698 5.7763 21.7698 5.55831 21.7698 5.34032C21.7698 5.12234 21.7698 4.90435 22.0014 4.79535C22.1171 4.68636 22.2329 4.57736 22.3487 4.46837C22.2329 4.35938 22.3487 4.35938 22.4645 4.35938C23.1592 4.35938 23.854 4.35938 24.5487 4.35938C26.054 4.35938 27.5593 4.35938 29.0645 4.35938C30.9171 4.35938 32.8856 4.35938 34.7382 4.35938C35.7803 4.35938 36.8224 4.35938 37.8645 4.35938C37.9803 4.35938 38.2119 4.35938 38.3277 4.57736C38.4435 4.68636 38.675 4.90435 38.7908 5.01334C38.9066 5.12234 38.9066 5.12234 38.675 5.23133C38.5593 5.23133 38.5592 5.23133 38.5592 5.34032C38.5592 5.66731 38.5592 5.8853 38.5592 6.21228C38.5592 6.53926 38.5592 6.86625 38.5592 7.19323C38.5592 7.41122 38.4435 7.7382 38.4435 7.95619C38.4435 8.06519 38.4435 8.28317 38.4435 8.39217C38.4435 9.15513 38.4435 9.91809 38.4435 10.79C38.4435 12.8609 38.4435 14.8228 38.4435 16.8937C38.4435 17.5477 38.4435 18.2017 38.4435 18.8556C38.4435 19.1826 38.5592 19.5096 38.5592 19.8366C38.5592 19.9456 38.5592 20.1636 38.5592 20.2726C38.4435 20.5995 38.4435 20.9265 38.4435 21.2535C38.4435 21.5805 38.4435 22.0165 38.4435 22.3435C38.4435 22.5614 38.4435 22.8884 38.3277 23.1064C38.3277 23.1064 38.3277 23.2154 38.3277 23.1064C38.2119 23.1064 38.2119 23.1064 38.2119 23.2154C38.2119 23.4334 38.2119 23.6514 38.2119 23.8694C38.2119 23.9784 38.2119 23.9784 38.0961 23.9784C37.9803 23.9784 37.7487 23.9784 37.6329 23.9784C37.4014 23.9784 37.2856 23.9784 37.054 23.9784C36.5908 23.9784 36.2435 23.9784 35.7803 23.9784C34.9698 23.9784 34.0435 23.9784 33.2329 23.9784C32.5382 23.9784 31.9592 23.9784 31.2645 23.9784C31.0329 23.9784 30.6856 23.9784 30.454 23.9784C30.1066 23.9784 29.875 23.9784 29.5277 23.9784C29.4119 23.9784 29.2961 23.9784 29.0645 24.0874Z" fill="#F8F1E7"/>
<path d="M36.5912 43.3796C36.5912 43.5976 36.5912 43.8156 36.5912 44.0336C36.5912 44.2515 36.5912 44.2515 36.3596 44.2515C36.0123 44.2515 35.7807 44.2515 35.4333 44.2515C34.8544 44.2515 34.3912 44.2515 33.8123 44.2515C33.4649 44.2515 33.0018 44.2515 32.6544 44.2515C32.5386 44.2515 32.4228 44.2515 32.307 44.3605C32.1912 44.4695 32.0754 44.4695 32.0754 44.3605C32.0754 44.3605 32.0754 44.2515 32.1912 44.1425C31.9596 44.1425 31.7281 44.1425 31.6123 44.1425C30.4544 44.1425 29.4123 44.1425 28.2544 44.1425C28.0228 44.1425 27.907 44.1425 27.6754 44.2515C27.7912 44.2515 27.7912 44.3605 27.907 44.3605C28.486 44.3605 29.0649 44.3605 29.5281 44.3605H29.6439C29.6439 44.4695 29.6439 44.4695 29.5281 44.4695C29.2965 44.4695 29.1807 44.5785 28.9491 44.5785C28.3702 44.5785 27.7912 44.5785 27.2123 44.5785C26.9807 44.5785 26.6333 44.5785 26.4018 44.5785C26.286 44.5785 26.286 44.5785 26.1702 44.4695C26.1702 44.3605 26.0544 44.3605 25.9386 44.3605C25.5912 44.3605 25.2439 44.3605 24.7807 44.3605C24.8965 44.3605 25.0123 44.3605 25.1281 44.4695H25.2439C25.0123 44.6875 24.8965 44.6875 24.7807 44.6875C24.4333 44.6875 24.2018 44.6875 23.8544 44.6875C23.7386 44.6875 23.7386 44.6875 23.6228 44.5785C23.6228 44.5785 23.7386 44.5785 23.8544 44.4695C23.7386 44.4695 23.6228 44.4695 23.6228 44.4695C23.507 44.4695 23.507 44.5785 23.507 44.5785C23.507 44.6875 23.507 44.6875 23.3912 44.6875C23.1596 44.6875 22.9281 44.7965 22.5807 44.7965C22.3491 44.7965 22.0018 44.7965 21.7702 44.7965C21.5386 44.7965 21.4228 44.6875 21.307 44.5785C21.1912 44.4695 21.0754 44.2515 20.9596 44.1425C20.8439 44.1425 20.8439 44.0336 20.8439 43.9246C20.8439 40.0008 20.8439 36.077 20.8439 32.2622C20.8439 31.9352 20.9596 31.7172 21.0754 31.4992C21.4228 30.4093 21.886 29.4283 22.2333 28.3384C22.4649 27.4664 22.8123 26.7034 23.0439 25.8315C23.0439 25.7225 23.1596 25.6135 23.1596 25.5045C23.1596 25.3955 23.3912 25.3955 23.507 25.3955C24.086 25.3955 24.5491 25.3955 25.1281 25.3955C25.4754 25.3955 25.707 25.3955 26.0544 25.3955C29.5281 25.3955 33.0018 25.3955 36.4754 25.3955C36.5912 25.3955 36.707 25.3955 36.8228 25.5045C36.9386 25.6135 37.0544 25.7225 37.0544 25.8315C37.1702 26.0495 37.286 26.2675 37.1702 26.4855C37.0544 26.5944 37.0544 26.8124 37.1702 26.9214C37.1702 27.0304 37.1702 27.1394 37.1702 27.2484C37.1702 27.6844 37.1702 28.0114 37.1702 28.4474C37.1702 28.8833 37.1702 29.2103 37.1702 29.6463C37.1702 29.9733 37.1702 30.3003 37.1702 30.6272C37.1702 31.4992 37.1702 32.3712 37.1702 33.2431C37.1702 34.2241 37.1702 35.205 37.1702 36.186C37.1702 36.5129 37.1702 36.8399 37.1702 37.1669C37.1702 37.4939 37.1702 37.8209 37.1702 38.1479C37.1702 38.3658 37.1702 38.4748 37.1702 38.6928C37.1702 39.1288 37.1702 39.5648 37.286 39.8918C37.286 40.1098 37.286 40.2187 37.286 40.4367C37.286 40.6547 37.286 40.8727 37.1702 41.0907C37.1702 41.1997 37.1702 41.1997 37.1702 41.3087C37.1702 41.6357 37.1702 42.0717 37.1702 42.3986C37.1702 42.7256 37.1702 42.9436 37.1702 43.2706C37.1702 43.3796 37.1702 43.3796 37.1702 43.4886C36.707 43.4886 36.707 43.4886 36.5912 43.3796Z" fill="#F8F1E7"/>
<path d="M6.25408 8.06542C6.36987 8.3924 6.60145 8.50139 6.83303 8.71938C7.06461 9.04637 7.29619 9.26435 7.52777 9.59134C7.75935 9.91832 7.99093 10.2453 8.33829 10.4633C8.68566 10.7903 8.91724 11.2263 9.26461 11.5532C9.61198 11.9892 9.84356 12.4252 10.3067 12.7522C10.5383 13.2971 11.0015 13.5151 11.5804 13.6241C12.0436 13.7331 12.3909 13.8421 12.8541 13.9511C13.3172 14.0601 13.6646 14.1691 14.012 14.3871C14.4751 14.6051 14.8225 14.8231 15.1699 15.1501C15.4015 15.368 15.7488 15.586 15.9804 15.804C16.3278 16.131 16.7909 16.458 17.1383 16.785C17.6015 17.2209 18.0646 17.7659 18.5278 18.3109C18.7593 18.6379 18.9909 19.0739 19.1067 19.5098C19.1067 19.6188 19.1067 19.8368 19.1067 20.0548C19.1067 20.4908 19.1067 20.8178 18.9909 21.2537C18.8751 21.5807 18.6436 21.9077 18.5278 22.1257C18.412 22.4527 18.1804 22.6707 18.0646 22.9977C17.833 23.3246 17.7172 23.6516 17.7172 24.0876C17.6015 24.4146 17.6015 24.7416 17.4857 25.0685C17.4857 25.2865 17.4857 25.5045 17.3699 25.6135C17.3699 25.7225 17.3699 25.7225 17.2541 25.7225C16.6751 25.7225 16.212 25.7225 15.633 25.7225C14.8225 25.7225 14.012 25.7225 13.2015 25.7225C12.6225 25.7225 12.0436 25.7225 11.4646 25.7225H11.5804C11.9278 25.7225 12.2751 25.7225 12.5067 25.7225C12.5067 25.7225 12.7383 25.7225 12.6225 25.8315C12.6225 25.8315 12.5067 25.8315 12.3909 25.8315C12.1593 25.8315 11.9278 25.8315 11.5804 25.8315C10.8857 25.8315 10.1909 25.8315 9.3804 25.8315C9.26461 25.8315 9.03303 25.8315 8.91724 25.7225C8.91724 25.7225 8.80145 25.6135 8.80145 25.7225V25.8315C8.80145 25.8315 8.80145 25.8315 8.80145 25.9405C8.68566 26.0495 8.68566 26.0495 8.56987 26.0495C8.56987 26.0495 8.45408 26.0495 8.45408 25.9405C8.45408 25.7225 8.2225 25.7225 8.10672 25.7225C7.52777 25.6135 6.83303 25.7225 6.25408 25.7225C6.13829 25.7225 6.0225 25.7225 5.79093 25.7225C5.90672 25.7225 6.0225 25.8315 6.0225 25.8315C6.0225 25.8315 6.13829 25.8315 6.13829 25.9405C6.13829 25.9405 6.13829 25.9405 6.0225 25.9405C5.90671 25.9405 5.90672 25.9405 5.79093 25.9405C5.09619 26.0495 4.51724 26.0495 3.8225 26.0495C3.59093 26.0495 3.47514 26.0495 3.35935 25.8315L3.24356 25.7225C3.01198 25.6135 3.01198 25.3955 3.01198 25.1775C3.01198 22.1257 3.01198 19.1828 3.01198 16.131C3.01198 13.0792 3.01198 9.91832 3.01198 6.86648C3.01198 6.64849 3.01198 6.4305 3.24356 6.3215C3.47514 6.3215 3.59093 6.21251 3.70672 6.10352H3.8225C4.28566 6.10352 4.86461 6.10352 5.32777 6.10352C7.75935 6.10352 10.3067 6.10352 12.7383 6.10352C12.9699 6.10352 13.3172 6.10352 13.5488 6.10352C14.2436 6.10352 14.9383 6.10352 15.633 6.10352C16.212 6.10352 16.9067 6.10352 17.4857 6.10352C18.1804 6.10352 18.8751 6.10352 19.4541 6.10352C19.5699 6.10352 19.6857 6.10352 19.6857 6.21251C19.8015 6.3215 20.033 6.53949 20.1488 6.64849C20.2646 6.75748 20.2646 6.75748 20.2646 6.86648C20.2646 7.73843 20.2646 8.61039 20.2646 9.48234C20.2646 10.6813 20.2646 11.8802 20.2646 13.0792C20.2646 13.2971 20.2646 13.5151 20.1488 13.7331C20.1488 13.7331 20.1488 13.8421 20.033 13.8421C20.033 13.8421 19.9172 13.8421 19.9172 13.7331C19.8015 13.6241 19.8015 13.5151 19.8015 13.4061C19.6857 13.0792 19.6857 12.6432 19.6857 12.3162C19.6857 11.8802 19.8015 11.5532 19.8015 11.1173C19.8015 10.6813 19.9172 10.3543 19.6857 9.91832C19.5699 9.70033 19.4541 9.59134 19.2225 9.48234C18.9909 9.37335 18.7593 9.26435 18.412 9.15536C17.833 9.04637 17.2541 9.15536 16.7909 9.70033C16.5593 10.0273 16.3278 10.4633 16.212 10.8993C16.0962 11.3352 16.0962 11.7712 16.3278 12.2072C16.4436 12.4252 16.5593 12.6432 16.7909 12.8612C16.9067 12.9702 17.1383 13.0792 17.2541 13.2971C17.3699 13.4061 17.3699 13.4061 17.2541 13.5151C17.2541 13.5151 17.2541 13.5151 17.1383 13.5151C16.9067 13.5151 16.5593 13.5151 16.3278 13.5151C15.633 13.5151 14.9383 13.4061 14.3593 13.1882C13.7804 12.9702 13.2015 12.7522 12.6225 12.5342C12.0436 12.3162 11.3488 11.9892 10.6541 11.5532C10.1909 11.2263 9.72777 11.0083 9.26461 10.5723C8.80145 10.2453 8.33829 9.80933 8.10672 9.26435C8.10672 9.15536 7.99093 9.04637 7.87514 8.93737C7.87514 8.82838 7.75935 8.82838 7.75935 8.93737C7.52777 9.15536 7.52777 9.15536 7.29619 8.93737C7.06461 8.82838 6.83303 8.50139 6.48566 8.2834C6.48566 8.17441 6.36987 8.17441 6.25408 8.06542Z" fill="#F8F1E7"/>
<path d="M7.29866 25.8313C7.41445 25.8313 7.64603 25.8313 7.87761 25.8313C7.87761 25.8313 7.9934 25.8313 7.9934 25.9403L7.87761 26.0493C7.53024 26.0493 7.29866 26.0493 6.95129 26.0493C6.8355 26.0493 6.71971 26.0493 6.48813 25.9403C6.48813 25.9403 6.37234 25.9403 6.37234 25.8313C6.37234 25.8313 6.37234 25.8313 6.48813 25.7223C6.60392 25.6133 6.8355 25.6133 6.95129 25.6133C7.06708 25.7223 7.18287 25.8313 7.29866 25.8313Z" fill="#F8F1E7"/>
<path d="M26.0563 44.5788C26.0563 44.6879 26.0563 44.6879 26.0563 44.5788C25.9405 44.6879 25.8247 44.6879 25.7089 44.6879C25.7089 44.6879 25.5931 44.6879 25.5931 44.5788C25.5931 44.5788 25.5931 44.4697 25.7089 44.4697C25.8247 44.5788 25.9405 44.5788 26.0563 44.5788Z" fill="#F8F1E7"/>
<path d="M27.0959 24.3045H26.9801C26.8643 24.1963 26.8643 24.1963 26.9801 24.1963C27.0959 24.1963 27.0959 24.1963 27.2117 24.1963L27.3275 24.3045C27.3275 24.3045 27.2117 24.3045 27.0959 24.3045Z" fill="#F8F1E7"/>
<path d="M15.4002 25.8317C15.4002 25.9408 15.2845 25.9408 15.2845 25.9408C15.1687 25.9408 15.1687 25.9408 15.1687 25.8317C15.1687 25.7227 15.2845 25.7227 15.2845 25.7227C15.2845 25.7227 15.2845 25.8317 15.4002 25.8317Z" fill="#F8F1E7"/>
</g>
<defs>
<clipPath id="clip0_1486_16562">
<rect width="38.9053" height="42.1808" fill="white" transform="translate(0.00135803 4.35938)"/>
</clipPath>
</defs>
</svg>
