<svg width="78" height="78" viewBox="0 0 78 78" fill="none" xmlns="http://www.w3.org/2000/svg">
<g id="Arrow Circle">
<path id="Shape" d="M38.9976 6.50232C21.0484 6.50232 6.49763 21.0531 6.49763 39.0023C6.49763 56.9516 21.0484 71.5023 38.9976 71.5023C56.9469 71.5023 71.4976 56.9516 71.4976 39.0023C71.4976 21.0531 56.9469 6.50232 38.9976 6.50232ZM38.9976 11.3773C54.2545 11.3773 66.6226 23.7455 66.6226 39.0023C66.6226 54.2592 54.2545 66.6273 38.9976 66.6273C23.7408 66.6273 11.3726 54.2592 11.3726 39.0023C11.3726 23.7455 23.7408 11.3773 38.9976 11.3773ZM40.1447 24.5498L39.9087 24.2765C39.0433 23.4111 37.6892 23.3324 36.7349 24.0404L36.4616 24.2765L23.4589 37.2791C22.5934 38.1446 22.5148 39.499 23.2231 40.4532L23.4592 40.7266L36.4642 53.7266C37.4163 54.6783 38.9596 54.678 39.9113 53.7259C40.7765 52.8604 40.8549 51.5062 40.1467 50.5521L39.9107 50.2788L31.0644 41.4366L52.8124 41.4375C54.0464 41.4375 55.0663 40.5205 55.2277 39.3308L55.2499 39C55.2499 37.766 54.3329 36.7462 53.1432 36.5848L52.8124 36.5625L31.0709 36.5616L39.9087 27.7236C40.7741 26.8582 40.8527 25.5041 40.1447 24.5498L39.9087 24.2765L40.1447 24.5498Z" fill="#B542FB"/>
</g>
</svg>
