<svg width="265" height="240" viewBox="0 0 265 240" fill="none" xmlns="http://www.w3.org/2000/svg">
<path d="M18.9187 225.72C9.12669 225.72 1.39869 217.848 1.39869 207.72C1.39869 197.64 9.12669 189.816 18.9187 189.816C28.3747 189.816 35.6707 196.104 36.7747 205.224H27.1747C26.4547 200.904 23.2387 197.928 19.0147 197.928C13.9267 197.928 10.7107 201.864 10.7107 207.72C10.7107 213.624 13.9267 217.608 19.0147 217.608C23.1907 217.608 26.4067 214.632 27.1747 210.264H36.7747C35.6227 219.48 28.3747 225.72 18.9187 225.72ZM52.6612 225.48C45.0292 225.48 39.1732 219.48 39.1732 212.088C39.1732 204.696 45.0292 198.696 52.6612 198.696C60.2932 198.696 66.1492 204.696 66.1492 212.088C66.1492 219.48 60.2932 225.48 52.6612 225.48ZM52.6612 218.136C55.2052 218.136 57.6052 216.12 57.6052 212.088C57.6052 208.056 55.2052 206.088 52.6612 206.088C50.1172 206.088 47.7172 208.056 47.7172 212.088C47.7172 216.12 50.1172 218.136 52.6612 218.136ZM78.1226 211.416V225H69.9146V199.176H77.4506V202.296C79.4666 200.04 81.8666 198.696 85.1306 198.696C90.2186 198.696 93.8186 202.104 93.8186 208.392V225H85.6106V211.128C85.6106 207.864 84.4586 206.088 81.9626 206.088C79.9466 206.088 78.1226 207.528 78.1226 211.416ZM116.071 216.936V224.088C114.247 225.096 112.519 225.48 110.215 225.48C104.407 225.48 100.999 222.024 100.999 216.12V206.328H96.1987V199.176H100.999V191.592H109.207V199.176H116.263V206.328H109.207V214.2C109.207 216.696 110.263 217.848 112.519 217.848C113.863 217.848 115.159 217.512 116.071 216.936ZM135.05 225V222.504C133.226 224.568 130.97 225.48 127.658 225.48C122.282 225.48 118.682 222.264 118.682 217.368C118.682 212.328 122.762 209.592 130.154 209.592C131.546 209.592 132.842 209.688 133.946 209.88V208.632C133.946 206.376 132.65 205.128 130.346 205.128C128.09 205.128 126.746 206.376 126.458 208.632H119.066C119.546 202.632 124.01 198.696 130.394 198.696C137.498 198.696 141.674 202.536 141.674 209.064V225H135.05ZM126.41 217.128C126.41 218.808 127.562 219.816 129.578 219.816C132.314 219.816 133.946 218.52 133.946 216.408V214.776C132.698 214.536 131.738 214.44 130.682 214.44C127.898 214.44 126.41 215.352 126.41 217.128ZM158.166 225.48C150.486 225.48 145.158 219.96 145.158 212.088C145.158 204.408 150.726 198.696 158.166 198.696C165.27 198.696 170.55 203.496 171.27 210.696H162.534C162.39 207.864 160.71 206.088 158.214 206.088C155.334 206.088 153.654 208.296 153.654 212.088C153.654 215.976 155.286 218.136 158.214 218.136C160.758 218.136 162.342 216.408 162.534 213.48H171.27C170.55 220.872 165.51 225.48 158.166 225.48ZM192.336 216.936V224.088C190.512 225.096 188.784 225.48 186.48 225.48C180.672 225.48 177.264 222.024 177.264 216.12V206.328H172.464V199.176H177.264V191.592H185.472V199.176H192.528V206.328H185.472V214.2C185.472 216.696 186.528 217.848 188.784 217.848C190.128 217.848 191.424 217.512 192.336 216.936Z" fill="#13141D"/>
<path d="M235.603 222.456L239.683 223.032L239.443 225H229.027L228.691 224.424L230.323 206.712H230.131C229.427 209.912 228.675 212.712 227.875 215.112C227.075 217.48 226.163 219.448 225.139 221.016C224.147 222.584 222.963 223.752 221.587 224.52C220.243 225.288 218.659 225.672 216.835 225.672C214.819 225.672 213.171 225.24 211.891 224.376C210.611 223.512 209.699 222.216 209.155 220.488C208.611 218.76 208.403 216.584 208.531 213.96L209.635 193.224L206.083 192.504L206.323 190.584H221.107L220.867 192.504L217.075 193.32L215.923 214.344C215.827 216.264 215.859 217.768 216.019 218.856C216.211 219.944 216.579 220.712 217.123 221.16C217.667 221.576 218.403 221.784 219.331 221.784C220.419 221.784 221.427 221.4 222.355 220.632C223.283 219.832 224.131 218.712 224.899 217.272C225.667 215.832 226.355 214.152 226.963 212.232C227.571 210.28 228.083 208.152 228.499 205.848C228.947 203.544 229.315 201.128 229.603 198.6L230.179 193.272L226.483 192.504L226.723 190.584H240.979L240.787 192.504L237.331 193.272L235.603 222.456ZM252.649 223.704C254.025 223.704 255.161 223.368 256.057 222.696C256.953 221.992 257.401 221 257.401 219.72C257.401 218.952 257.193 218.312 256.777 217.8C256.393 217.288 255.801 216.84 255.001 216.456C254.201 216.072 253.209 215.688 252.025 215.304C250.681 214.856 249.401 214.312 248.185 213.672C247.001 213.032 246.041 212.216 245.305 211.224C244.569 210.232 244.201 208.984 244.201 207.48C244.201 206.52 244.409 205.576 244.825 204.648C245.241 203.72 245.881 202.872 246.745 202.104C247.641 201.336 248.745 200.728 250.057 200.28C251.401 199.8 252.985 199.56 254.809 199.56C256.313 199.56 257.705 199.768 258.985 200.184C260.265 200.6 261.289 201.192 262.057 201.96C262.857 202.728 263.257 203.624 263.257 204.648C263.257 205.448 262.969 206.088 262.393 206.568C261.849 207.048 261.161 207.288 260.329 207.288C259.721 207.288 259.129 207.192 258.553 207C257.977 206.808 257.513 206.584 257.161 206.328L257.593 204.312C257.817 203.416 257.673 202.712 257.161 202.2C256.681 201.688 255.785 201.432 254.473 201.432C253.449 201.432 252.601 201.592 251.929 201.912C251.257 202.2 250.761 202.6 250.441 203.112C250.121 203.592 249.961 204.168 249.961 204.84C249.961 205.544 250.153 206.152 250.537 206.664C250.953 207.176 251.529 207.64 252.265 208.056C253.001 208.44 253.833 208.808 254.761 209.16C255.913 209.544 256.969 209.976 257.929 210.456C258.921 210.904 259.785 211.432 260.521 212.04C261.257 212.616 261.833 213.32 262.249 214.152C262.665 214.952 262.873 215.912 262.873 217.032C262.873 218.76 262.425 220.28 261.529 221.592C260.633 222.872 259.369 223.88 257.737 224.616C256.105 225.32 254.169 225.672 251.929 225.672C250.233 225.672 248.713 225.48 247.369 225.096C246.057 224.744 245.017 224.232 244.249 223.56C243.481 222.856 243.097 222.008 243.097 221.016C243.097 220.024 243.417 219.288 244.057 218.808C244.697 218.296 245.481 218.04 246.409 218.04C246.889 218.04 247.369 218.104 247.849 218.232C248.361 218.328 248.777 218.472 249.097 218.664L249.145 221.016C249.177 221.944 249.449 222.632 249.961 223.08C250.473 223.496 251.369 223.704 252.649 223.704Z" fill="#B542FB"/>
<path d="M106.869 128.351C107.24 127.746 107.84 127.529 108.748 127.589C110.877 127.73 118.331 129.524 120.381 130.114C121.596 130.464 123.143 131.106 122.939 132.355C121.858 138.977 123.347 138.608 108.058 135.427C106.207 135.042 105.761 133.828 105.817 132.563C105.849 131.841 106.597 128.795 106.869 128.35L106.869 128.351ZM121.715 132.776C121.976 131.883 121.45 131.798 120.602 131.482C118.071 130.537 109.031 128.638 108.931 128.618C107.308 128.295 107.396 131.31 107.27 132.862C107.155 134.272 106.978 133.885 119.666 136.435C121.476 136.404 120.688 136.285 121.715 132.776Z" fill="#13141D"/>
<path d="M143.464 14.8178C142.59 14.7772 132.962 14.0682 133.228 12.497C133.424 11.3408 134.719 12.0138 143.97 12.9939C144.907 13.0935 145.605 14.5644 143.464 14.8178Z" fill="#13141D"/>
<path d="M130.364 11.0903C130.802 11.1041 131.318 11.5873 131.331 11.9985C131.346 12.4717 130.8 13.0314 130.343 13.0099C129.886 12.9885 129.342 12.3951 129.359 11.9586C129.389 11.2205 130.381 11.1072 130.364 11.0903Z" fill="#13141D"/>
<path d="M178.366 20.5468C178.344 22.8455 177.56 27.3623 176.989 29.3776C176.743 29.5476 176.515 29.2957 176.251 29.1801C175.503 28.8524 174.762 29.1334 174.55 29.8899C171.594 40.4734 169.329 51.8785 169.334 51.8578C168.264 56.7254 168.274 56.9819 169.489 57.1182C172.259 57.4291 170.601 52.3571 159.788 106.655C153.687 137.293 153.516 144.211 146.1 146.266C149.364 139.36 159.597 87.8381 160.445 83.3128C171.711 23.2337 175.51 21.7559 172.366 14.5261C175.644 15.4886 178.398 17.1326 178.366 20.5468Z" fill="#B542FB"/>
<path d="M156.484 20.0813C108.239 12.5996 112.814 8.1976 109.109 24.2765L108.21 28.1701C108.83 27.6801 109.469 27.2138 110.127 26.7727C113.391 12.6991 113.329 14.4541 122.299 15.1517C123.514 15.2459 132.756 17.0192 136.985 17.9205C147.687 20.2022 161.624 21.396 164.407 22.8263C165.991 23.6402 166.036 23.7245 164.187 34.177C161.162 51.2698 151.628 91.0456 151.02 95.9261C150.981 96.2378 144.435 128.207 144.365 128.516C143.556 132.043 136.899 129.608 118.526 125.57C118.503 125.566 95.7031 120.485 93.0231 119.316C91.5124 118.657 90.9948 118.245 92.7628 108.7L91.6992 108.223C91.2145 111.216 90.7375 114.268 90.2697 117.386C89.8432 120.227 94.945 121.267 97.7674 121.882C119.813 126.684 125.762 128.739 138.327 130.955C145.98 132.305 145.268 130.905 147.892 117.545C154.417 84.3235 165.136 38.4895 166.256 29.7743C167.27 21.8799 168.179 21.8937 156.484 20.0805L156.484 20.0813Z" fill="#13141D"/>
<path d="M98.0009 82.9444L101.087 68.1219C100.582 67.3761 100.12 66.6204 99.6977 65.8555C98.5078 71.4259 97.3394 77.1151 96.1977 82.988L98.0009 82.9444Z" fill="#13141D"/>
<path d="M92.8792 83.4437L97.6158 61.0761C97.298 60.1059 97.0377 59.1281 96.8325 58.1465C95.0882 65.9987 93.0584 75.2078 91.1571 84.0095L92.8792 83.4437Z" fill="#13141D"/>
<path d="M179.728 22.6478C180.062 17.9005 178.624 15.2052 173.639 13.4885C168.053 11.5635 113.494 4.67605 112.83 5.42567C111.055 5.58723 109.178 6.10791 108.225 7.47162C106.728 9.6087 103.471 26.474 101.921 34.8584C102.496 34.0345 103.112 33.2374 103.763 32.471C106.767 18.6554 109.02 8.64162 109.308 8.23044C111.967 4.43025 122.115 8.44943 169.275 13.7902C176.291 14.5842 168.739 33.9978 160.402 76.0332C146.985 143.687 145.916 146.992 143.134 146.44C142.08 146.231 143.068 146.805 132.497 144.671C125.233 143.204 125.14 142.798 122.15 142.094C82.9013 132.847 82.9618 136.119 85.8677 117.439C86.0047 116.558 86.8738 112.249 88.2038 105.814L86.8409 104.472C86.337 106.958 85.896 109.192 85.5392 111.087C79.9519 140.742 82.1249 132.765 124.379 144.21C159.158 153.63 151.606 146.085 162.158 103.091C162.165 103.066 172.069 57.8095 172.107 57.6617C172.468 56.2207 173.614 57.2873 174.236 55.321C176.108 49.4052 178.012 41.484 178.994 33.154C179.354 30.0919 177.881 31.4181 178.417 29.5942C179.452 26.0667 179.814 22.6187 179.728 22.6486V22.6478ZM174.003 52.6701C173.229 55.5691 173.185 56.3577 170.039 56.2245C169.01 56.1809 169.376 55.8095 171.824 44.7995C172.031 43.8676 171.88 44.262 175.12 45.128C176.06 45.3791 175.904 45.5415 174.003 52.6701ZM176.282 43.5039C176.092 44.6701 176.115 44.082 172.771 43.265C171.559 42.9687 172.605 42.4932 175.007 31.6815C175.434 29.7635 175.612 29.7788 177.156 31.056C178.516 32.1815 178.165 31.8194 176.282 43.5039ZM176.989 29.3775C176.743 29.5475 176.515 29.2948 176.251 29.18C175.504 28.85 174.761 29.1325 174.55 29.8898C171.584 40.4702 169.329 51.8784 169.334 51.8577C168.264 56.7253 168.275 56.981 169.489 57.1181C172.26 57.4282 170.602 52.357 159.788 106.655C153.687 137.293 153.516 144.211 146.1 146.265C149.364 139.36 159.598 87.838 160.445 83.3127C171.722 23.2359 175.51 21.7558 172.366 14.526C175.644 15.4885 178.398 17.1317 178.366 20.546C178.344 22.8446 177.56 27.3622 176.989 29.3775Z" fill="#13141D"/>
<path d="M193.102 53.141C191.599 55.4404 187.522 57.6035 186.667 58.1127C185.262 58.9503 185.527 59.4006 184.136 61.7566C183.595 62.6732 182.413 62.2467 182.518 61.1785C183.04 55.8508 186.511 56.5009 190.601 52.6287C191.797 51.4963 192.291 49.9794 190.98 48.9733C188.324 46.9342 185.551 47.9503 184.452 48.1624C183.792 48.2903 183.404 47.6532 183.78 47.0805C186.09 43.5583 197.28 46.7497 193.102 53.141Z" fill="#B542FB"/>
<path d="M183.385 66.7007C183.368 68.5039 180.589 68.327 180.668 66.5674C180.748 64.8079 183.402 64.8906 183.385 66.7007Z" fill="#B542FB"/>
<path d="M85.811 12.9418C90.0009 12.7918 92.0116 17.0728 90.2145 20.2612C88.8677 22.6509 86.6464 23.9403 87.7827 27.2168C88.8424 30.2711 86.6418 30.1777 86.0583 28.9626C84.0001 24.6777 86.0667 22.3186 87.6441 20.1379C89.8064 17.1493 87.6257 14.7703 85.1563 15.1899C81.1264 15.8745 80.0162 18.5391 79.0399 20.0131C78.6724 20.5674 77.8868 20.4128 77.7558 19.6762C77.4197 17.7872 80.4664 13.1333 85.811 12.9418Z" fill="#B542FB"/>
<path d="M91.4243 34.533C91.4083 36.0988 88.8493 36.2489 88.8118 34.533C88.7766 32.9066 91.442 32.7688 91.4243 34.533Z" fill="#B542FB"/>
<path d="M77.1915 38.1984C81.3814 38.0483 83.3922 42.3294 81.5951 45.5177C80.2482 47.9075 78.0269 49.1969 79.1632 52.4734C80.2229 55.5277 78.0223 55.4343 77.4388 54.2192C75.3806 49.9343 77.4473 47.5752 79.0246 45.3945C81.1869 42.4059 79.0062 40.0269 76.5368 40.4465C72.507 41.1311 71.3967 43.7957 70.4204 45.2697C70.0529 45.824 69.2673 45.6694 69.1364 44.9328C68.8002 43.0438 71.8469 38.3898 77.1915 38.1984Z" fill="#B542FB"/>
<path d="M82.8041 59.7895C82.788 61.3554 80.2291 61.5055 80.1915 59.7895C80.1563 58.1632 82.8217 58.0254 82.8041 59.7895Z" fill="#B542FB"/>
<path d="M155.037 51.5989C155.383 75.7989 125.117 91.1603 105.889 72.5194C95.5752 62.5201 93.7613 46.6579 103.685 33.8745C120.651 12.0191 154.659 25.1784 155.037 51.5989ZM113.513 44.9366C114.931 39.6195 115.098 38.1869 115.999 35.9051C118.795 28.8148 131.466 30.3393 137.064 34.6073C144.809 40.5116 136.229 48.9343 138.567 49.8156C143.094 51.5216 140.063 56.4642 137.996 57.6403C136.138 58.697 135.373 57.5622 134.585 58.7812C129.261 67.0132 128.631 63.1242 127.65 67.3746C127.49 68.0676 127.491 68.0638 128.179 68.3065C139.014 72.1312 140.124 74.9972 141.321 74.1764C161.559 60.3026 154.399 29.4074 130.626 25.268C108.695 21.4495 91.4458 44.3646 102.859 65.3333C103.568 66.6365 103.006 64.8509 114.563 65.4948C115.04 65.5216 114.813 65.0553 115.15 63.8126C115.434 62.7613 114.528 62.7238 113.758 60.4114C112.646 57.0744 112.738 54.9994 112.305 53.1173C112.065 52.0721 111.543 52.0675 110.495 51.602C107.8 50.4067 109.1 42.8232 113.513 44.935L113.513 44.9366ZM133.305 58.347C134.512 56.5438 134.49 56.7659 136.169 56.6012C137.094 56.5101 137.778 56.0094 138.222 55.1939C139.667 52.5354 140.077 51.8692 137.802 50.9488C136.779 50.5346 136.618 50.3064 136.895 49.2314C137.258 47.8278 137.575 46.4105 138.129 45.0583C139.249 42.3232 139.817 38.9587 137.752 36.8454C131.999 30.9579 118.741 29.974 116.732 36.7949C114.607 44.0085 115.002 46.8286 113.22 45.9442C111.714 45.1969 110.502 46.3738 110.331 48.1035C109.983 51.6296 112.876 49.6456 113.619 52.6204C114.362 55.5951 113.843 62.7896 119.865 64.684C125.939 66.5952 130.029 63.2414 133.305 58.347ZM139.356 75.3065C136.688 73.4696 128.993 69.8678 127.134 69.3808C126.742 70.9076 126.454 72.844 124.99 73.3111C121.87 74.3065 119.192 73.1779 115.869 71.5921C113.392 70.4106 114.623 68.648 114.558 66.8157C111.023 66.4734 107.542 66.7935 103.982 66.9926C111.976 78.8287 127.775 81.9919 139.356 75.3065ZM126.384 66.135C122.688 67.0791 119.294 66.5852 116.206 64.2981C115.992 64.7988 116.046 65.2567 115.969 65.6901C115.318 69.3348 115.332 69.5913 116.075 70.0852C117.535 71.0554 120.811 72.4558 123.686 72.1733C125.188 72.0255 125.039 72.0439 126.275 67.0109C126.339 66.7514 126.49 66.4949 126.385 66.1342L126.384 66.135Z" fill="#B542FB"/>
<path d="M126.69 38.6418C132.117 38.8424 133.88 42.5836 132.349 45.38C130.898 48.0308 128.957 48.9167 126.899 50.3011C125.099 51.5125 125.5 52.3555 124.99 53.4037C124.453 54.5071 123.268 54.1503 123.262 53.0094C123.236 48.1457 129.82 47.8034 130.851 43.9137C131.193 42.6242 129.929 41.3003 128.67 40.8585C125.147 39.6204 122.778 41.8937 122.033 42.0959C121.454 42.2529 121.078 41.7605 121.292 41.2751C122.001 39.6625 125.082 38.4381 126.69 38.6418Z" fill="#B542FB"/>
<path d="M124.307 57.5109C124.28 59.2383 121.692 59.2184 121.783 57.3983C121.813 56.7949 122.46 56.2306 123.109 56.2451C123.758 56.2597 124.318 56.8638 124.307 57.5109Z" fill="#B542FB"/>
<path d="M131.068 90.7591C123.421 90.3793 116.786 96.1619 116.477 104.191C116.201 111.353 121.771 118.199 129.905 118.609C137.5 118.992 144.056 113.026 144.308 105.221C144.531 98.3227 139.039 91.155 131.068 90.7591ZM136.883 109.498C132.798 108.754 132.381 108.293 132.486 106.726C132.556 105.677 132.402 105.463 131.385 105.057C130.597 104.742 129.781 104.624 128.94 104.575C128.235 104.534 128.31 105.099 128.3 105.919C128.285 107.033 127.817 108.029 126.616 107.941C125.3 107.846 124.031 107.485 122.826 106.972C121.221 106.29 120.721 105.127 120.943 103.364C121.3 100.524 123.274 97.9529 126.66 98.2492C129.051 98.4582 138.085 100.373 139.157 102.41C141.496 106.86 139.666 110.004 136.883 109.497V109.498Z" fill="#B542FB"/>
<path d="M100.947 105.014C98.6219 106.369 95.9849 106.509 94.0653 104.623C92.4144 103.001 90.0024 97.08 89.2084 94.9506C87.0867 89.2622 94.0017 84.6519 95.9366 88.9421C97.3394 92.0524 97.9244 92.8388 96.4336 93.8564C95.5025 94.4927 95.4014 94.812 95.7444 95.8801C95.9948 96.6604 96.3999 97.3487 96.87 98.0141C97.4022 98.766 97.808 97.8487 98.9596 97.2997C99.8003 96.8993 100.601 97.0807 101.061 97.8778C102.701 100.722 103.686 103.418 100.947 105.014Z" fill="#B542FB"/>
<path d="M97.2797 82.0829C89.2344 82.0071 83.2252 88.4115 83.2428 96.4168C83.2589 103.761 89.1701 109.999 96.955 110.036C104.788 110.074 110.956 104.052 110.957 95.9704C110.957 88.4137 105.042 82.1557 97.2797 82.0829ZM97.2827 108.534C90.5783 108.661 84.9412 103.539 84.5231 96.5409C84.102 89.4827 89.7812 83.8693 96.5683 83.6228C103.618 83.367 109.445 88.7514 109.637 95.7469C109.824 102.596 104.435 108.399 97.2827 108.534Z" fill="#B542FB"/>
</svg>
