<svg width="177" height="31" viewBox="0 0 177 31" fill="none" xmlns="http://www.w3.org/2000/svg">
<path d="M32.7344 14.6627H36.1894L37.3552 11.9628H44.2228L45.3886 14.6627H48.9708L42.6331 0.766253H39.1781L32.7344 14.6627ZM38.4574 9.44162L40.8102 4.04185L43.1418 9.44162H38.4574Z" fill="#1460D2"/>
<path d="M50.5136 14.6627H60.2216V11.9231H53.8627V0.766253H50.5136V14.6627Z" fill="#1460D2"/>
<path d="M61.1491 7.69463C61.1491 11.7246 64.4981 14.8017 68.9281 14.8017C71.0902 14.8017 73.3582 13.8289 74.9267 12.3202L72.9554 10.3151C71.8956 11.3077 70.4331 11.943 69.0977 11.943C66.5541 11.943 64.5829 10.0769 64.5829 7.65493C64.5829 5.23297 66.5541 3.38673 69.0977 3.38673C70.4755 3.38673 71.938 4.10141 72.9554 5.19327L74.9055 2.96984C73.4429 1.56034 71.1961 0.666992 69.0553 0.666992C64.5617 0.666992 61.1491 3.68451 61.1491 7.69463Z" fill="#1460D2"/>
<path d="M76.9263 14.6627H80.2753V9.18354H86.9945V14.6627H90.3436V0.766253H86.9945V6.56306H80.2753V0.766253H76.9263V14.6627Z" fill="#1460D2"/>
<path d="M93.6101 14.6627H105.141V12.0621H96.9591V8.98502H104.123V6.3844H96.9591V3.36688H104.908V0.766253H93.6101V14.6627Z" fill="#1460D2"/>
<path d="M107.769 14.6627H111.118V10.6923H114.53L116.883 14.6627H120.677L117.519 10.0769C119.321 9.2828 120.296 7.73434 120.296 5.59031C120.296 2.51324 118.091 0.766253 114.212 0.766253H107.769V14.6627ZM111.118 8.07182V3.36688H114.212C116.056 3.36688 117.116 4.14111 117.116 5.68957C117.116 7.27774 116.056 8.07182 114.212 8.07182H111.118Z" fill="#1460D2"/>
<path d="M123.107 14.6627H126.456V0.766253H123.107V14.6627Z" fill="#1460D2"/>
<path d="M129.752 14.6627H132.952V5.74913L140.138 14.6627H143.19V0.766253H140.011V9.6997L132.804 0.766253H129.752V14.6627Z" fill="#1460D2"/>
<path d="M145.396 7.71448C145.396 11.7445 148.809 14.8017 153.302 14.8017C155.359 14.8017 157.754 14.0672 159.322 12.9951V7.65493H156.418V11.3077C155.465 11.7643 154.405 12.0621 153.514 12.0621C150.886 12.0621 148.83 10.1761 148.83 7.71448C148.83 5.27268 150.865 3.38673 153.493 3.38673C154.935 3.38673 156.461 3.98229 157.563 4.93519L159.449 2.69191C157.944 1.46108 155.698 0.666992 153.493 0.666992C148.872 0.666992 145.396 3.70436 145.396 7.71448Z" fill="#1460D2"/>
<path d="M160.554 14.6627H164.009L165.175 11.9628H172.043L173.208 14.6627H176.791L170.453 0.766253H166.998L160.554 14.6627ZM166.277 9.44162L168.63 4.04185L170.962 9.44162H166.277Z" fill="#1460D2"/>
<path d="M37.9554 22.4359V23.3245C37.6853 23.1837 37.4397 23.0869 37.2188 23.0341C37.0039 22.9755 36.7277 22.9462 36.3901 22.9462C35.7701 22.9462 35.2514 23.1485 34.834 23.5532C34.4227 23.952 34.2171 24.4828 34.2171 25.1456C34.2171 25.82 34.4227 26.3567 34.834 26.7555C35.2453 27.1543 35.7885 27.3537 36.4637 27.3537C37.0592 27.3537 37.5594 27.2071 37.9646 26.9139V27.8288C37.584 28.0693 37.0561 28.1895 36.3809 28.1895C35.454 28.1895 34.6959 27.9139 34.1066 27.3625C33.5173 26.8112 33.2227 26.0722 33.2227 25.1456C33.2227 24.2482 33.5173 23.518 34.1066 22.955C34.702 22.3919 35.454 22.1104 36.3624 22.1104C37.0254 22.1104 37.5564 22.2189 37.9554 22.4359Z" fill="#222121"/>
<path d="M43.3185 25.9109H45.3073L45.2061 25.6118C44.9728 24.9197 44.7825 24.3479 44.6352 23.8963C44.4879 23.4388 44.3989 23.1544 44.3682 23.0429L44.3221 22.8758C44.2546 23.1514 43.9538 24.0634 43.4198 25.6118L43.3185 25.9109ZM46.0532 28.1191L45.5651 26.6675H43.0607L42.5635 28.1191H41.5598L43.7052 22.1896H44.9482L47.066 28.1191H46.0532Z" fill="#222121"/>
<path d="M50.8425 28.1191L51.3213 22.1896H52.4447L53.2733 24.3538C53.4207 24.7233 53.568 25.1162 53.7153 25.5326C53.8626 25.9432 53.9731 26.2628 54.0468 26.4916L54.1665 26.8347C54.4488 26.037 54.7588 25.2101 55.0964 24.3538L55.962 22.1896H57.0853L57.6562 28.1191H56.717L56.496 25.7966L56.3026 23.4212C56.0264 24.1661 55.7256 24.9579 55.4003 25.7966L54.5348 28.0048H53.789L52.9511 25.7966L52.1132 23.4564C52.1132 23.7145 52.0641 24.4945 51.9659 25.7966L51.7817 28.1191H50.8425Z" fill="#222121"/>
<path d="M62.7679 25.2687H63.5782C64.0263 25.2687 64.3669 25.1631 64.6002 24.952C64.8396 24.7409 64.9593 24.4623 64.9593 24.1162C64.9593 23.7526 64.8396 23.4652 64.6002 23.2541C64.3608 23.0429 64.014 22.9374 63.5597 22.9374H62.7679V25.2687ZM61.8195 22.1896H63.5966C64.3086 22.1896 64.8734 22.3714 65.2908 22.735C65.7082 23.0928 65.9169 23.5532 65.9169 24.1162C65.9169 24.6793 65.7051 25.1368 65.2816 25.4887C64.8641 25.8406 64.3209 26.0165 63.6518 26.0165H62.7679V28.1191H61.8195V22.1896Z" fill="#222121"/>
<path d="M73.5114 25.867V22.1896H74.4597V25.8494C74.4597 26.6177 74.251 27.2013 73.8336 27.6001C73.4162 27.9989 72.8392 28.1983 72.1026 28.1983C71.3783 28.1983 70.8074 28.0048 70.39 27.6177C69.9726 27.2247 69.7639 26.6587 69.7639 25.9197V22.1896H70.7122V25.9109C70.7122 26.4153 70.8381 26.7848 71.0898 27.0194C71.3476 27.2482 71.6852 27.3625 72.1026 27.3625C73.0418 27.3625 73.5114 26.864 73.5114 25.867Z" fill="#222121"/>
<path d="M82.0408 22.4271V23.3245C81.6295 23.0781 81.163 22.955 80.6412 22.955C80.3036 22.955 80.0366 23.0283 79.8401 23.1749C79.6498 23.3157 79.5547 23.5033 79.5547 23.7379C79.5547 23.9725 79.6498 24.1602 79.8401 24.301C80.0304 24.4417 80.322 24.5942 80.7149 24.7585C80.9727 24.864 81.1722 24.9549 81.3134 25.0312C81.4607 25.1074 81.6264 25.2159 81.8106 25.3567C82.0009 25.4916 82.139 25.6558 82.2249 25.8494C82.317 26.037 82.363 26.254 82.363 26.5004C82.363 27.0224 82.1697 27.4329 81.7829 27.732C81.3962 28.0312 80.8959 28.1807 80.2821 28.1807C79.6007 28.1807 79.036 28.0546 78.5879 27.8024V26.8611C79.0728 27.2071 79.6345 27.3801 80.2729 27.3801C80.6105 27.3801 80.8775 27.3068 81.074 27.1602C81.2704 27.0077 81.3686 26.7995 81.3686 26.5356C81.3686 26.3772 81.3103 26.2335 81.1937 26.1045C81.077 25.9696 80.9512 25.8699 80.8161 25.8054C80.6811 25.735 80.4785 25.6411 80.2084 25.5238C80.0488 25.4535 79.9353 25.4036 79.8678 25.3743C79.8064 25.345 79.702 25.2922 79.5547 25.2159C79.4074 25.1397 79.2969 25.0752 79.2232 25.0224C79.1557 24.9696 79.0698 24.8963 78.9654 24.8024C78.8611 24.7086 78.7843 24.6148 78.7352 24.5209C78.6923 24.4271 78.6493 24.3186 78.6063 24.1954C78.5695 24.0664 78.5511 23.9286 78.5511 23.7819C78.5511 23.2775 78.7414 22.8787 79.1219 22.5855C79.5087 22.2922 80.0059 22.1456 80.6136 22.1456C81.1722 22.1456 81.6479 22.2394 82.0408 22.4271Z" fill="#222121"/>
<path d="M92.9295 25.9109H94.9183L94.817 25.6118C94.5837 24.9197 94.3935 24.3479 94.2461 23.8963C94.0988 23.4388 94.0098 23.1544 93.9791 23.0429L93.9331 22.8758C93.8656 23.1514 93.5648 24.0634 93.0307 25.6118L92.9295 25.9109ZM95.6641 28.1191L95.1761 26.6675H92.6716L92.1744 28.1191H91.1708L93.3162 22.1896H94.5592L96.6769 28.1191H95.6641Z" fill="#222121"/>
<path d="M100.453 28.1191L100.932 22.1896H102.056L102.884 24.3538C103.032 24.7233 103.179 25.1162 103.326 25.5326C103.474 25.9432 103.584 26.2628 103.658 26.4916L103.777 26.8347C104.06 26.037 104.37 25.2101 104.707 24.3538L105.573 22.1896H106.696L107.267 28.1191H106.328L106.107 25.7966L105.914 23.4212C105.637 24.1661 105.337 24.9579 105.011 25.7966L104.146 28.0048H103.4L102.562 25.7966L101.724 23.4564C101.724 23.7145 101.675 24.4945 101.577 25.7966L101.393 28.1191H100.453Z" fill="#222121"/>
<path d="M112.379 27.3713H113.594C114.374 27.3713 114.764 27.0634 114.764 26.4476C114.764 26.1485 114.656 25.9168 114.441 25.7526C114.233 25.5825 113.92 25.4975 113.502 25.4975H112.379V27.3713ZM112.379 22.9374V24.7585H113.235C113.696 24.7585 114.036 24.6705 114.257 24.4945C114.484 24.3127 114.598 24.0781 114.598 23.7907C114.598 23.5385 114.497 23.3332 114.294 23.1749C114.098 23.0165 113.797 22.9374 113.392 22.9374H112.379ZM111.43 22.1896H113.465C114.116 22.1896 114.629 22.3362 115.003 22.6294C115.377 22.9168 115.565 23.2981 115.565 23.7731C115.565 24.1016 115.466 24.389 115.27 24.6353C115.08 24.8816 114.834 25.04 114.533 25.1104C114.871 25.169 115.153 25.3186 115.381 25.559C115.614 25.7995 115.73 26.1221 115.73 26.5268C115.73 26.996 115.562 27.3801 115.224 27.6793C114.893 27.9725 114.423 28.1191 113.815 28.1191H111.43V22.1896Z" fill="#222121"/>
<path d="M121.053 25.9109H123.042L122.94 25.6118C122.707 24.9197 122.517 24.3479 122.37 23.8963C122.222 23.4388 122.133 23.1544 122.103 23.0429L122.057 22.8758C121.989 23.1514 121.688 24.0634 121.154 25.6118L121.053 25.9109ZM123.788 28.1191L123.3 26.6675H120.795L120.298 28.1191H119.294L121.44 22.1896H122.683L124.8 28.1191H123.788Z" fill="#222121"/>
<path d="M132.011 22.4271V23.3245C131.6 23.0781 131.134 22.955 130.612 22.955C130.274 22.955 130.007 23.0283 129.811 23.1749C129.62 23.3157 129.525 23.5033 129.525 23.7379C129.525 23.9725 129.62 24.1602 129.811 24.301C130.001 24.4417 130.293 24.5942 130.685 24.7585C130.943 24.864 131.143 24.9549 131.284 25.0312C131.431 25.1074 131.597 25.2159 131.781 25.3567C131.971 25.4916 132.11 25.6558 132.196 25.8494C132.288 26.037 132.334 26.254 132.334 26.5004C132.334 27.0224 132.14 27.4329 131.754 27.732C131.367 28.0312 130.867 28.1807 130.253 28.1807C129.571 28.1807 129.007 28.0546 128.559 27.8024V26.8611C129.043 27.2071 129.605 27.3801 130.244 27.3801C130.581 27.3801 130.848 27.3068 131.045 27.1602C131.241 27.0077 131.339 26.7995 131.339 26.5356C131.339 26.3772 131.281 26.2335 131.164 26.1045C131.048 25.9696 130.922 25.8699 130.787 25.8054C130.652 25.735 130.449 25.6411 130.179 25.5238C130.019 25.4535 129.906 25.4036 129.838 25.3743C129.777 25.345 129.673 25.2922 129.525 25.2159C129.378 25.1397 129.268 25.0752 129.194 25.0224C129.126 24.9696 129.04 24.8963 128.936 24.8024C128.832 24.7086 128.755 24.6148 128.706 24.5209C128.663 24.4271 128.62 24.3186 128.577 24.1954C128.54 24.0664 128.522 23.9286 128.522 23.7819C128.522 23.2775 128.712 22.8787 129.093 22.5855C129.479 22.2922 129.977 22.1456 130.584 22.1456C131.143 22.1456 131.619 22.2394 132.011 22.4271Z" fill="#222121"/>
<path d="M139.713 22.4271V23.3245C139.302 23.0781 138.836 22.955 138.314 22.955C137.976 22.955 137.709 23.0283 137.513 23.1749C137.322 23.3157 137.227 23.5033 137.227 23.7379C137.227 23.9725 137.322 24.1602 137.513 24.301C137.703 24.4417 137.995 24.5942 138.387 24.7585C138.645 24.864 138.845 24.9549 138.986 25.0312C139.133 25.1074 139.299 25.2159 139.483 25.3567C139.673 25.4916 139.812 25.6558 139.898 25.8494C139.99 26.037 140.036 26.254 140.036 26.5004C140.036 27.0224 139.842 27.4329 139.456 27.732C139.069 28.0312 138.569 28.1807 137.955 28.1807C137.273 28.1807 136.709 28.0546 136.261 27.8024V26.8611C136.745 27.2071 137.307 27.3801 137.946 27.3801C138.283 27.3801 138.55 27.3068 138.747 27.1602C138.943 27.0077 139.041 26.7995 139.041 26.5356C139.041 26.3772 138.983 26.2335 138.866 26.1045C138.75 25.9696 138.624 25.8699 138.489 25.8054C138.354 25.735 138.151 25.6411 137.881 25.5238C137.721 25.4535 137.608 25.4036 137.54 25.3743C137.479 25.345 137.375 25.2922 137.227 25.2159C137.08 25.1397 136.97 25.0752 136.896 25.0224C136.828 24.9696 136.742 24.8963 136.638 24.8024C136.534 24.7086 136.457 24.6148 136.408 24.5209C136.365 24.4271 136.322 24.3186 136.279 24.1954C136.242 24.0664 136.224 23.9286 136.224 23.7819C136.224 23.2775 136.414 22.8787 136.795 22.5855C137.181 22.2922 137.679 22.1456 138.286 22.1456C138.845 22.1456 139.321 22.2394 139.713 22.4271Z" fill="#222121"/>
<path d="M145.436 25.9109H147.425L147.323 25.6118C147.09 24.9197 146.9 24.3479 146.752 23.8963C146.605 23.4388 146.516 23.1544 146.485 23.0429L146.439 22.8758C146.372 23.1514 146.071 24.0634 145.537 25.6118L145.436 25.9109ZM148.17 28.1191L147.682 26.6675H145.178L144.681 28.1191H143.677L145.822 22.1896H147.066L149.183 28.1191H148.17Z" fill="#222121"/>
<path d="M154.009 27.3537H154.985C155.691 27.3537 156.228 27.1426 156.597 26.7203C156.965 26.298 157.149 25.7555 157.149 25.0928C157.149 24.4828 156.95 23.9755 156.551 23.5708C156.152 23.1661 155.621 22.9638 154.958 22.9638H154.009V27.3537ZM153.043 22.1896H154.976C155.897 22.1896 156.652 22.4623 157.241 23.0077C157.831 23.5532 158.125 24.2482 158.125 25.0928C158.125 25.9725 157.846 26.6969 157.287 27.2658C156.735 27.8347 155.971 28.1191 154.995 28.1191H153.043V22.1896Z" fill="#222121"/>
<path d="M161.836 25.128C161.836 24.2071 162.094 23.4681 162.609 22.911C163.125 22.3538 163.815 22.0752 164.681 22.0752C165.565 22.0752 166.262 22.3538 166.771 22.911C167.281 23.4623 167.535 24.2013 167.535 25.128C167.535 26.0546 167.278 26.7966 166.762 27.3537C166.252 27.9109 165.562 28.1895 164.69 28.1895C163.825 28.1895 163.131 27.9109 162.609 27.3537C162.094 26.7966 161.836 26.0546 161.836 25.128ZM163.318 23.518C162.993 23.911 162.83 24.4476 162.83 25.128C162.83 25.8083 162.999 26.3479 163.337 26.7467C163.674 27.1455 164.125 27.3449 164.69 27.3449C165.273 27.3449 165.728 27.1485 166.053 26.7555C166.378 26.3626 166.541 25.82 166.541 25.128C166.541 24.4417 166.375 23.9022 166.044 23.5092C165.718 23.1162 165.264 22.9198 164.681 22.9198C164.104 22.9198 163.65 23.1192 163.318 23.518Z" fill="#222121"/>
<path d="M172.479 22.9462V25.1104H173.336C173.728 25.1104 174.026 25.0136 174.229 24.82C174.431 24.6206 174.533 24.3567 174.533 24.0283C174.533 23.3069 174.118 22.9462 173.29 22.9462H172.479ZM174.754 28.1191L173.299 25.867H172.479V28.1191H171.531V22.1896H173.262C173.974 22.1896 174.523 22.3567 174.91 22.691C175.297 23.0195 175.49 23.4681 175.49 24.0371C175.484 24.4535 175.374 24.8083 175.159 25.1016C174.944 25.389 174.646 25.5972 174.266 25.7262L175.886 28.1191H174.754Z" fill="#222121"/>
<path d="M14.1627 30.1756C14.0779 30.0957 14.1627 29.9361 14.0779 29.8562C14.0779 29.9361 13.9931 30.0159 13.9931 30.0957C13.9931 30.1756 13.9931 30.2554 13.9931 30.3352C13.9931 30.4949 13.9931 30.4949 13.8235 30.4949C13.7387 30.4949 13.6539 30.4949 13.6539 30.4949C13.4843 30.4949 13.3147 30.4949 13.1451 30.5747C12.9754 30.5747 12.8058 30.6545 12.721 30.6545C12.5514 30.6545 12.3818 30.6545 12.2122 30.6545C11.9578 30.6545 11.7881 30.6545 11.5337 30.6545C11.1945 30.6545 10.8553 30.6545 10.516 30.6545C10.516 30.6545 10.516 30.6545 10.516 30.7344C10.516 30.7344 10.6009 30.8142 10.516 30.8142C10.516 30.8142 10.4312 30.8142 10.4312 30.7344C10.3464 30.7344 10.4312 30.6545 10.4312 30.6545C10.1768 30.6545 9.83759 30.6545 9.58317 30.6545C9.32875 30.6545 9.07433 30.6545 8.90471 30.6545C8.7351 30.6545 8.56549 30.6545 8.39587 30.6545H8.31107C8.22626 30.7344 8.14145 30.7344 8.05665 30.7344C7.5478 30.7344 7.03896 30.7344 6.61493 30.7344C6.2757 30.7344 6.02128 30.7344 5.68206 30.7344C5.51244 30.7344 5.34283 30.7344 5.25802 30.7344H5.17321C5.0036 30.6545 4.83399 30.6545 4.74918 30.8142C4.74918 30.8142 4.66437 30.894 4.66437 30.8142C4.49476 30.8142 4.32515 30.8142 4.15553 30.8142C4.07073 30.8142 3.90111 30.8142 3.81631 30.8142C3.81631 30.8142 3.7315 30.8142 3.7315 30.7344C3.64669 30.6545 3.47708 30.6545 3.30746 30.6545C3.30746 30.7344 3.39227 30.7344 3.39227 30.7344C3.39227 30.8142 3.30746 30.7344 3.22266 30.7344C2.71382 30.7344 2.12017 30.7344 1.61133 30.7344C1.44172 30.7344 1.2721 30.7344 1.01768 30.7344C0.763261 30.7344 0.593648 30.7344 0.339227 30.6545C0.25442 30.6545 0.25442 30.6545 0.25442 30.5747C0.169614 30.4949 0.0848068 30.3352 0 30.2554C0 30.2554 0 30.1756 0 30.0957C0 28.6588 0 27.142 0 25.7051C0 24.4278 0 23.0707 0 21.7934C0 21.4741 0 21.2346 0 20.9153C0 20.7556 0 20.596 0 20.4363C0 20.3565 0 20.1968 0 20.117C0 19.9573 0 19.8775 0 19.7178V19.638C0 19.3985 0 19.159 0 18.9195C0 18.8397 0 18.6801 0 18.6002V18.5204C0.0848068 18.4406 0.0848068 18.4406 0.0848068 18.3607V18.2809C0.0848068 18.1212 0.0848068 17.8818 0 17.7221C0 17.6423 0 17.5624 0 17.4826C0 17.2431 0 17.0835 0 16.844V16.7641C0.169614 16.6045 0.25442 16.5246 0.424034 16.365C0.508841 16.365 0.508841 16.2852 0.593648 16.2852C1.01768 16.2852 1.44172 16.2852 1.86575 16.2852C3.22266 16.2852 4.49476 16.2852 5.85167 16.2852C6.36051 16.2852 6.86935 16.2852 7.37819 16.2852C7.71742 16.2852 8.05665 16.2852 8.39587 16.2852C8.65029 16.2852 8.90471 16.2852 9.15913 16.2852C9.41355 16.2852 9.58317 16.2852 9.83759 16.2852C10.1768 16.2852 10.516 16.2852 10.8553 16.2852C11.3641 16.2852 11.873 16.2852 12.4666 16.2852C12.6362 16.2852 12.6362 16.2852 12.6362 16.4448C12.6362 16.6045 12.6362 16.7641 12.5514 16.9238C12.5514 17.0835 12.4666 17.3229 12.4666 17.4826C12.4666 17.6423 12.3818 17.8818 12.3818 18.0414C12.297 18.2809 12.297 18.4406 12.2122 18.6801C12.1274 18.9994 12.0426 19.3187 11.9578 19.638C11.873 20.117 11.7033 20.5161 11.5337 20.9153C11.3641 21.3943 11.1097 21.7934 10.7705 22.1926C10.6008 22.4321 10.3464 22.7514 10.1768 22.9909C9.83759 23.39 9.49836 23.7093 9.07433 24.1085C8.90471 24.2682 8.65029 24.5076 8.48068 24.6673C8.31107 24.827 8.05665 25.0665 7.88703 25.2261C7.71742 25.3858 7.5478 25.5454 7.29338 25.7051C6.95416 25.9446 6.69974 26.2639 6.36051 26.5832C6.2757 26.663 6.1909 26.663 6.1909 26.5832C6.10609 26.5034 6.02128 26.5034 5.93648 26.5832C5.76686 26.7429 5.59725 26.9824 5.51244 27.142C5.25802 27.4613 5.08841 27.8605 4.91879 28.1798C4.74918 28.4193 4.66437 28.7386 4.66437 28.9781C4.66437 29.2176 4.66437 29.5369 4.74918 29.7764C4.83399 29.9361 4.91879 30.0159 5.08841 30.1756C5.17321 30.1756 5.17321 30.1756 5.25802 30.0957C5.42764 29.8562 5.51244 29.6168 5.68206 29.4571C5.93648 28.9781 6.1909 28.4991 6.53012 28.0202C6.36051 27.9403 6.61493 27.7008 6.78454 27.4614C6.95416 27.2219 7.20858 27.0622 7.37819 26.8227C7.63261 26.5832 7.88703 26.3437 8.14145 26.1042C8.31107 25.8648 8.56549 25.7051 8.81991 25.5454C9.24394 25.1463 9.75278 24.827 10.2616 24.5076C10.516 24.348 10.8553 24.1085 11.1097 23.9488C11.1945 23.9488 11.1945 23.9488 11.1945 24.0287C11.2793 24.348 11.2793 24.6673 11.1945 24.9866C11.1097 25.4656 10.9401 25.9446 10.8553 26.4236C10.7705 26.7429 10.6857 27.0622 10.6008 27.3815C10.6008 27.4613 10.6008 27.5412 10.6008 27.7008C10.6008 27.9403 10.516 28.1 10.4312 28.2597C10.3464 28.3395 10.3464 28.4193 10.2616 28.4991C10.1768 28.6588 10.2616 28.7386 10.3464 28.8185C10.516 28.9781 10.6857 29.1378 10.8553 29.2176C11.2793 29.4571 11.6185 29.6966 12.0426 29.9361C12.297 30.0159 12.5514 30.1756 12.8058 30.1756C13.0602 30.2554 13.3147 30.2554 13.5691 30.1756C13.5691 30.1756 13.6539 30.1756 13.6539 30.0957C13.6539 30.0159 13.5691 30.0159 13.5691 29.9361C13.3995 29.7764 13.1451 29.6168 12.8906 29.5369C12.6362 29.3773 12.3818 29.2176 12.2122 29.058C12.0426 28.8983 11.873 28.6588 11.7881 28.4193C11.7033 28.2596 11.7033 28.1798 11.7033 28.0202C11.7033 27.4613 11.7881 26.9824 11.9578 26.5034C12.0426 26.1042 12.2122 25.6253 12.3818 25.2261C12.5514 24.9068 12.721 24.5875 12.8906 24.2682C13.2299 23.6295 13.4843 23.0707 13.8235 22.4321C13.9083 22.2724 13.9931 22.1926 13.9931 22.0329L14.0779 21.9531V22.0329C14.0779 22.8312 14.0779 23.7093 14.0779 24.5076C14.0779 25.3059 14.0779 26.1042 14.0779 26.9025C14.0779 27.142 14.0779 27.4614 14.0779 27.7008C14.0779 27.7807 14.0779 27.9403 14.0779 28.0202C14.0779 28.1798 14.0779 28.3395 14.0779 28.4193C14.0779 28.7386 14.0779 29.0579 14.0779 29.3773C14.1627 29.7764 14.2475 29.9361 14.1627 30.1756ZM0.169614 29.058C0.0848068 28.8983 0.0848068 28.9781 0.169614 29.058C0.0848068 28.9781 0 29.058 0 29.058C0 29.058 0 29.058 0.169614 29.058C0.0848068 29.058 0.0848068 29.058 0.169614 29.058Z" fill="#1460D2"/>
<path d="M21.1163 14.4492C21.6251 14.4492 21.9643 14.4492 22.3884 14.4492H22.4732C22.3884 14.4492 22.3884 14.4492 22.3036 14.4492C22.1339 14.4492 21.8795 14.4492 21.7099 14.4492C21.3707 14.4492 21.1163 14.4492 20.777 14.4492C20.6074 14.4492 20.4378 14.4492 20.1834 14.4492C20.0986 14.4492 20.0138 14.4492 19.929 14.3694C19.929 14.2896 19.8442 14.2896 19.7594 14.2896C19.4201 14.2896 19.1657 14.2896 18.8265 14.2896C18.9113 14.2896 19.0809 14.2896 19.1657 14.3694C18.9113 14.5291 18.0632 14.5291 17.9784 14.3694C18.0632 14.3694 18.148 14.3694 18.2328 14.2896C18.0632 14.2097 17.724 14.2097 17.6392 14.2896L17.724 14.3694C17.8088 14.4492 17.724 14.4492 17.724 14.4492C17.5544 14.4492 17.3 14.4492 17.1303 14.4492C17.0455 14.4492 17.0455 14.3694 17.0455 14.3694C17.0455 14.2896 17.0455 14.1299 17.0455 14.0501C17.0455 13.8904 17.1303 13.7308 17.1303 13.5711C17.1303 13.4114 17.2152 13.2518 17.2152 13.0921C17.2152 12.9325 17.2152 12.7728 17.3 12.6131C17.3 12.4535 17.3848 12.214 17.3848 12.0543C17.3848 11.9745 17.3848 11.8947 17.3848 11.8148C17.3848 11.6552 17.3848 11.4955 17.3848 11.3359C17.3848 10.8569 17.3848 10.2981 17.3848 9.81908C17.3848 9.57959 17.3848 9.3401 17.3848 9.10061C17.3848 8.86112 17.3848 8.62163 17.3848 8.38214C17.3848 8.06283 17.4696 7.74351 17.6392 7.42419C17.8088 7.02504 18.0632 6.70572 18.2328 6.3864C18.4873 5.98725 18.6569 5.5881 18.9113 5.18895C19.1657 4.7898 19.3353 4.39065 19.5049 3.91167C19.7594 3.43269 19.929 2.95371 20.1834 2.47473C20.353 2.07558 20.5226 1.67643 20.6074 1.27728C20.6922 1.03779 20.777 0.798299 20.777 0.55881C20.6922 0.55881 20.6922 0.63864 20.6074 0.71847C20.5226 1.11762 20.353 1.51677 20.0986 1.83609C20.0138 1.99575 19.7594 1.99575 19.5897 1.99575C19.5897 1.99575 19.5049 1.99575 19.4201 1.99575C19.4201 1.99575 19.3353 1.99575 19.3353 2.07558V2.15541C19.3353 2.63439 19.2505 3.03354 19.0809 3.43269C18.9961 3.67218 18.8265 3.91167 18.7417 4.23099C18.4873 4.70997 18.2328 5.10912 17.8936 5.5881C17.724 5.82759 17.5544 5.98725 17.3848 6.22674C17.3 6.30657 17.2152 6.46623 17.0455 6.54606C16.7911 6.78555 16.4519 7.02504 15.9431 7.1847C15.9431 7.1847 15.8582 7.1847 15.7734 7.1847C15.7734 7.10487 15.7734 7.10487 15.7734 7.02504C15.7734 5.10912 15.7734 3.1932 15.7734 1.19745C15.7734 1.03779 15.7734 0.878129 15.7734 0.71847C15.7734 0.55881 15.7734 0.39915 15.9431 0.31932C16.0279 0.23949 16.1127 0.15966 16.1975 0.07983C16.1127 0 16.1975 0 16.2823 0C16.7911 0 17.3 0 17.8088 0C18.9113 0 20.0138 0 21.1163 0C22.4732 0 23.9149 0 25.2718 0C26.0351 0 26.7983 0 27.5616 0C27.6464 0 27.816 0 27.9008 0.15966C27.9856 0.23949 28.1552 0.39915 28.24 0.47898C28.3248 0.55881 28.3248 0.55881 28.1552 0.63864C28.0704 0.63864 28.0704 0.63864 28.0704 0.71847C28.0704 0.957959 28.0704 1.11762 28.0704 1.35711C28.0704 1.5966 28.0704 1.83609 28.0704 2.07558C28.0704 2.23524 27.9856 2.47473 27.9856 2.63439C27.9856 2.71422 27.9856 2.87388 27.9856 2.95371C27.9856 3.51252 27.9856 4.07133 27.9856 4.70997C27.9856 6.22674 27.9856 7.66368 27.9856 9.18044C27.9856 9.65942 27.9856 10.1384 27.9856 10.6174C27.9856 10.8569 28.0704 11.0964 28.0704 11.3359C28.0704 11.4157 28.0704 11.5753 28.0704 11.6552C27.9856 11.8947 27.9856 12.1342 27.9856 12.3736C27.9856 12.6131 27.9856 12.9325 27.9856 13.1719C27.9856 13.3316 27.9856 13.5711 27.9008 13.7308C27.9008 13.7308 27.9008 13.8106 27.9008 13.7308C27.816 13.7308 27.816 13.7308 27.816 13.8106C27.816 13.9702 27.816 14.1299 27.816 14.2896C27.816 14.3694 27.816 14.3694 27.7312 14.3694C27.6464 14.3694 27.4768 14.3694 27.392 14.3694C27.2224 14.3694 27.1375 14.3694 26.9679 14.3694C26.6287 14.3694 26.3743 14.3694 26.0351 14.3694C25.4414 14.3694 24.763 14.3694 24.1693 14.3694C23.6605 14.3694 23.2364 14.3694 22.7276 14.3694C22.558 14.3694 22.3036 14.3694 22.1339 14.3694C21.8795 14.3694 21.7099 14.3694 21.4555 14.3694C21.3707 14.3694 21.2859 14.3694 21.1163 14.4492Z" fill="#1460D2"/>
<path d="M26.6275 28.5792C26.6275 28.7388 26.6275 28.8985 26.6275 29.0581C26.6275 29.2178 26.6275 29.2178 26.4579 29.2178C26.2034 29.2178 26.0338 29.2178 25.7794 29.2178C25.3554 29.2178 25.0161 29.2178 24.5921 29.2178C24.3377 29.2178 23.9985 29.2178 23.744 29.2178C23.6592 29.2178 23.5744 29.2178 23.4896 29.2976C23.4048 29.3775 23.32 29.3775 23.32 29.2976C23.32 29.2976 23.32 29.2178 23.4048 29.138C23.2352 29.138 23.0656 29.138 22.9808 29.138C22.1327 29.138 21.3695 29.138 20.5214 29.138C20.3518 29.138 20.267 29.138 20.0974 29.2178C20.1822 29.2178 20.1822 29.2976 20.267 29.2976C20.691 29.2976 21.115 29.2976 21.4543 29.2976H21.5391C21.5391 29.3775 21.5391 29.3775 21.4543 29.3775C21.2846 29.3775 21.1998 29.4573 21.0302 29.4573C20.6062 29.4573 20.1822 29.4573 19.7581 29.4573C19.5885 29.4573 19.3341 29.4573 19.1645 29.4573C19.0797 29.4573 19.0797 29.4573 18.9949 29.3775C18.9949 29.2976 18.9101 29.2976 18.8252 29.2976C18.5708 29.2976 18.3164 29.2976 17.9772 29.2976C18.062 29.2976 18.1468 29.2976 18.2316 29.3775H18.3164C18.1468 29.5371 18.062 29.5371 17.9772 29.5371C17.7228 29.5371 17.5531 29.5371 17.2987 29.5371C17.2139 29.5371 17.2139 29.5371 17.1291 29.4573C17.1291 29.4573 17.2139 29.4573 17.2987 29.3775C17.2139 29.3775 17.1291 29.3775 17.1291 29.3775C17.0443 29.3775 17.0443 29.4573 17.0443 29.4573C17.0443 29.5371 17.0443 29.5371 16.9595 29.5371C16.7899 29.5371 16.6203 29.617 16.3659 29.617C16.1962 29.617 15.9418 29.617 15.7722 29.617C15.6026 29.617 15.5178 29.5371 15.433 29.4573C15.3482 29.3775 15.2634 29.2178 15.1786 29.138C15.0938 29.138 15.0938 29.0581 15.0938 28.9783C15.0938 26.1044 15.0938 23.2306 15.0938 20.4365C15.0938 20.197 15.1786 20.0374 15.2634 19.8777C15.5178 19.0794 15.857 18.3609 16.1114 17.5626C16.281 16.924 16.5355 16.3652 16.7051 15.7265C16.7051 15.6467 16.7899 15.5669 16.7899 15.4871C16.7899 15.4072 16.9595 15.4072 17.0443 15.4072C17.4683 15.4072 17.8076 15.4072 18.2316 15.4072C18.486 15.4072 18.6556 15.4072 18.9101 15.4072C21.4543 15.4072 23.9985 15.4072 26.5427 15.4072C26.6275 15.4072 26.7123 15.4072 26.7971 15.4871C26.8819 15.5669 26.9667 15.6467 26.9667 15.7265C27.0515 15.8862 27.1363 16.0459 27.0515 16.2055C26.9667 16.2854 26.9667 16.445 27.0515 16.5248C27.0515 16.6047 27.0515 16.6845 27.0515 16.7643C27.0515 17.0837 27.0515 17.3231 27.0515 17.6425C27.0515 17.9618 27.0515 18.2013 27.0515 18.5206C27.0515 18.7601 27.0515 18.9996 27.0515 19.2391C27.0515 19.8777 27.0515 20.5163 27.0515 21.155C27.0515 21.8735 27.0515 22.5919 27.0515 23.3104C27.0515 23.5499 27.0515 23.7894 27.0515 24.0289C27.0515 24.2684 27.0515 24.5078 27.0515 24.7473C27.0515 24.907 27.0515 24.9868 27.0515 25.1465C27.0515 25.4658 27.0515 25.7851 27.1363 26.0246C27.1363 26.1843 27.1363 26.2641 27.1363 26.4238C27.1363 26.5834 27.1363 26.7431 27.0515 26.9027C27.0515 26.9826 27.0515 26.9826 27.0515 27.0624C27.0515 27.3019 27.0515 27.6212 27.0515 27.8607C27.0515 28.1002 27.0515 28.2598 27.0515 28.4993C27.0515 28.5792 27.0515 28.5792 27.0515 28.659C26.7123 28.659 26.7123 28.659 26.6275 28.5792Z" fill="#1460D2"/>
<path d="M4.40584 2.71331C4.49065 2.9528 4.66026 3.03263 4.82987 3.19229C4.99949 3.43178 5.1691 3.59144 5.33871 3.83093C5.50833 4.07042 5.67794 4.30991 5.93236 4.46956C6.18678 4.70905 6.3564 5.02837 6.61082 5.26786C6.86524 5.58718 7.03485 5.9065 7.37408 6.14599C7.54369 6.54514 7.88292 6.7048 8.30695 6.78463C8.64618 6.86446 8.9006 6.94429 9.23983 7.02412C9.57905 7.10395 9.83347 7.18378 10.0879 7.34344C10.4271 7.5031 10.6815 7.66276 10.936 7.90225C11.1056 8.06191 11.36 8.22157 11.5296 8.38123C11.784 8.62072 12.1233 8.86021 12.3777 9.0997C12.7169 9.41902 13.0561 9.81817 13.3954 10.2173C13.565 10.4568 13.7346 10.7761 13.8194 11.0954C13.8194 11.1753 13.8194 11.3349 13.8194 11.4946C13.8194 11.8139 13.8194 12.0534 13.7346 12.3727C13.6498 12.6122 13.4802 12.8517 13.3954 13.0114C13.3106 13.2509 13.1409 13.4105 13.0561 13.65C12.8865 13.8895 12.8017 14.129 12.8017 14.4483C12.7169 14.6878 12.7169 14.9273 12.6321 15.1668C12.6321 15.3264 12.6321 15.4861 12.5473 15.5659C12.5473 15.6458 12.5473 15.6458 12.4625 15.6458C12.0385 15.6458 11.6992 15.6458 11.2752 15.6458C10.6815 15.6458 10.0879 15.6458 9.49425 15.6458C9.07021 15.6458 8.64618 15.6458 8.22215 15.6458H8.30695C8.56137 15.6458 8.81579 15.6458 8.98541 15.6458C8.98541 15.6458 9.15502 15.6458 9.07021 15.7256C9.07021 15.7256 8.98541 15.7256 8.9006 15.7256C8.73099 15.7256 8.56137 15.7256 8.30695 15.7256C7.79811 15.7256 7.28927 15.7256 6.69562 15.7256C6.61082 15.7256 6.4412 15.7256 6.3564 15.6458C6.3564 15.6458 6.27159 15.5659 6.27159 15.6458V15.7256C6.27159 15.7256 6.27159 15.7256 6.27159 15.8054C6.18678 15.8852 6.18678 15.8852 6.10198 15.8852C6.10198 15.8852 6.01717 15.8852 6.01717 15.8054C6.01717 15.6458 5.84756 15.6458 5.76275 15.6458C5.33871 15.5659 4.82987 15.6458 4.40584 15.6458C4.32103 15.6458 4.23623 15.6458 4.06661 15.6458C4.15142 15.6458 4.23623 15.7256 4.23623 15.7256C4.23623 15.7256 4.32103 15.7256 4.32103 15.8054C4.32103 15.8054 4.32103 15.8054 4.23623 15.8054C4.15142 15.8054 4.15142 15.8054 4.06661 15.8054C3.55777 15.8852 3.13374 15.8852 2.6249 15.8852C2.45528 15.8852 2.37048 15.8852 2.28567 15.7256L2.20086 15.6458C2.03125 15.5659 2.03125 15.4063 2.03125 15.2466C2.03125 13.0114 2.03125 10.856 2.03125 8.62072C2.03125 6.38548 2.03125 4.07042 2.03125 1.83518C2.03125 1.67552 2.03125 1.51586 2.20086 1.43603C2.37048 1.43603 2.45528 1.3562 2.54009 1.27637H2.6249C2.96412 1.27637 3.38816 1.27637 3.72739 1.27637C5.50833 1.27637 7.37408 1.27637 9.15502 1.27637C9.32463 1.27637 9.57905 1.27637 9.74867 1.27637C10.2575 1.27637 10.7663 1.27637 11.2752 1.27637C11.6992 1.27637 12.2081 1.27637 12.6321 1.27637C13.1409 1.27637 13.6498 1.27637 14.0738 1.27637C14.1586 1.27637 14.2434 1.27637 14.2434 1.3562C14.3282 1.43603 14.4978 1.59569 14.5827 1.67552C14.6675 1.75535 14.6675 1.75535 14.6675 1.83518C14.6675 2.47382 14.6675 3.11246 14.6675 3.7511C14.6675 4.62922 14.6675 5.50735 14.6675 6.38548C14.6675 6.54514 14.6675 6.7048 14.5827 6.86446C14.5827 6.86446 14.5827 6.94429 14.4978 6.94429C14.4978 6.94429 14.413 6.94429 14.413 6.86446C14.3282 6.78463 14.3282 6.7048 14.3282 6.62497C14.2434 6.38548 14.2434 6.06616 14.2434 5.82667C14.2434 5.50735 14.3282 5.26786 14.3282 4.94854C14.3282 4.62922 14.413 4.38973 14.2434 4.07042C14.1586 3.91076 14.0738 3.83093 13.9042 3.7511C13.7346 3.67127 13.565 3.59144 13.3106 3.51161C12.8865 3.43178 12.4625 3.51161 12.1233 3.91076C11.9536 4.15025 11.784 4.46956 11.6992 4.78888C11.6144 5.1082 11.6144 5.42752 11.784 5.74684C11.8688 5.9065 11.9536 6.06616 12.1233 6.22582C12.2081 6.30565 12.3777 6.38548 12.4625 6.54514C12.5473 6.62497 12.5473 6.62497 12.4625 6.7048C12.4625 6.7048 12.4625 6.7048 12.3777 6.7048C12.2081 6.7048 11.9536 6.7048 11.784 6.7048C11.2752 6.7048 10.7663 6.62497 10.3423 6.46531C9.91828 6.30565 9.49425 6.14599 9.07021 5.98633C8.64618 5.82667 8.13734 5.58718 7.6285 5.26786C7.28927 5.02837 6.95004 4.86871 6.61082 4.54939C6.27159 4.30991 5.93236 3.99059 5.76275 3.59144C5.76275 3.51161 5.67794 3.43178 5.59314 3.35195C5.59314 3.27212 5.50833 3.27212 5.50833 3.35195C5.33871 3.51161 5.33872 3.51161 5.1691 3.35195C4.99949 3.27212 4.82987 3.03263 4.57545 2.87297C4.57545 2.79314 4.49065 2.79314 4.40584 2.71331Z" fill="#1460D2"/>
<path d="M5.17064 15.7261C5.25545 15.7261 5.42506 15.7261 5.59468 15.7261C5.59468 15.7261 5.67948 15.7261 5.67948 15.8059L5.59468 15.8857C5.34026 15.8857 5.17064 15.8857 4.91622 15.8857C4.83141 15.8857 4.74661 15.8857 4.57699 15.8059C4.57699 15.8059 4.49219 15.8059 4.49219 15.7261C4.49219 15.7261 4.49219 15.7261 4.57699 15.6462C4.6618 15.5664 4.83141 15.5664 4.91622 15.5664C5.00103 15.6462 5.08584 15.7261 5.17064 15.7261Z" fill="#1460D2"/>
<path d="M18.9095 29.4568C18.9095 29.5367 18.9095 29.5367 18.9095 29.4568C18.8247 29.5367 18.7399 29.5367 18.6551 29.5367C18.6551 29.5367 18.5703 29.5367 18.5703 29.4568C18.5703 29.4568 18.5703 29.377 18.6551 29.377C18.7399 29.4568 18.8247 29.4568 18.9095 29.4568Z" fill="#1460D2"/>
<path d="M19.6718 14.6076H19.587C19.5022 14.5283 19.5022 14.5283 19.587 14.5283C19.6718 14.5283 19.6719 14.5283 19.7567 14.5283L19.8415 14.6076C19.8415 14.6076 19.7567 14.6076 19.6718 14.6076Z" fill="#1460D2"/>
<path d="M11.1079 15.7267C11.1079 15.807 11.0227 15.807 11.0227 15.807C10.9375 15.807 10.9375 15.807 10.9375 15.7267C10.9375 15.6465 11.0227 15.6465 11.0227 15.6465C11.0227 15.6465 11.0227 15.7267 11.1079 15.7267Z" fill="#1460D2"/>
</svg>
