<svg width="17" height="35" viewBox="0 0 17 35" fill="none" xmlns="http://www.w3.org/2000/svg">
<path d="M2.1931 2.91161C2.98337 2.65468 3.78209 2.40605 4.57658 2.16155C5.0668 2.01237 5.5697 1.9212 6.03034 1.66842C6.15712 1.59797 6.25432 1.42806 6.41068 1.4695H6.40646C6.54169 1.39905 6.66847 1.2996 6.81215 1.26645C7.35309 1.13384 7.89825 0.901775 8.43918 0.847903C8.46031 0.843759 8.47721 0.798175 8.50679 0.789887C8.65048 0.756735 9.17451 0.66557 9.49569 0.566115C10.2437 0.338196 11.0002 0.139285 11.8369 0.230453C11.9679 0.242885 13.6964 0.0688349 13.9415 0.972224C14.195 1.91705 12.6863 2.62982 12.4708 2.6464C11.951 2.69198 11.389 2.6091 10.941 2.90332C10.2817 3.3343 9.52527 3.39646 8.8153 3.63681C8.17717 3.8523 7.51368 3.97662 6.87977 4.20039C6.2839 4.41173 5.73029 4.7764 5.11752 4.92973C4.58926 5.06234 3.99762 4.96703 3.44823 5.0209C3.31723 5.03333 3.2158 5.24053 3.07634 5.26125C2.96224 5.27783 2.77206 5.32341 2.63683 5.27368C2.57766 5.25296 2.5185 5.22396 2.48047 5.26954C2.3072 5.48088 0.490004 5.71294 0.202633 4.61064C-0.0847374 3.53321 1.50848 3.13539 2.1931 2.91161Z" fill="black"/>
<path d="M4.79145 15.1071C5.4972 15.0781 6.19872 15.0574 6.90447 15.0408C7.33552 15.0325 7.76658 15.0822 8.20186 14.9662C8.32019 14.933 8.44274 14.7963 8.56107 14.8833C8.68785 14.8543 8.81464 14.7921 8.93719 14.8004C9.41051 14.8212 9.90495 14.7507 10.3571 14.846C10.374 14.8502 10.3994 14.8087 10.4248 14.8087C10.5515 14.817 10.9953 14.8709 11.2826 14.8667C11.9461 14.8543 12.6054 14.8709 13.2562 15.1858C13.3576 15.2356 14.7987 15.5381 14.7733 16.4788C14.748 17.4526 13.3492 17.7219 13.1717 17.6847C12.7406 17.5852 12.3053 17.349 11.8701 17.5106C11.2319 17.7427 10.6023 17.5935 9.96834 17.6308C9.39783 17.6639 8.83154 17.5976 8.26525 17.6391C7.73277 17.6764 7.19184 17.8753 6.65936 17.8545C6.19872 17.8338 5.74653 17.581 5.28589 17.4857C5.17602 17.4609 5.04501 17.6349 4.92669 17.6142C4.82949 17.5976 4.66467 17.5893 4.57169 17.5065C4.52943 17.4692 4.48718 17.4236 4.44492 17.4567C4.25052 17.6101 2.72915 17.3366 2.76718 16.197C2.79254 15.0781 4.17867 15.132 4.79145 15.1071Z" fill="black"/>
<path d="M4.35334 29.1631C5.21123 29.3952 6.06911 29.6355 6.92277 29.88C7.44679 30.0292 7.94969 30.2405 8.50753 30.2861C8.65967 30.2986 8.84561 30.2115 8.96394 30.3359H8.95972C9.12031 30.3524 9.28935 30.3442 9.44149 30.3939C10.0035 30.5886 10.6248 30.7047 11.1404 30.9616C11.1615 30.9699 11.2037 30.9409 11.2333 30.9533C11.3812 31.0072 11.901 31.2227 12.2518 31.3221C13.0547 31.5542 13.845 31.8153 14.5423 32.3581C14.6522 32.441 16.3003 33.2698 15.9961 34.1566C15.6749 35.0807 13.9126 34.8238 13.7098 34.7161C13.2153 34.4633 12.7631 34.0779 12.1926 34.0654C11.3517 34.053 10.6375 33.6759 9.86409 33.477C9.16679 33.2988 8.50331 33.0253 7.80601 32.8554C7.15098 32.6938 6.441 32.6855 5.80287 32.47C5.25348 32.2835 4.78017 31.8733 4.25614 31.6081C4.13358 31.5459 3.92228 31.6578 3.78282 31.5998C3.66872 31.55 3.47432 31.4796 3.38558 31.3636C3.34754 31.3138 3.30951 31.2558 3.24612 31.2724C2.9672 31.3511 1.20917 30.5223 1.58951 29.4449C1.95295 28.3965 3.60956 28.9642 4.35334 29.1631Z" fill="black"/>
</svg>
