<svg width="23" height="23" viewBox="0 0 23 23" fill="none" xmlns="http://www.w3.org/2000/svg">
<g clip-path="url(#clip0_1486_16580)">
<path d="M11.4667 0.0478516C5.35476 0.0478516 0.399994 5.00262 0.399994 11.1145C0.399994 16.3043 3.9732 20.6593 8.7934 21.8554V14.4965H6.51145V11.1145H8.7934V9.65726C8.7934 5.89061 10.4981 4.14473 14.1961 4.14473C14.8973 4.14473 16.1071 4.2824 16.602 4.41963V7.48509C16.3409 7.45765 15.8871 7.44393 15.3236 7.44393C13.5091 7.44393 12.8079 8.13139 12.8079 9.91843V11.1145H16.4228L15.8017 14.4965H12.8079V22.1002C18.2877 21.4384 22.5338 16.7727 22.5338 11.1145C22.5333 5.00262 17.5786 0.0478516 11.4667 0.0478516Z" fill="#F8F1E7"/>
</g>
<defs>
<clipPath id="clip0_1486_16580">
<rect width="22.1333" height="22.1333" fill="white" transform="translate(0.399994 0.0478516)"/>
</clipPath>
</defs>
</svg>
