<svg width="191" height="94" viewBox="0 0 191 94" fill="none" xmlns="http://www.w3.org/2000/svg">
<path d="M45.807 65H36.735V30.536H60.207V38.408H45.807V44.792H57.855V52.664H45.807V65ZM85.5428 65L83.4308 58.616H71.3348L69.1748 65H60.0068L72.7748 30.536H82.7108L95.3348 65H85.5428ZM77.4788 40.52L73.7828 51.464H81.0788L77.4788 40.52ZM112.807 65.72C102.871 65.72 95.0471 58.184 95.0471 47.72C95.0471 37.256 102.871 29.816 112.807 29.816C122.791 29.816 130.615 37.256 130.615 47.72C130.615 54.344 127.495 59.816 122.647 62.888L128.407 73.736H119.335L114.919 65.624C114.199 65.672 113.527 65.72 112.807 65.72ZM112.807 57.608C118.231 57.608 121.255 53.144 121.255 47.72C121.255 42.296 118.231 37.928 112.807 37.928C107.383 37.928 104.359 42.296 104.359 47.72C104.359 53.144 107.383 57.608 112.807 57.608Z" fill="#13141D"/>
<path d="M143.329 63.704C144.705 63.704 145.841 63.368 146.737 62.696C147.633 61.992 148.081 61 148.081 59.72C148.081 58.952 147.873 58.312 147.457 57.8C147.073 57.288 146.481 56.84 145.681 56.456C144.881 56.072 143.889 55.688 142.705 55.304C141.361 54.856 140.081 54.312 138.865 53.672C137.681 53.032 136.721 52.216 135.985 51.224C135.249 50.232 134.881 48.984 134.881 47.48C134.881 46.52 135.089 45.576 135.505 44.648C135.921 43.72 136.561 42.872 137.425 42.104C138.321 41.336 139.425 40.728 140.737 40.28C142.081 39.8 143.665 39.56 145.489 39.56C146.993 39.56 148.385 39.768 149.665 40.184C150.945 40.6 151.969 41.192 152.737 41.96C153.537 42.728 153.937 43.624 153.937 44.648C153.937 45.448 153.649 46.088 153.073 46.568C152.529 47.048 151.841 47.288 151.009 47.288C150.401 47.288 149.809 47.192 149.233 47C148.657 46.808 148.193 46.584 147.841 46.328L148.273 44.312C148.497 43.416 148.353 42.712 147.841 42.2C147.361 41.688 146.465 41.432 145.153 41.432C144.129 41.432 143.281 41.592 142.609 41.912C141.937 42.2 141.441 42.6 141.121 43.112C140.801 43.592 140.641 44.168 140.641 44.84C140.641 45.544 140.833 46.152 141.217 46.664C141.633 47.176 142.209 47.64 142.945 48.056C143.681 48.44 144.513 48.808 145.441 49.16C146.593 49.544 147.649 49.976 148.609 50.456C149.601 50.904 150.465 51.432 151.201 52.04C151.937 52.616 152.513 53.32 152.929 54.152C153.345 54.952 153.553 55.912 153.553 57.032C153.553 58.76 153.105 60.28 152.209 61.592C151.313 62.872 150.049 63.88 148.417 64.616C146.785 65.32 144.849 65.672 142.609 65.672C140.913 65.672 139.393 65.48 138.049 65.096C136.737 64.744 135.697 64.232 134.929 63.56C134.161 62.856 133.777 62.008 133.777 61.016C133.777 60.024 134.097 59.288 134.737 58.808C135.377 58.296 136.161 58.04 137.089 58.04C137.569 58.04 138.049 58.104 138.529 58.232C139.041 58.328 139.457 58.472 139.777 58.664L139.825 61.016C139.857 61.944 140.129 62.632 140.641 63.08C141.153 63.496 142.049 63.704 143.329 63.704Z" fill="#B542FB"/>
<path d="M99.6495 86.9848C105.996 86.2999 112.316 85.3684 118.58 84.1812C124.498 83.0489 130.406 81.7795 136.205 80.1266L138.387 79.533L140.552 78.8755C141.995 78.4281 143.437 78.008 144.871 77.5423C147.72 76.5651 150.606 75.6428 153.4 74.5652C158.998 72.4557 164.377 69.981 169.18 66.7756C171.582 65.1775 173.792 63.3694 175.792 61.3695C177.774 59.3878 179.5 57.1962 180.897 54.7762C181.171 54.283 181.427 53.7717 181.655 53.2603L182.285 51.6896L182.23 51.7717C184.988 45.7172 185.636 38.7769 183.079 32.9507C180.586 27.0605 175.18 22.5676 169.016 19.4353C165.418 17.6363 161.583 16.1752 157.619 15.0063C153.638 13.8831 149.519 12.8511 145.419 12.011C137.191 10.3124 128.835 9.23486 120.452 8.76913C103.668 7.83767 86.755 9.35358 70.3814 13.2256C69.0937 13.4904 67.6053 13.9196 66.0802 14.3031C64.5552 14.7049 62.9754 15.0337 61.5782 15.3807C58.7655 16.0199 56.5007 16.2208 56.245 15.2163C55.6971 13.1982 61.1032 9.80105 70.3448 7.57284C75.9153 6.18478 81.5863 5.23505 87.2573 4.43143C90.1065 4.11181 92.9466 3.71 95.8141 3.53649C97.2478 3.43604 98.6723 3.28993 100.106 3.21687L104.398 3.0251C105.832 2.94291 107.256 2.94291 108.69 2.93378C110.124 2.93378 111.548 2.88812 112.982 2.90639C115.84 3.00684 118.699 2.99771 121.557 3.20774C127.265 3.46344 132.936 4.13007 138.588 4.84237L144.761 5.82863L150.889 7.06145L156.971 8.54083C158.998 9.07049 161.035 9.6732 163.044 10.3581C167.053 11.737 171.025 13.3808 174.76 15.6181C175.692 16.1843 176.623 16.7414 177.518 17.3897C178.431 17.9925 179.299 18.6774 180.157 19.3805C181.034 20.0563 181.81 20.869 182.641 21.6087L183.783 22.8416C184.175 23.2434 184.54 23.6726 184.878 24.1292C187.709 27.6541 189.782 31.9096 190.513 36.4574C191.298 40.9868 190.823 45.5985 189.563 49.8723C188.906 52 188.075 54.0639 187.07 56.0455C186.038 58.0089 184.86 59.881 183.545 61.6526C180.851 65.1867 177.619 68.1728 174.121 70.7206C167.829 75.314 160.77 78.3915 153.757 80.985C146.725 83.5237 139.584 85.7245 132.333 87.5327C117.84 91.1672 102.955 93.158 88.0336 93.7607C73.9977 94.2264 59.9618 93.5141 46.0081 91.2494C42.5014 90.6284 39.013 89.8796 35.552 88.9116C32.1001 87.9162 28.6754 86.7382 25.3331 85.2771C22.0091 83.7703 18.7672 81.9987 15.7171 79.8618C12.6761 77.6975 9.89085 75.0949 7.48914 72.127L6.00073 70.1545C5.53499 69.4787 5.12412 68.7481 4.69491 68.045L4.05572 66.9857C3.85481 66.6295 3.69035 66.246 3.50771 65.8716L2.45762 63.6251C1.18827 60.5476 0.430267 57.2692 0.128911 53.9726C-0.163314 50.6759 0.0556851 47.3701 0.640133 44.1739C1.24285 40.9777 2.23836 37.8911 3.50771 34.9506C6.08293 29.0878 9.78139 23.8187 14.2378 19.3531C16.466 17.1158 18.8859 15.0702 21.4886 13.2712C22.7853 12.3671 24.1279 11.527 25.5159 10.7508C26.904 10.002 28.2828 9.30792 29.6891 8.62302C35.0222 6.13911 40.958 4.3949 46.1541 2.45892H46.0538C49.4326 2.21235 52.9484 1.39047 56.5008 0.83342C60.044 0.23984 63.5872 -0.12544 66.8108 0.385952C69.039 0.294632 71.3129 0.340292 73.4589 0.19418C83.3306 -0.408532 85.9148 0.37682 82.6639 2.76027C81.9516 3.28993 82.8009 3.95657 80.4266 4.34924C80.4174 4.34924 80.244 4.31271 80.244 4.31271L80.3169 4.34924C77.0111 5.20765 73.3402 5.49987 69.5687 5.68252C65.8063 5.87429 61.9526 5.97474 58.3272 6.38568C49.4417 7.40846 40.6932 9.37184 32.7393 13.0612C31.7256 13.4904 30.7759 14.0109 29.7988 14.5223C28.8125 15.0154 27.881 15.5542 26.9678 16.1113C25.1414 17.2345 23.3972 18.5221 21.7443 19.9102C18.4385 22.6954 15.5071 25.9282 13.0689 29.4897C8.2198 36.5852 5.31575 45.1693 6.1559 53.5068C6.36594 55.5798 6.7953 57.6162 7.46194 59.5796L8.00972 61.0316C8.21063 61.5065 8.45717 61.9722 8.67634 62.4471L9.34296 63.8625C9.59866 64.3191 9.88187 64.7575 10.1558 65.1958C12.3201 68.7573 15.2788 71.8439 18.7033 74.3826C22.8857 77.5514 27.7896 79.8435 32.8487 81.6699C37.9261 83.4963 43.2593 84.7291 48.6471 85.6241C59.5234 87.3866 70.6006 88.1263 81.6046 88.0167C87.6409 87.8706 93.6496 87.35 99.7498 86.9574L99.6495 86.9848Z" fill="black"/>
</svg>
