<svg width="31" height="11" viewBox="0 0 31 11" fill="none" xmlns="http://www.w3.org/2000/svg">
<path d="M18.651 3.67357C19.0615 3.62136 20.5202 3.47217 21.4533 3.38415C23.6134 3.17231 25.7764 3.03655 27.9349 3.01566C28.2716 3.01268 28.8444 2.97986 28.8518 3.31851C28.8607 3.67059 28.4901 3.89735 27.9024 3.91824C26.4821 3.97046 25.0529 3.9794 23.6503 4.14798C21.5995 4.39265 19.5487 4.54632 17.5171 4.85066C16.6046 4.98791 15.6966 5.13858 14.7901 5.30567C13.885 5.47574 12.9859 5.67118 12.0941 5.89645C10.4213 6.33058 8.79274 6.90197 7.19079 7.52109C5.80735 8.04921 4.42097 8.58777 3.10545 9.28298C2.95042 9.36503 2.78949 9.47095 2.62413 9.57986C2.46172 9.69175 2.29783 9.80961 2.13247 9.90509C1.8549 10.0587 1.41491 10.3497 1.13439 10.4944C1.01184 10.5555 0.889297 10.6257 0.787422 10.7107C0.320863 11.106 0.117113 11.1001 0.0639607 10.6689C0.0521491 10.5734 -0.0541554 10.5138 0.0359081 10.3795C0.038861 10.3735 0.0462432 10.3631 0.0506726 10.3571C0.171742 10.1304 0.347439 9.96924 0.539378 9.83348C0.735746 9.70219 0.948355 9.59478 1.1462 9.46349C3.10545 8.18646 5.22416 7.17498 7.4034 6.36042C8.74254 5.86363 10.1142 5.46232 11.4814 5.06697C11.8549 4.95508 12.224 4.81933 12.6153 4.75816L12.6094 4.75965C13.008 4.65373 13.4081 4.55079 13.8127 4.46426C15.3423 4.15843 16.9457 3.87647 18.431 3.71684C18.4886 3.70789 18.5654 3.68402 18.651 3.67357Z" fill="#13141D"/>
<path d="M30.9808 3.76005C30.9542 3.91073 30.8715 4.14495 30.7224 4.35978C30.5763 4.57908 30.3769 4.77452 30.1688 4.94907C29.9547 5.12511 29.7568 5.26534 29.5605 5.41751C29.3641 5.56819 29.1736 5.7129 29.0068 5.8412C27.4654 7.0332 25.9166 8.21624 24.3087 9.31127C24.0577 9.48284 23.6458 9.79463 23.4524 9.52013C23.2516 9.23369 23.4037 8.86073 23.8318 8.54893C24.8698 7.79554 25.9417 7.07646 26.9191 6.25295C27.6337 5.65024 28.369 5.07587 29.1087 4.50747C29.2962 4.36276 29.4778 4.22999 29.6254 4.09572C29.776 3.96146 29.8956 3.81823 29.9561 3.69142C29.9872 3.62727 30.0034 3.56909 30.0078 3.51389C30.0108 3.45869 30.0019 3.39902 29.9872 3.34681C29.9502 3.24685 29.8661 3.13795 29.7184 3.04247C29.5915 2.95594 29.432 2.88284 29.2622 2.82167C29.0895 2.76051 28.9138 2.71575 28.7159 2.67547C28.3099 2.59192 27.9039 2.50241 27.4964 2.42484C26.6829 2.26073 25.8664 2.11602 25.0469 1.98474C23.507 1.74455 21.9538 1.60879 20.4079 1.43424C19.0732 1.28505 17.7429 1.08365 16.4023 0.971761C16.0864 0.944907 15.7025 0.989665 15.357 0.964303C15.0706 0.946401 14.5922 0.925513 14.3102 0.885233C14.1877 0.868822 14.0607 0.849429 13.9411 0.85838C13.3874 0.900152 13.2442 0.773345 13.4376 0.39292C13.4804 0.309376 13.4361 0.197485 13.572 0.142286C13.5779 0.139302 13.5882 0.134827 13.5941 0.133335C14.009 -0.0889523 14.4268 0.0303972 14.8476 0.0453158C16.922 0.102007 18.9935 0.264619 21.0576 0.48989C22.3244 0.630125 23.5853 0.821085 24.8476 0.980714C25.1931 1.02099 25.5445 1.03591 25.8885 1.12393L25.8826 1.12244C26.2488 1.17316 26.6149 1.2209 26.9781 1.28804C27.3207 1.35517 27.6677 1.4223 28.0161 1.48944C28.366 1.56105 28.7159 1.63266 29.0644 1.70427C29.4453 1.79378 29.8292 1.91163 30.2086 2.14884C30.3961 2.26968 30.5881 2.42782 30.7416 2.64861C30.8967 2.86792 30.9926 3.15734 30.9956 3.42737C30.9956 3.47063 30.9985 3.52136 31 3.57805C30.9956 3.63623 30.9926 3.69889 30.9808 3.76005Z" fill="#13141D"/>
</svg>
