<svg width="23" height="23" viewBox="0 0 23 23" fill="none" xmlns="http://www.w3.org/2000/svg">
<g clip-path="url(#clip0_1486_16577)">
<path d="M11.0667 2.04072C14.0235 2.04072 14.3737 2.05368 15.5366 2.10556C16.6173 2.15311 17.2009 2.33467 17.59 2.48598C18.1044 2.68483 18.4761 2.92691 18.8609 3.31165C19.2499 3.70072 19.4877 4.06816 19.6866 4.58259C19.8379 4.97165 20.0194 5.55957 20.067 6.63598C20.1189 7.80316 20.1318 8.15332 20.1318 11.1059C20.1318 14.0627 20.1189 14.4129 20.067 15.5758C20.0194 16.6565 19.8379 17.2401 19.6866 17.6292C19.4877 18.1436 19.2456 18.5154 18.8609 18.9001C18.4718 19.2892 18.1044 19.5269 17.59 19.7258C17.2009 19.8771 16.613 20.0586 15.5366 20.1062C14.3694 20.1581 14.0192 20.171 11.0667 20.171C8.10979 20.171 7.75964 20.1581 6.59677 20.1062C5.51604 20.0586 4.93245 19.8771 4.54339 19.7258C4.02896 19.5269 3.65719 19.2848 3.27245 18.9001C2.88339 18.511 2.64563 18.1436 2.44677 17.6292C2.29547 17.2401 2.11391 16.6522 2.06635 15.5758C2.01448 14.4086 2.00151 14.0584 2.00151 11.1059C2.00151 8.149 2.01448 7.79884 2.06635 6.63598C2.11391 5.55525 2.29547 4.97165 2.44677 4.58259C2.64563 4.06816 2.88771 3.69639 3.27245 3.31165C3.66151 2.92259 4.02896 2.68483 4.54339 2.48598C4.93245 2.33467 5.52037 2.15311 6.59677 2.10556C7.75964 2.05368 8.10979 2.04072 11.0667 2.04072ZM11.0667 0.0478516C8.06224 0.0478516 7.68615 0.0608203 6.50599 0.112695C5.33016 0.16457 4.52177 0.354779 3.82146 0.627122C3.09089 0.912435 2.47271 1.28853 1.85885 1.90671C1.24068 2.52056 0.864583 3.13874 0.579271 3.86499C0.306927 4.56962 0.116719 5.37368 0.0648438 6.54952C0.0129688 7.734 0 8.11009 0 11.1145C0 14.1189 0.0129688 14.495 0.0648438 15.6752C0.116719 16.851 0.306927 17.6594 0.579271 18.3597C0.864583 19.0903 1.24068 19.7085 1.85885 20.3223C2.47271 20.9362 3.09089 21.3166 3.81714 21.5976C4.52177 21.8699 5.32583 22.0601 6.50167 22.112C7.68182 22.1639 8.05792 22.1769 11.0623 22.1769C14.0668 22.1769 14.4429 22.1639 15.623 22.112C16.7989 22.0601 17.6072 21.8699 18.3076 21.5976C19.0338 21.3166 19.652 20.9362 20.2658 20.3223C20.8797 19.7085 21.2601 19.0903 21.5411 18.364C21.8134 17.6594 22.0036 16.8554 22.0555 15.6795C22.1074 14.4994 22.1204 14.1233 22.1204 11.1188C22.1204 8.11441 22.1074 7.73832 22.0555 6.55816C22.0036 5.38233 21.8134 4.57395 21.5411 3.87363C21.2688 3.13874 20.8927 2.52056 20.2745 1.90671C19.6606 1.29285 19.0424 0.912435 18.3162 0.631445C17.6116 0.359102 16.8075 0.168893 15.6317 0.117018C14.4472 0.0608203 14.0711 0.0478516 11.0667 0.0478516Z" fill="#F8F1E7"/>
<path d="M11.0667 5.42969C7.92823 5.42969 5.38203 7.97589 5.38203 11.1143C5.38203 14.2528 7.92823 16.799 11.0667 16.799C14.2051 16.799 16.7513 14.2528 16.7513 11.1143C16.7513 7.97589 14.2051 5.42969 11.0667 5.42969ZM11.0667 14.8018C9.03058 14.8018 7.37922 13.1504 7.37922 11.1143C7.37922 9.07823 9.03058 7.42687 11.0667 7.42687C13.1028 7.42687 14.7541 9.07823 14.7541 11.1143C14.7541 13.1504 13.1028 14.8018 11.0667 14.8018Z" fill="#F8F1E7"/>
<path d="M18.3032 5.20507C18.3032 5.93996 17.7067 6.5322 16.9761 6.5322C16.2412 6.5322 15.649 5.93564 15.649 5.20507C15.649 4.47017 16.2455 3.87793 16.9761 3.87793C17.7067 3.87793 18.3032 4.47449 18.3032 5.20507Z" fill="#F8F1E7"/>
</g>
<defs>
<clipPath id="clip0_1486_16577">
<rect width="22.1333" height="22.1333" fill="white" transform="translate(0 0.0478516)"/>
</clipPath>
</defs>
</svg>
