<svg width="23" height="23" viewBox="0 0 23 23" fill="none" xmlns="http://www.w3.org/2000/svg">
<g clip-path="url(#clip0_1486_16581)">
<path d="M21.0283 0.0478516H2.16739C1.2639 0.0478516 0.533325 0.761133 0.533325 1.64301V20.5817C0.533325 21.4636 1.2639 22.1812 2.16739 22.1812H21.0283C21.9318 22.1812 22.6667 21.4636 22.6667 20.586V1.64301C22.6667 0.761133 21.9318 0.0478516 21.0283 0.0478516ZM7.09984 18.9087H3.81442V8.34353H7.09984V18.9087ZM5.45713 6.904C4.40234 6.904 3.55072 6.05238 3.55072 5.00191C3.55072 3.95145 4.40234 3.09983 5.45713 3.09983C6.5076 3.09983 7.35921 3.95145 7.35921 5.00191C7.35921 6.04806 6.5076 6.904 5.45713 6.904ZM19.3942 18.9087H16.1131V13.7731C16.1131 12.5497 16.0915 10.9719 14.4056 10.9719C12.698 10.9719 12.4386 12.3076 12.4386 13.6867V18.9087H9.16187V8.34353H12.3089V9.78738H12.3522C12.7888 8.95738 13.8609 8.07983 15.456 8.07983C18.7804 8.07983 19.3942 10.2672 19.3942 13.1117V18.9087Z" fill="#F8F1E7"/>
</g>
<defs>
<clipPath id="clip0_1486_16581">
<rect width="22.1333" height="22.1333" fill="white" transform="translate(0.533325 0.0478516)"/>
</clipPath>
</defs>
</svg>
