<svg width="34" height="39" viewBox="0 0 34 39" fill="none" xmlns="http://www.w3.org/2000/svg">
<g clip-path="url(#clip0_1_3301)">
<path d="M16.9 37.7999C16.7999 37.6999 16.9 37.4999 16.7999 37.3999C16.7999 37.4999 16.7 37.5999 16.7 37.6999C16.7 37.7999 16.7 37.8999 16.7 37.9999C16.7 38.1999 16.7 38.1999 16.5 38.1999C16.4 38.1999 16.2999 38.1999 16.2999 38.1999C16.0999 38.1999 15.9 38.1999 15.7 38.2999C15.5 38.2999 15.3 38.3999 15.2 38.3999C15 38.3999 14.8 38.3999 14.6 38.3999C14.3 38.3999 14.1 38.3999 13.8 38.3999C13.4 38.3999 13 38.3999 12.6 38.3999C12.6 38.3999 12.6 38.3999 12.6 38.4999C12.6 38.4999 12.7 38.5999 12.6 38.5999C12.6 38.5999 12.5 38.5999 12.5 38.4999C12.4 38.4999 12.5 38.3999 12.5 38.3999C12.2 38.3999 11.8 38.3999 11.5 38.3999C11.2 38.3999 10.9 38.3999 10.7 38.3999C10.5 38.3999 10.3 38.3999 10.1 38.3999H9.99995C9.89995 38.4999 9.79995 38.4999 9.69995 38.4999C9.09995 38.4999 8.49995 38.4999 7.99995 38.4999C7.59995 38.4999 7.29995 38.4999 6.89995 38.4999C6.69995 38.4999 6.49995 38.4999 6.39995 38.4999H6.29995C6.09995 38.3999 5.89995 38.3999 5.79995 38.5999C5.79995 38.5999 5.69995 38.6999 5.69995 38.5999C5.49995 38.5999 5.29995 38.5999 5.09995 38.5999C4.99995 38.5999 4.79995 38.5999 4.69995 38.5999C4.69995 38.5999 4.59995 38.5999 4.59995 38.4999C4.49995 38.3999 4.29995 38.3999 4.09995 38.3999C4.09995 38.4999 4.19995 38.4999 4.19995 38.4999C4.19995 38.5999 4.09995 38.4999 3.99995 38.4999C3.39995 38.4999 2.69995 38.4999 2.09995 38.4999C1.89995 38.4999 1.69995 38.4999 1.39995 38.4999C1.09995 38.4999 0.899951 38.4999 0.599951 38.3999C0.499951 38.3999 0.499951 38.3999 0.499951 38.2999C0.399951 38.1999 0.299951 37.9999 0.199951 37.8999C0.199951 37.8999 0.199951 37.7999 0.199951 37.6999C0.199951 35.8999 0.199951 33.9999 0.199951 32.1999C0.199951 30.5999 0.199951 28.8999 0.199951 27.2999C0.199951 26.8999 0.199951 26.5999 0.199951 26.1999C0.199951 25.9999 0.199951 25.7999 0.199951 25.5999C0.199951 25.4999 0.199951 25.2999 0.199951 25.1999C0.199951 24.9999 0.199951 24.8999 0.199951 24.6999V24.5999C0.199951 24.2999 0.199951 23.9999 0.199951 23.6999C0.199951 23.5999 0.199951 23.3999 0.199951 23.2999V23.1999C0.299951 23.0999 0.299951 23.0999 0.299951 22.9999V22.8999C0.299951 22.6999 0.299951 22.3999 0.199951 22.1999C0.199951 22.0999 0.199951 21.9999 0.199951 21.8999C0.199951 21.5999 0.199951 21.3999 0.199951 21.0999V20.9999C0.399951 20.7999 0.499951 20.6999 0.699951 20.4999C0.799951 20.4999 0.799951 20.3999 0.899951 20.3999C1.39995 20.3999 1.89995 20.3999 2.39995 20.3999C3.99995 20.3999 5.49995 20.3999 7.09995 20.3999C7.69995 20.3999 8.29995 20.3999 8.89995 20.3999C9.29995 20.3999 9.69995 20.3999 10.1 20.3999C10.4 20.3999 10.7 20.3999 11 20.3999C11.3 20.3999 11.5 20.3999 11.8 20.3999C12.2 20.3999 12.6 20.3999 13 20.3999C13.6 20.3999 14.2 20.3999 14.9 20.3999C15.1 20.3999 15.1 20.3999 15.1 20.5999C15.1 20.7999 15.1 20.9999 15 21.1999C15 21.3999 14.9 21.6999 14.9 21.8999C14.9 22.0999 14.8 22.3999 14.8 22.5999C14.7 22.8999 14.7 23.0999 14.6 23.3999C14.5 23.7999 14.4 24.1999 14.3 24.5999C14.2 25.1999 14 25.6999 13.8 26.1999C13.6 26.7999 13.3 27.2999 12.9 27.7999C12.7 28.0999 12.4 28.4999 12.2 28.7999C11.8 29.2999 11.4 29.6999 10.9 30.1999C10.7 30.3999 10.4 30.6999 10.2 30.8999C9.99995 31.0999 9.69995 31.3999 9.49995 31.5999C9.29995 31.7999 9.09995 31.9999 8.79995 32.1999C8.39995 32.4999 8.09995 32.8999 7.69995 33.2999C7.59995 33.3999 7.49995 33.3999 7.49995 33.2999C7.39995 33.1999 7.29995 33.1999 7.19995 33.2999C6.99995 33.4999 6.79995 33.7999 6.69995 33.9999C6.39995 34.3999 6.19995 34.8999 5.99995 35.2999C5.79995 35.5999 5.69995 35.9999 5.69995 36.2999C5.69995 36.5999 5.69995 36.9999 5.79995 37.2999C5.89995 37.4999 5.99995 37.5999 6.19995 37.7999C6.29995 37.7999 6.29995 37.7999 6.39995 37.6999C6.59995 37.3999 6.69995 37.0999 6.89995 36.8999C7.19995 36.2999 7.49995 35.6999 7.89995 35.0999C7.69995 34.9999 7.99995 34.6999 8.19995 34.3999C8.39995 34.0999 8.69995 33.8999 8.89995 33.5999C9.19995 33.2999 9.49995 32.9999 9.79995 32.6999C9.99995 32.3999 10.3 32.1999 10.6 31.9999C11.1 31.4999 11.7 31.0999 12.3 30.6999C12.6 30.4999 13 30.1999 13.3 29.9999C13.4 29.9999 13.4 29.9999 13.4 30.0999C13.5 30.4999 13.5 30.8999 13.4 31.2999C13.3 31.8999 13.1 32.4999 13 33.0999C12.9 33.4999 12.8 33.8999 12.7 34.2999C12.7 34.3999 12.7 34.4999 12.7 34.6999C12.7 34.9999 12.6 35.1999 12.5 35.3999C12.4 35.4999 12.4 35.5999 12.3 35.6999C12.2 35.8999 12.3 35.9999 12.4 36.0999C12.6 36.2999 12.8 36.4999 13 36.5999C13.5 36.8999 13.9 37.1999 14.4 37.4999C14.7 37.5999 15 37.7999 15.3 37.7999C15.6 37.8999 15.9 37.8999 16.2 37.7999C16.2 37.7999 16.2999 37.7999 16.2999 37.6999C16.2999 37.5999 16.2 37.5999 16.2 37.4999C16 37.2999 15.7 37.0999 15.4 36.9999C15.1 36.7999 14.8 36.5999 14.6 36.3999C14.4 36.1999 14.2 35.8999 14.1 35.5999C14 35.3999 14 35.2999 14 35.0999C14 34.3999 14.1 33.7999 14.3 33.1999C14.4 32.6999 14.6 32.0999 14.8 31.5999C15 31.1999 15.2 30.7999 15.4 30.3999C15.8 29.5999 16.1 28.8999 16.5 28.0999C16.6 27.8999 16.7 27.7999 16.7 27.5999L16.7999 27.4999V27.5999C16.7999 28.5999 16.7999 29.6999 16.7999 30.6999C16.7999 31.6999 16.7999 32.6999 16.7999 33.6999C16.7999 33.9999 16.7999 34.3999 16.7999 34.6999C16.7999 34.7999 16.7999 34.9999 16.7999 35.0999C16.7999 35.2999 16.7999 35.4999 16.7999 35.5999C16.7999 35.9999 16.7999 36.3999 16.7999 36.7999C16.9 37.2999 17 37.4999 16.9 37.7999ZM0.399951 36.3999C0.299951 36.1999 0.299951 36.2999 0.399951 36.3999C0.299951 36.2999 0.199951 36.3999 0.199951 36.3999C0.199951 36.3999 0.199951 36.3999 0.399951 36.3999C0.299951 36.3999 0.299951 36.3999 0.399951 36.3999Z" fill="#109CF1"/>
<path d="M25.1 18.1C25.7 18.1 26.1 18.1 26.6 18.1H26.7001C26.6001 18.1 26.6 18.1 26.5 18.1C26.3 18.1 26 18.1 25.8 18.1C25.4 18.1 25.1001 18.1 24.7001 18.1C24.5001 18.1 24.3 18.1 24 18.1C23.9 18.1 23.8001 18.1 23.7001 18C23.7001 17.9 23.6 17.9 23.5 17.9C23.1 17.9 22.8 17.9 22.4 17.9C22.5 17.9 22.7 17.9 22.8 18C22.5 18.2 21.5 18.2 21.4 18C21.5 18 21.6001 18 21.7001 17.9C21.5001 17.8 21.1 17.8 21 17.9L21.1 18C21.2 18.1 21.1 18.1 21.1 18.1C20.9 18.1 20.6 18.1 20.4 18.1C20.3 18.1 20.3 18 20.3 18C20.3 17.9 20.3 17.7 20.3 17.6C20.3 17.4 20.4 17.2 20.4 17C20.4 16.8 20.5 16.6 20.5 16.4C20.5 16.2 20.5 16 20.6 15.8C20.6 15.6 20.7001 15.3 20.7001 15.1C20.7001 15 20.7001 14.9 20.7001 14.8C20.7001 14.6 20.7001 14.4 20.7001 14.2C20.7001 13.6 20.7001 12.9 20.7001 12.3C20.7001 12 20.7001 11.7 20.7001 11.4C20.7001 11.1 20.7001 10.8 20.7001 10.5C20.7001 10.1 20.8 9.7 21 9.3C21.2 8.8 21.5001 8.4 21.7001 8C22.0001 7.5 22.2 7 22.5 6.5C22.8 6 23.0001 5.5 23.2001 4.9C23.5001 4.3 23.7 3.7 24 3.1C24.2 2.6 24.4 2.1 24.5 1.6C24.6 1.3 24.7001 1 24.7001 0.7C24.6001 0.7 24.6 0.8 24.5 0.9C24.4 1.4 24.2 1.9 23.9 2.3C23.8 2.5 23.5 2.5 23.3 2.5C23.3 2.5 23.2 2.5 23.1 2.5C23.1 2.5 23 2.5 23 2.6V2.7C23 3.3 22.9001 3.8 22.7001 4.3C22.6001 4.6 22.4 4.9 22.3 5.3C22 5.9 21.7 6.4 21.3 7C21.1 7.3 20.9001 7.5 20.7001 7.8C20.6001 7.9 20.5 8.1 20.3 8.2C20 8.5 19.6 8.8 19 9C19 9 18.9 9 18.8 9C18.8 8.9 18.8 8.9 18.8 8.8C18.8 6.4 18.8 4 18.8 1.5C18.8 1.3 18.8 1.1 18.8 0.9C18.8 0.7 18.8 0.5 19 0.4C19.1 0.3 19.2 0.2 19.3 0.1C19.2 0 19.3 0 19.4 0C20 0 20.6001 0 21.2001 0C22.5001 0 23.8 0 25.1 0C26.7 0 28.4 0 30 0C30.9 0 31.8001 0 32.7001 0C32.8001 0 33 0 33.1 0.2C33.2 0.3 33.4 0.5 33.5 0.6C33.6 0.7 33.6001 0.7 33.4001 0.8C33.3001 0.8 33.3 0.8 33.3 0.9C33.3 1.2 33.3 1.4 33.3 1.7C33.3 2 33.3 2.3 33.3 2.6C33.3 2.8 33.2001 3.1 33.2001 3.3C33.2001 3.4 33.2001 3.6 33.2001 3.7C33.2001 4.4 33.2001 5.1 33.2001 5.9C33.2001 7.8 33.2001 9.6 33.2001 11.5C33.2001 12.1 33.2001 12.7 33.2001 13.3C33.2001 13.6 33.3 13.9 33.3 14.2C33.3 14.3 33.3 14.5 33.3 14.6C33.2 14.9 33.2001 15.2 33.2001 15.5C33.2001 15.8 33.2001 16.2 33.2001 16.5C33.2001 16.7 33.2 17 33.1 17.2C33.1 17.2 33.1 17.3 33.1 17.2C33 17.2 33 17.2 33 17.3C33 17.5 33 17.7 33 17.9C33 18 33.0001 18 32.9001 18C32.8001 18 32.6 18 32.5 18C32.3 18 32.2 18 32 18C31.6 18 31.3 18 30.9 18C30.2 18 29.4001 18 28.7001 18C28.1 18 27.6 18 27 18C26.8 18 26.5 18 26.3 18C26 18 25.8 18 25.5 18C25.4 18 25.3 18 25.1 18.1Z" fill="#109CF1"/>
<path d="M31.6 35.8C31.6 36 31.6 36.2001 31.6 36.4001C31.6 36.6001 31.6 36.6 31.4 36.6C31.1 36.6 30.9 36.6 30.6 36.6C30.1 36.6 29.7 36.6 29.2 36.6C28.9 36.6 28.5 36.6 28.2 36.6C28.1 36.6 28 36.6 27.9 36.7001C27.8 36.8001 27.7 36.8001 27.7 36.7001C27.7 36.7001 27.7 36.6 27.8 36.5C27.6 36.5 27.4 36.5 27.3 36.5C26.3 36.5 25.4 36.5 24.4 36.5C24.2 36.5 24.1 36.5 23.9 36.6C24 36.6 24 36.7001 24.1 36.7001C24.6 36.7001 25.1 36.7001 25.5 36.7001H25.6C25.6 36.8001 25.6 36.8 25.5 36.8C25.3 36.8 25.2 36.9001 25 36.9001C24.5 36.9001 24 36.9001 23.5 36.9001C23.3 36.9001 23 36.9001 22.8 36.9001C22.7 36.9001 22.7 36.9 22.6 36.8C22.6 36.7 22.5 36.7001 22.4 36.7001C22.1 36.7001 21.8 36.7001 21.4 36.7001C21.5 36.7001 21.6 36.7 21.7 36.8H21.8C21.6 37 21.5 37 21.4 37C21.1 37 20.9 37 20.6 37C20.5 37 20.5 37.0001 20.4 36.9001C20.4 36.9001 20.5 36.9 20.6 36.8C20.5 36.8 20.4 36.8 20.4 36.8C20.3 36.8 20.3 36.9001 20.3 36.9001C20.3 37.0001 20.3 37 20.2 37C20 37 19.8 37.1 19.5 37.1C19.3 37.1 19 37.1 18.8 37.1C18.6 37.1 18.5 37.0001 18.4 36.9001C18.3 36.8001 18.2 36.6 18.1 36.5C18 36.5 18 36.4 18 36.3C18 32.7 18 29.1 18 25.6C18 25.3 18.1 25.1 18.2 24.9C18.5 23.9 18.9 23 19.2 22C19.4 21.2 19.7 20.5001 19.9 19.7001C19.9 19.6001 20 19.5 20 19.4C20 19.3 20.2 19.3 20.3 19.3C20.8 19.3 21.2 19.3 21.7 19.3C22 19.3 22.2 19.3 22.5 19.3C25.5 19.3 28.5 19.3 31.5 19.3C31.6 19.3 31.7 19.3 31.8 19.4C31.9 19.5 32 19.6001 32 19.7001C32.1 19.9001 32.2 20.1 32.1 20.3C32 20.4 32 20.6001 32.1 20.7001C32.1 20.8001 32.1 20.9 32.1 21C32.1 21.4 32.1 21.7 32.1 22.1C32.1 22.5001 32.1 22.8001 32.1 23.2001C32.1 23.5001 32.1 23.8 32.1 24.1C32.1 24.9001 32.1 25.7 32.1 26.5C32.1 27.4 32.1 28.3001 32.1 29.2001C32.1 29.5001 32.1 29.8 32.1 30.1C32.1 30.4001 32.1 30.7 32.1 31C32.1 31.2 32.1 31.3 32.1 31.5C32.1 31.9 32.1 32.3 32.2 32.6C32.2 32.8 32.2 32.9 32.2 33.1C32.2 33.3 32.2 33.5001 32.1 33.7001C32.1 33.8001 32.1 33.8001 32.1 33.9001C32.1 34.2001 32.1 34.6001 32.1 34.9001C32.1 35.2001 32.1 35.4001 32.1 35.7001C32.1 35.8001 32.1 35.8001 32.1 35.9001C31.7 35.9001 31.7 35.9 31.6 35.8Z" fill="#109CF1"/>
<path d="M5.39998 3.4001C5.49998 3.7001 5.69998 3.8001 5.89998 4.0001C6.09998 4.3001 6.29998 4.5001 6.49998 4.8001C6.69998 5.1001 6.89998 5.4001 7.19998 5.6001C7.49998 5.9001 7.69998 6.3001 7.99998 6.6001C8.29998 7.0001 8.49998 7.4001 8.89998 7.7001C9.09998 8.2001 9.49998 8.4001 9.99998 8.5001C10.4 8.6001 10.7 8.7001 11.1 8.8001C11.5 8.9001 11.8 9.0001 12.1 9.2001C12.5 9.4001 12.8 9.6001 13.1 9.9001C13.3 10.1001 13.6 10.3001 13.8 10.5001C14.1 10.8001 14.5 11.1001 14.8 11.4001C15.2 11.8001 15.6 12.3001 16 12.8001C16.2 13.1001 16.4 13.5001 16.5 13.9001C16.5 14.0001 16.5 14.2001 16.5 14.4001C16.5 14.8001 16.5 15.1001 16.4 15.5001C16.3 15.8001 16.1 16.1001 16 16.3001C15.9 16.6001 15.7 16.8001 15.6 17.1001C15.4 17.4001 15.3 17.7001 15.3 18.1001C15.2 18.4001 15.2 18.7001 15.1 19.0001C15.1 19.2001 15.1 19.4001 15 19.5001C15 19.6001 15 19.6001 14.9 19.6001C14.4 19.6001 14 19.6001 13.5 19.6001C12.8 19.6001 12.1 19.6001 11.4 19.6001C10.9 19.6001 10.4 19.6001 9.89998 19.6001H9.99998C10.3 19.6001 10.6 19.6001 10.8 19.6001C10.8 19.6001 11 19.6001 10.9 19.7001C10.9 19.7001 10.8 19.7001 10.7 19.7001C10.5 19.7001 10.3 19.7001 9.99998 19.7001C9.39998 19.7001 8.79998 19.7001 8.09998 19.7001C7.99998 19.7001 7.79998 19.7001 7.69998 19.6001C7.69998 19.6001 7.59998 19.5001 7.59998 19.6001V19.7001C7.59998 19.7001 7.59998 19.7001 7.59998 19.8001C7.49998 19.9001 7.49998 19.9001 7.39998 19.9001C7.39998 19.9001 7.29998 19.9001 7.29998 19.8001C7.29998 19.6001 7.09998 19.6001 6.99998 19.6001C6.49998 19.5001 5.89998 19.6001 5.39998 19.6001C5.29998 19.6001 5.19998 19.6001 4.99998 19.6001C5.09998 19.6001 5.19998 19.7001 5.19998 19.7001C5.19998 19.7001 5.29998 19.7001 5.29998 19.8001C5.29998 19.8001 5.29998 19.8001 5.19998 19.8001C5.09998 19.8001 5.09998 19.8001 4.99998 19.8001C4.39998 19.9001 3.89998 19.9001 3.29998 19.9001C3.09998 19.9001 2.99998 19.9001 2.89998 19.7001L2.79998 19.6001C2.59998 19.5001 2.59998 19.3001 2.59998 19.1001C2.59998 16.3001 2.59998 13.6001 2.59998 10.8001C2.59998 8.0001 2.59998 5.1001 2.59998 2.3001C2.59998 2.1001 2.59998 1.9001 2.79998 1.8001C2.99998 1.8001 3.09998 1.7001 3.19998 1.6001H3.29998C3.69998 1.6001 4.19998 1.6001 4.59998 1.6001C6.69998 1.6001 8.89998 1.6001 11 1.6001C11.2 1.6001 11.5 1.6001 11.7 1.6001C12.3 1.6001 12.9 1.6001 13.5 1.6001C14 1.6001 14.6 1.6001 15.1 1.6001C15.7 1.6001 16.3 1.6001 16.8 1.6001C16.9 1.6001 17 1.6001 17 1.7001C17.1 1.8001 17.3 2.0001 17.4 2.1001C17.5 2.2001 17.5 2.2001 17.5 2.3001C17.5 3.1001 17.5 3.9001 17.5 4.7001C17.5 5.8001 17.5 6.9001 17.5 8.0001C17.5 8.2001 17.5 8.4001 17.4 8.6001C17.4 8.6001 17.4 8.7001 17.3 8.7001C17.3 8.7001 17.2 8.7001 17.2 8.6001C17.1 8.5001 17.1 8.4001 17.1 8.3001C17 8.0001 17 7.6001 17 7.3001C17 6.9001 17.1 6.6001 17.1 6.2001C17.1 5.8001 17.2 5.5001 17 5.1001C16.9 4.9001 16.8 4.8001 16.6 4.7001C16.4 4.6001 16.2 4.5001 15.9 4.4001C15.4 4.3001 14.9 4.4001 14.5 4.9001C14.3 5.2001 14.1 5.6001 14 6.0001C13.9 6.4001 13.9 6.8001 14.1 7.2001C14.2 7.4001 14.3 7.6001 14.5 7.8001C14.6 7.9001 14.8 8.0001 14.9 8.2001C15 8.3001 15 8.3001 14.9 8.4001C14.9 8.4001 14.9 8.4001 14.8 8.4001C14.6 8.4001 14.3 8.4001 14.1 8.4001C13.5 8.4001 12.9 8.3001 12.4 8.1001C11.9 7.9001 11.4 7.7001 10.9 7.5001C10.4 7.3001 9.79998 7.0001 9.19998 6.6001C8.79998 6.3001 8.39998 6.1001 7.99998 5.7001C7.59998 5.4001 7.19998 5.0001 6.99998 4.5001C6.99998 4.4001 6.89998 4.3001 6.79998 4.2001C6.79998 4.1001 6.69998 4.1001 6.69998 4.2001C6.49998 4.4001 6.49998 4.4001 6.29998 4.2001C6.09998 4.1001 5.89998 3.8001 5.59998 3.6001C5.59998 3.5001 5.49998 3.5001 5.39998 3.4001Z" fill="#109CF1"/>
<path d="M6.3 19.7C6.4 19.7 6.6 19.7 6.8 19.7C6.8 19.7 6.9 19.7 6.9 19.8L6.8 19.9C6.5 19.9 6.3 19.9 6 19.9C5.9 19.9 5.8 19.9 5.6 19.8C5.6 19.8 5.5 19.8 5.5 19.7C5.5 19.7 5.5 19.7 5.6 19.6C5.7 19.5 5.9 19.5 6 19.5C6.1 19.6 6.2 19.7 6.3 19.7Z" fill="#109CF1"/>
<path d="M22.5 36.9001C22.5 37.0001 22.5 37.0001 22.5 36.9001C22.4 37.0001 22.3 37 22.2 37C22.2 37 22.1 37.0001 22.1 36.9001C22.1 36.9001 22.1 36.8 22.2 36.8C22.3 36.9 22.4 36.9001 22.5 36.9001Z" fill="#109CF1"/>
<path d="M23.4 18.2999H23.3C23.2 18.1999 23.2 18.2 23.3 18.2C23.4 18.2 23.4 18.2 23.5 18.2L23.6 18.2999C23.6 18.2999 23.5 18.2999 23.4 18.2999Z" fill="#109CF1"/>
<path d="M13.3 19.7001C13.3 19.8001 13.2 19.8001 13.2 19.8001C13.1 19.8001 13.1 19.8001 13.1 19.7001C13.1 19.6001 13.2 19.6001 13.2 19.6001C13.2 19.6001 13.2 19.7001 13.3 19.7001Z" fill="#109CF1"/>
</g>
<defs>
<clipPath id="clip0_1_3301">
<rect width="33.6" height="38.7" fill="white"/>
</clipPath>
</defs>
</svg>
