<svg width="209" height="45" viewBox="0 0 209 45" fill="none" xmlns="http://www.w3.org/2000/svg">
<path d="M38.8041 22.3674H42.8781L44.2528 18.9853H52.3507L53.7254 22.3674H57.9493L50.4762 4.95979H46.4022L38.8041 22.3674ZM45.5524 15.8271L48.3267 9.063L51.076 15.8271H45.5524Z" fill="#B542FB"/>
<path d="M59.7686 22.3674H71.2157V18.9356H63.7176V4.95979H59.7686V22.3674Z" fill="#B542FB"/>
<path d="M72.3093 13.6387C72.3093 18.6869 76.2584 22.5414 81.482 22.5414C84.0314 22.5414 86.7057 21.3229 88.5552 19.433L86.2308 16.9213C84.9812 18.1647 83.2566 18.9605 81.682 18.9605C78.6827 18.9605 76.3583 16.6229 76.3583 13.589C76.3583 10.5551 78.6827 8.24236 81.682 8.24236C83.3066 8.24236 85.0311 9.13761 86.2308 10.5053L88.5303 7.72013C86.8057 5.95451 84.1564 4.83545 81.632 4.83545C76.3333 4.83545 72.3093 8.61538 72.3093 13.6387Z" fill="#B542FB"/>
<path d="M90.913 22.3674H94.8621V15.5038H102.785V22.3674H106.734V4.95979H102.785V12.2212H94.8621V4.95979H90.913V22.3674Z" fill="#B542FB"/>
<path d="M110.586 22.3674H124.182V19.1097H114.535V15.2551H122.983V11.9974H114.535V8.21749H123.907V4.95979H110.586V22.3674Z" fill="#B542FB"/>
<path d="M127.281 22.3674H131.23V17.3938H135.254L138.028 22.3674H142.502L138.778 16.6229C140.902 15.6281 142.052 13.6884 142.052 11.0027C142.052 7.14817 139.453 4.95979 134.879 4.95979H127.281V22.3674ZM131.23 14.1112V8.21749H134.879C137.053 8.21749 138.303 9.18735 138.303 11.127C138.303 13.1165 137.053 14.1112 134.879 14.1112H131.23Z" fill="#B542FB"/>
<path d="M145.367 22.3674H149.316V4.95979H145.367V22.3674Z" fill="#B542FB"/>
<path d="M153.202 22.3674H156.976V11.2017L165.449 22.3674H169.048V4.95979H165.299V16.1504L156.801 4.95979H153.202V22.3674Z" fill="#B542FB"/>
<path d="M171.65 13.6636C171.65 18.7118 175.673 22.5414 180.972 22.5414C183.397 22.5414 186.221 21.6213 188.07 20.2785V13.589H184.646V18.1647C183.521 18.7366 182.272 19.1097 181.222 19.1097C178.123 19.1097 175.698 16.7472 175.698 13.6636C175.698 10.6048 178.098 8.24236 181.197 8.24236C182.897 8.24236 184.696 8.9884 185.996 10.1821L188.22 7.37198C186.446 5.83017 183.796 4.83545 181.197 4.83545C175.748 4.83545 171.65 8.64025 171.65 13.6636Z" fill="#B542FB"/>
<path d="M189.523 22.3674H193.597L194.972 18.9853H203.07L204.444 22.3674H208.668L201.195 4.95979H197.121L189.523 22.3674ZM196.271 15.8271L199.046 9.063L201.795 15.8271H196.271Z" fill="#B542FB"/>
<path d="M44.9591 32.1054V33.2185C44.6406 33.0421 44.3511 32.9209 44.0905 32.8548C43.8372 32.7813 43.5115 32.7446 43.1134 32.7446C42.3823 32.7446 41.7707 32.9981 41.2785 33.505C40.7936 34.0046 40.5511 34.6695 40.5511 35.4997C40.5511 36.3446 40.7936 37.0168 41.2785 37.5164C41.7635 38.016 42.4041 38.2658 43.2003 38.2658C43.9024 38.2658 44.4923 38.0821 44.97 37.7148V38.8609C44.5212 39.1621 43.8987 39.3127 43.1025 39.3127C42.0096 39.3127 41.1157 38.9674 40.4208 38.2768C39.726 37.5862 39.3785 36.6605 39.3785 35.4997C39.3785 34.3756 39.726 33.4609 40.4208 32.7556C41.1229 32.0503 42.0096 31.6976 43.0808 31.6976C43.8625 31.6976 44.4886 31.8336 44.9591 32.1054Z" fill="white"/>
<path d="M51.2831 36.4585H53.6282L53.5088 36.0838C53.2337 35.2168 53.0093 34.5005 52.8356 33.9348C52.6619 33.3617 52.557 33.0054 52.5208 32.8658L52.4665 32.6564C52.3869 33.0017 52.0322 34.1442 51.4025 36.0838L51.2831 36.4585ZM54.5076 39.2246L53.9322 37.4062H50.9791L50.3928 39.2246H49.2093L51.7391 31.7968H53.2048L55.7019 39.2246H54.5076Z" fill="white"/>
<path d="M60.155 39.2246L60.7196 31.7968H62.0442L63.0213 34.5078C63.195 34.9707 63.3688 35.463 63.5425 35.9846C63.7162 36.4989 63.8465 36.8993 63.9333 37.1858L64.0745 37.6156C64.4074 36.6164 64.7729 35.5805 65.171 34.5078L66.1916 31.7968H67.5162L68.1893 39.2246H67.0819L66.8213 36.3152L66.5933 33.3397C66.2676 34.2727 65.9129 35.2646 65.5293 36.3152L64.5088 39.0813H63.6293L62.6413 36.3152L61.6533 33.3838C61.6533 33.707 61.5954 34.6842 61.4796 36.3152L61.2625 39.2246H60.155Z" fill="white"/>
<path d="M74.2168 35.654H75.1723C75.7006 35.654 76.1023 35.5217 76.3774 35.2572C76.6597 34.9927 76.8008 34.6438 76.8008 34.2103C76.8008 33.7548 76.6597 33.3948 76.3774 33.1303C76.0951 32.8658 75.6862 32.7336 75.1505 32.7336H74.2168V35.654ZM73.0985 31.7968H75.194C76.0336 31.7968 76.6995 32.0246 77.1917 32.4801C77.6839 32.9283 77.93 33.505 77.93 34.2103C77.93 34.9156 77.6803 35.4887 77.1808 35.9295C76.6886 36.3703 76.0481 36.5907 75.2591 36.5907H74.2168V39.2246H73.0985V31.7968Z" fill="white"/>
<path d="M86.885 36.4034V31.7968H88.0033V36.3813C88.0033 37.3438 87.7572 38.0748 87.265 38.5744C86.7728 39.074 86.0924 39.3238 85.2238 39.3238C84.3698 39.3238 83.6966 39.0813 83.2044 38.5964C82.7122 38.1042 82.4661 37.3952 82.4661 36.4695V31.7968H83.5844V36.4585C83.5844 37.0903 83.7328 37.5532 84.0296 37.847C84.3336 38.1336 84.7317 38.2768 85.2238 38.2768C86.3313 38.2768 86.885 37.6523 86.885 36.4034Z" fill="white"/>
<path d="M96.9424 32.0944V33.2185C96.4575 32.9099 95.9074 32.7556 95.2922 32.7556C94.8941 32.7556 94.5792 32.8474 94.3476 33.0311C94.1232 33.2074 94.011 33.4425 94.011 33.7364C94.011 34.0303 94.1232 34.2654 94.3476 34.4417C94.572 34.6181 94.9158 34.8091 95.379 35.0148C95.683 35.147 95.9182 35.2609 96.0847 35.3564C96.2584 35.4519 96.4539 35.5878 96.671 35.7642C96.8954 35.9332 97.0582 36.1389 97.1596 36.3813C97.2682 36.6164 97.3224 36.8883 97.3224 37.1968C97.3224 37.8507 97.0944 38.365 96.6384 38.7397C96.1824 39.1144 95.5925 39.3017 94.8687 39.3017C94.0653 39.3017 93.3994 39.1438 92.871 38.8278V37.6487C93.4428 38.0821 94.1051 38.2989 94.8579 38.2989C95.256 38.2989 95.5708 38.207 95.8024 38.0234C96.0341 37.8323 96.1499 37.5715 96.1499 37.2409C96.1499 37.0425 96.0811 36.8625 95.9436 36.7009C95.8061 36.5319 95.6577 36.407 95.4984 36.3262C95.3392 36.2381 95.1003 36.1205 94.7819 35.9736C94.5937 35.8854 94.4598 35.823 94.3802 35.7862C94.3078 35.7495 94.1847 35.6834 94.011 35.5878C93.8373 35.4923 93.707 35.4115 93.6202 35.3454C93.5405 35.2793 93.4392 35.1874 93.3162 35.0699C93.1931 34.9523 93.1026 34.8348 93.0447 34.7172C92.9941 34.5997 92.9434 34.4638 92.8927 34.3095C92.8493 34.1478 92.8276 33.9752 92.8276 33.7915C92.8276 33.1597 93.052 32.6601 93.5007 32.2927C93.9567 31.9254 94.543 31.7417 95.2596 31.7417C95.9182 31.7417 96.4792 31.8593 96.9424 32.0944Z" fill="white"/>
<path d="M109.782 36.4585H112.127L112.008 36.0838C111.733 35.2168 111.508 34.5005 111.334 33.9348C111.161 33.3617 111.056 33.0054 111.02 32.8658L110.965 32.6564C110.886 33.0017 110.531 34.1442 109.901 36.0838L109.782 36.4585ZM113.006 39.2246L112.431 37.4062H109.478L108.892 39.2246H107.708L110.238 31.7968H111.704L114.201 39.2246H113.006Z" fill="white"/>
<path d="M118.654 39.2246L119.218 31.7968H120.543L121.52 34.5078C121.694 34.9707 121.868 35.463 122.041 35.9846C122.215 36.4989 122.345 36.8993 122.432 37.1858L122.573 37.6156C122.906 36.6164 123.272 35.5805 123.67 34.5078L124.69 31.7968H126.015L126.688 39.2246H125.581L125.32 36.3152L125.092 33.3397C124.766 34.2727 124.412 35.2646 124.028 36.3152L123.008 39.0813H122.128L121.14 36.3152L120.152 33.3838C120.152 33.707 120.094 34.6842 119.978 36.3152L119.761 39.2246H118.654Z" fill="white"/>
<path d="M132.716 38.2878H134.149C135.068 38.2878 135.528 37.9021 135.528 37.1307C135.528 36.756 135.401 36.4658 135.148 36.2601C134.902 36.047 134.532 35.9405 134.04 35.9405H132.716V38.2878ZM132.716 32.7336V35.0148H133.725C134.268 35.0148 134.67 34.9046 134.93 34.6842C135.198 34.4564 135.332 34.1625 135.332 33.8025C135.332 33.4866 135.213 33.2295 134.974 33.0311C134.742 32.8327 134.388 32.7336 133.91 32.7336H132.716ZM131.597 31.7968H133.997C134.764 31.7968 135.368 31.9805 135.81 32.3479C136.251 32.7078 136.472 33.1854 136.472 33.7805C136.472 34.1919 136.356 34.5519 136.125 34.8605C135.9 35.1691 135.611 35.3674 135.256 35.4556C135.654 35.5291 135.987 35.7164 136.255 36.0176C136.53 36.3189 136.668 36.723 136.668 37.2299C136.668 37.8176 136.469 38.2989 136.07 38.6736C135.68 39.0409 135.126 39.2246 134.409 39.2246H131.597V31.7968Z" fill="white"/>
<path d="M142.944 36.4585H145.289L145.169 36.0838C144.894 35.2168 144.67 34.5005 144.496 33.9348C144.323 33.3617 144.218 33.0054 144.181 32.8658L144.127 32.6564C144.047 33.0017 143.693 34.1442 143.063 36.0838L142.944 36.4585ZM146.168 39.2246L145.593 37.4062H142.64L142.053 39.2246H140.87L143.4 31.7968H144.865L147.363 39.2246H146.168Z" fill="white"/>
<path d="M155.865 32.0944V33.2185C155.38 32.9099 154.83 32.7556 154.215 32.7556C153.817 32.7556 153.502 32.8474 153.27 33.0311C153.046 33.2074 152.934 33.4425 152.934 33.7364C152.934 34.0303 153.046 34.2654 153.27 34.4417C153.495 34.6181 153.839 34.8091 154.302 35.0148C154.606 35.147 154.841 35.2609 155.008 35.3564C155.181 35.4519 155.377 35.5878 155.594 35.7642C155.818 35.9332 155.981 36.1389 156.082 36.3813C156.191 36.6164 156.245 36.8883 156.245 37.1968C156.245 37.8507 156.017 38.365 155.561 38.7397C155.105 39.1144 154.515 39.3017 153.792 39.3017C152.988 39.3017 152.322 39.1438 151.794 38.8278V37.6487C152.366 38.0821 153.028 38.2989 153.781 38.2989C154.179 38.2989 154.494 38.207 154.725 38.0234C154.957 37.8323 155.073 37.5715 155.073 37.2409C155.073 37.0425 155.004 36.8625 154.866 36.7009C154.729 36.5319 154.581 36.407 154.421 36.3262C154.262 36.2381 154.023 36.1205 153.705 35.9736C153.517 35.8854 153.383 35.823 153.303 35.7862C153.231 35.7495 153.108 35.6834 152.934 35.5878C152.76 35.4923 152.63 35.4115 152.543 35.3454C152.463 35.2793 152.362 35.1874 152.239 35.0699C152.116 34.9523 152.026 34.8348 151.968 34.7172C151.917 34.5997 151.866 34.4638 151.816 34.3095C151.772 34.1478 151.75 33.9752 151.75 33.7915C151.75 33.1597 151.975 32.6601 152.424 32.2927C152.88 31.9254 153.466 31.7417 154.182 31.7417C154.841 31.7417 155.402 31.8593 155.865 32.0944Z" fill="white"/>
<path d="M164.947 32.0944V33.2185C164.462 32.9099 163.912 32.7556 163.297 32.7556C162.899 32.7556 162.584 32.8474 162.352 33.0311C162.128 33.2074 162.016 33.4425 162.016 33.7364C162.016 34.0303 162.128 34.2654 162.352 34.4417C162.577 34.6181 162.921 34.8091 163.384 35.0148C163.688 35.147 163.923 35.2609 164.089 35.3564C164.263 35.4519 164.459 35.5878 164.676 35.7642C164.9 35.9332 165.063 36.1389 165.164 36.3813C165.273 36.6164 165.327 36.8883 165.327 37.1968C165.327 37.8507 165.099 38.365 164.643 38.7397C164.187 39.1144 163.597 39.3017 162.873 39.3017C162.07 39.3017 161.404 39.1438 160.876 38.8278V37.6487C161.448 38.0821 162.11 38.2989 162.863 38.2989C163.261 38.2989 163.576 38.207 163.807 38.0234C164.039 37.8323 164.155 37.5715 164.155 37.2409C164.155 37.0425 164.086 36.8625 163.948 36.7009C163.811 36.5319 163.662 36.407 163.503 36.3262C163.344 36.2381 163.105 36.1205 162.787 35.9736C162.598 35.8854 162.465 35.823 162.385 35.7862C162.313 35.7495 162.189 35.6834 162.016 35.5878C161.842 35.4923 161.712 35.4115 161.625 35.3454C161.545 35.2793 161.444 35.1874 161.321 35.0699C161.198 34.9523 161.107 34.8348 161.049 34.7172C160.999 34.5997 160.948 34.4638 160.897 34.3095C160.854 34.1478 160.832 33.9752 160.832 33.7915C160.832 33.1597 161.057 32.6601 161.505 32.2927C161.961 31.9254 162.548 31.7417 163.264 31.7417C163.923 31.7417 164.484 31.8593 164.947 32.0944Z" fill="white"/>
<path d="M171.695 36.4585H174.04L173.92 36.0838C173.645 35.2168 173.421 34.5005 173.247 33.9348C173.074 33.3617 172.969 33.0054 172.932 32.8658L172.878 32.6564C172.799 33.0017 172.444 34.1442 171.814 36.0838L171.695 36.4585ZM174.919 39.2246L174.344 37.4062H171.391L170.804 39.2246H169.621L172.151 31.7968H173.616L176.114 39.2246H174.919Z" fill="white"/>
<path d="M181.804 38.2658H182.955C183.788 38.2658 184.421 38.0013 184.855 37.4723C185.29 36.9434 185.507 36.2638 185.507 35.4336C185.507 34.6695 185.271 34.034 184.801 33.527C184.331 33.0201 183.704 32.7666 182.923 32.7666H181.804V38.2658ZM180.664 31.7968H182.944C184.03 31.7968 184.92 32.1385 185.615 32.8217C186.31 33.505 186.658 34.3756 186.658 35.4336C186.658 36.5356 186.328 37.443 185.67 38.1556C185.018 38.8683 184.117 39.2246 182.966 39.2246H180.664V31.7968Z" fill="white"/>
<path d="M191.033 35.4776C191.033 34.3242 191.337 33.3985 191.945 32.7005C192.553 32.0025 193.367 31.6536 194.388 31.6536C195.43 31.6536 196.252 32.0025 196.852 32.7005C197.453 33.3911 197.753 34.3168 197.753 35.4776C197.753 36.6385 197.449 37.5678 196.841 38.2658C196.241 38.9638 195.426 39.3127 194.399 39.3127C193.378 39.3127 192.56 38.9638 191.945 38.2658C191.337 37.5678 191.033 36.6385 191.033 35.4776ZM192.781 33.4609C192.397 33.9532 192.205 34.6254 192.205 35.4776C192.205 36.3299 192.405 37.0058 192.803 37.5054C193.201 38.005 193.733 38.2548 194.399 38.2548C195.086 38.2548 195.622 38.0087 196.005 37.5164C196.389 37.0242 196.581 36.3446 196.581 35.4776C196.581 34.6181 196.385 33.9421 195.995 33.4499C195.611 32.9576 195.075 32.7115 194.388 32.7115C193.707 32.7115 193.172 32.9613 192.781 33.4609Z" fill="white"/>
<path d="M203.583 32.7446V35.4556H204.593C205.056 35.4556 205.407 35.3344 205.646 35.0919C205.885 34.8421 206.004 34.5115 206.004 34.1001C206.004 33.1964 205.516 32.7446 204.538 32.7446H203.583ZM206.265 39.2246L204.549 36.4034H203.583V39.2246H202.465V31.7968H204.506C205.346 31.7968 205.993 32.0062 206.449 32.425C206.905 32.8364 207.133 33.3985 207.133 34.1111C207.126 34.6327 206.996 35.0772 206.743 35.4446C206.489 35.8046 206.138 36.0654 205.689 36.227L207.6 39.2246H206.265Z" fill="white"/>
<g clip-path="url(#clip0_408_569)">
<path d="M16.9 41.7999C16.8 41.6999 16.9 41.4999 16.8 41.3999C16.8 41.4999 16.7 41.5999 16.7 41.6999C16.7 41.7999 16.7 41.8999 16.7 41.9999C16.7 42.1999 16.7 42.1999 16.5 42.1999C16.4 42.1999 16.3 42.1999 16.3 42.1999C16.1 42.1999 15.9 42.1999 15.7 42.2999C15.5 42.2999 15.3 42.3999 15.2 42.3999C15 42.3999 14.8 42.3999 14.6 42.3999C14.3 42.3999 14.1 42.3999 13.8 42.3999C13.4 42.3999 13 42.3999 12.6 42.3999C12.6 42.3999 12.6 42.3999 12.6 42.4999C12.6 42.4999 12.7 42.5999 12.6 42.5999C12.6 42.5999 12.5 42.5999 12.5 42.4999C12.4 42.4999 12.5 42.3999 12.5 42.3999C12.2 42.3999 11.8 42.3999 11.5 42.3999C11.2 42.3999 10.9 42.3999 10.7 42.3999C10.5 42.3999 10.3 42.3999 10.1 42.3999H10C9.90001 42.4999 9.80001 42.4999 9.70001 42.4999C9.10001 42.4999 8.50001 42.4999 8.00001 42.4999C7.60001 42.4999 7.30001 42.4999 6.90001 42.4999C6.70001 42.4999 6.50001 42.4999 6.40001 42.4999H6.30001C6.10001 42.3999 5.90001 42.3999 5.80001 42.5999C5.80001 42.5999 5.70001 42.6999 5.70001 42.5999C5.50001 42.5999 5.30001 42.5999 5.10001 42.5999C5.00001 42.5999 4.80001 42.5999 4.70001 42.5999C4.70001 42.5999 4.60001 42.5999 4.60001 42.4999C4.50001 42.3999 4.30001 42.3999 4.10001 42.3999C4.10001 42.4999 4.20001 42.4999 4.20001 42.4999C4.20001 42.5999 4.10001 42.4999 4.00001 42.4999C3.40001 42.4999 2.70001 42.4999 2.10001 42.4999C1.90001 42.4999 1.70001 42.4999 1.40001 42.4999C1.10001 42.4999 0.900012 42.4999 0.600012 42.3999C0.500012 42.3999 0.500012 42.3999 0.500012 42.2999C0.400012 42.1999 0.300012 41.9999 0.200012 41.8999C0.200012 41.8999 0.200012 41.7999 0.200012 41.6999C0.200012 39.8999 0.200012 37.9999 0.200012 36.1999C0.200012 34.5999 0.200012 32.8999 0.200012 31.2999C0.200012 30.8999 0.200012 30.5999 0.200012 30.1999C0.200012 29.9999 0.200012 29.7999 0.200012 29.5999C0.200012 29.4999 0.200012 29.2999 0.200012 29.1999C0.200012 28.9999 0.200012 28.8999 0.200012 28.6999V28.5999C0.200012 28.2999 0.200012 27.9999 0.200012 27.6999C0.200012 27.5999 0.200012 27.3999 0.200012 27.2999V27.1999C0.300012 27.0999 0.300012 27.0999 0.300012 26.9999V26.8999C0.300012 26.6999 0.300012 26.3999 0.200012 26.1999C0.200012 26.0999 0.200012 25.9999 0.200012 25.8999C0.200012 25.5999 0.200012 25.3999 0.200012 25.0999V24.9999C0.400012 24.7999 0.500012 24.6999 0.700012 24.4999C0.800012 24.4999 0.800012 24.3999 0.900012 24.3999C1.40001 24.3999 1.90001 24.3999 2.40001 24.3999C4.00001 24.3999 5.50001 24.3999 7.10001 24.3999C7.70001 24.3999 8.30001 24.3999 8.90001 24.3999C9.30001 24.3999 9.70001 24.3999 10.1 24.3999C10.4 24.3999 10.7 24.3999 11 24.3999C11.3 24.3999 11.5 24.3999 11.8 24.3999C12.2 24.3999 12.6 24.3999 13 24.3999C13.6 24.3999 14.2 24.3999 14.9 24.3999C15.1 24.3999 15.1 24.3999 15.1 24.5999C15.1 24.7999 15.1 24.9999 15 25.1999C15 25.3999 14.9 25.6999 14.9 25.8999C14.9 26.0999 14.8 26.3999 14.8 26.5999C14.7 26.8999 14.7 27.0999 14.6 27.3999C14.5 27.7999 14.4 28.1999 14.3 28.5999C14.2 29.1999 14 29.6999 13.8 30.1999C13.6 30.7999 13.3 31.2999 12.9 31.7999C12.7 32.0999 12.4 32.4999 12.2 32.7999C11.8 33.2999 11.4 33.6999 10.9 34.1999C10.7 34.3999 10.4 34.6999 10.2 34.8999C10 35.0999 9.70001 35.3999 9.50001 35.5999C9.30001 35.7999 9.10001 35.9999 8.80001 36.1999C8.40001 36.4999 8.10001 36.8999 7.70001 37.2999C7.60001 37.3999 7.50001 37.3999 7.50001 37.2999C7.40001 37.1999 7.30001 37.1999 7.20001 37.2999C7.00001 37.4999 6.80001 37.7999 6.70001 37.9999C6.40001 38.3999 6.20001 38.8999 6.00001 39.2999C5.80001 39.5999 5.70001 39.9999 5.70001 40.2999C5.70001 40.5999 5.70001 40.9999 5.80001 41.2999C5.90001 41.4999 6.00001 41.5999 6.20001 41.7999C6.30001 41.7999 6.30001 41.7999 6.40001 41.6999C6.60001 41.3999 6.70001 41.0999 6.90001 40.8999C7.20001 40.2999 7.50001 39.6999 7.90001 39.0999C7.70001 38.9999 8.00001 38.6999 8.20001 38.3999C8.40001 38.0999 8.70001 37.8999 8.90001 37.5999C9.20001 37.2999 9.50001 36.9999 9.80001 36.6999C10 36.3999 10.3 36.1999 10.6 35.9999C11.1 35.4999 11.7 35.0999 12.3 34.6999C12.6 34.4999 13 34.1999 13.3 33.9999C13.4 33.9999 13.4 33.9999 13.4 34.0999C13.5 34.4999 13.5 34.8999 13.4 35.2999C13.3 35.8999 13.1 36.4999 13 37.0999C12.9 37.4999 12.8 37.8999 12.7 38.2999C12.7 38.3999 12.7 38.4999 12.7 38.6999C12.7 38.9999 12.6 39.1999 12.5 39.3999C12.4 39.4999 12.4 39.5999 12.3 39.6999C12.2 39.8999 12.3 39.9999 12.4 40.0999C12.6 40.2999 12.8 40.4999 13 40.5999C13.5 40.8999 13.9 41.1999 14.4 41.4999C14.7 41.5999 15 41.7999 15.3 41.7999C15.6 41.8999 15.9 41.8999 16.2 41.7999C16.2 41.7999 16.3 41.7999 16.3 41.6999C16.3 41.5999 16.2 41.5999 16.2 41.4999C16 41.2999 15.7 41.0999 15.4 40.9999C15.1 40.7999 14.8 40.5999 14.6 40.3999C14.4 40.1999 14.2 39.8999 14.1 39.5999C14 39.3999 14 39.2999 14 39.0999C14 38.3999 14.1 37.7999 14.3 37.1999C14.4 36.6999 14.6 36.0999 14.8 35.5999C15 35.1999 15.2 34.7999 15.4 34.3999C15.8 33.5999 16.1 32.8999 16.5 32.0999C16.6 31.8999 16.7 31.7999 16.7 31.5999L16.8 31.4999V31.5999C16.8 32.5999 16.8 33.6999 16.8 34.6999C16.8 35.6999 16.8 36.6999 16.8 37.6999C16.8 37.9999 16.8 38.3999 16.8 38.6999C16.8 38.7999 16.8 38.9999 16.8 39.0999C16.8 39.2999 16.8 39.4999 16.8 39.5999C16.8 39.9999 16.8 40.3999 16.8 40.7999C16.9 41.2999 17 41.4999 16.9 41.7999ZM0.400012 40.3999C0.300012 40.1999 0.300012 40.2999 0.400012 40.3999C0.300012 40.2999 0.200012 40.3999 0.200012 40.3999C0.200012 40.3999 0.200012 40.3999 0.400012 40.3999C0.300012 40.3999 0.300012 40.3999 0.400012 40.3999Z" fill="#B542FB"/>
<path d="M25.1 22.1C25.7 22.1 26.1 22.1 26.6 22.1H26.7C26.6 22.1 26.6 22.1 26.5 22.1C26.3 22.1 26 22.1 25.8 22.1C25.4 22.1 25.1 22.1 24.7 22.1C24.5 22.1 24.3 22.1 24 22.1C23.9 22.1 23.8 22.1 23.7 22C23.7 21.9 23.6 21.9 23.5 21.9C23.1 21.9 22.8 21.9 22.4 21.9C22.5 21.9 22.7 21.9 22.8 22C22.5 22.2 21.5 22.2 21.4 22C21.5 22 21.6 22 21.7 21.9C21.5 21.8 21.1 21.8 21 21.9L21.1 22C21.2 22.1 21.1 22.1 21.1 22.1C20.9 22.1 20.6 22.1 20.4 22.1C20.3 22.1 20.3 22 20.3 22C20.3 21.9 20.3 21.7 20.3 21.6C20.3 21.4 20.4 21.2 20.4 21C20.4 20.8 20.5 20.6 20.5 20.4C20.5 20.2 20.5 20 20.6 19.8C20.6 19.6 20.7 19.3 20.7 19.1C20.7 19 20.7 18.9 20.7 18.8C20.7 18.6 20.7 18.4 20.7 18.2C20.7 17.6 20.7 16.9 20.7 16.3C20.7 16 20.7 15.7 20.7 15.4C20.7 15.1 20.7 14.8 20.7 14.5C20.7 14.1 20.8 13.7 21 13.3C21.2 12.8 21.5 12.4 21.7 12C22 11.5 22.2 11 22.5 10.5C22.8 10 23 9.5 23.2 8.9C23.5 8.3 23.7 7.7 24 7.1C24.2 6.6 24.4 6.1 24.5 5.6C24.6 5.3 24.7 5 24.7 4.7C24.6 4.7 24.6 4.8 24.5 4.9C24.4 5.4 24.2 5.9 23.9 6.3C23.8 6.5 23.5 6.5 23.3 6.5C23.3 6.5 23.2 6.5 23.1 6.5C23.1 6.5 23 6.5 23 6.6V6.7C23 7.3 22.9 7.8 22.7 8.3C22.6 8.6 22.4 8.9 22.3 9.3C22 9.9 21.7 10.4 21.3 11C21.1 11.3 20.9 11.5 20.7 11.8C20.6 11.9 20.5 12.1 20.3 12.2C20 12.5 19.6 12.8 19 13C19 13 18.9 13 18.8 13C18.8 12.9 18.8 12.9 18.8 12.8C18.8 10.4 18.8 8 18.8 5.5C18.8 5.3 18.8 5.1 18.8 4.9C18.8 4.7 18.8 4.5 19 4.4C19.1 4.3 19.2 4.2 19.3 4.1C19.2 4 19.3 4 19.4 4C20 4 20.6 4 21.2 4C22.5 4 23.8 4 25.1 4C26.7 4 28.4 4 30 4C30.9 4 31.8 4 32.7 4C32.8 4 33 4 33.1 4.2C33.2 4.3 33.4 4.5 33.5 4.6C33.6 4.7 33.6 4.7 33.4 4.8C33.3 4.8 33.3 4.8 33.3 4.9C33.3 5.2 33.3 5.4 33.3 5.7C33.3 6 33.3 6.3 33.3 6.6C33.3 6.8 33.2 7.1 33.2 7.3C33.2 7.4 33.2 7.6 33.2 7.7C33.2 8.4 33.2 9.1 33.2 9.9C33.2 11.8 33.2 13.6 33.2 15.5C33.2 16.1 33.2 16.7 33.2 17.3C33.2 17.6 33.3 17.9 33.3 18.2C33.3 18.3 33.3 18.5 33.3 18.6C33.2 18.9 33.2 19.2 33.2 19.5C33.2 19.8 33.2 20.2 33.2 20.5C33.2 20.7 33.2 21 33.1 21.2C33.1 21.2 33.1 21.3 33.1 21.2C33 21.2 33 21.2 33 21.3C33 21.5 33 21.7 33 21.9C33 22 33 22 32.9 22C32.8 22 32.6 22 32.5 22C32.3 22 32.2 22 32 22C31.6 22 31.3 22 30.9 22C30.2 22 29.4 22 28.7 22C28.1 22 27.6 22 27 22C26.8 22 26.5 22 26.3 22C26 22 25.8 22 25.5 22C25.4 22 25.3 22 25.1 22.1Z" fill="#B542FB"/>
<path d="M31.6 39.8C31.6 40 31.6 40.2001 31.6 40.4001C31.6 40.6001 31.6 40.6 31.4 40.6C31.1 40.6 30.9 40.6 30.6 40.6C30.1 40.6 29.7 40.6 29.2 40.6C28.9 40.6 28.5 40.6 28.2 40.6C28.1 40.6 28 40.6 27.9 40.7001C27.8 40.8001 27.7 40.8001 27.7 40.7001C27.7 40.7001 27.7 40.6 27.8 40.5C27.6 40.5 27.4 40.5 27.3 40.5C26.3 40.5 25.4 40.5 24.4 40.5C24.2 40.5 24.1 40.5 23.9 40.6C24 40.6 24 40.7001 24.1 40.7001C24.6 40.7001 25.1 40.7001 25.5 40.7001H25.6C25.6 40.8001 25.6 40.8 25.5 40.8C25.3 40.8 25.2 40.9001 25 40.9001C24.5 40.9001 24 40.9001 23.5 40.9001C23.3 40.9001 23 40.9001 22.8 40.9001C22.7 40.9001 22.7 40.9 22.6 40.8C22.6 40.7 22.5 40.7001 22.4 40.7001C22.1 40.7001 21.8 40.7001 21.4 40.7001C21.5 40.7001 21.6 40.7 21.7 40.8H21.8C21.6 41 21.5 41 21.4 41C21.1 41 20.9 41 20.6 41C20.5 41 20.5 41.0001 20.4 40.9001C20.4 40.9001 20.5 40.9 20.6 40.8C20.5 40.8 20.4 40.8 20.4 40.8C20.3 40.8 20.3 40.9001 20.3 40.9001C20.3 41.0001 20.3 41 20.2 41C20 41 19.8 41.1 19.5 41.1C19.3 41.1 19 41.1 18.8 41.1C18.6 41.1 18.5 41.0001 18.4 40.9001C18.3 40.8001 18.2 40.6 18.1 40.5C18 40.5 18 40.4 18 40.3C18 36.7 18 33.1 18 29.6C18 29.3 18.1 29.1 18.2 28.9C18.5 27.9 18.9 27 19.2 26C19.4 25.2 19.7 24.5001 19.9 23.7001C19.9 23.6001 20 23.5 20 23.4C20 23.3 20.2 23.3 20.3 23.3C20.8 23.3 21.2 23.3 21.7 23.3C22 23.3 22.2 23.3 22.5 23.3C25.5 23.3 28.5 23.3 31.5 23.3C31.6 23.3 31.7 23.3 31.8 23.4C31.9 23.5 32 23.6001 32 23.7001C32.1 23.9001 32.2 24.1 32.1 24.3C32 24.4 32 24.6001 32.1 24.7001C32.1 24.8001 32.1 24.9 32.1 25C32.1 25.4 32.1 25.7 32.1 26.1C32.1 26.5001 32.1 26.8001 32.1 27.2001C32.1 27.5001 32.1 27.8 32.1 28.1C32.1 28.9001 32.1 29.7 32.1 30.5C32.1 31.4 32.1 32.3001 32.1 33.2001C32.1 33.5001 32.1 33.8 32.1 34.1C32.1 34.4001 32.1 34.7 32.1 35C32.1 35.2 32.1 35.3 32.1 35.5C32.1 35.9 32.1 36.3 32.2 36.6C32.2 36.8 32.2 36.9 32.2 37.1C32.2 37.3 32.2 37.5001 32.1 37.7001C32.1 37.8001 32.1 37.8001 32.1 37.9001C32.1 38.2001 32.1 38.6001 32.1 38.9001C32.1 39.2001 32.1 39.4001 32.1 39.7001C32.1 39.8001 32.1 39.8001 32.1 39.9001C31.7 39.9001 31.7 39.9 31.6 39.8Z" fill="#B542FB"/>
<path d="M5.39998 7.4001C5.49998 7.7001 5.69998 7.8001 5.89998 8.0001C6.09998 8.3001 6.29998 8.5001 6.49998 8.8001C6.69998 9.1001 6.89998 9.4001 7.19998 9.6001C7.49998 9.9001 7.69998 10.3001 7.99998 10.6001C8.29998 11.0001 8.49998 11.4001 8.89998 11.7001C9.09998 12.2001 9.49998 12.4001 9.99998 12.5001C10.4 12.6001 10.7 12.7001 11.1 12.8001C11.5 12.9001 11.8 13.0001 12.1 13.2001C12.5 13.4001 12.8 13.6001 13.1 13.9001C13.3 14.1001 13.6 14.3001 13.8 14.5001C14.1 14.8001 14.5 15.1001 14.8 15.4001C15.2 15.8001 15.6 16.3001 16 16.8001C16.2 17.1001 16.4 17.5001 16.5 17.9001C16.5 18.0001 16.5 18.2001 16.5 18.4001C16.5 18.8001 16.5 19.1001 16.4 19.5001C16.3 19.8001 16.1 20.1001 16 20.3001C15.9 20.6001 15.7 20.8001 15.6 21.1001C15.4 21.4001 15.3 21.7001 15.3 22.1001C15.2 22.4001 15.2 22.7001 15.1 23.0001C15.1 23.2001 15.1 23.4001 15 23.5001C15 23.6001 15 23.6001 14.9 23.6001C14.4 23.6001 14 23.6001 13.5 23.6001C12.8 23.6001 12.1 23.6001 11.4 23.6001C10.9 23.6001 10.4 23.6001 9.89998 23.6001H9.99998C10.3 23.6001 10.6 23.6001 10.8 23.6001C10.8 23.6001 11 23.6001 10.9 23.7001C10.9 23.7001 10.8 23.7001 10.7 23.7001C10.5 23.7001 10.3 23.7001 9.99998 23.7001C9.39998 23.7001 8.79998 23.7001 8.09998 23.7001C7.99998 23.7001 7.79998 23.7001 7.69998 23.6001C7.69998 23.6001 7.59998 23.5001 7.59998 23.6001V23.7001C7.59998 23.7001 7.59998 23.7001 7.59998 23.8001C7.49998 23.9001 7.49998 23.9001 7.39998 23.9001C7.39998 23.9001 7.29998 23.9001 7.29998 23.8001C7.29998 23.6001 7.09998 23.6001 6.99998 23.6001C6.49998 23.5001 5.89998 23.6001 5.39998 23.6001C5.29998 23.6001 5.19998 23.6001 4.99998 23.6001C5.09998 23.6001 5.19998 23.7001 5.19998 23.7001C5.19998 23.7001 5.29998 23.7001 5.29998 23.8001C5.29998 23.8001 5.29998 23.8001 5.19998 23.8001C5.09998 23.8001 5.09998 23.8001 4.99998 23.8001C4.39998 23.9001 3.89998 23.9001 3.29998 23.9001C3.09998 23.9001 2.99998 23.9001 2.89998 23.7001L2.79998 23.6001C2.59998 23.5001 2.59998 23.3001 2.59998 23.1001C2.59998 20.3001 2.59998 17.6001 2.59998 14.8001C2.59998 12.0001 2.59998 9.1001 2.59998 6.3001C2.59998 6.1001 2.59998 5.9001 2.79998 5.8001C2.99998 5.8001 3.09998 5.7001 3.19998 5.6001H3.29998C3.69998 5.6001 4.19998 5.6001 4.59998 5.6001C6.69998 5.6001 8.89998 5.6001 11 5.6001C11.2 5.6001 11.5 5.6001 11.7 5.6001C12.3 5.6001 12.9 5.6001 13.5 5.6001C14 5.6001 14.6 5.6001 15.1 5.6001C15.7 5.6001 16.3 5.6001 16.8 5.6001C16.9 5.6001 17 5.6001 17 5.7001C17.1 5.8001 17.3 6.0001 17.4 6.1001C17.5 6.2001 17.5 6.2001 17.5 6.3001C17.5 7.1001 17.5 7.9001 17.5 8.7001C17.5 9.8001 17.5 10.9001 17.5 12.0001C17.5 12.2001 17.5 12.4001 17.4 12.6001C17.4 12.6001 17.4 12.7001 17.3 12.7001C17.3 12.7001 17.2 12.7001 17.2 12.6001C17.1 12.5001 17.1 12.4001 17.1 12.3001C17 12.0001 17 11.6001 17 11.3001C17 10.9001 17.1 10.6001 17.1 10.2001C17.1 9.8001 17.2 9.5001 17 9.1001C16.9 8.9001 16.8 8.8001 16.6 8.7001C16.4 8.6001 16.2 8.5001 15.9 8.4001C15.4 8.3001 14.9 8.4001 14.5 8.9001C14.3 9.2001 14.1 9.6001 14 10.0001C13.9 10.4001 13.9 10.8001 14.1 11.2001C14.2 11.4001 14.3 11.6001 14.5 11.8001C14.6 11.9001 14.8 12.0001 14.9 12.2001C15 12.3001 15 12.3001 14.9 12.4001C14.9 12.4001 14.9 12.4001 14.8 12.4001C14.6 12.4001 14.3 12.4001 14.1 12.4001C13.5 12.4001 12.9 12.3001 12.4 12.1001C11.9 11.9001 11.4 11.7001 10.9 11.5001C10.4 11.3001 9.79998 11.0001 9.19998 10.6001C8.79998 10.3001 8.39998 10.1001 7.99998 9.7001C7.59998 9.4001 7.19998 9.0001 6.99998 8.5001C6.99998 8.4001 6.89998 8.3001 6.79998 8.2001C6.79998 8.1001 6.69998 8.1001 6.69998 8.2001C6.49998 8.4001 6.49998 8.4001 6.29998 8.2001C6.09998 8.1001 5.89998 7.8001 5.59998 7.6001C5.59998 7.5001 5.49998 7.5001 5.39998 7.4001Z" fill="#B542FB"/>
<path d="M6.3 23.7C6.4 23.7 6.6 23.7 6.8 23.7C6.8 23.7 6.9 23.7 6.9 23.8L6.8 23.9C6.5 23.9 6.3 23.9 6 23.9C5.9 23.9 5.8 23.9 5.6 23.8C5.6 23.8 5.5 23.8 5.5 23.7C5.5 23.7 5.5 23.7 5.6 23.6C5.7 23.5 5.9 23.5 6 23.5C6.1 23.6 6.2 23.7 6.3 23.7Z" fill="#B542FB"/>
<path d="M22.5 40.9001C22.5 41.0001 22.5 41.0001 22.5 40.9001C22.4 41.0001 22.3 41 22.2 41C22.2 41 22.1 41.0001 22.1 40.9001C22.1 40.9001 22.1 40.8 22.2 40.8C22.3 40.9 22.4 40.9001 22.5 40.9001Z" fill="#B542FB"/>
<path d="M23.4 22.2999H23.3C23.2 22.1999 23.2 22.2 23.3 22.2C23.4 22.2 23.4 22.2 23.5 22.2L23.6 22.2999C23.6 22.2999 23.5 22.2999 23.4 22.2999Z" fill="#B542FB"/>
<path d="M13.3 23.7001C13.3 23.8001 13.2 23.8001 13.2 23.8001C13.1 23.8001 13.1 23.8001 13.1 23.7001C13.1 23.6001 13.2 23.6001 13.2 23.6001C13.2 23.6001 13.2 23.7001 13.3 23.7001Z" fill="#B542FB"/>
</g>
<defs>
<clipPath id="clip0_408_569">
<rect width="33.6" height="38.7" fill="white" transform="translate(0 4)"/>
</clipPath>
</defs>
</svg>
