<svg width="276" height="43" viewBox="0 0 276 43" fill="none" xmlns="http://www.w3.org/2000/svg">
<path d="M32.9438 21.5265H36.3989L37.5647 18.8266H44.4323L45.5981 21.5265H49.1802L42.8425 7.63002H39.3875L32.9438 21.5265ZM38.6669 16.3054L41.0197 10.9056L43.3513 16.3054H38.6669Z" fill="#1460D2"/>
<path d="M50.7231 21.5265H60.431V18.7869H54.0721V7.63002H50.7231V21.5265Z" fill="#1460D2"/>
<path d="M61.3585 14.5584C61.3585 18.5884 64.7076 21.6655 69.1376 21.6655C71.2996 21.6655 73.5676 20.6927 75.1362 19.1839L73.1649 17.1789C72.1051 18.1715 70.6425 18.8067 69.3072 18.8067C66.7636 18.8067 64.7923 16.9407 64.7923 14.5187C64.7923 12.0967 66.7636 10.2505 69.3072 10.2505C70.6849 10.2505 72.1475 10.9652 73.1649 12.057L75.115 9.8336C73.6524 8.42411 71.4056 7.53076 69.2648 7.53076C64.7712 7.53076 61.3585 10.5483 61.3585 14.5584Z" fill="#1460D2"/>
<path d="M77.1357 21.5265H80.4848V16.0473H87.204V21.5265H90.553V7.63002H87.204V13.4268H80.4848V7.63002H77.1357V21.5265Z" fill="#1460D2"/>
<path d="M93.8196 21.5265H105.35V18.9259H97.1686V15.8488H104.333V13.2482H97.1686V10.2306H105.117V7.63002H93.8196V21.5265Z" fill="#1460D2"/>
<path d="M107.978 21.5265H111.327V17.5561H114.74L117.093 21.5265H120.887L117.728 16.9407C119.53 16.1466 120.505 14.5981 120.505 12.4541C120.505 9.37701 118.301 7.63002 114.422 7.63002H107.978V21.5265ZM111.327 14.9356V10.2306H114.422C116.266 10.2306 117.326 11.0049 117.326 12.5533C117.326 14.1415 116.266 14.9356 114.422 14.9356H111.327Z" fill="#1460D2"/>
<path d="M123.316 21.5265H126.665V7.63002H123.316V21.5265Z" fill="#1460D2"/>
<path d="M129.961 21.5265H133.162V12.6129L140.347 21.5265H143.399V7.63002H140.22V16.5635L133.013 7.63002H129.961V21.5265Z" fill="#1460D2"/>
<path d="M145.606 14.5783C145.606 18.6082 149.018 21.6655 153.512 21.6655C155.568 21.6655 157.963 20.9309 159.532 19.8589V14.5187H156.628V18.1715C155.674 18.6281 154.614 18.9259 153.724 18.9259C151.096 18.9259 149.04 17.0399 149.04 14.5783C149.04 12.1364 151.074 10.2505 153.703 10.2505C155.144 10.2505 156.67 10.8461 157.772 11.799L159.659 9.55568C158.154 8.32485 155.907 7.53076 153.703 7.53076C149.082 7.53076 145.606 10.5681 145.606 14.5783Z" fill="#1460D2"/>
<path d="M160.764 21.5265H164.219L165.384 18.8266H172.252L173.418 21.5265H177L170.662 7.63002H167.207L160.764 21.5265ZM166.487 16.3054L168.839 10.9056L171.171 16.3054H166.487Z" fill="#1460D2"/>
<path d="M38.1629 29.3004V30.189C37.8928 30.0482 37.6473 29.9514 37.4263 29.8986C37.2114 29.84 36.9352 29.8107 36.5976 29.8107C35.9776 29.8107 35.4589 30.013 35.0415 30.4177C34.6302 30.8165 34.4246 31.3473 34.4246 32.0101C34.4246 32.6845 34.6302 33.2212 35.0415 33.62C35.4528 34.0188 35.996 34.2182 36.6712 34.2182C37.2667 34.2182 37.767 34.0716 38.1721 33.7784V34.6933C37.7915 34.9338 37.2636 35.054 36.5884 35.054C35.6615 35.054 34.9034 34.7784 34.3141 34.227C33.7248 33.6757 33.4302 32.9367 33.4302 32.0101C33.4302 31.1127 33.7248 30.3825 34.3141 29.8195C34.9095 29.2564 35.6615 28.9749 36.57 28.9749C37.2329 28.9749 37.7639 29.0834 38.1629 29.3004Z" fill="#222121"/>
<path d="M43.526 32.7754H45.5149L45.4136 32.4763C45.1803 31.7842 44.99 31.2124 44.8427 30.7608C44.6954 30.3033 44.6064 30.0189 44.5757 29.9074L44.5296 29.7403C44.4621 30.0159 44.1613 30.928 43.6273 32.4763L43.526 32.7754ZM46.2607 34.9836L45.7727 33.532H43.2682L42.771 34.9836H41.7674L43.9127 29.0541H45.1558L47.2735 34.9836H46.2607Z" fill="#222121"/>
<path d="M51.0501 34.9836L51.5289 29.0541H52.6522L53.4809 31.2183C53.6282 31.5878 53.7755 31.9807 53.9228 32.3971C54.0702 32.8077 54.1806 33.1273 54.2543 33.3561L54.374 33.6992C54.6564 32.9015 54.9664 32.0746 55.304 31.2183L56.1695 29.0541H57.2928L57.8637 34.9836H56.9245L56.7035 32.6611L56.5102 30.2857C56.2339 31.0306 55.9332 31.8224 55.6078 32.6611L54.7423 34.8693H53.9965L53.1586 32.6611L52.3207 30.3209C52.3207 30.579 52.2716 31.359 52.1734 32.6611L51.9892 34.9836H51.0501Z" fill="#222121"/>
<path d="M62.9754 32.1332H63.7857C64.2338 32.1332 64.5745 32.0276 64.8077 31.8165C65.0471 31.6054 65.1668 31.3268 65.1668 30.9807C65.1668 30.6171 65.0471 30.3297 64.8077 30.1186C64.5683 29.9074 64.2215 29.8019 63.7673 29.8019H62.9754V32.1332ZM62.027 29.0541H63.8041C64.5161 29.0541 65.0809 29.2359 65.4983 29.5995C65.9157 29.9573 66.1244 30.4177 66.1244 30.9807C66.1244 31.5438 65.9126 32.0013 65.4891 32.3532C65.0717 32.7051 64.5284 32.881 63.8593 32.881H62.9754V34.9836H62.027V29.0541Z" fill="#222121"/>
<path d="M73.7189 32.7315V29.0541H74.6673V32.7139C74.6673 33.4822 74.4585 34.0658 74.0411 34.4646C73.6237 34.8634 73.0467 35.0628 72.3101 35.0628C71.5858 35.0628 71.0149 34.8693 70.5975 34.4822C70.1801 34.0892 69.9714 33.5232 69.9714 32.7842V29.0541H70.9198V32.7754C70.9198 33.2798 71.0456 33.6493 71.2973 33.8839C71.5551 34.1127 71.8927 34.227 72.3101 34.227C73.2493 34.227 73.7189 33.7285 73.7189 32.7315Z" fill="#222121"/>
<path d="M82.2483 29.2916V30.189C81.837 29.9426 81.3705 29.8195 80.8487 29.8195C80.5111 29.8195 80.2441 29.8928 80.0477 30.0394C79.8574 30.1802 79.7622 30.3678 79.7622 30.6024C79.7622 30.837 79.8574 31.0247 80.0477 31.1655C80.2379 31.3062 80.5295 31.4587 80.9224 31.623C81.1802 31.7285 81.3797 31.8194 81.5209 31.8957C81.6682 31.9719 81.8339 32.0804 82.0181 32.2212C82.2084 32.3561 82.3465 32.5203 82.4324 32.7139C82.5245 32.9015 82.5705 33.1185 82.5705 33.3649C82.5705 33.8869 82.3772 34.2974 81.9905 34.5965C81.6037 34.8957 81.1035 35.0452 80.4896 35.0452C79.8083 35.0452 79.2435 34.9191 78.7954 34.6669V33.7256C79.2804 34.0716 79.842 34.2446 80.4804 34.2446C80.818 34.2446 81.085 34.1713 81.2815 34.0247C81.4779 33.8722 81.5761 33.664 81.5761 33.4001C81.5761 33.2417 81.5178 33.098 81.4012 32.969C81.2845 32.8341 81.1587 32.7344 81.0237 32.6699C80.8886 32.5995 80.6861 32.5057 80.416 32.3884C80.2564 32.318 80.1428 32.2681 80.0753 32.2388C80.0139 32.2095 79.9095 32.1567 79.7622 32.0804C79.6149 32.0042 79.5044 31.9397 79.4307 31.8869C79.3632 31.8341 79.2773 31.7608 79.1729 31.6669C79.0686 31.5731 78.9919 31.4793 78.9427 31.3854C78.8998 31.2916 78.8568 31.1831 78.8138 31.0599C78.777 30.9309 78.7586 30.7931 78.7586 30.6464C78.7586 30.142 78.9489 29.7432 79.3295 29.45C79.7162 29.1567 80.2134 29.0101 80.8211 29.0101C81.3797 29.0101 81.8554 29.1039 82.2483 29.2916Z" fill="#222121"/>
<path d="M93.137 32.7754H95.1258L95.0245 32.4763C94.7913 31.7842 94.601 31.2124 94.4537 30.7608C94.3063 30.3033 94.2173 30.0189 94.1866 29.9074L94.1406 29.7403C94.0731 30.0159 93.7723 30.928 93.2383 32.4763L93.137 32.7754ZM95.8716 34.9836L95.3836 33.532H92.8792L92.3819 34.9836H91.3783L93.5237 29.0541H94.7667L96.8845 34.9836H95.8716Z" fill="#222121"/>
<path d="M100.661 34.9836L101.14 29.0541H102.263L103.092 31.2183C103.239 31.5878 103.386 31.9807 103.534 32.3971C103.681 32.8077 103.792 33.1273 103.865 33.3561L103.985 33.6992C104.267 32.9015 104.577 32.0746 104.915 31.2183L105.78 29.0541H106.904L107.475 34.9836H106.535L106.314 32.6611L106.121 30.2857C105.845 31.0306 105.544 31.8224 105.219 32.6611L104.353 34.8693H103.607L102.77 32.6611L101.932 30.3209C101.932 30.579 101.883 31.359 101.784 32.6611L101.6 34.9836H100.661Z" fill="#222121"/>
<path d="M112.586 34.2358H113.802C114.581 34.2358 114.971 33.9279 114.971 33.3121C114.971 33.013 114.864 32.7813 114.649 32.6171C114.44 32.447 114.127 32.362 113.71 32.362H112.586V34.2358ZM112.586 29.8019V31.623H113.443C113.903 31.623 114.244 31.535 114.465 31.359C114.692 31.1772 114.805 30.9426 114.805 30.6552C114.805 30.403 114.704 30.1978 114.502 30.0394C114.305 29.881 114.004 29.8019 113.599 29.8019H112.586ZM111.638 29.0541H113.673C114.324 29.0541 114.836 29.2007 115.211 29.4939C115.585 29.7813 115.772 30.1626 115.772 30.6376C115.772 30.9661 115.674 31.2535 115.478 31.4998C115.287 31.7461 115.042 31.9045 114.741 31.9749C115.079 32.0335 115.361 32.1831 115.588 32.4235C115.821 32.664 115.938 32.9866 115.938 33.3913C115.938 33.8605 115.769 34.2446 115.432 34.5438C115.1 34.837 114.63 34.9836 114.023 34.9836H111.638V29.0541Z" fill="#222121"/>
<path d="M121.26 32.7754H123.249L123.148 32.4763C122.915 31.7842 122.724 31.2124 122.577 30.7608C122.43 30.3033 122.341 30.0189 122.31 29.9074L122.264 29.7403C122.197 30.0159 121.896 30.928 121.362 32.4763L121.26 32.7754ZM123.995 34.9836L123.507 33.532H121.003L120.505 34.9836H119.502L121.647 29.0541H122.89L125.008 34.9836H123.995Z" fill="#222121"/>
<path d="M132.219 29.2916V30.189C131.808 29.9426 131.341 29.8195 130.819 29.8195C130.482 29.8195 130.215 29.8928 130.018 30.0394C129.828 30.1802 129.733 30.3678 129.733 30.6024C129.733 30.837 129.828 31.0247 130.018 31.1655C130.209 31.3062 130.5 31.4587 130.893 31.623C131.151 31.7285 131.35 31.8194 131.492 31.8957C131.639 31.9719 131.805 32.0804 131.989 32.2212C132.179 32.3561 132.317 32.5203 132.403 32.7139C132.495 32.9015 132.541 33.1185 132.541 33.3649C132.541 33.8869 132.348 34.2974 131.961 34.5965C131.574 34.8957 131.074 35.0452 130.46 35.0452C129.779 35.0452 129.214 34.9191 128.766 34.6669V33.7256C129.251 34.0716 129.813 34.2446 130.451 34.2446C130.789 34.2446 131.056 34.1713 131.252 34.0247C131.449 33.8722 131.547 33.664 131.547 33.4001C131.547 33.2417 131.488 33.098 131.372 32.969C131.255 32.8341 131.129 32.7344 130.994 32.6699C130.859 32.5995 130.657 32.5057 130.387 32.3884C130.227 32.318 130.113 32.2681 130.046 32.2388C129.985 32.2095 129.88 32.1567 129.733 32.0804C129.586 32.0042 129.475 31.9397 129.401 31.8869C129.334 31.8341 129.248 31.7608 129.144 31.6669C129.039 31.5731 128.962 31.4793 128.913 31.3854C128.87 31.2916 128.827 31.1831 128.784 31.0599C128.748 30.9309 128.729 30.7931 128.729 30.6464C128.729 30.142 128.92 29.7432 129.3 29.45C129.687 29.1567 130.184 29.0101 130.792 29.0101C131.35 29.0101 131.826 29.1039 132.219 29.2916Z" fill="#222121"/>
<path d="M139.921 29.2916V30.189C139.51 29.9426 139.043 29.8195 138.521 29.8195C138.184 29.8195 137.917 29.8928 137.72 30.0394C137.53 30.1802 137.435 30.3678 137.435 30.6024C137.435 30.837 137.53 31.0247 137.72 31.1655C137.911 31.3062 138.202 31.4587 138.595 31.623C138.853 31.7285 139.052 31.8194 139.194 31.8957C139.341 31.9719 139.507 32.0804 139.691 32.2212C139.881 32.3561 140.019 32.5203 140.105 32.7139C140.197 32.9015 140.243 33.1185 140.243 33.3649C140.243 33.8869 140.05 34.2974 139.663 34.5965C139.276 34.8957 138.776 35.0452 138.162 35.0452C137.481 35.0452 136.916 34.9191 136.468 34.6669V33.7256C136.953 34.0716 137.515 34.2446 138.153 34.2446C138.491 34.2446 138.758 34.1713 138.954 34.0247C139.151 33.8722 139.249 33.664 139.249 33.4001C139.249 33.2417 139.19 33.098 139.074 32.969C138.957 32.8341 138.831 32.7344 138.696 32.6699C138.561 32.5995 138.359 32.5057 138.089 32.3884C137.929 32.318 137.815 32.2681 137.748 32.2388C137.687 32.2095 137.582 32.1567 137.435 32.0804C137.288 32.0042 137.177 31.9397 137.103 31.8869C137.036 31.8341 136.95 31.7608 136.846 31.6669C136.741 31.5731 136.664 31.4793 136.615 31.3854C136.572 31.2916 136.529 31.1831 136.486 31.0599C136.45 30.9309 136.431 30.7931 136.431 30.6464C136.431 30.142 136.622 29.7432 137.002 29.45C137.389 29.1567 137.886 29.0101 138.494 29.0101C139.052 29.0101 139.528 29.1039 139.921 29.2916Z" fill="#222121"/>
<path d="M145.643 32.7754H147.632L147.531 32.4763C147.298 31.7842 147.107 31.2124 146.96 30.7608C146.813 30.3033 146.724 30.0189 146.693 29.9074L146.647 29.7403C146.579 30.0159 146.279 30.928 145.745 32.4763L145.643 32.7754ZM148.378 34.9836L147.89 33.532H145.385L144.888 34.9836H143.885L146.03 29.0541H147.273L149.391 34.9836H148.378Z" fill="#222121"/>
<path d="M154.217 34.2182H155.193C155.899 34.2182 156.436 34.0071 156.804 33.5848C157.173 33.1625 157.357 32.62 157.357 31.9573C157.357 31.3473 157.157 30.84 156.758 30.4353C156.359 30.0306 155.828 29.8283 155.165 29.8283H154.217V34.2182ZM153.25 29.0541H155.184C156.105 29.0541 156.86 29.3268 157.449 29.8722C158.038 30.4177 158.333 31.1127 158.333 31.9573C158.333 32.837 158.053 33.5614 157.495 34.1303C156.942 34.6992 156.178 34.9836 155.202 34.9836H153.25V29.0541Z" fill="#222121"/>
<path d="M162.043 31.9925C162.043 31.0716 162.301 30.3326 162.817 29.7755C163.332 29.2183 164.023 28.9397 164.889 28.9397C165.772 28.9397 166.469 29.2183 166.979 29.7755C167.488 30.3268 167.743 31.0658 167.743 31.9925C167.743 32.9191 167.485 33.6611 166.969 34.2182C166.46 34.7754 165.769 35.054 164.898 35.054C164.032 35.054 163.339 34.7754 162.817 34.2182C162.301 33.6611 162.043 32.9191 162.043 31.9925ZM163.526 30.3825C163.2 30.7755 163.038 31.3121 163.038 31.9925C163.038 32.6728 163.207 33.2124 163.544 33.6112C163.882 34.01 164.333 34.2095 164.898 34.2095C165.481 34.2095 165.935 34.013 166.26 33.62C166.586 33.2271 166.748 32.6845 166.748 31.9925C166.748 31.3062 166.583 30.7667 166.251 30.3737C165.926 29.9807 165.472 29.7843 164.889 29.7843C164.312 29.7843 163.857 29.9837 163.526 30.3825Z" fill="#222121"/>
<path d="M172.687 29.8107V31.9749H173.543C173.936 31.9749 174.234 31.8781 174.436 31.6845C174.639 31.4851 174.74 31.2212 174.74 30.8928C174.74 30.1714 174.326 29.8107 173.497 29.8107H172.687ZM174.961 34.9836L173.506 32.7315H172.687V34.9836H171.738V29.0541H173.469C174.181 29.0541 174.731 29.2212 175.118 29.5555C175.504 29.884 175.698 30.3326 175.698 30.9016C175.692 31.318 175.581 31.6728 175.366 31.9661C175.151 32.2535 174.854 32.4617 174.473 32.5907L176.094 34.9836H174.961Z" fill="#222121"/>
<path d="M14.3688 37.0396C14.284 36.9598 14.3688 36.8001 14.284 36.7203C14.284 36.8001 14.1992 36.8799 14.1992 36.9598C14.1992 37.0396 14.1992 37.1194 14.1992 37.1992C14.1992 37.3589 14.1992 37.3589 14.0296 37.3589C13.9448 37.3589 13.8599 37.3589 13.8599 37.3589C13.6903 37.3589 13.5207 37.3589 13.3511 37.4387C13.1815 37.4387 13.0119 37.5186 12.9271 37.5186C12.7575 37.5186 12.5878 37.5186 12.4182 37.5186C12.1638 37.5186 11.9942 37.5186 11.7398 37.5186C11.4006 37.5186 11.0613 37.5186 10.7221 37.5186C10.7221 37.5186 10.7221 37.5186 10.7221 37.5984C10.7221 37.5984 10.8069 37.6782 10.7221 37.6782C10.7221 37.6782 10.6373 37.6782 10.6373 37.5984C10.5525 37.5984 10.6373 37.5186 10.6373 37.5186C10.3829 37.5186 10.0436 37.5186 9.78922 37.5186C9.5348 37.5186 9.28038 37.5186 9.11077 37.5186C8.94115 37.5186 8.77154 37.5186 8.60193 37.5186H8.51712C8.43231 37.5984 8.34751 37.5984 8.2627 37.5984C7.75386 37.5984 7.24502 37.5984 6.82098 37.5984C6.48176 37.5984 6.22734 37.5984 5.88811 37.5984C5.7185 37.5984 5.54888 37.5984 5.46408 37.5984H5.37927C5.20966 37.5186 5.04004 37.5186 4.95524 37.6782C4.95524 37.6782 4.87043 37.758 4.87043 37.6782C4.70081 37.6782 4.5312 37.6782 4.36159 37.6782C4.27678 37.6782 4.10717 37.6782 4.02236 37.6782C4.02236 37.6782 3.93755 37.6782 3.93755 37.5984C3.85275 37.5186 3.68313 37.5186 3.51352 37.5186C3.51352 37.5984 3.59833 37.5984 3.59833 37.5984C3.59833 37.6782 3.51352 37.5984 3.42871 37.5984C2.91987 37.5984 2.32622 37.5984 1.81738 37.5984C1.64777 37.5984 1.47816 37.5984 1.22374 37.5984C0.969316 37.5984 0.799702 37.5984 0.545282 37.5186C0.460475 37.5186 0.460475 37.5186 0.460475 37.4387C0.375668 37.3589 0.290861 37.1992 0.206055 37.1194C0.206055 37.1194 0.206055 37.0396 0.206055 36.9598C0.206055 35.5228 0.206055 34.006 0.206055 32.5691C0.206055 31.2918 0.206055 29.9347 0.206055 28.6574C0.206055 28.3381 0.206055 28.0986 0.206055 27.7793C0.206055 27.6196 0.206055 27.46 0.206055 27.3003C0.206055 27.2205 0.206055 27.0608 0.206055 26.981C0.206055 26.8213 0.206055 26.7415 0.206055 26.5819V26.502C0.206055 26.2625 0.206055 26.023 0.206055 25.7836C0.206055 25.7037 0.206055 25.5441 0.206055 25.4642V25.3844C0.290861 25.3046 0.290861 25.3046 0.290861 25.2247V25.1449C0.290861 24.9853 0.290861 24.7458 0.206055 24.5861C0.206055 24.5063 0.206055 24.4264 0.206055 24.3466C0.206055 24.1071 0.206055 23.9475 0.206055 23.708V23.6281C0.375668 23.4685 0.460475 23.3887 0.630089 23.229C0.714895 23.229 0.714895 23.1492 0.799702 23.1492C1.22374 23.1492 1.64777 23.1492 2.0718 23.1492C3.42871 23.1492 4.70081 23.1492 6.05772 23.1492C6.56656 23.1492 7.0754 23.1492 7.58425 23.1492C7.92347 23.1492 8.2627 23.1492 8.60193 23.1492C8.85635 23.1492 9.11077 23.1492 9.36519 23.1492C9.61961 23.1492 9.78922 23.1492 10.0436 23.1492C10.3829 23.1492 10.7221 23.1492 11.0613 23.1492C11.5702 23.1492 12.079 23.1492 12.6727 23.1492C12.8423 23.1492 12.8423 23.1492 12.8423 23.3088C12.8423 23.4685 12.8423 23.6282 12.7575 23.7878C12.7575 23.9475 12.6727 24.187 12.6727 24.3466C12.6727 24.5063 12.5878 24.7458 12.5878 24.9054C12.503 25.1449 12.503 25.3046 12.4182 25.5441C12.3334 25.8634 12.2486 26.1827 12.1638 26.502C12.079 26.981 11.9094 27.3802 11.7398 27.7793C11.5702 28.2583 11.3157 28.6574 10.9765 29.0566C10.8069 29.2961 10.5525 29.6154 10.3829 29.8549C10.0436 30.254 9.70442 30.5734 9.28038 30.9725C9.11077 31.1322 8.85635 31.3717 8.68673 31.5313C8.51712 31.691 8.2627 31.9305 8.09309 32.0901C7.92347 32.2498 7.75386 32.4094 7.49944 32.5691C7.16021 32.8086 6.90579 33.1279 6.56656 33.4472C6.48176 33.5271 6.39695 33.5271 6.39695 33.4472C6.31214 33.3674 6.22734 33.3674 6.14253 33.4472C5.97292 33.6069 5.8033 33.8464 5.7185 34.006C5.46408 34.3254 5.29446 34.7245 5.12485 35.0438C4.95524 35.2833 4.87043 35.6026 4.87043 35.8421C4.87043 36.0816 4.87043 36.4009 4.95524 36.6404C5.04004 36.8001 5.12485 36.8799 5.29446 37.0396C5.37927 37.0396 5.37927 37.0396 5.46408 36.9598C5.63369 36.7203 5.7185 36.4808 5.88811 36.3211C6.14253 35.8421 6.39695 35.3632 6.73618 34.8842C6.56656 34.8043 6.82098 34.5649 6.9906 34.3254C7.16021 34.0859 7.41463 33.9262 7.58425 33.6867C7.83867 33.4472 8.09309 33.2077 8.34751 32.9683C8.51712 32.7288 8.77154 32.5691 9.02596 32.4094C9.45 32.0103 9.95884 31.691 10.4677 31.3717C10.7221 31.212 11.0613 30.9725 11.3157 30.8128C11.4006 30.8128 11.4006 30.8128 11.4006 30.8927C11.4854 31.212 11.4854 31.5313 11.4006 31.8506C11.3157 32.3296 11.1461 32.8086 11.0613 33.2876C10.9765 33.6069 10.8917 33.9262 10.8069 34.2455C10.8069 34.3254 10.8069 34.4052 10.8069 34.5649C10.8069 34.8043 10.7221 34.964 10.6373 35.1237C10.5525 35.2035 10.5525 35.2833 10.4677 35.3632C10.3829 35.5228 10.4677 35.6026 10.5525 35.6825C10.7221 35.8421 10.8917 36.0018 11.0613 36.0816C11.4854 36.3211 11.8246 36.5606 12.2486 36.8001C12.503 36.8799 12.7575 37.0396 13.0119 37.0396C13.2663 37.1194 13.5207 37.1194 13.7751 37.0396C13.7751 37.0396 13.8599 37.0396 13.8599 36.9598C13.8599 36.8799 13.7751 36.8799 13.7751 36.8001C13.6055 36.6404 13.3511 36.4808 13.0967 36.4009C12.8423 36.2413 12.5878 36.0816 12.4182 35.922C12.2486 35.7623 12.079 35.5228 11.9942 35.2833C11.9094 35.1237 11.9094 35.0438 11.9094 34.8842C11.9094 34.3254 11.9942 33.8464 12.1638 33.3674C12.2486 32.9683 12.4182 32.4893 12.5878 32.0901C12.7575 31.7708 12.9271 31.4515 13.0967 31.1322C13.4359 30.4935 13.6903 29.9347 14.0296 29.2961C14.1144 29.1364 14.1992 29.0566 14.1992 28.8969L14.284 28.8171V28.8969C14.284 29.6952 14.284 30.5734 14.284 31.3717C14.284 32.17 14.284 32.9683 14.284 33.7666C14.284 34.006 14.284 34.3254 14.284 34.5649C14.284 34.6447 14.284 34.8043 14.284 34.8842C14.284 35.0438 14.284 35.2035 14.284 35.2833C14.284 35.6026 14.284 35.922 14.284 36.2413C14.3688 36.6404 14.4536 36.8001 14.3688 37.0396ZM0.375668 35.922C0.290861 35.7623 0.290861 35.8421 0.375668 35.922C0.290861 35.8421 0.206055 35.922 0.206055 35.922C0.206055 35.922 0.206055 35.922 0.375668 35.922C0.290861 35.922 0.290861 35.922 0.375668 35.922Z" fill="#1460D2"/>
<path d="M21.3218 21.313C21.8307 21.313 22.1699 21.313 22.5939 21.313H22.6787C22.5939 21.313 22.5939 21.313 22.5091 21.313C22.3395 21.313 22.0851 21.313 21.9155 21.313C21.5763 21.313 21.3218 21.313 20.9826 21.313C20.813 21.313 20.6434 21.313 20.389 21.313C20.3042 21.313 20.2193 21.313 20.1345 21.2332C20.1345 21.1533 20.0497 21.1533 19.9649 21.1533C19.6257 21.1533 19.3713 21.1533 19.032 21.1533C19.1169 21.1533 19.2865 21.1533 19.3713 21.2332C19.1169 21.3928 18.2688 21.3928 18.184 21.2332C18.2688 21.2332 18.3536 21.2332 18.4384 21.1533C18.2688 21.0735 17.9296 21.0735 17.8448 21.1533L17.9296 21.2332C18.0144 21.313 17.9296 21.313 17.9296 21.313C17.7599 21.313 17.5055 21.313 17.3359 21.313C17.2511 21.313 17.2511 21.2332 17.2511 21.2332C17.2511 21.1533 17.2511 20.9937 17.2511 20.9138C17.2511 20.7542 17.3359 20.5945 17.3359 20.4349C17.3359 20.2752 17.4207 20.1155 17.4207 19.9559C17.4207 19.7962 17.4207 19.6366 17.5055 19.4769C17.5055 19.3172 17.5903 19.0778 17.5903 18.9181C17.5903 18.8383 17.5903 18.7584 17.5903 18.6786C17.5903 18.5189 17.5903 18.3593 17.5903 18.1996C17.5903 17.7206 17.5903 17.1618 17.5903 16.6829C17.5903 16.4434 17.5903 16.2039 17.5903 15.9644C17.5903 15.7249 17.5903 15.4854 17.5903 15.2459C17.5903 14.9266 17.6751 14.6073 17.8448 14.288C18.0144 13.8888 18.2688 13.5695 18.4384 13.2502C18.6928 12.851 18.8624 12.4519 19.1169 12.0527C19.3713 11.6536 19.5409 11.2544 19.7105 10.7754C19.9649 10.2965 20.1345 9.81748 20.389 9.3385C20.5586 8.93935 20.7282 8.5402 20.813 8.14105C20.8978 7.90156 20.9826 7.66207 20.9826 7.42258C20.8978 7.42258 20.8978 7.50241 20.813 7.58224C20.7282 7.98139 20.5586 8.38054 20.3042 8.69986C20.2193 8.85952 19.9649 8.85952 19.7953 8.85952C19.7953 8.85952 19.7105 8.85952 19.6257 8.85952C19.6257 8.85952 19.5409 8.85952 19.5409 8.93935V9.01918C19.5409 9.49816 19.4561 9.89731 19.2865 10.2965C19.2017 10.5359 19.032 10.7754 18.9472 11.0948C18.6928 11.5737 18.4384 11.9729 18.0992 12.4519C17.9296 12.6914 17.7599 12.851 17.5903 13.0905C17.5055 13.1703 17.4207 13.33 17.2511 13.4098C16.9967 13.6493 16.6575 13.8888 16.1486 14.0485C16.1486 14.0485 16.0638 14.0485 15.979 14.0485C15.979 13.9686 15.979 13.9686 15.979 13.8888C15.979 11.9729 15.979 10.057 15.979 8.06122C15.979 7.90156 15.979 7.7419 15.979 7.58224C15.979 7.42258 15.979 7.26292 16.1486 7.18309C16.2334 7.10326 16.3182 7.02343 16.403 6.9436C16.3182 6.86377 16.403 6.86377 16.4878 6.86377C16.9967 6.86377 17.5055 6.86377 18.0144 6.86377C19.1169 6.86377 20.2193 6.86377 21.3218 6.86377C22.6787 6.86377 24.1205 6.86377 25.4774 6.86377C26.2406 6.86377 27.0039 6.86377 27.7671 6.86377C27.852 6.86377 28.0216 6.86377 28.1064 7.02343C28.1912 7.10326 28.3608 7.26292 28.4456 7.34275C28.5304 7.42258 28.5304 7.42258 28.3608 7.50241C28.276 7.50241 28.276 7.50241 28.276 7.58224C28.276 7.82173 28.276 7.98139 28.276 8.22088C28.276 8.46037 28.276 8.69986 28.276 8.93935C28.276 9.09901 28.1912 9.3385 28.1912 9.49816C28.1912 9.57799 28.1912 9.73765 28.1912 9.81748C28.1912 10.3763 28.1912 10.9351 28.1912 11.5737C28.1912 13.0905 28.1912 14.5274 28.1912 16.0442C28.1912 16.5232 28.1912 17.0022 28.1912 17.4812C28.1912 17.7206 28.276 17.9601 28.276 18.1996C28.276 18.2795 28.276 18.4391 28.276 18.5189C28.1912 18.7584 28.1912 18.9979 28.1912 19.2374C28.1912 19.4769 28.1912 19.7962 28.1912 20.0357C28.1912 20.1954 28.1912 20.4349 28.1064 20.5945C28.1064 20.5945 28.1064 20.6744 28.1064 20.5945C28.0216 20.5945 28.0216 20.5945 28.0216 20.6743C28.0216 20.834 28.0216 20.9937 28.0216 21.1533C28.0216 21.2332 28.0216 21.2332 27.9368 21.2332C27.852 21.2332 27.6823 21.2332 27.5975 21.2332C27.4279 21.2332 27.3431 21.2332 27.1735 21.2332C26.8343 21.2332 26.5799 21.2332 26.2406 21.2332C25.647 21.2332 24.9685 21.2332 24.3749 21.2332C23.866 21.2332 23.442 21.2332 22.9332 21.2332C22.7635 21.2332 22.5091 21.2332 22.3395 21.2332C22.0851 21.2332 21.9155 21.2332 21.6611 21.2332C21.5763 21.2332 21.4914 21.2332 21.3218 21.313Z" fill="#1460D2"/>
<path d="M26.835 35.4429C26.835 35.6026 26.835 35.7623 26.835 35.9219C26.835 36.0816 26.835 36.0816 26.6654 36.0816C26.411 36.0816 26.2413 36.0816 25.9869 36.0816C25.5629 36.0816 25.2237 36.0816 24.7996 36.0816C24.5452 36.0816 24.206 36.0816 23.9516 36.0816C23.8668 36.0816 23.7819 36.0816 23.6971 36.1614C23.6123 36.2412 23.5275 36.2412 23.5275 36.1614C23.5275 36.1614 23.5275 36.0816 23.6123 36.0017C23.4427 36.0017 23.2731 36.0017 23.1883 36.0017C22.3402 36.0017 21.577 36.0017 20.7289 36.0017C20.5593 36.0017 20.4745 36.0017 20.3049 36.0816C20.3897 36.0816 20.3897 36.1614 20.4745 36.1614C20.8985 36.1614 21.3226 36.1614 21.6618 36.1614H21.7466C21.7466 36.2412 21.7466 36.2412 21.6618 36.2412C21.4922 36.2412 21.4074 36.3211 21.2377 36.3211C20.8137 36.3211 20.3897 36.3211 19.9656 36.3211C19.796 36.3211 19.5416 36.3211 19.372 36.3211C19.2872 36.3211 19.2872 36.3211 19.2024 36.2412C19.2024 36.1614 19.1176 36.1614 19.0328 36.1614C18.7783 36.1614 18.5239 36.1614 18.1847 36.1614C18.2695 36.1614 18.3543 36.1614 18.4391 36.2412H18.5239C18.3543 36.4009 18.2695 36.4009 18.1847 36.4009C17.9303 36.4009 17.7607 36.4009 17.5062 36.4009C17.4214 36.4009 17.4214 36.4009 17.3366 36.3211C17.3366 36.3211 17.4214 36.3211 17.5062 36.2412C17.4214 36.2412 17.3366 36.2412 17.3366 36.2412C17.2518 36.2412 17.2518 36.3211 17.2518 36.3211C17.2518 36.4009 17.2518 36.4009 17.167 36.4009C16.9974 36.4009 16.8278 36.4807 16.5734 36.4807C16.4038 36.4807 16.1493 36.4807 15.9797 36.4807C15.8101 36.4807 15.7253 36.4009 15.6405 36.3211C15.5557 36.2412 15.4709 36.0816 15.3861 36.0017C15.3013 36.0017 15.3013 35.9219 15.3013 35.8421C15.3013 32.9682 15.3013 30.0943 15.3013 27.3003C15.3013 27.0608 15.3861 26.9011 15.4709 26.7415C15.7253 25.9432 16.0645 25.2247 16.319 24.4264C16.4886 23.7878 16.743 23.229 16.9126 22.5903C16.9126 22.5105 16.9974 22.4307 16.9974 22.3508C16.9974 22.271 17.167 22.271 17.2518 22.271C17.6759 22.271 18.0151 22.271 18.4391 22.271C18.6935 22.271 18.8632 22.271 19.1176 22.271C21.6618 22.271 24.206 22.271 26.7502 22.271C26.835 22.271 26.9198 22.271 27.0046 22.3508C27.0894 22.4307 27.1742 22.5105 27.1742 22.5903C27.259 22.75 27.3438 22.9096 27.259 23.0693C27.1742 23.1491 27.1742 23.3088 27.259 23.3886C27.259 23.4684 27.259 23.5483 27.259 23.6281C27.259 23.9474 27.259 24.1869 27.259 24.5062C27.259 24.8256 27.259 25.065 27.259 25.3844C27.259 25.6239 27.259 25.8633 27.259 26.1028C27.259 26.7415 27.259 27.3801 27.259 28.0188C27.259 28.7372 27.259 29.4557 27.259 30.1742C27.259 30.4137 27.259 30.6531 27.259 30.8926C27.259 31.1321 27.259 31.3716 27.259 31.6111C27.259 31.7708 27.259 31.8506 27.259 32.0103C27.259 32.3296 27.259 32.6489 27.3438 32.8884C27.3438 33.048 27.3438 33.1279 27.3438 33.2875C27.3438 33.4472 27.3438 33.6068 27.259 33.7665C27.259 33.8463 27.259 33.8463 27.259 33.9262C27.259 34.1657 27.259 34.485 27.259 34.7245C27.259 34.964 27.259 35.1236 27.259 35.3631C27.259 35.4429 27.259 35.4429 27.259 35.5228C26.9198 35.5228 26.9198 35.5228 26.835 35.4429Z" fill="#1460D2"/>
<path d="M4.61531 9.57805C4.70012 9.81754 4.86973 9.89737 5.03935 10.057C5.20896 10.2965 5.37857 10.4562 5.54819 10.6957C5.7178 10.9352 5.88741 11.1747 6.14183 11.3343C6.39626 11.5738 6.56587 11.8931 6.82029 12.1326C7.07471 12.4519 7.24432 12.7712 7.58355 13.0107C7.75316 13.4099 8.09239 13.5695 8.51643 13.6494C8.85565 13.7292 9.11007 13.809 9.4493 13.8889C9.78853 13.9687 10.0429 14.0485 10.2974 14.2082C10.6366 14.3678 10.891 14.5275 11.1454 14.767C11.315 14.9267 11.5695 15.0863 11.7391 15.246C11.9935 15.4855 12.3327 15.725 12.5872 15.9644C12.9264 16.2838 13.2656 16.6829 13.6048 17.0821C13.7744 17.3216 13.9441 17.6409 14.0289 17.9602C14.0289 18.04 14.0289 18.1997 14.0289 18.3593C14.0289 18.6787 14.0289 18.9182 13.9441 19.2375C13.8593 19.477 13.6896 19.7165 13.6048 19.8761C13.52 20.1156 13.3504 20.2753 13.2656 20.5148C13.096 20.7542 13.0112 20.9937 13.0112 21.3131C12.9264 21.5525 12.9264 21.792 12.8416 22.0315C12.8416 22.1912 12.8416 22.3508 12.7568 22.4307C12.7568 22.5105 12.7568 22.5105 12.672 22.5105C12.2479 22.5105 11.9087 22.5105 11.4847 22.5105C10.891 22.5105 10.2974 22.5105 9.70372 22.5105C9.27969 22.5105 8.85565 22.5105 8.43162 22.5105H8.51643C8.77085 22.5105 9.02527 22.5105 9.19488 22.5105C9.19488 22.5105 9.36449 22.5105 9.27969 22.5903C9.27969 22.5903 9.19488 22.5903 9.11007 22.5903C8.94046 22.5903 8.77085 22.5903 8.51643 22.5903C8.00758 22.5903 7.49874 22.5903 6.9051 22.5903C6.82029 22.5903 6.65068 22.5903 6.56587 22.5105C6.56587 22.5105 6.48106 22.4307 6.48106 22.5105V22.5903C6.48106 22.5903 6.48106 22.5903 6.48106 22.6702C6.39626 22.75 6.39626 22.75 6.31145 22.75C6.31145 22.75 6.22664 22.75 6.22664 22.6702C6.22664 22.5105 6.05703 22.5105 5.97222 22.5105C5.54819 22.4307 5.03935 22.5105 4.61531 22.5105C4.53051 22.5105 4.4457 22.5105 4.27609 22.5105C4.36089 22.5105 4.4457 22.5903 4.4457 22.5903C4.4457 22.5903 4.53051 22.5903 4.53051 22.6702C4.53051 22.6702 4.53051 22.6702 4.4457 22.6702C4.36089 22.6702 4.36089 22.6702 4.27609 22.6702C3.76724 22.75 3.34321 22.75 2.83437 22.75C2.66476 22.75 2.57995 22.75 2.49514 22.5903L2.41034 22.5105C2.24072 22.4307 2.24072 22.271 2.24072 22.1114C2.24072 19.8761 2.24072 17.7207 2.24072 15.4855C2.24072 13.2502 2.24072 10.9352 2.24072 8.69992C2.24072 8.54026 2.24072 8.3806 2.41034 8.30077C2.57995 8.30077 2.66476 8.22094 2.74956 8.14111H2.83437C3.1736 8.14111 3.59763 8.14111 3.93686 8.14111C5.7178 8.14111 7.58355 8.14111 9.36449 8.14111C9.53411 8.14111 9.78853 8.14111 9.95814 8.14111C10.467 8.14111 10.9758 8.14111 11.4847 8.14111C11.9087 8.14111 12.4175 8.14111 12.8416 8.14111C13.3504 8.14111 13.8593 8.14111 14.2833 8.14111C14.3681 8.14111 14.4529 8.14111 14.4529 8.22094C14.5377 8.30077 14.7073 8.46043 14.7921 8.54026C14.8769 8.62009 14.8769 8.62009 14.8769 8.69992C14.8769 9.33856 14.8769 9.9772 14.8769 10.6158C14.8769 11.494 14.8769 12.3721 14.8769 13.2502C14.8769 13.4099 14.8769 13.5695 14.7921 13.7292C14.7921 13.7292 14.7921 13.809 14.7073 13.809C14.7073 13.809 14.6225 13.809 14.6225 13.7292C14.5377 13.6494 14.5377 13.5695 14.5377 13.4897C14.4529 13.2502 14.4529 12.9309 14.4529 12.6914C14.4529 12.3721 14.5377 12.1326 14.5377 11.8133C14.5377 11.494 14.6225 11.2545 14.4529 10.9352C14.3681 10.7755 14.2833 10.6957 14.1137 10.6158C13.9441 10.536 13.7744 10.4562 13.52 10.3764C13.096 10.2965 12.672 10.3764 12.3327 10.7755C12.1631 11.015 11.9935 11.3343 11.9087 11.6536C11.8239 11.973 11.8239 12.2923 11.9935 12.6116C12.0783 12.7712 12.1631 12.9309 12.3327 13.0906C12.4175 13.1704 12.5872 13.2502 12.672 13.4099C12.7568 13.4897 12.7568 13.4897 12.672 13.5695C12.672 13.5695 12.672 13.5695 12.5872 13.5695C12.4175 13.5695 12.1631 13.5695 11.9935 13.5695C11.4847 13.5695 10.9758 13.4897 10.5518 13.3301C10.1278 13.1704 9.70372 13.0107 9.27969 12.8511C8.85565 12.6914 8.34681 12.4519 7.83797 12.1326C7.49874 11.8931 7.15952 11.7335 6.82029 11.4141C6.48106 11.1747 6.14183 10.8553 5.97222 10.4562C5.97222 10.3764 5.88741 10.2965 5.80261 10.2167C5.80261 10.1369 5.7178 10.1369 5.7178 10.2167C5.54819 10.3764 5.54819 10.3764 5.37857 10.2167C5.20896 10.1369 5.03935 9.89737 4.78493 9.73771C4.78493 9.65788 4.70012 9.65788 4.61531 9.57805Z" fill="#1460D2"/>
<path d="M5.3806 22.5903C5.46541 22.5903 5.63502 22.5903 5.80464 22.5903C5.80464 22.5903 5.88944 22.5903 5.88944 22.6702L5.80464 22.75C5.55022 22.75 5.3806 22.75 5.12618 22.75C5.04138 22.75 4.95657 22.75 4.78696 22.6702C4.78696 22.6702 4.70215 22.6702 4.70215 22.5903C4.70215 22.5903 4.70215 22.5903 4.78696 22.5105C4.87176 22.4307 5.04138 22.4307 5.12618 22.4307C5.21099 22.5105 5.2958 22.5903 5.3806 22.5903Z" fill="#1460D2"/>
<path d="M19.119 36.3213C19.119 36.4012 19.119 36.4012 19.119 36.3213C19.0342 36.4012 18.9494 36.4012 18.8646 36.4012C18.8646 36.4012 18.7798 36.4012 18.7798 36.3213C18.7798 36.3213 18.7798 36.2415 18.8646 36.2415C18.9494 36.3213 19.0342 36.3213 19.119 36.3213Z" fill="#1460D2"/>
<path d="M19.8803 21.4721H19.7955C19.7107 21.3928 19.7107 21.3928 19.7955 21.3928C19.8803 21.3928 19.8803 21.3928 19.9652 21.3928L20.05 21.4721C20.05 21.4721 19.9652 21.4721 19.8803 21.4721Z" fill="#1460D2"/>
<path d="M11.3149 22.5908C11.3149 22.671 11.2297 22.671 11.2297 22.671C11.1445 22.671 11.1445 22.671 11.1445 22.5908C11.1445 22.5105 11.2297 22.5105 11.2297 22.5105C11.2297 22.5105 11.2297 22.5908 11.3149 22.5908Z" fill="#1460D2"/>
</svg>
