<svg width="276" height="43" viewBox="0 0 276 43" fill="none" xmlns="http://www.w3.org/2000/svg">
<path d="M32.9438 21.5265H36.3989L37.5647 18.8266H44.4323L45.5981 21.5265H49.1802L42.8425 7.63006H39.3875L32.9438 21.5265ZM38.6669 16.3054L41.0197 10.9057L43.3513 16.3054H38.6669Z" fill="#1460D2"/>
<path d="M50.7231 21.5265H60.431V18.7869H54.0721V7.63006H50.7231V21.5265Z" fill="#1460D2"/>
<path d="M61.3585 14.5584C61.3585 18.5884 64.7076 21.6655 69.1376 21.6655C71.2996 21.6655 73.5676 20.6927 75.1362 19.184L73.1649 17.1789C72.1051 18.1715 70.6425 18.8068 69.3072 18.8068C66.7636 18.8068 64.7923 16.9407 64.7923 14.5187C64.7923 12.0968 66.7636 10.2505 69.3072 10.2505C70.6849 10.2505 72.1475 10.9652 73.1649 12.0571L75.115 9.83364C73.6524 8.42414 71.4056 7.5308 69.2648 7.5308C64.7712 7.5308 61.3585 10.5483 61.3585 14.5584Z" fill="#1460D2"/>
<path d="M77.1357 21.5265H80.4848V16.0473H87.204V21.5265H90.553V7.63006H87.204V13.4269H80.4848V7.63006H77.1357V21.5265Z" fill="#1460D2"/>
<path d="M93.8196 21.5265H105.35V18.9259H97.1686V15.8488H104.333V13.2482H97.1686V10.2307H105.117V7.63006H93.8196V21.5265Z" fill="#1460D2"/>
<path d="M107.978 21.5265H111.327V17.5561H114.74L117.093 21.5265H120.887L117.728 16.9407C119.53 16.1466 120.505 14.5981 120.505 12.4541C120.505 9.37704 118.301 7.63006 114.422 7.63006H107.978V21.5265ZM111.327 14.9356V10.2307H114.422C116.266 10.2307 117.326 11.0049 117.326 12.5534C117.326 14.1415 116.266 14.9356 114.422 14.9356H111.327Z" fill="#1460D2"/>
<path d="M123.316 21.5265H126.665V7.63006H123.316V21.5265Z" fill="#1460D2"/>
<path d="M129.961 21.5265H133.162V12.6129L140.347 21.5265H143.399V7.63006H140.22V16.5635L133.013 7.63006H129.961V21.5265Z" fill="#1460D2"/>
<path d="M145.606 14.5783C145.606 18.6083 149.018 21.6655 153.512 21.6655C155.568 21.6655 157.963 20.931 159.532 19.8589V14.5187H156.628V18.1715C155.674 18.6281 154.614 18.9259 153.724 18.9259C151.096 18.9259 149.04 17.0399 149.04 14.5783C149.04 12.1365 151.074 10.2505 153.703 10.2505C155.144 10.2505 156.67 10.8461 157.772 11.799L159.659 9.55571C158.154 8.32488 155.907 7.5308 153.703 7.5308C149.082 7.5308 145.606 10.5682 145.606 14.5783Z" fill="#1460D2"/>
<path d="M160.764 21.5265H164.219L165.384 18.8266H172.252L173.418 21.5265H177L170.662 7.63006H167.207L160.764 21.5265ZM166.487 16.3054L168.839 10.9057L171.171 16.3054H166.487Z" fill="#1460D2"/>
<path d="M38.1627 29.3003V30.1888C37.8926 30.0481 37.6471 29.9513 37.4261 29.8985C37.2113 29.8399 36.935 29.8106 36.5974 29.8106C35.9774 29.8106 35.4587 30.0129 35.0413 30.4176C34.6301 30.8164 34.4244 31.3472 34.4244 32.0099C34.4244 32.6844 34.6301 33.2211 35.0413 33.6199C35.4526 34.0187 35.9959 34.2181 36.6711 34.2181C37.2665 34.2181 37.7668 34.0715 38.1719 33.7783V34.6932C37.7913 34.9337 37.2634 35.0539 36.5882 35.0539C35.6613 35.0539 34.9032 34.7783 34.3139 34.2269C33.7247 33.6756 33.43 32.9366 33.43 32.0099C33.43 31.1126 33.7247 30.3824 34.3139 29.8193C34.9094 29.2563 35.6613 28.9748 36.5698 28.9748C37.2327 28.9748 37.7637 29.0833 38.1627 29.3003Z" fill="#222121"/>
<path d="M43.5258 32.7753H45.5147L45.4134 32.4762C45.1801 31.7841 44.9899 31.2123 44.8425 30.7607C44.6952 30.3032 44.6062 30.0188 44.5755 29.9073L44.5295 29.7402C44.462 30.0158 44.1612 30.9278 43.6271 32.4762L43.5258 32.7753ZM46.2605 34.9835L45.7725 33.5319H43.268L42.7708 34.9835H41.7672L43.9126 29.054H45.1556L47.2733 34.9835H46.2605Z" fill="#222121"/>
<path d="M51.0499 34.9835L51.5287 29.054H52.652L53.4807 31.2182C53.628 31.5877 53.7753 31.9806 53.9227 32.397C54.07 32.8076 54.1805 33.1272 54.2541 33.356L54.3738 33.6991C54.6562 32.9014 54.9662 32.0745 55.3038 31.2182L56.1693 29.054H57.2926L57.8635 34.9835H56.9243L56.7034 32.661L56.51 30.2856C56.2338 31.0305 55.933 31.8223 55.6077 32.661L54.7421 34.8692H53.9963L53.1584 32.661L52.3205 30.3208C52.3205 30.5789 52.2714 31.3589 52.1732 32.661L51.9891 34.9835H51.0499Z" fill="#222121"/>
<path d="M62.9752 32.1331H63.7855C64.2336 32.1331 64.5743 32.0275 64.8076 31.8164C65.0469 31.6053 65.1666 31.3267 65.1666 30.9806C65.1666 30.617 65.0469 30.3296 64.8076 30.1185C64.5682 29.9073 64.2213 29.8018 63.7671 29.8018H62.9752V32.1331ZM62.0269 29.054H63.8039C64.516 29.054 65.0807 29.2358 65.4981 29.5994C65.9155 29.9572 66.1242 30.4176 66.1242 30.9806C66.1242 31.5437 65.9125 32.0011 65.4889 32.3531C65.0715 32.705 64.5283 32.8809 63.8592 32.8809H62.9752V34.9835H62.0269V29.054Z" fill="#222121"/>
<path d="M73.7187 32.7313V29.054H74.6671V32.7138C74.6671 33.4821 74.4584 34.0656 74.041 34.4645C73.6236 34.8633 73.0465 35.0627 72.3099 35.0627C71.5856 35.0627 71.0147 34.8692 70.5973 34.4821C70.1799 34.0891 69.9712 33.5231 69.9712 32.7841V29.054H70.9196V32.7753C70.9196 33.2797 71.0454 33.6492 71.2971 33.8838C71.5549 34.1126 71.8925 34.2269 72.3099 34.2269C73.2491 34.2269 73.7187 33.7284 73.7187 32.7313Z" fill="#222121"/>
<path d="M82.2481 29.2915V30.1888C81.8368 29.9425 81.3703 29.8193 80.8485 29.8193C80.5109 29.8193 80.2439 29.8927 80.0475 30.0393C79.8572 30.18 79.7621 30.3677 79.7621 30.6023C79.7621 30.8369 79.8572 31.0246 80.0475 31.1654C80.2378 31.3061 80.5294 31.4586 80.9222 31.6229C81.18 31.7284 81.3795 31.8193 81.5207 31.8956C81.668 31.9718 81.8338 32.0803 82.0179 32.2211C82.2082 32.356 82.3463 32.5202 82.4323 32.7138C82.5243 32.9014 82.5704 33.1184 82.5704 33.3648C82.5704 33.8868 82.377 34.2973 81.9903 34.5964C81.6036 34.8956 81.1033 35.0451 80.4895 35.0451C79.8081 35.0451 79.2434 34.919 78.7953 34.6668V33.7255C79.2802 34.0715 79.8419 34.2445 80.4802 34.2445C80.8179 34.2445 81.0849 34.1712 81.2813 34.0246C81.4777 33.8721 81.576 33.6639 81.576 33.4C81.576 33.2416 81.5176 33.0979 81.401 32.9689C81.2844 32.834 81.1585 32.7343 81.0235 32.6698C80.8884 32.5994 80.6859 32.5055 80.4158 32.3882C80.2562 32.3179 80.1426 32.268 80.0751 32.2387C80.0137 32.2094 79.9094 32.1566 79.7621 32.0803C79.6147 32.0041 79.5042 31.9396 79.4306 31.8868C79.3631 31.834 79.2771 31.7607 79.1728 31.6668C79.0684 31.573 78.9917 31.4792 78.9426 31.3853C78.8996 31.2915 78.8566 31.183 78.8137 31.0598C78.7768 30.9308 78.7584 30.7929 78.7584 30.6463C78.7584 30.1419 78.9487 29.7431 79.3293 29.4499C79.716 29.1566 80.2132 29.01 80.8209 29.01C81.3795 29.01 81.8552 29.1038 82.2481 29.2915Z" fill="#222121"/>
<path d="M93.1368 32.7753H95.1256L95.0244 32.4762C94.7911 31.7841 94.6008 31.2123 94.4535 30.7607C94.3062 30.3032 94.2172 30.0188 94.1865 29.9073L94.1404 29.7402C94.0729 30.0158 93.7721 30.9278 93.2381 32.4762L93.1368 32.7753ZM95.8715 34.9835L95.3835 33.5319H92.879L92.3818 34.9835H91.3782L93.5235 29.054H94.7665L96.8843 34.9835H95.8715Z" fill="#222121"/>
<path d="M100.661 34.9835L101.14 29.054H102.263L103.092 31.2182C103.239 31.5877 103.386 31.9806 103.534 32.397C103.681 32.8076 103.791 33.1272 103.865 33.356L103.985 33.6991C104.267 32.9014 104.577 32.0745 104.915 31.2182L105.78 29.054H106.904L107.474 34.9835H106.535L106.314 32.661L106.121 30.2856C105.845 31.0305 105.544 31.8223 105.219 32.661L104.353 34.8692H103.607L102.769 32.661L101.931 30.3208C101.931 30.5789 101.882 31.3589 101.784 32.661L101.6 34.9835H100.661Z" fill="#222121"/>
<path d="M112.586 34.2357H113.802C114.581 34.2357 114.971 33.9278 114.971 33.312C114.971 33.0129 114.864 32.7812 114.649 32.617C114.44 32.4469 114.127 32.3619 113.71 32.3619H112.586V34.2357ZM112.586 29.8018V31.6229H113.442C113.903 31.6229 114.244 31.5349 114.465 31.3589C114.692 31.1771 114.805 30.9425 114.805 30.6551C114.805 30.4029 114.704 30.1976 114.501 30.0393C114.305 29.8809 114.004 29.8018 113.599 29.8018H112.586ZM111.638 29.054H113.673C114.323 29.054 114.836 29.2006 115.21 29.4938C115.585 29.7812 115.772 30.1625 115.772 30.6375C115.772 30.966 115.674 31.2534 115.477 31.4997C115.287 31.746 115.042 31.9044 114.741 31.9748C115.078 32.0334 115.361 32.183 115.588 32.4234C115.821 32.6639 115.938 32.9865 115.938 33.3912C115.938 33.8604 115.769 34.2445 115.431 34.5437C115.1 34.8369 114.63 34.9835 114.023 34.9835H111.638V29.054Z" fill="#222121"/>
<path d="M121.26 32.7753H123.249L123.148 32.4762C122.915 31.7841 122.724 31.2123 122.577 30.7607C122.43 30.3032 122.341 30.0188 122.31 29.9073L122.264 29.7402C122.196 30.0158 121.896 30.9278 121.362 32.4762L121.26 32.7753ZM123.995 34.9835L123.507 33.5319H121.002L120.505 34.9835H119.502L121.647 29.054H122.89L125.008 34.9835H123.995Z" fill="#222121"/>
<path d="M132.219 29.2915V30.1888C131.807 29.9425 131.341 29.8193 130.819 29.8193C130.482 29.8193 130.215 29.8927 130.018 30.0393C129.828 30.18 129.733 30.3677 129.733 30.6023C129.733 30.8369 129.828 31.0246 130.018 31.1654C130.208 31.3061 130.5 31.4586 130.893 31.6229C131.151 31.7284 131.35 31.8193 131.491 31.8956C131.639 31.9718 131.804 32.0803 131.989 32.2211C132.179 32.356 132.317 32.5202 132.403 32.7138C132.495 32.9014 132.541 33.1184 132.541 33.3648C132.541 33.8868 132.348 34.2973 131.961 34.5964C131.574 34.8956 131.074 35.0451 130.46 35.0451C129.779 35.0451 129.214 34.919 128.766 34.6668V33.7255C129.251 34.0715 129.812 34.2445 130.451 34.2445C130.788 34.2445 131.056 34.1712 131.252 34.0246C131.448 33.8721 131.547 33.6639 131.547 33.4C131.547 33.2416 131.488 33.0979 131.372 32.9689C131.255 32.834 131.129 32.7343 130.994 32.6698C130.859 32.5994 130.657 32.5055 130.386 32.3882C130.227 32.3179 130.113 32.268 130.046 32.2387C129.984 32.2094 129.88 32.1566 129.733 32.0803C129.585 32.0041 129.475 31.9396 129.401 31.8868C129.334 31.834 129.248 31.7607 129.143 31.6668C129.039 31.573 128.962 31.4792 128.913 31.3853C128.87 31.2915 128.827 31.183 128.784 31.0598C128.747 30.9308 128.729 30.7929 128.729 30.6463C128.729 30.1419 128.919 29.7431 129.3 29.4499C129.687 29.1566 130.184 29.01 130.792 29.01C131.35 29.01 131.826 29.1038 132.219 29.2915Z" fill="#222121"/>
<path d="M139.921 29.2915V30.1888C139.509 29.9425 139.043 29.8193 138.521 29.8193C138.184 29.8193 137.917 29.8927 137.72 30.0393C137.53 30.18 137.435 30.3677 137.435 30.6023C137.435 30.8369 137.53 31.0246 137.72 31.1654C137.91 31.3061 138.202 31.4586 138.595 31.6229C138.853 31.7284 139.052 31.8193 139.193 31.8956C139.341 31.9718 139.506 32.0803 139.691 32.2211C139.881 32.356 140.019 32.5202 140.105 32.7138C140.197 32.9014 140.243 33.1184 140.243 33.3648C140.243 33.8868 140.05 34.2973 139.663 34.5964C139.276 34.8956 138.776 35.0451 138.162 35.0451C137.481 35.0451 136.916 34.919 136.468 34.6668V33.7255C136.953 34.0715 137.514 34.2445 138.153 34.2445C138.49 34.2445 138.758 34.1712 138.954 34.0246C139.15 33.8721 139.249 33.6639 139.249 33.4C139.249 33.2416 139.19 33.0979 139.074 32.9689C138.957 32.834 138.831 32.7343 138.696 32.6698C138.561 32.5994 138.359 32.5055 138.088 32.3882C137.929 32.3179 137.815 32.268 137.748 32.2387C137.686 32.2094 137.582 32.1566 137.435 32.0803C137.287 32.0041 137.177 31.9396 137.103 31.8868C137.036 31.834 136.95 31.7607 136.845 31.6668C136.741 31.573 136.664 31.4792 136.615 31.3853C136.572 31.2915 136.529 31.183 136.486 31.0598C136.449 30.9308 136.431 30.7929 136.431 30.6463C136.431 30.1419 136.621 29.7431 137.002 29.4499C137.389 29.1566 137.886 29.01 138.494 29.01C139.052 29.01 139.528 29.1038 139.921 29.2915Z" fill="#222121"/>
<path d="M145.643 32.7753H147.632L147.531 32.4762C147.297 31.7841 147.107 31.2123 146.96 30.7607C146.812 30.3032 146.723 30.0188 146.693 29.9073L146.647 29.7402C146.579 30.0158 146.278 30.9278 145.744 32.4762L145.643 32.7753ZM148.378 34.9835L147.89 33.5319H145.385L144.888 34.9835H143.884L146.03 29.054H147.273L149.391 34.9835H148.378Z" fill="#222121"/>
<path d="M154.217 34.2181H155.193C155.899 34.2181 156.436 34.007 156.804 33.5847C157.172 33.1624 157.357 32.6199 157.357 31.9572C157.357 31.3472 157.157 30.8399 156.758 30.4352C156.359 30.0305 155.828 29.8281 155.165 29.8281H154.217V34.2181ZM153.25 29.054H155.184C156.104 29.054 156.859 29.3267 157.449 29.8721C158.038 30.4176 158.333 31.1126 158.333 31.9572C158.333 32.8369 158.053 33.5613 157.495 34.1302C156.942 34.6991 156.178 34.9835 155.202 34.9835H153.25V29.054Z" fill="#222121"/>
<path d="M162.043 31.9924C162.043 31.0715 162.301 30.3325 162.817 29.7754C163.332 29.2182 164.023 28.9396 164.888 28.9396C165.772 28.9396 166.469 29.2182 166.978 29.7754C167.488 30.3267 167.743 31.0657 167.743 31.9924C167.743 32.919 167.485 33.661 166.969 34.2181C166.46 34.7753 165.769 35.0539 164.898 35.0539C164.032 35.0539 163.338 34.7753 162.817 34.2181C162.301 33.661 162.043 32.919 162.043 31.9924ZM163.526 30.3824C163.2 30.7754 163.038 31.312 163.038 31.9924C163.038 32.6727 163.206 33.2123 163.544 33.6111C163.882 34.0099 164.333 34.2093 164.898 34.2093C165.481 34.2093 165.935 34.0129 166.26 33.6199C166.586 33.2269 166.748 32.6844 166.748 31.9924C166.748 31.3061 166.583 30.7666 166.251 30.3736C165.926 29.9806 165.471 29.7842 164.888 29.7842C164.311 29.7842 163.857 29.9836 163.526 30.3824Z" fill="#222121"/>
<path d="M172.687 29.8106V31.9748H173.543C173.936 31.9748 174.233 31.878 174.436 31.6844C174.639 31.485 174.74 31.2211 174.74 30.8927C174.74 30.1713 174.326 29.8106 173.497 29.8106H172.687ZM174.961 34.9835L173.506 32.7313H172.687V34.9835H171.738V29.054H173.469C174.181 29.054 174.731 29.2211 175.117 29.5554C175.504 29.8839 175.697 30.3325 175.697 30.9015C175.691 31.3179 175.581 31.6727 175.366 31.966C175.151 32.2533 174.853 32.4616 174.473 32.5906L176.093 34.9835H174.961Z" fill="#222121"/>
<path d="M14.369 37.0396C14.2842 36.9598 14.369 36.8001 14.2842 36.7203C14.2842 36.8001 14.1994 36.88 14.1994 36.9598C14.1994 37.0396 14.1994 37.1194 14.1994 37.1993C14.1994 37.3589 14.1994 37.3589 14.0298 37.3589C13.945 37.3589 13.8602 37.3589 13.8602 37.3589C13.6906 37.3589 13.521 37.3589 13.3514 37.4388C13.1817 37.4388 13.0121 37.5186 12.9273 37.5186C12.7577 37.5186 12.5881 37.5186 12.4185 37.5186C12.1641 37.5186 11.9944 37.5186 11.74 37.5186C11.4008 37.5186 11.0616 37.5186 10.7223 37.5186C10.7223 37.5186 10.7223 37.5186 10.7223 37.5984C10.7223 37.5984 10.8071 37.6783 10.7223 37.6783C10.7223 37.6783 10.6375 37.6783 10.6375 37.5984C10.5527 37.5984 10.6375 37.5186 10.6375 37.5186C10.3831 37.5186 10.0439 37.5186 9.78947 37.5186C9.53505 37.5186 9.28063 37.5186 9.11101 37.5186C8.9414 37.5186 8.77179 37.5186 8.60217 37.5186H8.51736C8.43256 37.5984 8.34775 37.5984 8.26294 37.5984C7.7541 37.5984 7.24526 37.5984 6.82123 37.5984C6.482 37.5984 6.22758 37.5984 5.88835 37.5984C5.71874 37.5984 5.54913 37.5984 5.46432 37.5984H5.37951C5.2099 37.5186 5.04029 37.5186 4.95548 37.6783C4.95548 37.6783 4.87067 37.7581 4.87067 37.6783C4.70106 37.6783 4.53145 37.6783 4.36183 37.6783C4.27703 37.6783 4.10741 37.6783 4.0226 37.6783C4.0226 37.6783 3.9378 37.6783 3.9378 37.5984C3.85299 37.5186 3.68338 37.5186 3.51376 37.5186C3.51376 37.5984 3.59857 37.5984 3.59857 37.5984C3.59857 37.6783 3.51376 37.5984 3.42896 37.5984C2.92012 37.5984 2.32647 37.5984 1.81763 37.5984C1.64801 37.5984 1.4784 37.5984 1.22398 37.5984C0.96956 37.5984 0.799946 37.5984 0.545526 37.5186C0.460719 37.5186 0.460719 37.5186 0.460719 37.4388C0.375912 37.3589 0.291106 37.1993 0.206299 37.1195C0.206299 37.1195 0.206299 37.0396 0.206299 36.9598C0.206299 35.5229 0.206299 34.0061 0.206299 32.5691C0.206299 31.2919 0.206299 29.9348 0.206299 28.6575C0.206299 28.3382 0.206299 28.0987 0.206299 27.7793C0.206299 27.6197 0.206299 27.46 0.206299 27.3004C0.206299 27.2205 0.206299 27.0609 0.206299 26.981C0.206299 26.8214 0.206299 26.7416 0.206299 26.5819V26.5021C0.206299 26.2626 0.206299 26.0231 0.206299 25.7836C0.206299 25.7038 0.206299 25.5441 0.206299 25.4643V25.3844C0.291106 25.3046 0.291106 25.3046 0.291106 25.2248V25.145C0.291106 24.9853 0.291106 24.7458 0.206299 24.5861C0.206299 24.5063 0.206299 24.4265 0.206299 24.3467C0.206299 24.1072 0.206299 23.9475 0.206299 23.708V23.6282C0.375912 23.4685 0.460719 23.3887 0.630333 23.229C0.71514 23.229 0.71514 23.1492 0.799946 23.1492C1.22398 23.1492 1.64801 23.1492 2.07205 23.1492C3.42896 23.1492 4.70106 23.1492 6.05797 23.1492C6.56681 23.1492 7.07565 23.1492 7.58449 23.1492C7.92372 23.1492 8.26295 23.1492 8.60217 23.1492C8.85659 23.1492 9.11101 23.1492 9.36543 23.1492C9.61985 23.1492 9.78947 23.1492 10.0439 23.1492C10.3831 23.1492 10.7223 23.1492 11.0616 23.1492C11.5704 23.1492 12.0792 23.1492 12.6729 23.1492C12.8425 23.1492 12.8425 23.1492 12.8425 23.3089C12.8425 23.4685 12.8425 23.6282 12.7577 23.7878C12.7577 23.9475 12.6729 24.187 12.6729 24.3467C12.6729 24.5063 12.5881 24.7458 12.5881 24.9055C12.5033 25.145 12.5033 25.3046 12.4185 25.5441C12.3337 25.8634 12.2489 26.1827 12.1641 26.5021C12.0793 26.981 11.9096 27.3802 11.74 27.7793C11.5704 28.2583 11.316 28.6575 10.9768 29.0566C10.8071 29.2961 10.5527 29.6154 10.3831 29.8549C10.0439 30.2541 9.70466 30.5734 9.28063 30.9725C9.11101 31.1322 8.85659 31.3717 8.68698 31.5314C8.51736 31.691 8.26294 31.9305 8.09333 32.0902C7.92372 32.2498 7.7541 32.4095 7.49968 32.5691C7.16046 32.8086 6.90604 33.128 6.56681 33.4473C6.482 33.5271 6.39719 33.5271 6.39719 33.4473C6.31239 33.3674 6.22758 33.3674 6.14277 33.4473C5.97316 33.6069 5.80355 33.8464 5.71874 34.0061C5.46432 34.3254 5.29471 34.7246 5.12509 35.0439C4.95548 35.2834 4.87067 35.6027 4.87067 35.8422C4.87067 36.0817 4.87067 36.401 4.95548 36.6405C5.04029 36.8001 5.12509 36.88 5.29471 37.0396C5.37951 37.0396 5.37951 37.0396 5.46432 36.9598C5.63393 36.7203 5.71874 36.4808 5.88835 36.3212C6.14277 35.8422 6.39719 35.3632 6.73642 34.8842C6.56681 34.8044 6.82123 34.5649 6.99084 34.3254C7.16046 34.0859 7.41488 33.9263 7.58449 33.6868C7.83891 33.4473 8.09333 33.2078 8.34775 32.9683C8.51736 32.7288 8.77179 32.5691 9.02621 32.4095C9.45024 32.0103 9.95908 31.691 10.4679 31.3717C10.7223 31.212 11.0616 30.9725 11.316 30.8129C11.4008 30.8129 11.4008 30.8129 11.4008 30.8927C11.4856 31.212 11.4856 31.5314 11.4008 31.8507C11.316 32.3297 11.1464 32.8086 11.0616 33.2876C10.9768 33.6069 10.892 33.9263 10.8071 34.2456C10.8071 34.3254 10.8071 34.4052 10.8071 34.5649C10.8071 34.8044 10.7223 34.964 10.6375 35.1237C10.5527 35.2035 10.5527 35.2834 10.4679 35.3632C10.3831 35.5229 10.4679 35.6027 10.5527 35.6825C10.7223 35.8422 10.892 36.0018 11.0616 36.0817C11.4856 36.3211 11.8248 36.5606 12.2489 36.8001C12.5033 36.88 12.7577 37.0396 13.0121 37.0396C13.2665 37.1194 13.521 37.1194 13.7754 37.0396C13.7754 37.0396 13.8602 37.0396 13.8602 36.9598C13.8602 36.88 13.7754 36.88 13.7754 36.8001C13.6058 36.6405 13.3514 36.4808 13.0969 36.401C12.8425 36.2413 12.5881 36.0817 12.4185 35.922C12.2489 35.7623 12.0793 35.5228 11.9944 35.2834C11.9096 35.1237 11.9096 35.0439 11.9096 34.8842C11.9096 34.3254 11.9944 33.8464 12.1641 33.3674C12.2489 32.9683 12.4185 32.4893 12.5881 32.0902C12.7577 31.7708 12.9273 31.4515 13.0969 31.1322C13.4362 30.4936 13.6906 29.9348 14.0298 29.2961C14.1146 29.1365 14.1994 29.0566 14.1994 28.897L14.2842 28.8171V28.897C14.2842 29.6953 14.2842 30.5734 14.2842 31.3717C14.2842 32.17 14.2842 32.9683 14.2842 33.7666C14.2842 34.0061 14.2842 34.3254 14.2842 34.5649C14.2842 34.6447 14.2842 34.8044 14.2842 34.8842C14.2842 35.0439 14.2842 35.2035 14.2842 35.2834C14.2842 35.6027 14.2842 35.922 14.2842 36.2413C14.369 36.6405 14.4538 36.8001 14.369 37.0396ZM0.375912 35.922C0.291106 35.7623 0.291106 35.8422 0.375912 35.922C0.291106 35.8422 0.206299 35.922 0.206299 35.922C0.206299 35.922 0.206299 35.922 0.375912 35.922C0.291106 35.922 0.291106 35.922 0.375912 35.922Z" fill="#1460D2"/>
<path d="M21.322 21.3131C21.8309 21.3131 22.1701 21.3131 22.5941 21.3131H22.6789C22.5941 21.3131 22.5941 21.3131 22.5093 21.3131C22.3397 21.3131 22.0853 21.3131 21.9157 21.3131C21.5765 21.3131 21.322 21.3131 20.9828 21.3131C20.8132 21.3131 20.6436 21.3131 20.3892 21.3131C20.3043 21.3131 20.2195 21.3131 20.1347 21.2333C20.1347 21.1534 20.0499 21.1534 19.9651 21.1534C19.6259 21.1534 19.3715 21.1534 19.0322 21.1534C19.1171 21.1534 19.2867 21.1534 19.3715 21.2333C19.1171 21.3929 18.269 21.3929 18.1842 21.2333C18.269 21.2333 18.3538 21.2333 18.4386 21.1534C18.269 21.0736 17.9298 21.0736 17.845 21.1534L17.9298 21.2333C18.0146 21.3131 17.9298 21.3131 17.9298 21.3131C17.7601 21.3131 17.5057 21.3131 17.3361 21.3131C17.2513 21.3131 17.2513 21.2333 17.2513 21.2333C17.2513 21.1534 17.2513 20.9938 17.2513 20.9139C17.2513 20.7543 17.3361 20.5946 17.3361 20.435C17.3361 20.2753 17.4209 20.1156 17.4209 19.956C17.4209 19.7963 17.4209 19.6367 17.5057 19.477C17.5057 19.3173 17.5905 19.0779 17.5905 18.9182C17.5905 18.8384 17.5905 18.7585 17.5905 18.6787C17.5905 18.519 17.5905 18.3594 17.5905 18.1997C17.5905 17.7207 17.5905 17.1619 17.5905 16.683C17.5905 16.4435 17.5905 16.204 17.5905 15.9645C17.5905 15.725 17.5905 15.4855 17.5905 15.246C17.5905 14.9267 17.6753 14.6074 17.845 14.2881C18.0146 13.8889 18.269 13.5696 18.4386 13.2503C18.693 12.8511 18.8626 12.452 19.1171 12.0528C19.3715 11.6537 19.5411 11.2545 19.7107 10.7755C19.9651 10.2966 20.1347 9.81758 20.3892 9.3386C20.5588 8.93945 20.7284 8.5403 20.8132 8.14115C20.898 7.90166 20.9828 7.66217 20.9828 7.42268C20.898 7.42268 20.898 7.50251 20.8132 7.58234C20.7284 7.98149 20.5588 8.38064 20.3043 8.69996C20.2195 8.85962 19.9651 8.85962 19.7955 8.85962C19.7955 8.85962 19.7107 8.85962 19.6259 8.85962C19.6259 8.85962 19.5411 8.85962 19.5411 8.93945V9.01928C19.5411 9.49826 19.4563 9.89741 19.2867 10.2966C19.2019 10.5361 19.0322 10.7755 18.9474 11.0949C18.693 11.5738 18.4386 11.973 18.0994 12.452C17.9298 12.6915 17.7601 12.8511 17.5905 13.0906C17.5057 13.1704 17.4209 13.3301 17.2513 13.4099C16.9969 13.6494 16.6577 13.8889 16.1488 14.0486C16.1488 14.0486 16.064 14.0486 15.9792 14.0486C15.9792 13.9687 15.9792 13.9687 15.9792 13.8889C15.9792 11.973 15.9792 10.0571 15.9792 8.06132C15.9792 7.90166 15.9792 7.742 15.9792 7.58234C15.9792 7.42268 15.9792 7.26302 16.1488 7.18319C16.2336 7.10336 16.3184 7.02353 16.4032 6.9437C16.3184 6.86387 16.4032 6.86387 16.488 6.86387C16.9969 6.86387 17.5057 6.86387 18.0146 6.86387C19.1171 6.86387 20.2195 6.86387 21.322 6.86387C22.6789 6.86387 24.1207 6.86387 25.4776 6.86387C26.2408 6.86387 27.0041 6.86387 27.7673 6.86387C27.8522 6.86387 28.0218 6.86387 28.1066 7.02353C28.1914 7.10336 28.361 7.26302 28.4458 7.34285C28.5306 7.42268 28.5306 7.42268 28.361 7.50251C28.2762 7.50251 28.2762 7.50251 28.2762 7.58234C28.2762 7.82183 28.2762 7.98149 28.2762 8.22098C28.2762 8.46047 28.2762 8.69996 28.2762 8.93945C28.2762 9.09911 28.1914 9.3386 28.1914 9.49826C28.1914 9.57809 28.1914 9.73775 28.1914 9.81758C28.1914 10.3764 28.1914 10.9352 28.1914 11.5738C28.1914 13.0906 28.1914 14.5275 28.1914 16.0443C28.1914 16.5233 28.1914 17.0023 28.1914 17.4813C28.1914 17.7207 28.2762 17.9602 28.2762 18.1997C28.2762 18.2796 28.2762 18.4392 28.2762 18.519C28.1914 18.7585 28.1914 18.998 28.1914 19.2375C28.1914 19.477 28.1914 19.7963 28.1914 20.0358C28.1914 20.1955 28.1914 20.435 28.1066 20.5946C28.1066 20.5946 28.1066 20.6745 28.1066 20.5946C28.0218 20.5946 28.0218 20.5946 28.0218 20.6745C28.0218 20.8341 28.0218 20.9938 28.0218 21.1534C28.0218 21.2333 28.0218 21.2333 27.937 21.2333C27.8522 21.2333 27.6825 21.2333 27.5977 21.2333C27.4281 21.2333 27.3433 21.2333 27.1737 21.2333C26.8345 21.2333 26.5801 21.2333 26.2408 21.2333C25.6472 21.2333 24.9687 21.2333 24.3751 21.2333C23.8662 21.2333 23.4422 21.2333 22.9334 21.2333C22.7637 21.2333 22.5093 21.2333 22.3397 21.2333C22.0853 21.2333 21.9157 21.2333 21.6613 21.2333C21.5765 21.2333 21.4916 21.2333 21.322 21.3131Z" fill="#1460D2"/>
<path d="M26.835 35.4431C26.835 35.6027 26.835 35.7624 26.835 35.922C26.835 36.0817 26.835 36.0817 26.6654 36.0817C26.411 36.0817 26.2413 36.0817 25.9869 36.0817C25.5629 36.0817 25.2237 36.0817 24.7996 36.0817C24.5452 36.0817 24.206 36.0817 23.9516 36.0817C23.8667 36.0817 23.7819 36.0817 23.6971 36.1615C23.6123 36.2414 23.5275 36.2414 23.5275 36.1615C23.5275 36.1615 23.5275 36.0817 23.6123 36.0019C23.4427 36.0019 23.2731 36.0019 23.1883 36.0019C22.3402 36.0019 21.577 36.0019 20.7289 36.0019C20.5593 36.0019 20.4745 36.0019 20.3049 36.0817C20.3897 36.0817 20.3897 36.1615 20.4745 36.1615C20.8985 36.1615 21.3225 36.1615 21.6618 36.1615H21.7466C21.7466 36.2414 21.7466 36.2414 21.6618 36.2414C21.4922 36.2414 21.4074 36.3212 21.2377 36.3212C20.8137 36.3212 20.3897 36.3212 19.9656 36.3212C19.796 36.3212 19.5416 36.3212 19.372 36.3212C19.2872 36.3212 19.2872 36.3212 19.2024 36.2414C19.2024 36.1615 19.1176 36.1615 19.0328 36.1615C18.7783 36.1615 18.5239 36.1615 18.1847 36.1615C18.2695 36.1615 18.3543 36.1615 18.4391 36.2414H18.5239C18.3543 36.401 18.2695 36.401 18.1847 36.401C17.9303 36.401 17.7607 36.401 17.5062 36.401C17.4214 36.401 17.4214 36.401 17.3366 36.3212C17.3366 36.3212 17.4214 36.3212 17.5062 36.2414C17.4214 36.2414 17.3366 36.2414 17.3366 36.2414C17.2518 36.2414 17.2518 36.3212 17.2518 36.3212C17.2518 36.401 17.2518 36.401 17.167 36.401C16.9974 36.401 16.8278 36.4808 16.5734 36.4808C16.4038 36.4808 16.1493 36.4808 15.9797 36.4808C15.8101 36.4808 15.7253 36.401 15.6405 36.3212C15.5557 36.2414 15.4709 36.0817 15.3861 36.0019C15.3013 36.0019 15.3013 35.922 15.3013 35.8422C15.3013 32.9683 15.3013 30.0945 15.3013 27.3004C15.3013 27.0609 15.3861 26.9013 15.4709 26.7416C15.7253 25.9433 16.0645 25.2248 16.3189 24.4265C16.4886 23.7879 16.743 23.2291 16.9126 22.5904C16.9126 22.5106 16.9974 22.4308 16.9974 22.3509C16.9974 22.2711 17.167 22.2711 17.2518 22.2711C17.6759 22.2711 18.0151 22.2711 18.4391 22.2711C18.6935 22.2711 18.8631 22.2711 19.1176 22.2711C21.6618 22.2711 24.206 22.2711 26.7502 22.2711C26.835 22.2711 26.9198 22.2711 27.0046 22.3509C27.0894 22.4308 27.1742 22.5106 27.1742 22.5904C27.259 22.7501 27.3438 22.9098 27.259 23.0694C27.1742 23.1492 27.1742 23.3089 27.259 23.3887C27.259 23.4686 27.259 23.5484 27.259 23.6282C27.259 23.9475 27.259 24.187 27.259 24.5064C27.259 24.8257 27.259 25.0652 27.259 25.3845C27.259 25.624 27.259 25.8635 27.259 26.103C27.259 26.7416 27.259 27.3802 27.259 28.0189C27.259 28.7373 27.259 29.4558 27.259 30.1743C27.259 30.4138 27.259 30.6533 27.259 30.8928C27.259 31.1322 27.259 31.3717 27.259 31.6112C27.259 31.7709 27.259 31.8507 27.259 32.0104C27.259 32.3297 27.259 32.649 27.3438 32.8885C27.3438 33.0482 27.3438 33.128 27.3438 33.2877C27.3438 33.4473 27.3438 33.607 27.259 33.7666C27.259 33.8465 27.259 33.8465 27.259 33.9263C27.259 34.1658 27.259 34.4851 27.259 34.7246C27.259 34.9641 27.259 35.1237 27.259 35.3632C27.259 35.4431 27.259 35.4431 27.259 35.5229C26.9198 35.5229 26.9198 35.5229 26.835 35.4431Z" fill="#1460D2"/>
<path d="M4.61533 9.57805C4.70013 9.81754 4.86975 9.89737 5.03936 10.057C5.20898 10.2965 5.37859 10.4562 5.5482 10.6957C5.71782 10.9352 5.88743 11.1747 6.14185 11.3343C6.39627 11.5738 6.56588 11.8931 6.8203 12.1326C7.07473 12.4519 7.24434 12.7712 7.58357 13.0107C7.75318 13.4099 8.09241 13.5695 8.51644 13.6494C8.85567 13.7292 9.11009 13.809 9.44932 13.8889C9.78854 13.9687 10.043 14.0485 10.2974 14.2082C10.6366 14.3678 10.891 14.5275 11.1455 14.767C11.3151 14.9267 11.5695 15.0863 11.7391 15.246C11.9935 15.4855 12.3327 15.725 12.5872 15.9644C12.9264 16.2838 13.2656 16.6829 13.6048 17.0821C13.7745 17.3216 13.9441 17.6409 14.0289 17.9602C14.0289 18.04 14.0289 18.1997 14.0289 18.3593C14.0289 18.6787 14.0289 18.9182 13.9441 19.2375C13.8593 19.477 13.6897 19.7165 13.6048 19.8761C13.52 20.1156 13.3504 20.2753 13.2656 20.5148C13.096 20.7542 13.0112 20.9937 13.0112 21.3131C12.9264 21.5525 12.9264 21.792 12.8416 22.0315C12.8416 22.1912 12.8416 22.3508 12.7568 22.4307C12.7568 22.5105 12.7568 22.5105 12.672 22.5105C12.2479 22.5105 11.9087 22.5105 11.4847 22.5105C10.891 22.5105 10.2974 22.5105 9.70373 22.5105C9.2797 22.5105 8.85567 22.5105 8.43163 22.5105H8.51644C8.77086 22.5105 9.02528 22.5105 9.1949 22.5105C9.1949 22.5105 9.36451 22.5105 9.2797 22.5903C9.2797 22.5903 9.19489 22.5903 9.11009 22.5903C8.94047 22.5903 8.77086 22.5903 8.51644 22.5903C8.0076 22.5903 7.49876 22.5903 6.90511 22.5903C6.8203 22.5903 6.65069 22.5903 6.56588 22.5105C6.56588 22.5105 6.48108 22.4307 6.48108 22.5105V22.5903C6.48108 22.5903 6.48108 22.5903 6.48108 22.6702C6.39627 22.75 6.39627 22.75 6.31146 22.75C6.31146 22.75 6.22666 22.75 6.22666 22.6702C6.22666 22.5105 6.05704 22.5105 5.97224 22.5105C5.5482 22.4307 5.03936 22.5105 4.61533 22.5105C4.53052 22.5105 4.44571 22.5105 4.2761 22.5105C4.36091 22.5105 4.44571 22.5903 4.44571 22.5903C4.44571 22.5903 4.53052 22.5903 4.53052 22.6702C4.53052 22.6702 4.53052 22.6702 4.44571 22.6702C4.36091 22.6702 4.36091 22.6702 4.2761 22.6702C3.76726 22.75 3.34323 22.75 2.83439 22.75C2.66477 22.75 2.57997 22.75 2.49516 22.5903L2.41035 22.5105C2.24074 22.4307 2.24074 22.271 2.24074 22.1114C2.24074 19.8761 2.24074 17.7207 2.24074 15.4855C2.24074 13.2502 2.24074 10.9352 2.24074 8.69992C2.24074 8.54026 2.24074 8.3806 2.41035 8.30077C2.57997 8.30077 2.66477 8.22094 2.74958 8.14111H2.83439C3.17361 8.14111 3.59765 8.14111 3.93687 8.14111C5.71782 8.14111 7.58357 8.14111 9.36451 8.14111C9.53412 8.14111 9.78854 8.14111 9.95816 8.14111C10.467 8.14111 10.9758 8.14111 11.4847 8.14111C11.9087 8.14111 12.4176 8.14111 12.8416 8.14111C13.3504 8.14111 13.8593 8.14111 14.2833 8.14111C14.3681 8.14111 14.4529 8.14111 14.4529 8.22094C14.5377 8.30077 14.7073 8.46043 14.7921 8.54026C14.8769 8.62009 14.8769 8.62009 14.8769 8.69992C14.8769 9.33856 14.8769 9.9772 14.8769 10.6158C14.8769 11.494 14.8769 12.3721 14.8769 13.2502C14.8769 13.4099 14.8769 13.5695 14.7921 13.7292C14.7921 13.7292 14.7921 13.809 14.7073 13.809C14.7073 13.809 14.6225 13.809 14.6225 13.7292C14.5377 13.6494 14.5377 13.5695 14.5377 13.4897C14.4529 13.2502 14.4529 12.9309 14.4529 12.6914C14.4529 12.3721 14.5377 12.1326 14.5377 11.8133C14.5377 11.494 14.6225 11.2545 14.4529 10.9352C14.3681 10.7755 14.2833 10.6957 14.1137 10.6158C13.9441 10.536 13.7745 10.4562 13.52 10.3764C13.096 10.2965 12.672 10.3764 12.3327 10.7755C12.1631 11.015 11.9935 11.3343 11.9087 11.6536C11.8239 11.973 11.8239 12.2923 11.9935 12.6116C12.0783 12.7712 12.1631 12.9309 12.3327 13.0906C12.4176 13.1704 12.5872 13.2502 12.672 13.4099C12.7568 13.4897 12.7568 13.4897 12.672 13.5695C12.672 13.5695 12.672 13.5695 12.5872 13.5695C12.4176 13.5695 12.1631 13.5695 11.9935 13.5695C11.4847 13.5695 10.9758 13.4897 10.5518 13.3301C10.1278 13.1704 9.70373 13.0107 9.2797 12.8511C8.85567 12.6914 8.34683 12.4519 7.83799 12.1326C7.49876 11.8931 7.15953 11.7335 6.8203 11.4141C6.48108 11.1747 6.14185 10.8553 5.97224 10.4562C5.97224 10.3764 5.88743 10.2965 5.80262 10.2167C5.80262 10.1369 5.71782 10.1369 5.71782 10.2167C5.5482 10.3764 5.5482 10.3764 5.37859 10.2167C5.20898 10.1369 5.03936 9.89737 4.78494 9.73771C4.78494 9.65788 4.70013 9.65788 4.61533 9.57805Z" fill="#1460D2"/>
<path d="M5.38047 22.5904C5.46528 22.5904 5.63489 22.5904 5.80451 22.5904C5.80451 22.5904 5.88931 22.5904 5.88931 22.6702L5.80451 22.75C5.55009 22.75 5.38047 22.75 5.12605 22.75C5.04125 22.75 4.95644 22.75 4.78683 22.6702C4.78683 22.6702 4.70202 22.6702 4.70202 22.5904C4.70202 22.5904 4.70202 22.5904 4.78683 22.5105C4.87163 22.4307 5.04125 22.4307 5.12605 22.4307C5.21086 22.5105 5.29567 22.5904 5.38047 22.5904Z" fill="#1460D2"/>
<path d="M19.119 36.3212C19.119 36.4011 19.119 36.4011 19.119 36.3212C19.0342 36.4011 18.9494 36.4011 18.8646 36.4011C18.8646 36.4011 18.7798 36.4011 18.7798 36.3212C18.7798 36.3212 18.7798 36.2414 18.8646 36.2414C18.9494 36.3212 19.0342 36.3212 19.119 36.3212Z" fill="#1460D2"/>
<path d="M19.8804 21.4721H19.7956C19.7108 21.3929 19.7108 21.3929 19.7956 21.3929C19.8804 21.3929 19.8804 21.3929 19.9652 21.3929L20.05 21.4721C20.05 21.4721 19.9652 21.4721 19.8804 21.4721Z" fill="#1460D2"/>
<path d="M11.315 22.5908C11.315 22.671 11.2298 22.671 11.2298 22.671C11.1446 22.671 11.1446 22.671 11.1446 22.5908C11.1446 22.5105 11.2298 22.5105 11.2298 22.5105C11.2298 22.5105 11.2298 22.5908 11.315 22.5908Z" fill="#1460D2"/>
</svg>
