<svg width="88" height="88" viewBox="0 0 88 88" fill="none" xmlns="http://www.w3.org/2000/svg">
<path d="M44 7.33325C33.8748 7.33325 25.6667 15.5414 25.6667 25.6666C25.6667 35.7918 33.8748 43.9999 44 43.9999C54.1252 43.9999 62.3333 35.7918 62.3333 25.6666C62.3333 15.5414 54.1252 7.33325 44 7.33325ZM30.25 25.6666C30.25 18.0727 36.4061 11.9166 44 11.9166C51.5939 11.9166 57.75 18.0727 57.75 25.6666C57.75 33.2605 51.5939 39.4166 44 39.4166C36.4061 39.4166 30.25 33.2605 30.25 25.6666ZM22.4581 51.3332C18.156 51.3332 14.6667 54.8189 14.6667 59.1229L14.6667 60.4999C14.6667 67.3851 18.2264 72.5392 23.687 75.8636C29.0566 79.1326 36.2745 80.6666 44 80.6666C51.7255 80.6666 58.9434 79.1326 64.313 75.8636C69.7736 72.5392 73.3333 67.3851 73.3333 60.4999L73.3333 59.1226C73.3333 54.8187 69.844 51.3332 65.5421 51.3332H22.4581ZM19.25 59.1229C19.25 57.3521 20.6854 55.9165 22.4581 55.9165H65.5421C67.3147 55.9165 68.75 57.3519 68.75 59.1226L68.75 60.4999C68.75 65.5314 66.2563 69.3147 61.9297 71.9487C57.5122 74.638 51.2092 76.0832 44 76.0832C36.7908 76.0832 30.4878 74.638 26.0703 71.9487C21.7437 69.3147 19.25 65.5314 19.25 60.4999L19.25 59.1229Z" fill="#B542FB"/>
</svg>
