<svg width="351" height="351" viewBox="0 0 351 351" fill="none" xmlns="http://www.w3.org/2000/svg">
<rect x="1" y="1" width="349" height="349" rx="19" fill="white" stroke="#13141D" stroke-width="2"/>
<path fill-rule="evenodd" clip-rule="evenodd" d="M155.478 92.2036C155.262 92.422 155.085 93.0728 155.085 93.6501C155.085 95.3095 153.143 98.6813 150.976 100.784C149.248 102.461 148.987 103.058 148.987 105.342C148.987 109.648 147.838 110.574 142.208 110.808C137.675 110.996 137.532 111.044 136.957 112.584C136.525 113.741 135.79 114.328 134.222 114.767C130.096 115.925 125.077 115.091 124.006 113.071C123.443 112.007 123.089 111.964 118.318 112.366C112.619 112.847 111.32 112.845 109.359 112.347C108.233 112.062 107.843 112.305 107.101 113.753C106.609 114.716 106.414 115.691 106.668 115.92C107.072 116.283 139.983 119.322 143.305 119.302C144.031 119.298 144.552 118.95 144.552 118.469C144.552 117.009 147.896 115.696 151.567 115.716C155.612 115.738 157.742 116.891 158.222 119.32C158.532 120.881 158.703 120.975 161.253 120.975C163.56 120.975 163.955 120.815 163.955 119.887C163.955 118.774 165.87 117.055 167.109 117.055C167.488 117.055 168.617 117.806 169.619 118.725C170.62 119.644 171.847 120.749 172.346 121.182C172.884 121.647 175.666 122.205 179.17 122.55C184.5 123.074 185.397 123.025 188.203 122.049C191.75 120.817 193.4 119.55 192.962 118.398C192.796 117.963 193.069 116.978 193.566 116.21C194.852 114.228 197.839 114.265 199.292 116.282L200.35 117.748L205.16 116.166C210.684 114.349 211.061 113.659 208.009 110.953C205.97 109.144 203.871 108.654 203.871 109.986C203.871 112.346 198.849 112.91 195.217 110.959C192.534 109.517 191.601 108.748 190.402 106.99C189.241 105.288 189.2 103.954 190.275 102.867C190.997 102.139 190.825 101.795 188.814 99.9598L186.534 97.8794L182.138 98.1364C177.93 98.3823 177.655 98.3235 175.699 96.7481L173.657 95.1028L173.103 98.6589C172.319 103.684 172.186 103.813 168.178 103.446C165.84 103.232 165.089 103.304 165.753 103.679C168.934 105.478 167.81 108.665 163.618 109.732C158.677 110.988 153.976 109.371 153.976 106.415C153.976 103.93 156.099 102.774 160.663 102.774H164.35L161.903 101.836C157.974 100.329 157.732 99.9615 157.946 95.804C158.118 92.4623 158.033 92.1196 157.003 91.9706C156.38 91.8805 155.695 91.9858 155.478 92.2036ZM173.361 109.889C174.038 105.83 174.482 105.063 176.429 104.58C177.039 104.428 179.083 104.275 180.971 104.239C183.809 104.186 184.645 104.393 185.786 105.435C187.162 106.69 188.902 111.025 188.902 113.194C188.902 113.821 189.277 114.713 189.734 115.175C190.806 116.257 190.795 117.864 189.709 118.96C188.377 120.306 184.505 121.14 181.701 120.684C180.326 120.461 178.153 120.246 176.872 120.207C175.592 120.167 174.285 119.873 173.967 119.553C172.96 118.534 172.675 113.997 173.361 109.889Z" fill="#B542FB"/>
<path fill-rule="evenodd" clip-rule="evenodd" d="M221.288 164.886C221.484 165.944 221.354 167.413 220.993 168.213C220.338 169.665 217.167 171.491 214.127 172.167C213.212 172.37 209.031 175.302 204.835 178.681C198.945 183.425 197.014 185.311 196.361 186.959C195.049 190.27 189.006 194.906 186.02 194.891C184.259 194.883 179.543 193.389 177.951 192.336C177.206 191.842 172.696 190.877 167.556 190.112C162.563 189.368 149.169 187.219 137.794 185.336C126.418 183.453 114.117 181.707 110.458 181.455C103.081 180.948 101.288 180.453 99.9803 178.568C98.9753 177.118 98.7906 171.409 99.63 167.752C99.9105 166.529 100.051 165.437 99.9421 165.327C99.2935 164.672 96.5399 167.563 95.2814 170.219C94.1843 172.536 93.4647 173.385 92.4818 173.527C91.7544 173.632 89.8629 175.027 88.2779 176.628C86.0432 178.886 85.2283 180.2 84.6495 182.482C84.0569 184.817 83.518 185.664 82.0362 186.589C79.6667 188.069 77.682 191.107 76.9747 194.337C76.6226 195.945 75.9607 197.157 75.1458 197.686C69.8797 201.104 68.9694 204.341 72.6843 206.44C73.8629 207.105 75.3597 208.6 76.0106 209.761C77.9509 213.221 79.6185 214.109 84.8397 214.465C87.9835 214.679 89.8729 215.094 90.8026 215.776C91.551 216.326 93.0112 217.397 94.0485 218.157C96.6391 220.057 99.7392 220.797 103.252 220.353C105.964 220.011 106.418 220.126 108.751 221.748C113.55 225.083 115.482 225.672 121.665 225.686C127.161 225.697 127.439 225.76 131.089 227.798C134.778 229.858 134.967 229.899 140.949 229.932C145.436 229.956 147.591 230.215 149.108 230.912C151.876 232.183 154.681 232.111 158.76 230.664L162.158 229.459L166.559 230.659C172.433 232.26 176.214 232.209 179.888 230.481L182.794 229.115L185.935 230.207C190.206 231.691 192.732 231.607 195.225 229.898C197.697 228.203 197.863 228.198 201.982 229.662C206.571 231.293 211.62 231.371 213.667 229.843C214.782 229.01 216.373 228.587 219.127 228.387C223.183 228.094 227.037 226.694 230.569 224.231C232.328 223.004 232.857 222.889 234.56 223.364C239.267 224.678 249.297 219.692 251.043 215.171C251.604 213.719 250.509 210.504 248.814 208.625C248.081 207.812 247.726 206.325 247.544 203.297C247.388 200.689 246.831 198.036 246.076 196.297C244.336 192.291 240.466 186.679 238.967 185.989C238.117 185.599 237.688 184.921 237.688 183.971C237.688 181.491 236.234 178.889 233.611 176.674C231.805 175.149 230.789 173.714 230.085 171.694C228.941 168.414 225.464 164.587 222.765 163.636L220.936 162.992L221.288 164.886ZM210.747 180.071C210.937 179.308 211.775 178.311 212.609 177.853C215.047 176.517 218.107 176.746 219.73 178.386C220.739 179.405 221.027 180.141 220.769 181.046C220.301 182.688 217.949 184.817 216.603 184.817C216.018 184.817 215.155 185.408 214.686 186.131C213.712 187.633 211.617 188.737 209.741 188.737C208.037 188.737 205.534 186.698 205.534 185.311C205.534 183.893 207.933 181.457 209.329 181.457C210.009 181.457 210.529 180.949 210.747 180.071ZM92.7324 193.215C86.3997 193.21 82.6759 187.252 87.6421 185.069C90.0264 184.022 91.7456 184.09 94.4742 185.342C96.9695 186.486 97.984 187.853 97.984 190.069C97.984 192.061 96.0531 193.218 92.7324 193.215ZM229.794 195.43C228.416 193.712 228.57 192.78 230.54 190.922C232.89 188.703 236.846 188.6 238.805 190.705C239.893 191.876 240.025 192.372 239.588 193.645C238.435 197.003 231.995 198.177 229.794 195.43ZM110.955 194.32C111.901 194.31 113.673 193.681 114.893 192.922C118.78 190.504 125.078 191.483 126.286 194.693C127.533 198.005 124.406 201.057 119.767 201.057C118.329 201.057 116.973 201.527 115.724 202.457C113.232 204.314 108.819 204.419 106.623 202.674C105.369 201.678 105.16 201.126 105.301 199.192C105.439 197.293 105.796 196.671 107.352 195.616C108.388 194.912 110.01 194.329 110.955 194.32ZM145.644 195.923C145.627 194.409 145.95 193.636 146.873 192.983C148.458 191.861 151.337 191.847 153.45 192.952C154.681 193.594 155.085 194.201 155.085 195.403C155.085 196.281 154.711 197.314 154.254 197.697C153.796 198.081 153.422 198.887 153.422 199.489C153.422 201.339 150.45 203.857 148.266 203.857C145.754 203.857 144.892 202.753 145.325 200.085C145.513 198.926 145.656 197.053 145.644 195.923ZM205.534 200.755C205.534 199.256 207.867 197.178 210.125 196.667C213.223 195.965 213.749 195.955 216.289 196.551C224.069 198.374 219.919 205.027 211.485 204.255C208.215 203.955 205.534 202.378 205.534 200.755ZM85.358 209.456C82.1437 207.475 81.8793 203.952 84.8535 202.741C85.5199 202.47 87.0666 202.232 88.2912 202.213C94.5895 202.112 98.1182 208.777 92.7196 210.577C90.3336 211.372 87.8566 210.995 85.358 209.456ZM125.332 210.053C121.556 208.321 120.504 204.616 123.347 203.058C126.938 201.09 133.225 202.81 134.587 206.131C136.273 210.244 130.803 212.562 125.332 210.053ZM152.313 208.937C152.313 207.86 152.745 206.976 153.546 206.409C157.168 203.846 165.205 207.14 164.293 210.814C163.246 215.029 152.313 213.316 152.313 208.937ZM172.288 213.968C171.236 211.984 171.612 209.622 173.177 208.378C175.317 206.678 180.476 206.744 182.623 208.499C183.837 209.492 184.628 209.709 186.131 209.464C192.047 208.499 195.979 211.677 193.848 215.702C192.554 218.143 185.019 219.418 182.484 217.624C181.867 217.188 180.218 216.831 178.819 216.831C175.972 216.831 173.149 215.594 172.288 213.968ZM222.907 210.119C223.163 209.713 224.161 208.895 225.125 208.302C228.421 206.271 233.235 207.166 234.873 210.113C236.415 212.888 233.674 215.957 229.357 216.289C228.257 216.374 227.278 216.882 226.802 217.616C224.456 221.232 216.769 220.758 215.82 216.938C215.294 214.824 216.952 212.744 219.998 211.698C221.343 211.236 222.652 210.525 222.907 210.119ZM141.871 219.285C141.747 218.186 142.015 217.39 142.67 216.905C143.212 216.505 144.796 216.178 146.191 216.178C151.15 216.178 154.896 219.765 152.605 222.321C150.285 224.911 142.249 222.638 141.871 219.285Z" fill="#B542FB"/>
<path d="M157.164 104.825C154.49 105.812 155.58 107.882 159.075 108.456C161.446 108.844 165.402 107.792 165.833 106.658C166.538 104.802 160.618 103.551 157.164 104.825Z" fill="#B542FB"/>
<path d="M191.31 104.483C190.551 106.481 196.383 110.335 200.165 110.335C201.773 110.335 202.208 110.117 202.208 109.312C202.208 106.21 192.318 101.828 191.31 104.483Z" fill="#B542FB"/>
<path d="M148.017 117.86C147.026 118.311 146.215 118.909 146.215 119.188C146.215 119.887 155.23 120.469 155.893 119.813C157.669 118.053 151.142 116.435 148.017 117.86Z" fill="#B542FB"/>
<path d="M127.967 111.406C125.272 111.701 125.062 111.816 125.921 112.532C128.083 114.33 134.868 113.67 135.546 111.595C135.791 110.844 133.599 110.789 127.967 111.406Z" fill="#B542FB"/>
<path d="M88.0246 186.929C86.3393 188.307 86.8121 189.645 89.3656 190.722C94.4803 192.881 98.7563 190.149 94.5491 187.411C92.2739 185.93 89.4959 185.725 88.0246 186.929Z" fill="#B542FB"/>
<path d="M108.087 196.889C106.505 198.008 106.411 200.778 107.926 201.598C109.47 202.432 113.114 202.311 114.37 201.383C114.961 200.946 115.321 200.505 115.169 200.403C115.017 200.301 114.394 199.94 113.784 199.601C113.174 199.262 112.596 198.317 112.5 197.501C112.358 196.304 112.033 196.017 110.821 196.017C109.995 196.017 108.764 196.41 108.087 196.889Z" fill="#B542FB"/>
<path d="M117.11 193.746C116.5 193.999 115.505 194.763 114.898 195.444L113.793 196.684L115.076 197.732C117.091 199.381 119.784 199.654 122.214 198.455C124.982 197.089 125.302 195.295 122.993 194.09C121.192 193.148 118.882 193.014 117.11 193.746Z" fill="#B542FB"/>
<path d="M146.836 199.812C146.198 201.016 147.005 202.737 148.208 202.737C149.152 202.737 151.759 200.289 151.759 199.402C151.759 198.351 147.419 198.712 146.836 199.812Z" fill="#B542FB"/>
<path d="M147.568 194.617C146.503 195.449 146.503 195.466 147.568 196.297C149.347 197.685 153.422 197.268 153.422 195.697C153.422 193.902 149.429 193.165 147.568 194.617Z" fill="#B542FB"/>
<path d="M174.97 209.183C173.186 210.162 172.644 211.429 173.398 212.852C174.117 214.21 176.775 215.618 178.619 215.618C179.736 215.618 180.032 215.339 180.032 214.293C180.032 213.565 180.552 212.301 181.188 211.484L182.344 210L180.374 209.169C177.955 208.148 176.851 208.15 174.97 209.183Z" fill="#B542FB"/>
<path d="M185.299 211.427C184.079 211.875 183.028 212.245 182.962 212.249C182.897 212.254 182.579 212.756 182.257 213.365C181.3 215.17 183.302 216.739 186.546 216.729C191.119 216.715 194.021 214.345 191.944 212.32C190.396 210.812 187.893 210.476 185.299 211.427Z" fill="#B542FB"/>
<path d="M85.3719 204.198C84.1478 204.75 84.5885 207.132 86.0992 208.132C88.0479 209.422 92.1237 209.456 93.3743 208.194C94.3035 207.256 94.2808 207.142 92.8893 205.736C91.8005 204.637 90.7488 204.215 88.7475 204.074C87.2723 203.97 85.7533 204.026 85.3719 204.198Z" fill="#B542FB"/>
<path d="M124.046 204.69C121.666 207.587 130.057 211.213 132.592 208.383C133.509 207.359 133.499 207.253 132.378 206.12C130.138 203.857 125.399 203.043 124.046 204.69Z" fill="#B542FB"/>
<path d="M144.413 217.664C141.472 218.5 145.611 221.902 149.264 221.65C151.863 221.472 152.171 220.453 150.096 218.904C148.604 217.792 145.98 217.219 144.413 217.664Z" fill="#B542FB"/>
<path d="M155.28 207.214C153.463 207.955 153.279 208.719 154.616 209.977C156.965 212.188 162.315 212.11 162.745 209.858C162.877 209.166 162.231 208.56 160.533 207.781C157.904 206.576 157.067 206.486 155.28 207.214Z" fill="#B542FB"/>
<path d="M209.874 198.608C207.165 199.744 206.826 200.835 208.852 201.893C211.003 203.017 214.244 202.96 216.588 201.756C219.198 200.417 219.303 199.516 216.965 198.529C214.503 197.49 212.487 197.512 209.874 198.608Z" fill="#B542FB"/>
<path d="M220.502 213.215C219.05 213.755 217.73 215.197 217.73 216.245C217.73 218.424 222.104 218.975 224.623 217.114C225.545 216.433 225.494 216.266 223.846 214.601C222.018 212.754 221.887 212.701 220.502 213.215Z" fill="#B542FB"/>
<path d="M225.844 210.058C224.059 211.476 223.995 212.48 225.615 213.626C228.01 215.32 233.253 214.008 233.253 211.715C233.253 209.079 228.432 208.001 225.844 210.058Z" fill="#B542FB"/>
<path d="M232.56 191.857C229.58 193.49 231.412 195.371 235.27 194.639C237.407 194.235 238.168 193.076 237.128 191.81C236.266 190.761 234.527 190.779 232.56 191.857Z" fill="#B542FB"/>
<path d="M209.028 183.292C207.357 184.046 206.925 185.471 208.105 186.342C209.435 187.325 210.734 187.238 212.162 186.07L213.369 185.082L211.805 183.914C210.592 183.008 209.968 182.869 209.028 183.292Z" fill="#B542FB"/>
<path d="M213.976 179.238C212.295 179.921 211.831 181.337 212.925 182.443C213.636 183.16 214.229 183.236 215.858 182.82C218.525 182.137 219.534 180.585 218.04 179.464C216.826 178.553 215.805 178.496 213.976 179.238Z" fill="#B542FB"/>
<path fill-rule="evenodd" clip-rule="evenodd" d="M93.1182 225.45C90.0564 227.616 93.2241 231.858 97.9031 231.858C101.208 231.858 103.1 230.617 102.866 228.602C102.493 225.385 96.1213 223.325 93.1182 225.45ZM93.6637 229.429C92.0982 227.847 92.2994 226.517 94.2298 225.694C97.0266 224.501 102.142 226.523 102.142 228.822C102.142 231.52 96.1579 231.948 93.6637 229.429Z" fill="#B542FB"/>
<path fill-rule="evenodd" clip-rule="evenodd" d="M124.746 55.8368C124.741 55.7617 125.048 55.6631 125.502 55.5178C125.566 55.4972 125.633 55.4757 125.703 55.4531C128.069 54.6876 134.135 54.845 157.895 56.2876C198.9 58.7763 202.34 59.1716 208.029 62.0484C211.895 64.0035 217.078 69.5336 219.208 73.9762C222.341 80.5105 222.99 83.5418 222.974 91.5742C222.958 99.7459 222.189 103.441 219.091 110.221L217.224 114.308L217.526 136.262C217.793 155.577 217.959 158.713 218.906 162.347C220.275 167.598 219.852 168.393 214.815 170.048C211.822 171.03 209.778 172.389 203.095 177.838C196.989 182.816 195.001 184.748 195.001 185.702C195.001 187.415 189.296 192.532 186.876 192.99C184.935 193.358 180.485 192.106 178.97 190.765C178.451 190.307 173.21 189.262 166.173 188.216C159.617 187.241 145.896 185.052 135.682 183.352C125.467 181.651 114.228 180.062 110.706 179.821C107.183 179.581 103.566 179.027 102.667 178.591C101.033 177.798 101.033 177.798 101.145 173.047C101.206 170.434 101.519 156.956 101.839 143.096C102.365 120.335 102.514 117.826 103.375 117.183C103.899 116.791 104.709 116.644 105.175 116.856C105.641 117.068 118.995 118.35 134.85 119.705C152.462 121.21 164.433 122.469 165.618 122.942L167.559 123.717L165.064 123.741C162.949 123.762 144.584 122.195 111.938 119.21C106.076 118.674 104.46 118.678 104.123 119.228C103.89 119.61 103.549 130.302 103.368 142.989L103.037 166.056L106.992 171.936C109.168 175.171 111.186 177.981 111.478 178.181C111.769 178.381 113.779 178.817 115.945 179.151C118.11 179.484 131.857 181.622 146.492 183.903C161.128 186.184 174.234 188.213 175.618 188.41L178.133 188.77L179.286 186.373C179.921 185.055 181.658 182.467 183.147 180.621L185.853 177.266L185.699 166.621C185.613 160.766 185.404 155.031 185.234 153.876C185.034 152.52 185.143 151.776 185.541 151.776C186.839 151.776 187.24 155.015 187.264 165.673L187.289 176.697L190.561 180.241C192.831 182.701 194.058 183.644 194.567 183.321C194.97 183.066 198.834 180.01 203.154 176.531L211.008 170.205L213.817 164.491L216.625 158.776L216.624 151.167C216.623 146.982 216.456 137.079 216.255 129.161C215.927 116.31 215.793 114.805 215.008 115.14C210.631 117.004 197.567 121.514 197.306 121.251C196.737 120.675 198.362 119.946 205.664 117.499C210.294 115.947 212.535 114.943 212.178 114.582C211.359 113.755 211.516 113.233 212.641 113.034C213.41 112.897 209.56 107.814 196.388 91.5742L179.127 70.2936L172.511 69.9323C140.516 68.1851 132.356 67.5568 132.356 66.8394C132.356 66.8001 132.354 66.7624 132.352 66.7264C132.348 66.6344 132.345 66.5532 132.371 66.4832C132.567 65.9551 134.451 66.0676 150.554 67.0295L153.148 67.1843C155.589 67.33 157.797 67.4634 159.794 67.5841C176.222 68.5768 178.397 68.7083 179.801 67.721C180.016 67.5704 180.212 67.3936 180.438 67.1899C180.619 67.0275 180.818 66.8479 181.061 66.6506L183.454 64.7085L155.426 62.7104C140.011 61.6116 127.225 60.537 127.013 60.323C126.801 60.1085 126.768 59.7905 126.941 59.6163C127.113 59.4421 139.316 60.1998 154.059 61.3003C168.802 62.4007 181.83 63.2995 183.011 63.2973C184.191 63.295 186.919 62.6006 189.072 61.7533L192.988 60.2133L187.48 59.8033C174.775 58.8575 137.153 56.474 131.436 56.2528L130.517 56.2173C126.16 56.0492 124.758 55.9951 124.746 55.8368ZM119.605 61.8922C119.605 60.1018 120.412 58.0779 121.607 56.8711C122.552 55.9163 122.657 55.9476 124.148 57.6327C125.115 58.727 125.703 60.0223 125.703 61.0623C125.703 62.4281 125.934 62.7333 126.965 62.7333C129.21 62.7333 130.693 64.2538 130.685 66.5454C130.669 70.8592 129.317 72.4804 127.792 70.0135C126.82 68.4405 126.152 68.6208 126.359 70.4011C126.494 71.5569 126.939 72.0139 128.269 72.3595C129.223 72.6075 130.757 73.5892 131.679 74.5413C133.048 75.9559 133.864 76.2997 136.149 76.424C138.121 76.5316 139.731 77.0759 141.61 78.271C143.076 79.2028 145.239 80.2758 146.418 80.6544C150.612 82.0029 153.964 86.7933 153.973 91.4521C153.978 93.8781 152.469 96.9598 150.056 99.4497C148.198 101.367 147.797 102.205 147.511 104.77C147.324 106.444 146.959 108.09 146.698 108.426C146.409 108.8 142.441 109.182 136.499 109.409C131.15 109.613 123.114 110.183 118.641 110.676L110.507 111.573L109.512 110.332C108.965 109.649 108.517 108.367 108.517 107.482C108.517 106.12 108.104 105.661 105.817 104.491C104.333 103.732 102.468 102.33 101.675 101.377C97.4502 96.3052 98.9309 87.5292 104.499 84.6361C105.642 84.0425 107.325 82.7455 108.24 81.7543C110.142 79.694 113.658 77.884 115.796 77.8661C116.888 77.8566 117.426 77.431 117.946 76.1625C118.328 75.2323 119.356 74.044 120.231 73.5215C121.884 72.5347 122.2 71.4489 121.249 70.0135C120.781 69.3062 120.512 69.4171 119.548 70.7136C117.895 72.9385 117.184 72.6294 116.413 69.3505C115.652 66.113 116.31 64.2739 118.481 63.5778C119.193 63.3499 119.605 62.7317 119.605 61.8922ZM109.055 64.5693C109.324 63.4557 110.646 62.6016 113.293 60.8905C113.537 60.7323 113.793 60.5668 114.061 60.393C116.348 58.9079 118.424 57.6932 118.675 57.6932C119.786 57.6932 118.627 59.6124 117.299 59.9708C116.489 60.1897 114.653 61.1843 113.22 62.18C110.526 64.0522 110.574 64.9454 113.368 64.965C115.376 64.9784 114.8 66.0094 112.678 66.1998L110.74 66.3734L113.547 71.3285C116.136 75.8971 116.621 77.3598 115.269 76.5153C114.977 76.3333 113.311 73.6592 111.566 70.5724C111.409 70.2953 111.259 70.0307 111.115 69.7778L111.114 69.7765C109.564 67.0464 108.787 65.679 109.055 64.5693ZM121.276 62.8381C121.28 61.7023 121.434 60.206 121.617 59.5132C121.801 58.8205 122.158 58.2532 122.41 58.2532C123.318 58.2532 124.594 60.7806 124.594 62.5782C124.594 64.3406 124.681 64.4134 126.775 64.4134C129.196 64.4134 129.978 65.5485 129.337 68.1313L128.989 69.528L127.987 68.2775C126.729 66.7078 125.303 67.1664 124.842 69.2894C124.274 71.898 124.069 72.3376 123.561 72.0206C123.293 71.8538 122.93 70.9874 122.753 70.0959C122.334 67.9779 121.123 67.5668 119.38 68.9518L117.976 70.0673L117.633 68.6846C117.027 66.2474 117.526 65.268 119.471 65.0781C121.139 64.9152 121.269 64.755 121.276 62.8381ZM180.751 69.1864C181.097 68.0356 187.961 63.8405 191.296 62.7406C198.994 60.2026 207.842 62.3128 213.389 68.0087C216.612 71.3178 219.646 77.0625 220.839 82.1172C221.959 86.8543 222.094 96.5141 221.105 101.094C220.034 106.059 217.206 112.577 216.129 112.565C215.173 112.553 213.435 110.496 193.472 85.745C186.381 76.9527 180.656 69.5011 180.751 69.1864ZM186.685 71.669C186.685 71.2131 192.635 68.4701 195.001 67.8351C204.46 65.2965 213.515 71.5004 216.384 82.484C218.025 88.7696 217.885 96.7952 216.011 103.824L215.423 106.028L213.3 103.841C210.716 101.181 186.685 72.1321 186.685 71.669ZM194.262 69.1735L196.155 68.8112C198.581 68.3475 203.09 68.8084 205.362 69.7531C211.644 72.3651 216.109 80.9731 216.042 90.3416L216.017 93.8142L213.686 91.2331C212.404 89.8135 207.509 84.2693 202.808 78.9128L194.262 69.1735ZM188.716 72.4166C188.456 71.982 189.062 71.3391 190.408 70.6212C191.562 70.0063 192.54 69.4922 192.581 69.4782C192.622 69.4647 195.366 72.5275 198.679 76.2846C201.992 80.0417 207.279 85.9006 210.428 89.305L216.154 95.4943L215.792 98.8392C215.593 100.678 215.241 102.525 215.01 102.941C214.719 103.466 210.681 99.0011 201.856 88.3961C194.852 79.9796 188.939 72.789 188.716 72.4166ZM119.084 76.6044C119.416 75.8657 120.356 74.8437 121.172 74.3324C123.043 73.1597 127.462 73.1048 129.611 74.2282C130.511 74.6981 131.247 75.1814 131.247 75.3023C131.247 75.4233 131.394 75.9088 131.573 76.382C131.853 77.1179 131.194 77.2327 127 77.1784C124.305 77.1437 121.285 77.3021 120.289 77.5306C118.533 77.9344 118.496 77.9064 119.084 76.6044ZM125.228 93.2111C124.222 90.271 123.769 81.3533 124.526 79.3938C124.853 78.5465 125.337 77.8538 125.6 77.8538C127.208 77.8538 128.427 86.5508 127.673 92.646C127.217 96.3365 126.366 96.5337 125.228 93.2111ZM141.713 94.1278C144.525 87.5236 143.507 82.6884 138.628 79.4801L135.959 77.725L137.897 78.0828C140.322 78.5308 143.408 80.977 144.724 83.4937C146.426 86.7474 145.331 92.3162 142.146 96.6132C140.722 98.5346 140.465 97.0584 141.713 94.1278ZM113.357 83.3167C115.323 81.2407 118.142 79.4817 120.358 78.948C123.482 78.1954 123.609 78.2531 123.177 80.2338C122.494 83.3649 122.784 89.2899 123.797 92.9389C124.706 96.2122 124.71 96.5454 123.851 98.0149C123.345 98.8796 122.931 100.242 122.931 101.041C122.931 102.199 122.663 102.494 121.609 102.494C120.823 102.494 119.931 101.946 119.41 101.143C118.925 100.395 117.721 99.6171 116.713 99.4009C114.354 98.8941 113.035 97.7007 111.778 94.9343C109.984 90.9895 110.637 86.189 113.357 83.3167ZM129.125 91.3216C129.74 86.9356 129.386 82.4504 128.187 79.3938C127.852 78.5415 128.153 78.4143 130.495 78.4171C134.598 78.4216 137.378 79.4358 139.688 81.7694C141.656 83.7575 141.78 84.0867 141.78 87.3444C141.78 91.442 140.128 95.8314 138.074 97.1911C137.317 97.6918 136.343 98.9596 135.909 100.008C135.415 101.203 134.616 102.043 133.77 102.258C131.879 102.736 131.247 102.166 131.247 99.9822C131.247 98.6388 130.849 97.7797 129.865 96.9979C128.49 95.9053 128.487 95.8801 129.125 91.3216ZM106.402 91.041C106.085 86.0166 107.855 82.7433 112.121 80.4662C114.886 78.9906 115.512 79.4173 113.422 81.3539C110.507 84.0548 109.432 86.5307 109.46 90.4765C109.487 94.2342 110.971 97.8934 113.068 99.3774C114.646 100.494 113.406 100.52 111.29 99.4149C108.374 97.8917 106.647 94.9326 106.402 91.041ZM147.536 83.9731C146.505 83.3296 145.661 82.5713 145.661 82.288C145.661 81.4664 146.472 81.6832 148.459 83.0356C153.823 86.6875 153.956 94.1558 148.744 99.1013C147.664 100.127 147.324 100.242 147.324 99.5807C147.324 99.1025 147.715 98.3839 148.192 97.9835C150.633 95.9372 151.593 90.4659 150.135 86.9098C149.737 85.9387 148.567 84.6171 147.536 83.9731ZM144.121 95.7743C146.2 92.2131 146.77 90.4597 146.77 87.6176C146.77 86.2518 147.012 85.134 147.31 85.134C148.325 85.134 149.541 88.4353 149.518 91.1261C149.49 94.4045 148.377 96.5241 145.106 99.5275L142.612 101.819L142.631 100.057C142.641 99.0873 143.312 97.1603 144.121 95.7743ZM100.571 94.0337C100.571 90.7537 102.055 87.3892 103.982 86.2994C105.48 85.4526 105.45 86.0955 103.888 88.3742C101.46 91.913 102.155 97.036 105.583 100.869C107.807 103.356 107.732 104.102 105.38 102.873C102.11 101.166 100.571 98.3358 100.571 94.0337ZM159.324 95.6914C159.414 91.577 160.111 89.7911 161.912 89.058C163.965 88.223 169.833 88.391 170.585 89.3061C171.708 90.6736 172.528 96.9867 171.94 99.7448L171.413 102.214L168.654 102.146C167.137 102.109 164.399 101.472 162.569 100.732L159.243 99.3853L159.324 95.6914ZM165.633 91.2992C164.375 90.8797 163.219 90.3287 163.063 90.075C162.908 89.8219 164.168 89.6141 165.863 89.6141C168.994 89.6141 169.322 89.8247 168.424 91.2577C167.992 91.9471 167.595 91.9533 165.633 91.2992ZM109.115 101.747C106.453 101.209 104.073 97.0494 104.113 93.0044L104.144 89.8941L105.23 93.3533C106.086 96.0823 106.857 97.2947 108.88 99.0935C110.291 100.348 111.659 101.374 111.922 101.374C112.183 101.374 112.398 101.878 112.398 102.494C112.398 103.766 111.555 104.003 111.119 102.854C110.96 102.436 110.058 101.938 109.115 101.747ZM170.766 97.7343C169.665 96.5813 168.828 93.5185 169.203 92.0132C169.508 90.7845 169.683 90.6457 170.064 91.3317C170.779 92.6225 171.413 98.4136 170.766 97.7343ZM165.334 94.661C163.732 96.1808 163.046 95.8006 162.511 93.0968C162.314 92.1051 162.354 91.2942 162.599 91.2942C163.448 91.2942 166.727 92.6404 166.727 92.9893C166.727 93.1814 166.1 93.9341 165.334 94.661ZM160.082 96.1416C160.086 95.1695 160.254 93.7532 160.455 92.9938C160.81 91.6526 160.84 91.6688 161.514 93.5538C162.514 96.3511 162.438 97.2852 161.183 97.6167C160.247 97.8643 160.076 97.6352 160.082 96.1416ZM164.51 96.8932C164.51 96.6373 165.196 95.9193 166.034 95.2983C166.872 94.6778 167.708 94.3412 167.891 94.5518C168.438 95.1807 170.117 99.8165 169.884 100.052C169.552 100.387 164.51 97.4224 164.51 96.8932ZM124.08 101.264C124.262 100.125 124.732 98.8017 125.125 98.3235C125.972 97.2925 128.532 97.176 129.473 98.1263C129.839 98.496 130.138 99.5796 130.138 100.534C130.138 102.755 131.013 103.615 133.276 103.615C135.281 103.615 135.858 103.125 137.236 100.256C137.753 99.1792 138.659 98.2064 139.249 98.095C140.646 97.8312 141.844 99.523 141.432 101.18C140.924 103.226 142.775 103.615 144.123 101.745C144.715 100.925 145.427 100.254 145.707 100.254C145.987 100.254 146.215 101.861 146.215 103.825C146.215 107.375 146.206 107.396 144.483 107.745C143.53 107.937 140.599 108.097 137.969 108.101C135.339 108.104 129.819 108.465 125.703 108.902C119.211 109.592 113.073 109.973 110.922 109.821C110.568 109.795 110.109 108.768 109.904 107.537C109.698 106.307 109.302 105.158 109.023 104.984C108.222 104.484 108.435 103.054 109.312 103.054C109.749 103.054 110.269 103.573 110.468 104.207C110.994 105.881 113.171 105.445 113.421 103.615C113.694 101.624 114.522 100.814 116.282 100.814C117.314 100.814 118.118 101.283 118.743 102.246C119.507 103.424 120.034 103.648 121.711 103.506C123.591 103.348 123.775 103.173 124.08 101.264ZM163.135 99.8338C160.869 99.1159 160.571 98.8818 161.472 98.5262C163.266 97.8183 163.871 97.9415 166.184 99.4889C167.398 100.3 168.39 101.032 168.39 101.116C168.39 101.344 166.252 100.822 163.135 99.8338ZM125.287 106.819C124.405 106.13 124.388 103.487 125.26 102.606C126.843 101.007 130.138 102.472 130.138 104.774C130.138 105.368 129.645 106.353 129.042 106.962C127.963 108.052 126.809 108.008 125.287 106.819ZM139.051 106.975C137.095 106.975 136.082 104.555 137.456 103.166C138.656 101.954 140.617 102.361 141 103.902C141.396 105.497 140.459 106.975 139.051 106.975ZM127.29 106.415C126.098 106.415 125.417 105.175 125.904 103.895C126.079 103.432 126.703 103.054 127.29 103.054C127.876 103.054 128.5 103.432 128.676 103.895C129.162 105.175 128.481 106.415 127.29 106.415ZM139.318 105.855C138.339 105.855 137.713 104.933 138.177 104.175C138.779 103.189 140.117 103.575 140.117 104.735C140.117 105.351 139.758 105.855 139.318 105.855ZM118.51 107.798C116.912 109.743 114.212 108.113 114.841 105.582C115.098 104.548 115.559 104.175 116.578 104.175C118.355 104.175 119.588 106.486 118.51 107.798ZM134.028 106.129C133.289 106.59 132.246 105.926 132.657 105.256C132.832 104.969 133.196 104.735 133.464 104.735C134.241 104.735 134.648 105.742 134.028 106.129ZM143.72 105.939C143.431 105.939 143.105 105.668 142.995 105.337C142.886 105.006 143.212 104.735 143.72 104.735C144.229 104.735 144.555 105.006 144.446 105.337C144.336 105.668 144.01 105.939 143.72 105.939ZM117.665 106.422C117.665 107.623 116.054 107.449 115.82 106.224C115.678 105.475 115.903 105.248 116.644 105.391C117.206 105.501 117.665 105.964 117.665 106.422ZM174.662 108.485C174.955 107.073 175.514 106.189 176.321 105.861C176.99 105.589 179.079 105.349 180.962 105.33C183.998 105.298 184.514 105.458 185.504 106.729C186.78 108.367 188.121 113.706 187.601 115.075C186.839 117.081 176.208 120.136 174.831 118.745C174.117 118.023 174.011 111.621 174.662 108.485ZM122.1 106.975C121.642 106.975 121.268 106.723 121.268 106.415C121.268 106.107 121.642 105.855 122.1 105.855C122.557 105.855 122.931 106.107 122.931 106.415C122.931 106.723 122.557 106.975 122.1 106.975ZM111.718 108.192C111.413 107.884 111.345 107.336 111.566 106.975C111.835 106.536 112.153 106.504 112.523 106.877C112.828 107.185 112.896 107.733 112.675 108.095C112.407 108.533 112.088 108.566 111.718 108.192ZM177.515 108.249C177.125 107.709 176.922 107.075 177.065 106.841C177.208 106.606 178.621 106.417 180.204 106.421L183.081 106.428L180.654 107.83C178.37 109.149 178.185 109.174 177.515 108.249ZM179.326 109.982L181.204 108.768C183.595 107.222 184.124 107.227 183.708 108.795C183.524 109.488 183.37 110.621 183.366 111.315C183.356 112.9 182.928 112.893 180.927 111.276L179.326 109.982ZM175.44 115.753C174.853 116.119 175.373 109.474 176.013 108.428C176.197 108.128 176.587 108.427 176.881 109.091C177.463 110.41 176.443 115.127 175.44 115.753ZM184.98 113.672C183.929 113.103 183.896 111.931 184.857 109.215C185.226 108.174 186.622 111.103 186.66 112.995C186.688 114.418 186.5 114.494 184.98 113.672ZM177.309 114.198C177.641 113.152 178.012 111.969 178.133 111.571C178.39 110.722 179.941 111.394 181.166 112.885C182.005 113.906 181.433 114.567 178.231 116.272C176.536 117.174 176.437 116.952 177.309 114.198ZM179.057 117.312C179.283 117.074 180.405 116.296 181.552 115.584L181.57 115.573C183.12 114.61 183.652 114.28 184.125 114.351C184.373 114.389 184.604 114.536 184.956 114.761L184.964 114.767C185.565 115.151 185.379 115.447 184.133 116.091C182.3 117.037 178.437 117.967 179.057 117.312ZM196.387 119.575C195.144 119.575 194.159 118.058 194.618 116.851C194.815 116.332 195.583 115.935 196.387 115.935C198.003 115.935 198.786 117.315 197.939 118.671C197.628 119.168 196.93 119.575 196.387 119.575ZM185.022 118.966C183.085 119.328 183.086 119.326 185.576 117.988C188.484 116.425 188.902 116.305 188.902 117.035C188.902 117.764 187.372 118.526 185.022 118.966ZM195.546 118.449C195.236 118.256 195.126 117.863 195.302 117.576C195.717 116.896 197.218 116.9 197.218 117.582C197.218 118.338 196.208 118.862 195.546 118.449ZM214.219 119.855C213.071 119.855 212.689 119.193 213.363 118.373C213.7 117.963 214.197 117.766 214.467 117.934C215.231 118.411 215.045 119.855 214.219 119.855ZM166.936 121.985C165.652 122.17 164.897 120.947 165.429 119.545C165.981 118.093 168.113 118.783 168.113 120.415C168.113 121.415 167.777 121.863 166.936 121.985ZM166.727 120.975C166.422 120.975 166.173 120.723 166.173 120.415C166.173 120.107 166.422 119.855 166.727 119.855C167.032 119.855 167.282 120.107 167.282 120.415C167.282 120.723 167.032 120.975 166.727 120.975ZM195.891 123.509C194.623 125.261 192.181 123.368 192.984 121.255C193.431 120.077 195.406 120.207 196.068 121.458C196.459 122.196 196.408 122.795 195.891 123.509ZM105.769 123.523C105.187 122.816 105.187 122.494 105.769 121.787C106.413 121.003 106.565 121.003 107.341 121.787C108.118 122.571 108.118 122.739 107.341 123.523C106.565 124.307 106.413 124.307 105.769 123.523ZM204.287 123.109C203.606 123.241 203.316 122.938 203.316 122.095C203.316 121.252 203.606 120.949 204.287 121.081C204.82 121.186 205.257 121.641 205.257 122.095C205.257 122.549 204.82 123.004 204.287 123.109ZM168.708 124.576C168.039 123.901 167.975 123.439 168.429 122.582C169.255 121.023 171.382 121.402 171.626 123.152C171.917 125.228 170.189 126.072 168.708 124.576ZM193.883 122.929C193.573 122.736 193.463 122.343 193.639 122.056C194.054 121.376 195.555 121.38 195.555 122.062C195.555 122.818 194.544 123.342 193.883 122.929ZM120.485 123.815C120.007 123.416 119.754 122.864 119.921 122.592C120.299 121.973 121.663 121.942 122.03 122.542C122.181 122.788 122.09 123.338 121.828 123.766C121.437 124.406 121.2 124.415 120.485 123.815ZM170.086 124.335C169.338 124.335 168.819 123.314 169.227 122.646C169.419 122.333 169.808 122.222 170.092 122.399C170.765 122.819 170.761 124.335 170.086 124.335ZM199 127.616C199.116 127.264 201.818 125.884 205.006 124.548C208.193 123.213 211.126 122.177 211.523 122.247C212.103 122.35 212.238 126.322 212.203 142.254C212.163 160.315 212.072 162.217 211.203 163.053C209.553 164.642 193.239 176.977 192.788 176.977C191.906 176.977 191.689 174.149 191.682 162.542L191.674 150.628L193.002 150.118C193.732 149.838 194.419 149.375 194.527 149.09C194.635 148.805 198.091 146.993 202.208 145.063C206.324 143.133 210.004 141.303 210.385 140.996C211.038 140.47 211.444 132.175 210.817 132.175C210.672 132.175 209.176 132.805 207.49 133.575L206.9 133.845L206.741 133.918C205.069 134.681 202.823 135.707 201.376 136.368C199.283 137.325 198.327 137.54 198.327 137.055C198.327 136.667 201.193 135.095 204.695 133.562L211.063 130.775L211.07 127.238C211.071 126.963 211.074 126.706 211.077 126.468L211.077 126.465L211.077 126.464C211.091 125.237 211.099 124.501 210.748 124.213C210.222 123.782 208.891 124.352 205.566 125.776L205.564 125.777C205.132 125.962 204.666 126.162 204.165 126.375C199.358 128.42 198.681 128.583 199 127.616ZM181.141 123.72C184.375 124.006 186.549 123.921 188.071 123.451C189.291 123.074 190.65 122.741 191.092 122.71C192.423 122.619 191.021 123.582 188.764 124.311L186.685 124.982V135.579C186.685 144.625 186.563 146.176 185.853 146.176C185.144 146.176 185.022 144.657 185.022 135.866V125.556L180.171 125.198C174.274 124.763 172.825 124.48 172.825 123.764C172.825 123.139 174.458 123.13 181.141 123.72ZM137.101 125.455C136.121 125.455 135.495 124.533 135.959 123.775C136.562 122.789 137.899 123.176 137.899 124.335C137.899 124.951 137.54 125.455 137.101 125.455ZM109.903 169.992C109.237 169.17 109.667 126.664 110.353 125.593C110.6 125.207 111.348 125.007 112.016 125.148C112.683 125.289 126.514 126.599 142.75 128.058C165.344 130.089 172.271 130.883 172.271 131.443C172.271 131.846 172.208 132.172 172.132 132.169C172.056 132.165 167.878 131.789 162.847 131.335L162.069 131.265L161.436 131.208L161.428 131.207L161.378 131.202C153.413 130.481 151.671 130.323 151.299 130.969C151.195 131.15 151.198 131.395 151.203 131.707C151.203 131.739 151.204 131.771 151.204 131.805C151.204 131.84 151.205 131.876 151.205 131.913C151.205 132.693 150.827 134.244 150.366 135.36C149.905 136.475 149.601 137.462 149.692 137.554C149.782 137.646 154.463 138.233 160.094 138.859C165.724 139.486 171.64 140.147 173.241 140.327C174.842 140.508 176.152 140.89 176.152 141.176C176.152 141.897 175.835 141.876 161.522 140.235C149.686 138.877 148.679 138.838 147.276 139.674C145.136 140.952 142.261 140.798 140.056 139.289C138.398 138.153 136.622 137.852 124.964 136.723C117.697 136.019 111.677 135.526 111.588 135.629C111.499 135.731 111.314 137.843 111.178 140.322L110.931 144.829L144.234 148.048C162.551 149.819 177.725 151.256 177.953 151.242C178.182 151.228 178.369 149.83 178.369 148.136C178.369 144.22 179.248 144.125 179.673 147.996C179.95 150.528 180.292 175.901 180.099 179.715C180.094 179.833 180.104 179.944 180.113 180.047C180.127 180.203 180.139 180.339 180.092 180.449C179.762 181.224 176.507 180.728 150.375 176.748C147.905 176.371 145.23 175.964 142.334 175.523C123.454 172.652 110.231 170.396 109.903 169.992ZM152.664 127.135C151.634 127.135 151.012 126.222 151.5 125.425C152.001 124.606 153.108 125.077 153.324 126.202C153.428 126.741 153.149 127.135 152.664 127.135ZM193.433 127.804C193.334 127.094 193.551 126.15 193.917 125.704C195.499 123.779 198.266 125.802 197.479 128.308C196.946 130.004 193.685 129.598 193.433 127.804ZM172.528 129.288C171.012 128.987 170.255 127.399 171.123 126.342C172.256 124.965 173.862 125.247 174.271 126.896C174.681 128.548 173.939 129.568 172.528 129.288ZM167.697 128.149C166.742 128.335 166.347 127.146 167.109 126.377C167.69 125.79 168.668 126.29 168.668 127.174C168.668 127.606 168.231 128.045 167.697 128.149ZM195.555 128.535C195.098 128.535 194.644 127.968 194.546 127.275C194.41 126.305 194.643 126.015 195.555 126.015C196.468 126.015 196.7 126.305 196.564 127.275C196.466 127.968 196.012 128.535 195.555 128.535ZM111.982 134.089C111.519 133.956 111.289 132.679 111.289 130.233C111.289 129.861 111.279 129.523 111.27 129.216C111.242 128.286 111.223 127.643 111.519 127.233C112.179 126.317 114.408 126.554 121.612 127.322L121.617 127.322L121.624 127.323C122.687 127.436 123.858 127.561 125.149 127.695C131.068 128.311 136.109 128.815 136.351 128.815C136.593 128.815 136.791 129.933 136.791 131.299C136.791 132.665 137.046 134.462 137.359 135.293C137.924 136.795 137.916 136.802 135.834 136.486C134.683 136.312 129.002 135.746 123.208 135.229C117.415 134.712 112.364 134.199 111.982 134.089ZM172.548 128.255C172.091 128.255 171.717 127.877 171.717 127.415C171.717 126.953 172.091 126.575 172.548 126.575C173.006 126.575 173.38 126.953 173.38 127.415C173.38 127.877 173.006 128.255 172.548 128.255ZM189.212 129.375C188.233 129.375 187.607 128.453 188.071 127.695C188.674 126.71 190.011 127.096 190.011 128.255C190.011 128.871 189.652 129.375 189.212 129.375ZM181.948 129.723C181.188 129.428 181.143 129.207 181.707 128.522C182.243 127.869 182.572 127.828 183.178 128.336C184.177 129.174 183.243 130.225 181.948 129.723ZM146.654 138.579C142.772 141.325 137.899 137.436 137.899 131.591V129.215L143.549 129.608C146.656 129.824 149.401 130.127 149.647 130.281C151.06 131.163 148.978 136.934 146.654 138.579ZM174.287 134.242C173.369 133.886 173.004 131.062 173.775 130.283C173.992 130.063 174.803 129.958 175.577 130.049C176.721 130.184 176.983 130.518 176.983 131.834C176.983 133.626 175.686 134.784 174.287 134.242ZM191.674 140.856C191.051 141.244 190.871 130.934 191.49 130.309C192.042 129.75 193.338 129.859 193.338 130.462C193.338 130.752 193.088 131.145 192.783 131.335C192.478 131.526 192.229 133.668 192.229 136.095C192.229 138.523 191.979 140.665 191.674 140.856ZM106.65 132.735C105.621 132.735 104.999 131.823 105.486 131.026C105.988 130.206 107.095 130.677 107.31 131.802C107.414 132.342 107.136 132.735 106.65 132.735ZM143.029 138.231C141.894 138.011 141.057 133.1 141.878 131.475C142.549 130.147 144.376 130.237 145.116 131.634C145.557 132.465 145.54 133.334 145.058 134.854C144.693 135.999 144.306 137.269 144.198 137.677C144.09 138.085 143.564 138.334 143.029 138.231ZM175.353 133.295C174.373 133.295 173.747 132.374 174.211 131.615C174.814 130.63 176.152 131.016 176.152 132.175C176.152 132.791 175.792 133.295 175.353 133.295ZM178.924 134.135C178.619 133.945 178.369 133.159 178.369 132.389C178.369 131.598 178.61 131.14 178.924 131.335C179.229 131.526 179.478 132.311 179.478 133.081C179.478 133.872 179.237 134.331 178.924 134.135ZM193.706 133.762C193.285 133.086 193.325 132.585 193.853 131.942C195.525 129.908 198.56 131.993 197.021 134.119C196.19 135.267 194.533 135.089 193.706 133.762ZM196.061 134.166C195.217 134.693 194.232 133.548 194.629 132.502C194.82 131.999 195.317 131.773 195.811 131.965C196.797 132.347 196.942 133.616 196.061 134.166ZM214.437 134.975C213.693 134.975 213.168 133.956 213.572 133.295C214.152 132.348 214.958 132.674 214.958 133.855C214.958 134.471 214.724 134.975 214.437 134.975ZM177.032 138.782C175.533 138.566 175.128 136.147 176.43 135.185C177.599 134.322 178.774 134.738 179.226 136.174C179.674 137.6 178.501 138.995 177.032 138.782ZM177.301 137.775C176.192 137.775 175.748 136.69 176.533 135.897C177.127 135.297 178.073 135.811 178.271 136.842C178.392 137.471 178.076 137.775 177.301 137.775ZM195.097 139.348C193.355 139.144 192.909 137.728 194.181 136.443C195.289 135.324 195.784 135.305 196.642 136.349C197.758 137.707 196.809 139.549 195.097 139.348ZM195.278 138.896C194.816 138.896 194.446 138.398 194.446 137.775C194.446 137.153 194.816 136.655 195.278 136.655C195.74 136.655 196.109 137.153 196.109 137.775C196.109 138.398 195.74 138.896 195.278 138.896ZM178.701 143.823C177.234 143.61 176.847 141.706 178.085 140.791C179.187 139.977 180.361 140.294 180.831 141.53C181.288 142.732 180.087 144.024 178.701 143.823ZM189.239 142.816C188.403 142.816 187.662 141.455 188.202 140.91C188.931 140.173 190.011 140.641 190.011 141.696C190.011 142.312 189.664 142.816 189.239 142.816ZM192.328 143.203C192.222 142.646 192.273 141.827 192.442 141.383C193.17 139.466 196.407 141.123 196.009 143.209C195.74 144.622 192.597 144.617 192.328 143.203ZM179.541 142.976C178.776 143.749 177.491 142.678 178.062 141.744C178.267 141.409 178.655 141.136 178.924 141.136C179.78 141.136 180.18 142.33 179.541 142.976ZM194.202 143.376C193.275 143.376 192.651 142.576 193.168 142.053C193.83 141.384 195.001 141.692 195.001 142.536C195.001 142.998 194.641 143.376 194.202 143.376ZM192.783 150.825L201.792 146.543L210.801 142.26L210.962 147.114C211.051 149.783 211.008 152.27 210.868 152.641C210.727 153.012 207.66 154.894 204.054 156.824C200.446 158.754 196.435 160.951 195.139 161.708L192.783 163.083V156.954V150.825ZM180.301 147.269C180.103 146.638 180.241 145.756 180.609 145.309C182.159 143.422 184.987 145.267 183.847 147.421C183.109 148.813 180.754 148.711 180.301 147.269ZM215.079 146.278C214.232 147.134 213.607 146.503 214.076 145.266C214.354 144.536 214.594 144.464 215.088 144.962C215.58 145.46 215.579 145.773 215.079 146.278ZM192.61 149.196C191.183 150.076 189.2 147.707 190.039 146.124C190.702 144.872 191.628 144.769 193.015 145.793C194.205 146.672 194.007 148.333 192.61 149.196ZM106.3 147.576C105.851 147.576 105.399 147.135 105.296 146.596C105.165 145.908 105.465 145.616 106.3 145.616C107.135 145.616 107.434 145.908 107.303 146.596C107.2 147.135 106.749 147.576 106.3 147.576ZM182.706 146.549C182.437 147.954 181.141 148.147 181.141 146.782C181.141 146.095 181.499 145.616 182.013 145.616C182.53 145.616 182.813 145.997 182.706 146.549ZM110.735 157.936V152.012V146.087L112.259 146.39C113.098 146.556 128.253 148.006 145.938 149.611C165.037 151.345 178.257 152.774 178.5 153.133C179.117 154.048 179.012 165.216 178.386 165.216C178.09 165.216 171.666 164.471 164.111 163.56C143.963 161.131 114.678 157.936 112.567 157.936H110.735ZM192.291 148.016C191.526 148.789 190.242 147.719 190.813 146.784C191.018 146.45 191.406 146.176 191.674 146.176C192.531 146.176 192.931 147.37 192.291 148.016ZM187.331 151.216C185.163 151.216 184.19 148.401 185.992 147.341C186.526 147.026 187.131 146.762 187.339 146.753C187.764 146.733 189.457 148.348 189.457 148.772C189.457 149.72 188.155 151.216 187.331 151.216ZM186.251 149.898C185.808 149.45 185.614 148.807 185.821 148.47C186.296 147.692 187.617 147.674 188.086 148.44C188.283 148.762 188.132 149.404 187.75 149.868C187.144 150.607 186.957 150.61 186.251 149.898ZM183.319 156.281C182.354 156.883 181.108 155.874 181.51 154.815C181.678 154.375 182.17 154.016 182.604 154.016C183.703 154.016 184.237 155.707 183.319 156.281ZM188.706 156.281C188.44 156.013 188.391 155.52 188.595 155.185C189.075 154.401 189.843 154.407 190.327 155.199C190.805 155.98 189.361 156.944 188.706 156.281ZM192.783 164.18L201.792 159.413L210.801 154.647L210.969 157.769C211.062 159.486 211.012 161.222 210.858 161.626C210.576 162.369 193.831 175.297 193.151 175.297C192.949 175.297 192.783 172.796 192.783 169.738V164.18ZM214.116 157.169C213.626 156.98 213.38 156.57 213.57 156.26C214.019 155.526 214.798 155.541 215.258 156.294C215.768 157.127 215.177 157.58 214.116 157.169ZM110.735 169.518V164.06C110.735 159.152 110.833 158.623 111.705 158.818C112.239 158.936 127.02 160.685 144.552 162.702C162.084 164.721 176.953 166.485 177.593 166.624C178.666 166.855 178.782 167.364 179.085 173.172C179.266 176.634 179.363 179.519 179.302 179.581C179.24 179.644 167.841 177.979 153.971 175.882C140.1 173.784 124.699 171.495 119.743 170.793L110.735 169.518ZM106.749 160.596C106.524 161.777 105.54 161.702 105.289 160.486C105.184 159.978 105.49 159.616 106.023 159.616C106.594 159.616 106.865 159.983 106.749 160.596ZM213.455 168.925C213.337 168.806 214.033 166.919 215.001 164.732C215.969 162.546 216.948 160.874 217.178 161.017C217.407 161.16 217.888 162.456 218.247 163.896C218.769 165.993 218.755 166.65 218.177 167.192C217.369 167.948 213.789 169.262 213.455 168.925ZM101.865 173.083C101.865 170.707 102.035 168.591 102.243 168.38L102.266 168.358C102.346 168.276 102.412 168.209 102.49 168.189C102.835 168.1 103.414 168.933 106.567 173.47L106.766 173.756L110.172 178.657H108.481C107.552 178.657 105.682 178.375 104.328 178.03L101.865 177.404V173.083ZM183.359 169.743C183.359 171.108 182.063 170.915 181.794 169.51C181.687 168.957 181.97 168.576 182.487 168.576C183.001 168.576 183.359 169.055 183.359 169.743ZM189.318 170.71C188.363 170.896 187.968 169.708 188.73 168.938C189.311 168.351 190.288 168.851 190.288 169.736C190.288 170.167 189.852 170.606 189.318 170.71ZM207.058 171.27C206.451 171.388 206.088 171.113 206.088 170.536C206.088 169.998 206.447 169.69 206.949 169.796C208.153 170.049 208.227 171.043 207.058 171.27ZM114.615 175.617C114.615 176.647 112.886 176.496 112.537 175.437C112.401 175.026 112.783 174.737 113.461 174.737C114.141 174.737 114.615 175.098 114.615 175.617ZM130.09 178.967C129.246 179.494 128.26 178.349 128.657 177.304C128.849 176.801 129.346 176.574 129.84 176.766C130.826 177.148 130.97 178.418 130.09 178.967ZM197.528 178.657C196.602 178.657 195.977 177.857 196.494 177.334C197.157 176.665 198.327 176.973 198.327 177.817C198.327 178.279 197.968 178.657 197.528 178.657ZM179.478 189.304C179.478 188.302 182.036 184.019 184.584 180.757C185.486 179.602 186.557 178.657 186.964 178.657C187.794 178.657 193.885 185.328 193.89 186.24C193.893 187.037 187.281 192.097 186.236 192.097C184.138 192.097 179.478 190.171 179.478 189.304ZM145.661 181.177C145.212 181.177 144.76 180.735 144.657 180.197C144.527 179.509 144.826 179.217 145.661 179.217C146.496 179.217 146.795 179.509 146.664 180.197C146.561 180.735 146.11 181.177 145.661 181.177ZM160.67 183.697C159.561 183.697 159.117 182.611 159.902 181.818C160.495 181.218 161.442 181.732 161.64 182.763C161.761 183.393 161.445 183.697 160.67 183.697ZM175.266 185.525C174.726 186.07 173.38 185.321 173.38 184.477C173.38 184.048 173.879 183.697 174.489 183.697C175.532 183.697 175.996 184.788 175.266 185.525Z" fill="#13141D"/>
<path fill-rule="evenodd" clip-rule="evenodd" d="M182.169 236.225C180.325 236.447 178.779 238.108 179.255 239.358C180.494 242.621 190.011 242.982 190.011 239.766C190.011 237.55 186.044 235.759 182.169 236.225ZM182.784 240.813C180.153 240.097 179.379 238.775 180.913 237.613C183.189 235.887 190.5 238.101 189.253 240.139C188.674 241.086 185.142 241.454 182.784 240.813Z" fill="#B542FB"/>
<path d="M84.308 282.928V286H69.748V263.024H84.084V266.096H73.268V272.624H83.124V275.696H73.268V282.928H84.308ZM89.9395 286H86.2915L92.3075 277.328L86.6755 269.04H90.4195L94.6115 275.44L98.8035 269.04H102.291L96.7235 277.424L102.675 286H98.9635L94.4195 279.248L89.9395 286ZM111.242 286.352C106.602 286.352 103.338 282.704 103.338 277.52C103.338 272.4 106.666 268.72 111.242 268.72C115.434 268.72 118.474 271.504 119.082 275.92H115.69C115.338 273.2 113.642 271.568 111.274 271.568C108.49 271.568 106.666 273.936 106.666 277.52C106.666 281.136 108.49 283.472 111.274 283.472C113.674 283.472 115.338 281.872 115.722 279.12H119.082C118.506 283.6 115.498 286.352 111.242 286.352ZM126.272 265.104C126.272 266.32 125.312 267.248 123.936 267.248C122.56 267.248 121.568 266.32 121.568 265.104C121.568 263.856 122.56 262.96 123.936 262.96C125.312 262.96 126.272 263.856 126.272 265.104ZM125.568 286H122.336V269.04H125.568V286ZM139.622 282.864V285.712C138.63 286.16 137.766 286.32 136.742 286.32C133.606 286.32 131.43 284.624 131.43 280.88V271.792H127.686V269.04H131.43V264.016H134.662V269.04H139.782V271.792H134.662V280.144C134.662 282.48 135.782 283.312 137.51 283.312C138.278 283.312 138.95 283.184 139.622 282.864ZM146.803 265.104C146.803 266.32 145.843 267.248 144.467 267.248C143.091 267.248 142.099 266.32 142.099 265.104C142.099 263.856 143.091 262.96 144.467 262.96C145.843 262.96 146.803 263.856 146.803 265.104ZM146.099 286H142.867V269.04H146.099V286ZM153.818 276.432V286H150.586V269.04H153.594V271.856C154.746 269.968 156.666 268.72 159.002 268.72C162.49 268.72 164.794 270.96 164.794 275.024V286H161.562V276.112C161.562 273.2 160.282 271.568 157.882 271.568C155.674 271.568 153.818 273.424 153.818 276.432ZM175.87 292.528C171.422 292.528 168.542 290.16 168.35 286.32H171.486C171.678 288.688 173.214 289.968 175.838 289.968C178.75 289.968 180.286 288.4 180.286 285.488V282.416C179.326 284.464 177.406 285.648 175.102 285.648C170.878 285.648 167.87 282.16 167.87 277.168C167.87 272.112 170.75 268.72 175.006 268.72C177.438 268.72 179.358 269.904 180.51 272.048V269.04H183.518V285.424C183.518 289.872 180.67 292.528 175.87 292.528ZM171.134 277.168C171.134 280.688 172.862 282.832 175.678 282.832C178.43 282.832 180.286 280.624 180.286 277.264C180.286 273.744 178.462 271.504 175.678 271.504C172.894 271.504 171.134 273.68 171.134 277.168ZM202.903 278H198.455V286H194.935V263.024H202.903C208.055 263.024 211.383 265.648 211.383 270.448C211.383 275.28 208.055 278 202.903 278ZM202.871 266H198.455V275.024H202.871C205.975 275.024 207.863 273.328 207.863 270.48C207.863 267.632 205.975 266 202.871 266ZM217.88 277.328V286H214.648V269.04H217.656V272.624C218.84 270.288 221.4 268.816 224.184 268.816V272.176C220.536 271.984 217.88 273.584 217.88 277.328ZM230.678 265.104C230.678 266.32 229.718 267.248 228.342 267.248C226.966 267.248 225.974 266.32 225.974 265.104C225.974 263.856 226.966 262.96 228.342 262.96C229.718 262.96 230.678 263.856 230.678 265.104ZM229.974 286H226.742V269.04H229.974V286ZM247.293 286H233.309V283.472L242.941 271.824H233.469V269.04H246.973V271.632L237.341 283.184H247.293V286ZM257.155 286.32C252.259 286.32 248.963 282.768 248.963 277.424C248.963 272.4 252.387 268.72 257.059 268.72C262.115 268.72 265.475 272.816 264.899 278.32H252.259C252.515 281.776 254.243 283.792 257.091 283.792C259.491 283.792 261.155 282.48 261.699 280.272H264.899C264.067 284.048 261.155 286.32 257.155 286.32ZM256.995 271.152C254.403 271.152 252.643 273.008 252.291 276.176H261.475C261.315 273.04 259.619 271.152 256.995 271.152ZM281.776 280.944C281.776 284.272 279.184 286.32 274.672 286.32C270.192 286.32 267.536 284.112 267.216 280.464H270.32C270.448 282.576 272.144 283.888 274.736 283.888C277.008 283.888 278.512 283.088 278.512 281.488C278.512 280.08 277.648 279.472 275.536 279.056L272.784 278.544C269.648 277.936 267.888 276.336 267.888 273.776C267.888 270.8 270.48 268.72 274.416 268.72C278.48 268.72 281.232 270.896 281.52 274.384H278.416C278.224 272.336 276.72 271.152 274.448 271.152C272.4 271.152 271.024 272.016 271.024 273.488C271.024 274.864 271.888 275.504 273.936 275.888L276.816 276.432C280.176 277.04 281.776 278.512 281.776 280.944Z" fill="#13141D"/>
</svg>
