<svg width="22" height="22" viewBox="0 0 22 22" fill="none" xmlns="http://www.w3.org/2000/svg">
<g id="Add Circle">
<path id="Shape" d="M8.08407 8.10048C9.9404 6.28707 12.9501 6.28707 14.8064 8.10048C16.6627 9.91389 16.6627 12.854 14.8064 14.6674C12.9501 16.4808 9.9404 16.4808 8.08407 14.6674C6.22775 12.854 6.22775 9.91389 8.08407 8.10048ZM8.50422 8.51091C6.87994 10.0976 6.87994 12.6702 8.50422 14.257C10.1285 15.8437 12.762 15.8437 14.3863 14.257C16.0106 12.6702 16.0106 10.0976 14.3863 8.51091C12.762 6.92418 10.1285 6.92418 8.50422 8.51091ZM9.76466 9.74221C9.88068 9.62887 10.0688 9.62887 10.1848 9.74221L11.4452 10.9735L12.7057 9.74221C12.8217 9.62887 13.0098 9.62887 13.1258 9.74221C13.2419 9.85555 13.2419 10.0393 13.1258 10.1526L11.8654 11.3839L13.1258 12.6152C13.2419 12.7286 13.2419 12.9123 13.1258 13.0257C13.0098 13.139 12.8217 13.139 12.7057 13.0257L11.4452 11.7944L10.1848 13.0257C10.0688 13.139 9.88068 13.139 9.76466 13.0257C9.64864 12.9123 9.64864 12.7286 9.76466 12.6152L11.0251 11.3839L9.76466 10.1526C9.64864 10.0393 9.64864 9.85555 9.76466 9.74221Z" fill="#212121"/>
</g>
</svg>
