<svg width="26" height="26" viewBox="0 0 26 26" fill="none" xmlns="http://www.w3.org/2000/svg">
<path fill-rule="evenodd" clip-rule="evenodd" d="M11.8 1.7C11.8 1.03726 12.3373 0.5 13 0.5C15.4723 0.5 17.889 1.23311 19.9446 2.60663C22.0002 3.98015 23.6024 5.93238 24.5485 8.21646C25.4946 10.5005 25.7421 13.0139 25.2598 15.4386C24.7775 17.8634 23.587 20.0907 21.8388 21.8388C20.0907 23.587 17.8634 24.7775 15.4386 25.2598C13.0139 25.7421 10.5005 25.4946 8.21646 24.5485C5.93238 23.6024 3.98015 22.0002 2.60663 19.9446C1.23311 17.889 0.5 15.4723 0.5 13C0.5 12.3373 1.03726 11.8 1.7 11.8C2.36274 11.8 2.9 12.3373 2.9 13C2.9 14.9976 3.49235 16.9503 4.60216 18.6113C5.71196 20.2722 7.28936 21.5667 9.1349 22.3312C10.9804 23.0956 13.0112 23.2956 14.9704 22.9059C16.9296 22.5162 18.7293 21.5543 20.1418 20.1418C21.5543 18.7293 22.5162 16.9296 22.9059 14.9704C23.2956 13.0112 23.0956 10.9804 22.3312 9.1349C21.5667 7.28936 20.2722 5.71196 18.6113 4.60216C16.9503 3.49235 14.9976 2.9 13 2.9C12.3373 2.9 11.8 2.36274 11.8 1.7Z" fill="#C2CFE0"/>
</svg>
