<svg width="48" height="88" viewBox="0 0 48 88" fill="none" xmlns="http://www.w3.org/2000/svg">
<path fill-rule="evenodd" clip-rule="evenodd" d="M19.3429 41.8571C21.1343 39.9821 24.593 37.5644 25.6212 36.9095C25.7152 36.8453 25.7977 36.7714 25.8733 36.7038C25.9633 36.6232 26.0434 36.5515 26.121 36.5159C26.4564 36.303 26.7959 36.0881 27.1389 35.8709C30.5584 33.706 34.3268 31.3203 37.8009 28.542C38.255 28.1971 38.6765 27.7928 39.0947 27.3917C39.1472 27.3413 39.1997 27.2909 39.2522 27.2407L39.3004 27.1943C39.7538 26.758 40.2036 26.3252 40.6187 25.8441C41.102 25.4378 41.531 24.9849 41.9225 24.4937C42.0555 24.3075 42.1862 24.1202 42.3165 23.9334C42.5487 23.6009 42.7797 23.2698 43.0203 22.949C43.2669 22.6472 43.4736 22.3136 43.6802 21.9802C43.7776 21.8231 43.8749 21.666 43.9764 21.5123C44.0835 21.3375 44.1939 21.1668 44.3042 20.9962C44.5053 20.6853 44.7061 20.3748 44.8864 20.04C45.4506 19.0198 45.9456 17.939 46.3315 16.7929C46.706 15.6415 46.9799 14.4216 47.032 13.1533C47.1013 11.8931 46.9146 10.5682 46.5238 9.34987C45.8715 7.35147 44.6739 5.62046 43.2023 4.26359C41.7334 2.90099 39.9811 1.87316 38.0745 1.2619C34.2049 0.0407207 30.149 0.639719 26.7138 2.13199C26.4844 2.23189 26.2482 2.32532 26.0108 2.4192C24.82 2.89012 23.5997 3.37274 23.0589 4.74379L23.0212 4.82388C22.856 5.14458 22.9885 5.38006 23.1209 5.61521C23.1835 5.72644 23.2461 5.8376 23.277 5.95767C23.4976 6.79532 23.805 7.2406 24.192 7.33896C24.5817 7.4316 25.0424 7.18034 25.7085 6.64141C25.9943 6.40558 26.3702 6.27511 26.7293 6.15069C26.9184 6.08047 27.1345 5.99778 27.3653 5.90949C28.1368 5.61426 29.0718 5.25646 29.7081 5.09342C29.9899 5.0126 30.279 4.91611 30.5704 4.81888C31.2899 4.57876 32.0227 4.3342 32.6905 4.31042C33.6738 4.27028 34.6517 4.36038 35.5818 4.5817C36.492 4.80067 37.3602 5.15356 38.1603 5.62118C39.769 6.5534 41.0935 7.91091 41.9095 9.41333C42.3939 10.2844 42.6898 11.1994 42.78 12.1504C42.8764 13.1183 42.7735 14.1531 42.4872 15.2063C41.9287 17.3124 40.675 19.4406 39.1205 21.2873C37.4616 23.2666 35.4347 24.9888 33.2577 26.5843C31.6781 27.742 30.0152 28.8346 28.3301 29.9418C27.6927 30.3606 27.0522 30.7815 26.4118 31.2087C26.1779 31.3647 25.9435 31.5207 25.7086 31.6769C23.3334 33.2571 20.9125 34.8677 18.6462 36.7768C16.1474 38.8777 13.8918 41.3378 12.272 44.3768C11.74 45.4471 11.2703 46.6376 11.0721 47.949C10.8763 49.2405 10.9816 50.59 11.3131 51.8153C11.9936 54.2882 13.3731 56.3006 14.8197 58.0371C16.0473 59.4817 17.5162 59.6422 18.5694 58.6077C19.4669 57.7232 18.6439 56.703 18.0428 55.958C17.9626 55.8586 17.8864 55.7641 17.8187 55.6754C16.8825 54.4728 16.0422 53.2595 15.5074 52.0502C14.9528 50.8386 14.7589 49.6921 14.9177 48.6277C15.0599 47.5835 15.6468 46.4412 16.4786 45.2535L17.8261 43.505C18.0242 43.2917 18.2189 43.0768 18.4132 42.8622C18.7196 42.5239 19.0253 42.1864 19.3429 41.8571ZM7.79382 79.6489C7.89981 79.7057 8.00646 79.7909 8.04986 79.8323C8.06224 79.8424 8.08903 79.8331 8.11055 79.8255C8.12414 79.8208 8.13562 79.8168 8.14005 79.8189L8.15653 79.8425C8.2905 80.0347 8.44482 80.2561 8.52588 80.4688C8.6066 80.6536 8.64927 80.9043 8.57416 81.1974C8.5647 81.2452 8.56192 81.2962 8.55895 81.3505C8.55716 81.3833 8.5553 81.4172 8.55187 81.4524C8.5569 81.5457 8.55082 81.6476 8.52758 81.7415C8.40938 81.805 8.39535 81.9315 8.38078 82.0629C8.37227 82.1395 8.36359 82.2178 8.33394 82.2863C8.18343 82.6207 7.91516 82.8788 7.63582 83.0268C7.35647 83.1748 7.07748 83.2181 6.80591 83.216C6.36777 83.2263 5.83546 82.9617 5.4092 82.5164C5.12563 82.2223 4.90633 81.8621 4.76459 81.4915C4.8606 81.4066 4.95496 81.3226 5.04771 81.2401C5.46127 80.8721 5.84292 80.5325 6.19622 80.2663C6.73476 79.835 7.16588 79.6467 7.41929 79.5983C7.5263 79.5788 7.71072 79.6027 7.79382 79.6489ZM1.77441 79.0649C1.7079 79.0522 1.647 79.0465 1.59128 79.0483C1.27461 79.0529 1.09956 79.3059 1.13243 79.7407C1.15085 79.9051 1.08175 80.0592 1.01265 80.2132C1.00113 80.2388 0.989614 80.2645 0.978502 80.2902C0.901387 80.4985 0.860254 80.7936 0.841671 81.0854C0.84833 81.3681 0.85802 81.6592 0.891283 81.8705C0.933606 82.1911 1.10777 82.484 1.26944 82.756C1.37081 82.9264 1.46727 83.0887 1.52325 83.2443C1.83532 84.125 2.27965 84.9772 2.94206 85.7225C3.59573 86.4566 4.4988 87.0915 5.59107 87.3542C6.85697 87.6638 8.26266 87.4242 9.30905 86.8198C10.3726 86.2234 11.1562 85.3904 11.7655 84.4822C12.3931 83.5058 12.8362 82.3867 12.9115 81.1433C12.9785 79.9029 12.579 78.5547 11.8299 77.6079C11.4127 77.069 10.9205 76.5856 10.3287 76.1951C9.74255 75.8073 9.03695 75.51 8.30774 75.4112C7.60344 75.2892 6.84456 75.3721 6.18191 75.5772C5.51084 75.7854 4.95078 76.1436 4.5021 76.5473C4.16934 76.8452 3.83761 77.146 3.50517 77.4475C3.27032 77.6604 3.03512 77.8737 2.79894 78.0865C2.44192 78.4077 2.09586 78.731 1.77441 79.0649Z" fill="black"/>
</svg>
