<svg width="76" height="50" viewBox="0 0 76 50" fill="none" xmlns="http://www.w3.org/2000/svg">
<path d="M34.7067 18.8186C34.7067 35.44 20.2113 49.5488 0.884109 48.0026V37.5659C11.7073 38.1458 19.4382 32.7342 21.1776 24.2302C19.6315 24.81 18.0853 25.0033 16.7324 25.0033C9.38807 25.0033 4.16973 19.5917 4.16973 13.0204C4.16973 5.28956 9.96788 0.0712173 18.4718 0.0712173C28.7152 0.0712173 34.7067 7.60881 34.7067 18.8186ZM75.8736 18.8186C75.8736 35.44 61.3782 49.5488 42.051 48.0026V37.5659C52.8742 38.1458 60.6051 32.7342 62.3445 24.2302C60.7984 24.81 59.2522 25.0033 57.706 25.0033C50.555 25.0033 45.3366 19.5917 45.3366 13.0204C45.3366 5.28956 51.1348 0.0712173 59.6387 0.0712173C69.8821 0.0712173 75.8736 7.60881 75.8736 18.8186Z" fill="#B542FB"/>
</svg>
