<svg width="76" height="51" viewBox="0 0 76 51" fill="none" xmlns="http://www.w3.org/2000/svg">
<path d="M0.0437391 31.6418C0.0437391 15.0204 14.5391 0.91159 33.8663 2.45776V12.8944C23.0431 12.5079 15.3122 17.7262 13.5728 26.2302C15.1189 25.6504 16.6651 25.4571 18.018 25.4571C25.3623 25.4571 30.5807 30.8687 30.5807 37.6332C30.5807 45.1708 24.7825 50.3892 16.2786 50.3892C6.03517 50.3892 0.0437391 42.8516 0.0437391 31.6418ZM41.2106 31.6418C41.2106 15.0204 55.706 0.91159 75.0332 2.45776V12.8944C64.21 12.5079 56.4791 17.7262 54.7397 26.2302C56.2858 25.6504 57.832 25.4571 59.1849 25.4571C66.336 25.4571 71.7476 30.8687 71.7476 37.6332C71.7476 45.1708 65.7561 50.3892 57.4455 50.3892C47.2021 50.3892 41.2106 42.8516 41.2106 31.6418Z" fill="#B542FB"/>
</svg>
