<svg width="522" height="522" viewBox="0 0 522 522" fill="none" xmlns="http://www.w3.org/2000/svg">
<path fill-rule="evenodd" clip-rule="evenodd" d="M141.187 84.4349C145.09 83.9116 147.436 82.7071 149.158 80.3437C152.008 76.4314 158.383 75.7501 160.288 79.1536C161.263 80.8958 162.769 81.162 168.09 80.5317L174.685 79.75L175.952 85.8769C179.261 101.881 180.448 111.082 179.328 112.075C177.647 113.569 142.897 119.285 140.678 118.433C138.802 117.714 133.624 88.4648 134.984 86.2658C135.353 85.6668 138.145 84.8434 141.187 84.4349ZM160.789 86.8857C162.432 85.1488 165.246 83.4666 167.04 83.1482C168.834 82.8311 170.976 82.4905 171.799 82.3926C173.064 82.2425 175.738 96.1917 176.629 107.596C176.807 109.876 175.034 110.427 159.612 112.879L142.395 115.618L141.771 112.945C141.427 111.476 140.423 105.665 139.538 100.032C138.184 91.4036 138.219 89.6105 139.762 88.6344C142.253 87.0567 149.732 87.1297 150.727 88.7401C152.197 91.1178 157.754 90.0934 160.789 86.8857ZM339.509 88.7727C341.79 89.8115 344.379 89.6549 349.74 88.1568C358.669 85.6603 369.897 86.3937 374.458 89.7698C376.295 91.1296 379.122 94.2446 380.743 96.6902C382.362 99.1357 385.218 102.834 387.089 104.908C390.049 108.189 390.368 109.373 389.552 114.043C389.035 116.993 388.437 121.74 388.222 124.588C387.937 128.368 386.829 130.632 384.128 132.956C379.572 136.875 376.798 145.495 376.624 156.274C376.456 166.726 373.788 167.263 372.939 157.018C372.538 152.197 372.943 148.432 374.094 146.251C375.067 144.406 376.231 140.67 376.68 137.946C377.294 134.223 378.445 132.505 381.317 131.02C386.272 128.458 385.916 123.922 380.65 122.523C375.341 121.111 373.23 118.925 373.23 114.84C373.23 108.112 367.805 106.539 355.109 109.585C351.32 110.493 345.315 110.958 341.761 110.616C331.401 109.62 325.896 102.427 330.586 96.0116C332.031 94.0384 332.736 93.9131 334.882 95.2547C336.982 96.5662 339.244 96.3561 347.268 94.105C352.667 92.5899 359.983 91.2509 363.526 91.1309C369.746 90.9195 369.789 90.8921 364.747 90.3557C361.876 90.0503 355.503 90.5475 350.584 91.4623C341.597 93.1327 338.159 92.4972 336.977 88.9476C336.584 87.7718 337.213 87.7287 339.509 88.7727ZM365.726 113.967C361.156 114.838 360.059 113.191 363.769 111.03C366.599 109.381 366.902 109.372 369.277 110.874C371.687 112.398 371.048 112.954 365.726 113.967ZM355.55 151.346C349.282 147.992 345.711 134.072 347.705 120.77C349.241 110.527 351.045 114.269 351.045 127.697C351.045 138.92 351.423 141.118 354.024 144.988C356.509 148.687 357.916 149.489 362.507 149.823C368.204 150.24 369.923 152.429 365.466 153.595C363.485 154.113 362.836 155.6 362.53 160.312C362.218 165.123 361.61 166.465 359.569 166.852C357.563 167.235 357.304 166.95 358.386 165.559C359.148 164.579 359.514 161.352 359.2 158.387C358.778 154.399 357.828 152.566 355.55 151.346ZM354.143 125.652C354.581 122.457 355.278 119.295 355.692 118.626C357.415 115.838 358.464 119.085 357.516 124.269C356.88 127.75 356.996 130.145 357.826 130.658C358.704 131.201 358.665 131.78 357.71 132.371C354.756 134.196 353.339 131.523 354.143 125.652ZM366.052 123.975C364.965 123.975 364.095 122.815 364.095 121.365C364.095 119.915 364.965 118.755 366.052 118.755C367.139 118.755 368.01 119.915 368.01 121.365C368.01 122.815 367.139 123.975 366.052 123.975ZM95.2649 162.216C95.2649 140.704 95.6656 122.704 96.155 122.215C96.6443 121.725 113.527 121.481 133.674 121.672L170.302 122.018L170.646 166.061L170.99 210.105L133.453 210.301C112.808 210.408 97.6792 210.716 99.8324 210.985C101.986 211.254 105.157 211.786 106.878 212.168L110.01 212.863L109.128 229.353C108.644 238.422 108.034 246.055 107.776 246.315C107.046 247.043 67.9852 244.266 66.5576 243.384C65.3661 242.648 65.6675 232.355 67.3732 215.514L68.0818 208.527L75.1184 209.406L82.1549 210.285L82.9966 205.022L83.8384 199.759L89.5517 200.542L95.2649 201.325V162.216ZM99.18 125.361L115.166 124.95C123.958 124.724 139.52 124.412 149.749 124.257L168.345 123.975V165.083V206.19H133.762H99.18V165.776V125.361ZM361.297 137.836C364.087 138.394 365.243 138.01 365.896 136.311C367.076 133.234 368.459 134.86 367.427 138.111C366.372 141.433 363.285 142.601 360.086 140.889C356.312 138.87 357.058 136.989 361.297 137.836ZM136.459 140.94C118.189 140.94 110.496 140.08 111.675 138.171C112.496 136.844 133.632 136.661 146.448 137.872C160.745 139.223 155.15 140.94 136.459 140.94ZM137.841 156.6C119.745 156.6 112.23 155.786 112.23 153.827C112.23 152.5 135.546 152.298 147.273 153.523C161.068 154.965 156.057 156.6 137.841 156.6ZM362.216 182.7C362.659 182.7 367.504 178.61 372.981 173.612C381.22 166.095 383.512 164.649 386.242 165.246C408.378 170.081 417.062 174.479 428.574 186.682C439.901 198.689 448.852 217.763 448.904 230.006L448.92 233.595L430.324 233.609C410.773 233.625 401.94 234.485 401.94 236.376C401.94 237 402.821 237.51 403.897 237.51C408.361 237.51 405.022 239.815 391.85 245.828L377.916 252.189L371.985 250.063C362.585 246.695 358.336 247.264 352.319 252.7C345.855 258.54 344.195 257.727 349.724 251.429C355.157 245.241 361.4 243.21 368.503 245.318C371.462 246.196 374.47 247.377 375.187 247.942C377.266 249.579 399.028 240.111 399.778 237.243C400.112 235.964 399.821 235.34 398.677 235.443C396.912 235.602 393.114 237.49 386.448 241.368L378.135 246.203L373.449 243.815C363.39 238.686 351.838 241.941 345.691 251.635C343.656 254.843 342.301 257.969 342.68 258.581C343.06 259.194 346.124 259.699 349.491 259.703C360.637 259.716 371.124 262.021 373.063 264.882C374.741 267.358 376.224 267.525 396.618 267.525C408.589 267.525 418.94 267.037 419.623 266.441C420.304 265.843 423.279 264.668 426.232 263.831C436.88 260.807 443.612 251.78 443.671 240.446C443.687 237.395 444.223 234.9 444.864 234.9C447.21 234.9 447.675 241.856 445.767 248.42C443.474 256.305 437.326 262.938 429.834 265.608C425.169 267.271 426.516 267.415 447.196 267.468C466.095 267.516 469.946 267.858 471.734 269.646C476.639 274.551 471.229 280.518 461.842 280.556L457.147 280.575L458.265 287.426C458.881 291.194 464.7 326.559 471.195 366.015C480.608 423.183 482.718 438.382 481.591 440.859C480.423 443.421 479.835 443.683 478.237 442.357C475.432 440.03 474.127 434.801 456.743 356.265C448.085 317.148 440.687 284.116 440.304 282.859C439.849 281.361 438.292 280.575 435.783 280.575H431.955V288.918V288.988C431.955 293.248 431.955 295.667 430.757 297.04C429.182 298.845 425.538 298.845 417.107 298.845H417.001H406.175L405.6 310.264C404.721 327.736 400.083 333.657 386.651 334.453C381.063 334.785 380.856 334.262 378.415 313.464C378.017 310.083 377.422 302.842 376.86 296.012L376.86 296.009C376.194 287.91 375.575 280.391 375.391 280.575C375.052 280.914 376.936 311.641 378.565 324.33L381.528 347.404L388.145 346.544C395.698 345.563 403.094 342.286 405.058 339.051C406.061 337.399 405.816 336.199 404.084 334.286C402.697 332.753 402.291 331.407 403.07 330.926C404.626 329.964 408.465 335.076 408.465 338.107C408.465 343.535 396.995 349.74 386.966 349.74C385.108 349.74 383.297 350.498 382.94 351.426C382.585 352.354 384.365 369.755 386.897 390.095C389.429 410.436 391.467 429.79 391.427 433.105C391.317 441.996 388.86 448.179 385.229 448.694C378.415 449.66 376.432 444.304 367.917 401.94L361.752 371.273L361.619 384.603C361.498 396.673 361.732 398.066 364.095 399.33C367.357 401.076 367.596 405.856 364.421 405.853C362.431 405.85 362.19 406.984 362.543 414.661C362.84 421.094 362.405 424.177 360.937 426.083C358.041 429.838 356.641 427.057 355.546 415.379C354.528 404.515 353.909 404.148 342.927 407.891C335.667 410.364 333.07 413.061 330.913 420.363C328.967 426.956 326.687 428.278 325.49 423.509C324.278 418.681 328.288 409.05 332.87 405.787C334.965 404.296 340.807 402.107 345.856 400.922L355.034 398.768L354.181 376.538C353.263 352.624 353.985 350.674 358.765 364.146C360.156 368.066 361.337 370.482 361.39 369.516C361.561 366.358 344.451 283.254 343.15 280.575C342.394 279.019 344.853 289.958 346.5 297.284C347.13 300.085 347.641 302.358 347.809 303.203C348.512 306.751 348.376 306.87 344.573 306.034C342.065 305.484 340.605 305.681 340.605 306.572C340.605 307.346 342.355 307.98 344.495 307.98C347.474 307.98 348.531 308.668 349.01 310.916C350.151 316.284 353.655 334.352 353.655 334.872C353.655 335.963 345.166 335.295 332.701 333.225C325.548 332.036 319.34 331.421 318.907 331.854C316.863 333.897 313.751 368.905 311.142 419.194L310.281 435.796L305.43 428.329C301.685 422.563 299.491 420.535 295.798 419.426C292.011 418.289 291.015 418.341 291.015 419.682C291.015 421.492 300.787 440.944 302.614 442.771C303.214 443.371 304.087 441.476 304.553 438.561C305.019 435.646 305.981 433.26 306.691 433.26C309.461 433.26 307.047 453.602 304.057 455.45C300.634 457.566 295.615 454.748 292.735 449.096C291.169 446.023 287.345 440.763 284.235 437.406C281.127 434.05 277.474 428.806 276.118 425.756C273.349 419.525 271.44 418.593 271.44 423.473C271.44 428.627 267.13 431.955 260.454 431.955C256.064 431.955 251.313 430.253 240.553 424.827C219.444 414.181 209.313 404.382 212.761 397.94C215.33 393.138 227.557 395.573 244.938 404.348C245.773 404.769 246.525 405.17 247.205 405.532C249.566 406.788 251.057 407.581 252.127 407.198C253.963 406.541 254.559 402.42 256.177 391.229C256.448 389.349 256.749 387.271 257.089 384.975C264.457 335.24 268.046 317.738 272.447 310.06C273.72 307.839 277.391 304.652 280.605 302.977C285.95 300.191 287.563 299.993 299.56 300.664C311.25 301.318 328.96 303.984 335.583 306.085C337.502 306.695 337.995 306.165 337.995 303.5V300.15H322.335H306.675V290.363V280.575H286.754H266.832L263.094 299.171C258.4 322.531 240.943 392.903 239.024 396.209C236.339 400.83 237.499 395.225 251.071 337.995L264.534 281.228L240.326 280.871C213.773 280.481 210.872 279.668 211.675 272.843L211.682 272.784C211.801 271.766 211.903 270.901 212.27 270.169C214.342 266.04 224.875 266.155 294.868 266.922L295.582 266.93C366.756 267.71 372.422 267.613 370.526 265.645C368.912 263.969 364.652 263.344 350.49 262.703L332.505 261.89L330.028 256.112C328.665 252.934 325.477 243.495 322.943 235.136C320.41 226.779 317.915 219.559 317.399 219.093C316.884 218.627 296.305 217.947 271.67 217.583C233.979 217.024 226.766 217.21 226.173 218.751C225.787 219.76 228.825 229.941 232.925 241.379C237.026 252.816 240.142 262.89 239.851 263.763C239.56 264.636 235.4 254.92 230.606 242.172C223.757 223.958 222.175 218.461 223.221 216.506C224.487 214.141 226.44 214.028 263.329 214.182C284.657 214.272 306.218 214.712 311.242 215.161L320.377 215.978L322.073 221.198C323.004 224.069 325.96 233.465 328.639 242.078C332.811 255.485 333.931 257.798 336.42 258.157C337.132 258.259 337.662 258.311 338.031 258.277C339.002 258.186 338.866 257.497 338.031 255.547C337.319 253.88 334.06 243.122 330.791 231.638C327.344 219.529 323.94 210.072 322.689 209.126C321.487 208.218 316.847 207.495 312.216 207.495H303.902L307.56 200.644C313.216 190.052 325.25 178.72 336.69 173.213C342.073 170.621 348.298 168.145 350.522 167.711C354.434 166.945 354.678 167.177 357.989 174.81C359.871 179.149 361.773 182.7 362.216 182.7ZM138.579 172.246C120.656 172.23 111.874 171.283 112.986 169.483C113.804 168.16 136.893 167.963 148.543 169.18C161.76 170.561 156.236 172.261 138.579 172.246ZM139.961 187.906C122.226 187.89 113.535 186.981 113.535 185.139C113.535 183.834 139.557 183.627 149.749 184.851C162.056 186.329 156.958 187.92 139.961 187.906ZM69.439 240.801C69.2315 240.608 69.4651 234.211 69.9584 226.583L70.8549 212.715H76.4521C81.813 212.715 82.0675 212.894 82.459 216.956C82.857 221.092 83.0371 221.208 89.7187 221.592L96.57 221.987V218.003C96.57 214.226 96.8401 214.02 101.79 214.02H107.01V220.353C107.01 223.838 106.626 230.363 106.156 234.856L105.303 243.024L87.5602 242.087C77.8014 241.573 69.6478 240.993 69.439 240.801ZM326.28 264.162C324.63 262.513 314.505 231.705 314.505 228.337C314.505 226.923 314.813 225.765 315.19 225.765C316.153 225.765 317.993 230.774 323.106 247.298C327.725 262.228 328.509 266.391 326.28 264.162ZM358.181 256.366C353.102 258.488 352.124 257 356.556 253.897C359.771 251.645 368.01 251.121 368.01 253.17C368.01 253.888 366.817 254.475 365.358 254.475C363.899 254.475 360.669 255.326 358.181 256.366ZM215.325 274.268C215.325 272.951 215.716 271.483 216.195 271.006C216.673 270.527 247.797 270.135 285.36 270.135H353.655V274.248V278.362L339.749 277.511C332.102 277.042 300.977 276.66 270.584 276.66C217.87 276.66 215.325 276.551 215.325 274.268ZM358.222 277.313L357.81 273.724L357.396 270.135H414.337H471.279L470.865 273.724L470.452 277.313H414.337H358.222ZM458.599 351.695C449.687 313.653 442.395 282.089 442.395 281.551C442.395 281.015 445.225 280.575 448.685 280.575H454.975L456.556 292.646C459.022 311.483 464.092 343.967 471.864 390.746C475.79 414.375 478.778 434.342 478.504 435.116C478.23 435.89 477.285 432.999 476.405 428.693C475.525 424.386 467.512 389.737 458.599 351.695ZM225.898 389.518C225.67 382.763 237.995 287.828 239.704 283.185C240.17 281.918 240.625 281.76 240.993 282.738C241.691 284.591 228.85 384.084 227.208 389.543L226.031 393.458L225.898 389.518ZM379.741 438.806C377.598 433.087 347.809 285.18 347.809 280.575C347.809 278.7 353.415 302.179 353.865 304.718C354.206 306.635 355.538 307.439 358.885 307.747C361.392 307.978 364.03 308.787 364.747 309.545C365.658 310.508 364.381 310.672 360.506 310.089C354.054 309.118 353.954 309.408 356.782 320.842C357.783 324.893 358.969 329.823 359.417 331.796C360.193 335.221 360.587 335.385 368.035 335.385C375.621 335.385 375.84 335.287 375.84 331.905C375.84 325.94 376.75 329.125 377.645 338.225L378.502 346.936L371.282 347.837C361.194 349.098 360.979 351.045 370.928 351.045H379.22L381.535 372.251C382.809 383.915 384.189 395.726 384.603 398.499C385.295 403.129 385.154 403.437 382.882 402.272C381.521 401.573 378.437 400.629 376.029 400.172C372.384 399.48 371.783 399.686 372.44 401.4C372.875 402.533 373.23 403.934 373.23 404.514C373.23 405.409 375.953 406.102 384.486 407.375C387.328 407.801 388.823 438.947 386.234 443.786C384.073 447.824 382.736 446.799 379.741 438.806ZM374.153 313.511C373.841 315.134 373.573 314.114 373.559 311.243C373.552 309.815 372.908 301.917 372.303 294.489C371.69 286.978 371.118 279.948 371.282 280.575C371.608 281.823 374.464 311.887 374.153 313.511ZM375.439 323.289C375.108 324.559 374.816 323.836 374.789 321.683C374.763 319.529 375.033 318.491 375.391 319.374C375.749 320.258 375.771 322.019 375.439 323.289ZM284.893 347.663C285.787 334.996 289.077 327.393 295.308 323.594C299.663 320.939 307.899 320.337 312.547 322.335C314.461 323.157 313.31 323.481 308.241 323.549C293.975 323.738 289.013 330.328 287.542 351.044C286.915 359.898 286.356 362.442 285.411 360.753C284.678 359.443 284.456 353.853 284.893 347.663ZM324.048 349.394C321.762 348.158 319.525 346.557 319.078 345.834C317.989 344.072 319.386 344.202 325.597 346.44C328.692 347.554 335.842 348.344 343.15 348.378C352.534 348.422 355.119 348.798 353.962 349.955C351.422 352.495 329.014 352.075 324.048 349.394ZM281.101 398.984L283.711 387.412C285.146 381.047 286.496 375.84 286.71 375.84C286.925 375.84 287.1 383.018 287.1 391.79V407.74L284.1 403.361L281.101 398.984ZM219.064 403.052C216.417 404.705 214.642 402.991 215.821 399.92C216.759 397.476 217.306 397.512 227.692 400.721C237.81 403.845 268.027 417.856 269.383 420.05C269.89 420.869 269.944 422.671 269.505 424.056C268.732 426.487 268.557 426.471 264.283 423.572C261.852 421.921 257.328 420.166 254.232 419.671C250.424 419.064 246.187 416.876 241.137 412.91C231.259 405.153 222.188 401.101 219.064 403.052ZM288.445 437.747C279.566 427.6 276.193 420.183 275.57 409.444C275.249 403.887 275.561 400.635 276.419 400.635C278.796 400.635 282.855 406.949 287.14 417.318C289.428 422.857 293.879 432.146 297.031 437.959C303.026 449.023 304.017 452.835 300.895 452.835C298.525 452.835 294.93 449.286 294.93 446.946C294.93 445.962 292.012 441.822 288.445 437.747ZM246.77 424.75C235.475 419.337 220.91 409.995 219.979 407.565C218.564 403.881 225.466 406.081 234.058 412.054C245.939 420.313 250.62 422.816 254.19 422.818C258.19 422.821 266.22 426.263 266.22 427.974C266.22 430.91 256.135 429.238 246.77 424.75ZM392.805 414.338C391.418 411.467 390.264 408.678 390.239 408.139C390.153 406.244 392.382 407.194 395.295 410.295C399.078 414.322 400.673 424.125 397.545 424.125C396.373 424.125 395.395 423.097 395.371 421.841C395.346 420.586 394.192 417.209 392.805 414.338ZM220.078 446.636C218.18 439.899 217.816 435.041 218.634 427.403C219.949 415.134 221.85 418.322 221.85 432.793C221.85 447.628 223.777 448.63 227.565 435.763C228.92 431.156 230.245 427.144 230.507 426.843C233.21 423.768 230.755 439.015 227.531 445.331C225.469 449.37 221.064 450.142 220.078 446.636Z" fill="#13141D"/>
<path fill-rule="evenodd" clip-rule="evenodd" d="M254.677 80.9101C255.122 93.8988 254.951 95.2651 252.885 95.2651C251.629 95.2651 248.755 96.9146 246.497 98.9309C243.14 101.932 242.274 103.853 241.73 109.512C241.281 114.188 239.646 118.784 236.677 123.712C234.264 127.72 232.29 131.566 232.29 132.261C232.29 133.924 281.91 132.297 283.63 130.577C284.455 129.752 282.783 126.825 278.865 122.241C274.709 117.376 272.566 113.527 271.983 109.884C270.773 102.313 266.949 96.651 262.438 95.748L258.657 94.9924L257.728 80.7731C256.487 61.7671 254.026 61.878 254.677 80.9101ZM245.34 112.165C245.34 107.678 248.354 101.061 250.859 100.053C255.318 98.2601 256.06 99.3967 252.713 102.892C250.757 104.933 248.809 108.75 248.383 111.374C247.445 117.154 245.34 117.702 245.34 112.165ZM241.425 123.786C241.425 122.742 242.13 121.182 242.991 120.321C243.852 119.46 245.027 118.755 245.601 118.755C247.45 118.755 246.715 120.897 244.035 123.323C241.963 125.198 241.425 125.293 241.425 123.786Z" fill="#B542FB"/>
<path d="M234.26 142.232C232.205 144.377 230.814 146.424 231.169 146.78C231.525 147.135 233.8 145.38 236.225 142.878C238.648 140.376 240.039 138.33 239.315 138.33C238.59 138.33 236.316 140.085 234.26 142.232Z" fill="#B542FB"/>
<path d="M245.947 150.164C244.807 152.365 244.113 154.862 244.402 155.71C244.691 156.558 246.206 154.757 247.77 151.706C249.333 148.655 250.029 146.16 249.315 146.16C248.601 146.16 247.085 147.962 245.947 150.164Z" fill="#B542FB"/>
<path d="M258.113 151.811C257.796 153.467 257.92 155.914 258.387 157.247C259.185 159.519 259.294 159.527 260.119 157.377C261.35 154.17 261.217 150.364 259.844 149.515C259.208 149.122 258.429 150.155 258.113 151.811Z" fill="#B542FB"/>
<path d="M271.839 149.464C273.853 151.235 276.202 152.667 277.059 152.643C277.917 152.621 276.969 151.153 274.956 149.381C272.942 147.61 270.593 146.178 269.736 146.202C268.878 146.224 269.826 147.692 271.839 149.464Z" fill="#B542FB"/>
<path d="M276.576 140.186C278.521 142.53 285.795 145.157 285.795 143.516C285.795 142.175 278.952 138.33 276.565 138.33C275.401 138.33 275.403 138.774 276.576 140.186Z" fill="#B542FB"/>
<path fill-rule="evenodd" clip-rule="evenodd" d="M54.1574 254.422C50.2516 256.049 44.768 262.335 42.4816 267.81C39.5036 274.939 39.9773 280.485 44.4665 291.035C48.1584 299.709 48.4076 301.219 47.5907 309.935C46.2413 324.329 47.1901 326.703 58.7928 337.982C69.011 347.917 69.6504 349.082 71.1264 360.478C71.7019 364.917 73.4949 368.76 77.5183 374.18C80.5928 378.324 84.192 383.592 85.5153 385.89C87.2235 388.855 89.0806 390.213 91.9189 390.575C94.1179 390.854 91.7584 391.176 86.6741 391.291C81.5899 391.406 77.145 391.786 76.7953 392.134C76.4468 392.484 78.972 406.137 82.4081 422.476C85.8442 438.814 88.6747 452.33 88.6982 452.509C88.7204 452.688 99.5506 452.835 112.765 452.835H136.789L138.38 443.374C139.254 438.17 141.599 424.81 143.592 413.685C146.258 398.8 146.816 393.204 145.708 392.498C144.88 391.971 133.338 391.443 120.06 391.324C106.782 391.206 97.5317 390.865 99.5062 390.566C103.518 389.958 103.873 388.456 101.137 383.67C98.6514 379.321 98.6997 371.419 101.243 366.5C104.191 360.801 102.758 357.252 94.7051 350.3C90.8175 346.942 87.3058 342.88 86.9025 341.269C86.498 339.66 87.0656 335.32 88.1618 331.625C90.8619 322.536 89.3089 317.574 80.8799 308.352C77.1711 304.293 73.5589 299.468 72.8503 297.626C72.0934 295.654 71.9237 289.18 72.4392 281.875C73.1543 271.753 72.9064 268.448 71.0885 263.906C67.4945 254.924 61.2945 251.451 54.1574 254.422ZM80.0852 396.068L95.8313 395.354C104.491 394.961 119.064 394.52 128.216 394.375C145.849 394.094 145.548 393.976 143.731 400.448L142.867 403.526L112.495 403.711L82.121 403.898L81.1031 399.983L80.0852 396.068ZM82.5542 407.21L110.768 406.833C126.286 406.624 139.717 406.32 140.614 406.154C142.473 405.813 142.567 406.526 141.424 412.242L140.603 416.345L112.441 415.994L84.2782 415.643L83.4169 411.426L82.5542 407.21ZM87.0226 427.984C86.7381 427.656 86.1574 425.555 85.7319 423.317L84.9581 419.246L112.297 419.136C127.333 419.076 139.635 419.513 139.635 420.107C139.635 420.702 139.283 422.953 138.851 425.109L138.066 429.029L112.804 428.805C98.9085 428.681 87.3071 428.312 87.0226 427.984ZM89.4968 440.438L88.6303 436.196L87.7651 431.955H112.394H137.025L137.005 434.891C136.964 441.011 136.271 441.176 112.186 440.795L89.4968 440.438ZM91.3499 449.027C91.3499 448.368 91.0498 447.046 90.6844 446.091C90.1467 444.685 94.2679 444.353 112.217 444.353C134.368 444.353 134.415 444.359 134.415 447.289C134.415 450.215 134.342 450.225 112.882 450.225C100.675 450.225 91.3499 449.706 91.3499 449.027Z" fill="#B542FB"/>
<path d="M127.572 229.642C115.61 241.868 112.26 249.207 112.243 263.221C112.231 273.176 111.865 274.62 107.01 283.838C101.098 295.061 100.585 299.773 103.954 311.887L106.117 319.669L101.996 328.61C97.0267 339.393 96.8388 343.913 101.122 349.719C105.627 355.825 106.389 361.362 103.798 369.162C101.755 375.315 101.765 376.071 103.973 382.291C106.019 388.05 106.774 388.89 109.903 388.89C112.354 388.89 115.355 387.102 119.384 383.241C124.797 378.055 125.283 377.067 125.309 371.169C125.324 367.638 126.484 362.22 127.887 359.13C130.249 353.923 130.302 352.936 128.599 345.632C127.587 341.298 127.115 336.78 127.547 335.59C127.98 334.401 131.25 329.905 134.813 325.599C144.666 313.693 145.745 310.77 143.619 301.741C139.96 286.198 140.24 281.893 145.608 271.299C149.68 263.264 150.6 259.939 151.114 251.397C152.186 233.599 147.448 220.545 139.917 220.545C137.375 220.545 134.14 222.929 127.572 229.642Z" fill="#B542FB"/>
<path d="M167.032 287.959C164.764 289.868 161.5 294.614 159.779 298.507C158.058 302.4 154.01 308.52 150.784 312.108C145.194 318.325 142.268 324.828 142.253 331.064C142.249 332.635 139.914 336.614 137.064 339.907C132.743 344.9 132.014 346.54 132.665 349.799C133.114 352.042 132.583 356.054 131.417 359.226C130.3 362.263 128.993 367.977 128.51 371.925C127.797 377.755 126.749 380.021 122.93 383.996L118.225 388.89H124.874C130.726 388.89 131.612 388.53 132.276 385.885C133.478 381.099 141.548 373.996 148.713 371.42C152.338 370.116 155.735 368.376 156.261 367.551C156.787 366.727 157.566 361.433 157.992 355.786L158.768 345.52L168.033 336.864C178.19 327.374 179.949 323.536 177.651 315.866C175.592 308.993 175.778 306.597 178.932 299.468C181.529 293.596 181.57 292.977 179.607 288.861C176.996 283.385 172.824 283.086 167.032 287.959Z" fill="#B542FB"/>
<path d="M266.119 240.02C261.818 244.321 261.471 246.466 264.217 251.776C268.295 259.664 280.493 257.154 280.555 248.416C280.566 246.877 279.694 245.281 278.617 244.868C277.541 244.455 276.66 242.694 276.66 240.953C276.66 238.06 274.539 236.205 271.232 236.205C270.519 236.205 268.218 237.921 266.119 240.02Z" fill="#B542FB"/>
<path d="M273.724 228.48C270.246 230.505 270.777 234.9 274.5 234.9C277.657 234.9 281.88 231.294 281.88 228.598C281.88 226.732 276.85 226.659 273.724 228.48Z" fill="#B542FB"/>
</svg>
