<svg width="88" height="89" viewBox="0 0 88 89" fill="none" xmlns="http://www.w3.org/2000/svg">
<path d="M54.9288 10.2396C59.1499 12.4748 63.4063 15.2093 67.2725 17.5194L68.9039 18.481L70.7662 19.559L70.6444 21.7076C70.529 23.7447 70.2075 25.7504 69.7029 27.7013C69.9877 27.3699 70.3066 27.0246 70.6585 26.6929L74.821 22.7691L76.4201 28.2619C77.1914 30.9117 77.8478 33.6075 78.4834 36.2146C79.1255 38.8481 79.747 41.3933 80.468 43.8698L81.1063 46.0632L79.3542 47.5313C77.815 48.82 76.2116 49.9382 74.5442 50.9096C74.7506 50.8841 74.9575 50.8572 75.1646 50.8271L81.5882 49.8955L78.8369 55.7746C78.3494 56.8163 77.7557 58.0927 76.9577 59.3448L76.0917 60.7694C74.0959 64.0185 72.2619 66.7878 70.5452 69.8579L69.4771 71.7681L67.2923 71.6444C65.3448 71.5341 63.4137 71.23 61.5267 70.7552C61.5285 70.7571 61.5303 70.759 61.5321 70.7609L72.5962 74.1326L60.8955 77.3222C55.5517 78.7788 50.2651 80.067 45.0315 81.343L43.0042 81.838L41.605 80.2886C40.9488 79.562 40.1224 78.6545 39.3489 77.5246L39.2394 77.3646L39.1488 77.193C39.0174 76.9464 38.9227 76.7108 38.8539 76.4957C38.589 76.1184 38.3415 75.7395 38.1074 75.3607C38.1341 75.6844 38.1623 76.0093 38.1933 76.3353L38.8077 82.798L33.071 79.7604C30.5482 78.4245 28.181 76.9501 25.9314 75.5509C23.6497 74.1319 21.4851 72.7877 19.2119 71.5839L17.1779 70.5067L17.3608 68.2113C17.5186 66.2359 17.8571 64.2643 18.3664 62.3321C18.1989 62.5398 18.032 62.7482 17.868 62.9592L13.6597 68.3698L11.7441 61.7882C10.2267 56.5752 8.93145 51.259 7.6569 46.0315L7.13904 43.9085L8.81946 42.5115C10.3443 41.2437 11.9862 40.0904 13.7213 39.0795C13.3982 39.1108 13.0747 39.1451 12.7512 39.184L6.20001 39.9716L9.22164 34.1065C9.71158 33.1553 10.2271 32.2748 10.689 31.4858C11.1642 30.6739 11.5859 29.9531 11.9758 29.1961L12.0655 29.0223L12.1734 28.8591C14.1038 25.9589 15.5979 23.2304 17.5087 20.0484L18.5602 18.2964L20.6027 18.3512C22.6412 18.4055 24.6616 18.7001 26.6284 19.1942C26.3711 18.9737 26.1016 18.7374 25.8295 18.479L21.4106 14.2831L27.2618 12.5798C29.9116 11.8085 32.6074 11.1522 35.2146 10.5165C37.848 9.87442 40.3932 9.25287 42.8697 8.53196L45.0408 7.9001L46.5102 9.62096C47.7801 11.1091 48.9135 12.7064 49.9022 14.3861C49.8785 14.2026 49.8537 14.0189 49.827 13.8354L48.8379 7.01443L54.9288 10.2396Z" fill="#F9B73E" stroke="#F8F1E7" stroke-width="7"/>
</svg>
