<svg width="23" height="23" viewBox="0 0 23 23" fill="none" xmlns="http://www.w3.org/2000/svg">
<g clip-path="url(#clip0_1486_16579)">
<path d="M16.5827 10.3062C16.4874 10.2605 16.3906 10.2165 16.2924 10.1744C16.1216 7.02656 14.4015 5.2244 11.5134 5.20596C11.5003 5.20587 11.4873 5.20587 11.4742 5.20587C9.74668 5.20587 8.30994 5.94326 7.42563 7.28507L9.01404 8.37469C9.67465 7.37241 10.7114 7.15874 11.4749 7.15874C11.4838 7.15874 11.4926 7.15874 11.5013 7.15882C12.4523 7.16488 13.1699 7.44138 13.6344 7.98058C13.9724 8.37313 14.1984 8.91559 14.3104 9.60021C13.4672 9.4569 12.5554 9.41284 11.5806 9.46873C8.83463 9.6269 7.06932 11.2284 7.18788 13.4537C7.24804 14.5825 7.81039 15.5536 8.77127 16.188C9.58367 16.7243 10.63 16.9865 11.7175 16.9272C13.1536 16.8484 14.2802 16.3005 15.0661 15.2986C15.663 14.5378 16.0406 13.5518 16.2073 12.3095C16.8917 12.7225 17.3989 13.2661 17.679 13.9195C18.1553 15.0302 18.1831 16.8554 16.6938 18.3434C15.389 19.6469 13.8205 20.2109 11.4501 20.2283C8.82074 20.2088 6.83216 19.3655 5.53923 17.7219C4.32852 16.1828 3.70281 13.9598 3.67947 11.1145C3.70281 8.26921 4.32852 6.04617 5.53923 4.50711C6.83216 2.8635 8.82071 2.02025 11.4501 2.00071C14.0986 2.0204 16.1218 2.86771 17.4642 4.51925C18.1225 5.32914 18.6188 6.34764 18.9459 7.53518L20.8073 7.03855C20.4107 5.57683 19.7867 4.31724 18.9376 3.27263C17.2166 1.15529 14.6997 0.0703478 11.4566 0.0478516H11.4436C8.20717 0.0702696 5.71838 1.15934 4.04641 3.28477C2.55859 5.17614 1.79113 7.80786 1.76534 11.1067L1.76526 11.1145L1.76534 11.1223C1.79113 14.4211 2.55859 17.0529 4.04641 18.9443C5.71838 21.0697 8.20717 22.1588 11.4436 22.1812H11.4566C14.334 22.1612 16.3622 21.4079 18.033 19.7386C20.219 17.5546 20.1532 14.8171 19.4327 13.1366C18.9158 11.9315 17.9303 10.9527 16.5827 10.3062ZM11.6146 14.9771C10.4111 15.0449 9.16084 14.5047 9.09918 13.3477C9.05349 12.4898 9.70972 11.5325 11.6885 11.4185C11.9151 11.4054 12.1375 11.399 12.3559 11.399C13.0747 11.399 13.7471 11.4688 14.3584 11.6025C14.1304 14.4501 12.793 14.9125 11.6146 14.9771Z" fill="#F8F1E7"/>
</g>
<defs>
<clipPath id="clip0_1486_16579">
<rect width="22.1333" height="22.1333" fill="white" transform="translate(0.266663 0.0478516)"/>
</clipPath>
</defs>
</svg>
