<svg width="32" height="32" viewBox="0 0 32 32" fill="none" xmlns="http://www.w3.org/2000/svg">
<g id="Social Icons">
<path id="Vector" d="M23.5898 14.8314C23.452 14.7653 23.312 14.7017 23.1702 14.6409C22.9232 10.0897 20.4363 7.48417 16.2606 7.4575C16.2417 7.45738 16.2229 7.45738 16.204 7.45738C13.7064 7.45738 11.6292 8.52348 10.3507 10.4635L12.6472 12.0388C13.6023 10.5897 15.1012 10.2808 16.2051 10.2808C16.2178 10.2808 16.2306 10.2808 16.2433 10.2809C17.6182 10.2897 18.6557 10.6894 19.3272 11.469C19.8158 12.0366 20.1427 12.8208 20.3045 13.8106C19.0855 13.6035 17.7672 13.5398 16.3578 13.6206C12.3878 13.8492 9.83551 16.1646 10.0069 19.382C10.0939 21.014 10.9069 22.418 12.2962 23.3352C13.4707 24.1105 14.9835 24.4897 16.5557 24.4038C18.632 24.29 20.2608 23.4978 21.3972 22.0493C22.2602 20.9493 22.806 19.5238 23.047 17.7277C24.0365 18.3248 24.7698 19.1107 25.1748 20.0553C25.8635 21.6612 25.9037 24.3 23.7505 26.4513C21.864 28.336 19.5963 29.1513 16.1692 29.1765C12.3677 29.1483 9.49263 27.9292 7.62334 25.5528C5.87291 23.3277 4.96828 20.1137 4.93453 16C4.96828 11.8863 5.87291 8.67227 7.62334 6.44712C9.49263 4.07082 12.3676 2.85167 16.1692 2.82342C19.9983 2.85188 22.9235 4.0769 24.8643 6.46467C25.816 7.6356 26.5335 9.10813 27.0065 10.8251L29.6977 10.107C29.1243 7.9937 28.2222 6.17262 26.9945 4.66233C24.5063 1.60111 20.8673 0.0325247 16.1786 0H16.1598C11.4806 0.0324117 7.88234 1.60697 5.46504 4.67988C3.31398 7.4144 2.20439 11.2193 2.16711 15.9888L2.16699 16L2.16711 16.0112C2.20439 20.7807 3.31398 24.5857 5.46504 27.3202C7.88234 30.393 11.4806 31.9677 16.1598 32H16.1786C20.3387 31.9712 23.271 30.882 25.6867 28.4685C28.8472 25.311 28.752 21.3532 27.7103 18.9235C26.963 17.1812 25.5382 15.766 23.5898 14.8314ZM16.4071 21.5845C14.6671 21.6825 12.8594 20.9015 12.7703 19.2287C12.7042 17.9883 13.653 16.6043 16.5139 16.4395C16.8415 16.4206 17.163 16.4113 17.4788 16.4113C18.518 16.4113 19.4902 16.5123 20.374 16.7055C20.0443 20.8225 18.1107 21.491 16.4071 21.5845Z" fill="#13141D"/>
</g>
</svg>
