<svg width="32" height="32" viewBox="0 0 32 32" fill="none" xmlns="http://www.w3.org/2000/svg">
<g id="Social Icons">
<path id="Vector" d="M31.6812 9.59844C31.6812 9.59844 31.3688 7.39219 30.4062 6.42344C29.1875 5.14844 27.825 5.14219 27.2 5.06719C22.725 4.74219 16.0063 4.74219 16.0063 4.74219H15.9937C15.9937 4.74219 9.275 4.74219 4.8 5.06719C4.175 5.14219 2.8125 5.14844 1.59375 6.42344C0.63125 7.39219 0.325 9.59844 0.325 9.59844C0.325 9.59844 0 12.1922 0 14.7797V17.2047C0 19.7922 0.31875 22.3859 0.31875 22.3859C0.31875 22.3859 0.63125 24.5922 1.5875 25.5609C2.80625 26.8359 4.40625 26.7922 5.11875 26.9297C7.68125 27.1734 16 27.2484 16 27.2484C16 27.2484 22.725 27.2359 27.2 26.9172C27.825 26.8422 29.1875 26.8359 30.4062 25.5609C31.3688 24.5922 31.6812 22.3859 31.6812 22.3859C31.6812 22.3859 32 19.7984 32 17.2047V14.7797C32 12.1922 31.6812 9.59844 31.6812 9.59844ZM12.6938 20.1484V11.1547L21.3375 15.6672L12.6938 20.1484Z" fill="#13141D"/>
</g>
</svg>
