<svg width="23" height="23" viewBox="0 0 23 23" fill="none" xmlns="http://www.w3.org/2000/svg">
<g clip-path="url(#clip0_1486_16578)">
<path d="M22.0462 6.68801C22.0462 6.68801 21.83 5.16202 21.1643 4.49197C20.3214 3.61009 19.379 3.60577 18.9467 3.55389C15.8515 3.3291 11.2043 3.3291 11.2043 3.3291H11.1957C11.1957 3.3291 6.54854 3.3291 3.45333 3.55389C3.02104 3.60577 2.07864 3.61009 1.23567 4.49197C0.569946 5.16202 0.358123 6.68801 0.358123 6.68801C0.358123 6.68801 0.133331 8.48202 0.133331 10.2717V11.949C0.133331 13.7387 0.3538 15.5327 0.3538 15.5327C0.3538 15.5327 0.569946 17.0587 1.23135 17.7287C2.07432 18.6106 3.18099 18.5804 3.6738 18.6755C5.4462 18.844 11.2 18.8959 11.2 18.8959C11.2 18.8959 15.8515 18.8873 18.9467 18.6668C19.379 18.6149 20.3214 18.6106 21.1643 17.7287C21.83 17.0587 22.0462 15.5327 22.0462 15.5327C22.0462 15.5327 22.2667 13.743 22.2667 11.949V10.2717C22.2667 8.48202 22.0462 6.68801 22.0462 6.68801ZM8.91318 13.9851V7.76441L14.8918 10.8856L8.91318 13.9851Z" fill="#F8F1E7"/>
</g>
<defs>
<clipPath id="clip0_1486_16578">
<rect width="22.1333" height="22.1333" fill="white" transform="translate(0.133331 0.0478516)"/>
</clipPath>
</defs>
</svg>
