<svg width="66" height="66" viewBox="0 0 66 66" fill="none" xmlns="http://www.w3.org/2000/svg">
<path d="M33.0024 0.502319C50.9516 0.502319 65.5024 15.0531 65.5024 33.0023C65.5024 50.9516 50.9516 65.5023 33.0024 65.5023C15.0531 65.5023 0.50238 50.9516 0.50238 33.0023C0.50238 15.0531 15.0531 0.502319 33.0024 0.502319ZM33.0024 5.37732C17.7455 5.37732 5.37738 17.7455 5.37738 33.0023C5.37738 48.2592 17.7455 60.6273 33.0024 60.6273C48.2592 60.6273 60.6274 48.2592 60.6274 33.0023C60.6274 17.7455 48.2592 5.37732 33.0024 5.37732ZM31.8553 18.5498L32.0913 18.2765C32.9567 17.4111 34.3108 17.3324 35.2651 18.0404L35.5384 18.2765L48.5411 31.2791C49.4066 32.1446 49.4852 33.499 48.7769 34.4532L48.5408 34.7266L35.5358 47.7266C34.5837 48.6783 33.0404 48.678 32.0887 47.7259C31.2235 46.8604 31.1451 45.5062 31.8533 44.5521L32.0893 44.2788L40.9356 35.4366L19.1876 35.4375C17.9536 35.4375 16.9337 34.5205 16.7723 33.3308L16.7501 33C16.7501 31.766 17.6671 30.7462 18.8568 30.5848L19.1876 30.5625L40.9291 30.5616L32.0913 21.7236C31.2259 20.8582 31.1473 19.5041 31.8553 18.5498L32.0913 18.2765L31.8553 18.5498Z" fill="#B542FB"/>
</svg>
