<svg width="40" height="73" viewBox="0 0 40 73" fill="none" xmlns="http://www.w3.org/2000/svg">
<g id="Doodle 4">
<path id="Doodle" d="M17.0425 2.86032C18.7035 4.22946 20.346 5.60761 21.9884 6.99476C22.9905 7.85048 23.9092 8.79626 25.0784 9.48083C25.3939 9.66999 25.8764 9.68801 26.0248 10.0663V10.0573C26.3589 10.2645 26.7393 10.4176 27.0177 10.6788C28.0756 11.6606 29.3097 12.5434 30.2098 13.6063C30.2469 13.6513 30.3675 13.6333 30.4232 13.6873C30.7016 13.9485 31.6388 14.9304 32.3069 15.4978C33.8472 16.8039 35.3319 18.1641 36.3712 19.9926C36.5289 20.2808 39.3962 23.6767 37.9487 25.1539C36.4454 26.6942 32.8451 24.3252 32.4925 23.9019C31.6481 22.866 30.9985 21.6139 29.7644 21.0014C27.9549 20.1007 26.7301 18.5874 25.2268 17.3804C23.8721 16.2905 22.6658 15.0475 21.3017 13.9666C20.0212 12.9577 18.4901 12.2011 17.2931 11.0932C16.2631 10.1384 15.595 8.81427 14.6856 7.73337C14.4722 7.48116 13.9154 7.49017 13.6649 7.21995C13.4608 6.99476 13.0989 6.65248 13.0061 6.3192C12.969 6.17508 12.9318 6.01295 12.7927 5.98593C12.1245 5.85081 9.03457 2.33787 10.7976 0.554388C12.505 -1.20208 15.6043 1.67133 17.0425 2.86032Z" fill="black"/>
<path id="Doodle_2" d="M15.7518 34.6207C17.3571 35.035 18.9625 35.4674 20.5585 35.9087C21.5421 36.179 22.4793 36.5753 23.5278 36.6294C23.8155 36.6474 24.1774 36.4402 24.3908 36.6924C24.697 36.7194 25.0218 36.6744 25.3002 36.7735C26.3487 37.1338 27.5179 37.3229 28.4737 37.8274C28.5108 37.8454 28.5943 37.7733 28.65 37.8003C28.9284 37.8994 29.8934 38.3138 30.5429 38.4939C32.0462 38.9173 33.5216 39.3947 34.7835 40.4936C34.9784 40.6647 38.0313 42.2771 37.3632 44.2047C36.6672 46.2133 33.336 45.826 32.9555 45.6279C32.0462 45.1324 31.2203 44.3488 30.1346 44.3848C28.5386 44.4389 27.221 43.7002 25.7641 43.349C24.4558 43.0337 23.2216 42.5112 21.9132 42.214C20.6791 41.9348 19.3429 41.9798 18.1552 41.5745C17.1344 41.2232 16.2715 40.3945 15.3064 39.8811C15.0745 39.764 14.6662 40.0252 14.4063 39.9081C14.1929 39.809 13.831 39.6739 13.6733 39.4397C13.6083 39.3406 13.5341 39.2145 13.4227 39.2505C12.8846 39.4397 9.62754 37.8364 10.4627 35.5034C11.27 33.2065 14.36 34.2604 15.7518 34.6207Z" fill="black"/>
<path id="Doodle_3" d="M6.2116 67.5066C8.51285 67.0112 10.8141 66.5428 13.1246 66.0744C14.5444 65.7862 15.9826 65.6331 17.356 65.1196C17.7271 64.9755 18.0705 64.6152 18.4973 64.7233H18.488C18.887 64.5792 19.2768 64.381 19.6851 64.309C21.244 64.0658 22.84 63.6064 24.3711 63.5343C24.4267 63.5343 24.4917 63.4262 24.5845 63.4082C25.0021 63.3452 26.4867 63.192 27.4239 63.0029C29.5953 62.5705 31.7759 62.2012 34.0679 62.4714C34.4298 62.5165 39.3106 62.2823 39.654 64.291C40.0159 66.3807 35.5525 67.8129 34.9401 67.8309C33.474 67.885 31.9429 67.6508 30.5789 68.2543C28.5838 69.137 26.4496 69.209 24.3804 69.6684C22.5245 70.0828 20.6315 70.299 18.7757 70.7313C17.0405 71.1367 15.3609 71.8933 13.5979 72.1725C12.0761 72.4157 10.4615 72.1545 8.91187 72.2265C8.54997 72.2446 8.1788 72.6859 7.78907 72.722C7.4643 72.749 6.91683 72.8301 6.56422 72.704C6.41575 72.6499 6.24872 72.5778 6.12809 72.6769C5.56206 73.1273 0.43064 73.4696 0.022354 71.0286C-0.358095 68.6686 4.21657 67.939 6.2116 67.5066Z" fill="black"/>
</g>
</svg>
