<svg width="482" height="482" viewBox="0 0 482 482" fill="none" xmlns="http://www.w3.org/2000/svg">
<path d="M400.06 378.389C400.06 378.389 408.919 346.577 415.995 335.78C423.071 324.984 436.239 313.117 436.239 313.117C436.239 313.117 435.959 362.155 400.06 378.389Z" fill="#FFC548"/>
<path d="M398.373 378.438C398.373 378.438 414.308 349.113 409.681 320.675C405.054 292.237 400.099 282.115 400.099 282.115C400.099 282.115 375.063 326.343 398.373 378.438Z" fill="#FFC548"/>
<path d="M391.837 332.329C393.186 340.39 395.244 348.316 397.987 356.015C397.987 345.575 398.228 335.144 398.508 324.704C396.718 318.373 395.707 311.846 395.5 305.27C395.5 305.077 395.78 305.096 395.799 305.27C396.301 310.901 397.233 316.486 398.585 321.976C398.829 313.371 399.112 304.762 399.433 296.15C399.433 296.006 399.655 296.015 399.655 296.15C399.655 309.598 399.655 323.046 399.559 336.494C401.5 331.292 403.038 325.949 404.157 320.511H404.244C403.771 326.786 401.863 332.86 399.549 338.692C399.482 347.281 399.395 355.88 399.202 364.469C401.892 355.33 404.774 346.481 405.555 336.831C405.562 336.81 405.575 336.791 405.593 336.777C405.611 336.764 405.633 336.757 405.656 336.757C405.679 336.757 405.701 336.764 405.719 336.777C405.737 336.791 405.751 336.81 405.757 336.831C405.545 347.435 402.798 358.29 399.289 368.306C399.253 368.405 399.19 368.492 399.106 368.556C399.029 371.699 398.939 374.839 398.836 377.975C398.822 378.058 398.779 378.134 398.715 378.188C398.65 378.243 398.568 378.273 398.484 378.273C398.399 378.273 398.318 378.243 398.253 378.188C398.189 378.134 398.146 378.058 398.132 377.975C398.007 371.554 397.968 365.125 397.978 358.695C394.506 350.283 392.388 341.375 391.702 332.3C391.693 332.271 391.827 332.252 391.837 332.329Z" fill="#263238"/>
<path d="M392.926 327.76C393.485 330.3 393.859 332.878 394.045 335.472C394.045 335.493 394.037 335.512 394.022 335.527C394.008 335.541 393.988 335.549 393.968 335.549C393.947 335.549 393.928 335.541 393.913 335.527C393.899 335.512 393.89 335.493 393.89 335.472C393.271 332.936 392.833 330.359 392.579 327.76C392.56 327.635 392.888 327.596 392.926 327.76Z" fill="#263238"/>
<path d="M402.238 306.359C402.238 306.272 402.393 306.301 402.393 306.359C402.368 308.17 402.099 309.97 401.592 311.709C401.592 311.844 401.351 311.777 401.38 311.642C401.727 309.897 401.988 308.123 402.238 306.359Z" fill="#263238"/>
<path d="M392.56 378.438C392.56 378.438 393.206 347.821 384.424 332.609C375.642 317.397 361.076 309.637 361.076 309.637C361.076 309.637 366.946 363.602 392.56 378.438Z" fill="#FFC548"/>
<path d="M376.548 352.255C380.083 357.588 384.059 362.616 388.434 367.284C386.679 361.018 384.655 354.861 382.361 348.814C377.435 344.505 372.547 340.032 369.53 334.122C369.524 334.104 369.525 334.084 369.532 334.066C369.538 334.047 369.551 334.032 369.568 334.022C369.585 334.012 369.604 334.008 369.624 334.01C369.643 334.013 369.661 334.022 369.674 334.036C372.923 339.27 377.261 343.454 381.83 347.483C378.312 338.363 374.23 329.471 369.607 320.858C369.581 320.813 369.575 320.76 369.588 320.71C369.602 320.661 369.634 320.618 369.679 320.593C369.724 320.567 369.777 320.56 369.827 320.574C369.876 320.587 369.919 320.62 369.944 320.665C372.756 325.175 375.315 329.839 377.608 334.633C376.789 331.365 376.133 328.02 375.285 324.772C375.29 324.757 375.3 324.744 375.313 324.735C375.326 324.726 375.341 324.721 375.357 324.721C375.373 324.721 375.388 324.726 375.401 324.735C375.414 324.744 375.424 324.757 375.43 324.772C377.152 328.938 378.363 333.298 379.035 337.757C382.102 344.546 384.679 351.547 386.747 358.704C386.516 354.116 386.226 349.546 385.783 344.967C385.783 344.881 385.918 344.861 385.937 344.967C386.92 350.048 387.365 355.218 387.267 360.391C388.553 364.961 389.616 369.572 390.458 374.225C390.458 374.35 390.294 374.408 390.265 374.273C389.783 372.345 389.301 370.417 388.742 368.489C388.742 368.489 388.665 368.489 388.636 368.441C383.932 363.727 379.459 358.348 376.509 352.332C376.49 352.255 376.528 352.226 376.548 352.255Z" fill="#263238"/>
<path d="M366.378 327.345C367.342 328.406 368.248 329.514 369.202 330.604C370.116 331.523 370.96 332.509 371.728 333.554C371.735 333.563 371.738 333.574 371.737 333.586C371.737 333.598 371.732 333.608 371.723 333.617C371.715 333.625 371.704 333.63 371.693 333.631C371.681 333.631 371.67 333.628 371.66 333.621C370.565 332.798 369.591 331.825 368.768 330.729C367.842 329.706 367.003 328.606 366.262 327.442C366.185 327.365 366.32 327.268 366.378 327.345Z" fill="#263238"/>
<path d="M417.595 380.674L416.486 395.134L413.151 438.977H384.057L380.722 395.134L379.613 380.674H417.595Z" fill="#37474F"/>
<path d="M417.595 380.674L416.92 389.495L380.404 390.96L379.613 380.674H417.595Z" fill="#263238"/>
<path d="M377.03 384.675H420.179V373.56H377.03V384.675Z" fill="#37474F"/>
<path d="M45.7319 439.015C170.83 438.417 311.169 438.417 436.268 439.015C311.169 439.603 170.83 439.603 45.7319 439.015Z" fill="#263238"/>
<path d="M149.786 388.743L87.4443 439.015H90.9533L162.954 388.743H149.786Z" fill="#C7C7C7"/>
<path d="M155.638 388.743L124.838 439.015H128.347L166.107 388.743H155.638Z" fill="#C7C7C7"/>
<path d="M170.743 388.743L201.543 439.015H198.034L160.274 388.743H170.743Z" fill="#C7C7C7"/>
<path d="M176.122 388.743L238.464 439.015H234.946L162.954 388.743H176.122Z" fill="#C7C7C7"/>
<path d="M280.167 370.301V355.6L194.564 352.091L149.343 231.36H45.7319L82.3929 370.301L169.972 394.893H175.467L280.167 370.301Z" fill="#455A64"/>
<path d="M45.7319 231.36H57.5891L95.7828 358.01L173.269 379.961L280.167 355.6V370.301L175.467 394.893H169.972L82.3929 370.301L45.7319 231.36Z" fill="#37474F"/>
<path d="M343.126 438.504C340.369 438.572 268.724 416.429 266.526 413.855C266.295 413.575 267.413 402.962 269.264 394.575C269.341 394.17 243.814 360.719 243.814 360.719L289.971 342.77L312.056 388.492L317.84 400.388C317.84 400.388 341.738 424.411 343.868 427.486C345.998 430.561 345.892 438.447 343.126 438.504Z" fill="#EBEBEB"/>
<path d="M345.112 438.909C342.22 438.986 267.442 416.159 265.1 413.479C264.222 412.515 265.562 407.849 269.197 394.546L318.226 400.446C318.226 400.446 343.531 424.208 345.748 427.438C347.965 430.667 348.004 438.832 345.112 438.909Z" fill="#FFC548"/>
<path d="M344.987 435.593C332.541 431.457 281.96 415.956 269.351 412.814C269.245 412.814 269.226 412.814 269.351 412.891C281.594 417.258 332.3 432.354 344.948 435.795C345.189 435.873 345.247 435.728 344.987 435.593Z" fill="#263238"/>
<path d="M341.824 423.254C340.441 422.796 338.978 422.628 337.526 422.761C336.075 422.893 334.667 423.324 333.389 424.025C331.094 425.284 329.369 427.375 328.569 429.867C328.569 429.944 328.685 429.982 328.724 429.915C329.907 427.562 331.822 425.656 334.181 424.485C336.54 423.313 339.215 422.939 341.805 423.418C341.823 423.414 341.839 423.405 341.852 423.391C341.864 423.378 341.872 423.361 341.874 423.343C341.876 423.325 341.873 423.306 341.864 423.29C341.855 423.274 341.841 423.261 341.824 423.254Z" fill="#263238"/>
<path d="M323.354 405.391C318.361 403.791 311.998 403.791 307.631 406.943C307.458 407.059 307.631 407.3 307.814 407.271C312.897 406.312 318.068 405.898 323.238 406.037C323.324 406.052 323.412 406.033 323.484 405.983C323.555 405.933 323.604 405.857 323.619 405.772C323.634 405.686 323.615 405.598 323.565 405.526C323.516 405.455 323.44 405.406 323.354 405.391Z" fill="#263238"/>
<path d="M326.796 408.09C321.802 406.49 315.44 406.48 311.073 409.632C310.9 409.758 311.073 409.999 311.256 409.96C316.339 409 321.51 408.589 326.68 408.736C326.766 408.751 326.854 408.732 326.926 408.682C326.997 408.633 327.046 408.557 327.061 408.471C327.076 408.385 327.057 408.297 327.007 408.226C326.958 408.154 326.882 408.105 326.796 408.09Z" fill="#263238"/>
<path d="M330.179 410.78C325.186 409.179 318.823 409.17 314.456 412.322C314.283 412.447 314.456 412.688 314.64 412.659C319.722 411.701 324.893 411.287 330.064 411.426C330.149 411.441 330.237 411.422 330.309 411.372C330.38 411.322 330.429 411.246 330.444 411.16C330.46 411.075 330.44 410.987 330.391 410.915C330.341 410.844 330.265 410.795 330.179 410.78Z" fill="#263238"/>
<path d="M333.592 413.469C328.598 411.869 322.246 411.869 317.869 415.021C317.705 415.137 317.869 415.378 318.052 415.349C323.135 414.39 328.306 413.976 333.476 414.115C333.562 414.13 333.65 414.111 333.722 414.061C333.793 414.012 333.842 413.936 333.857 413.85C333.872 413.764 333.853 413.676 333.803 413.605C333.754 413.533 333.678 413.485 333.592 413.469Z" fill="#263238"/>
<path d="M332.869 393.659C330.941 390.767 327.143 391.856 324.907 393.572C321.13 396.576 318.208 400.518 316.433 405.005C316.423 405.025 316.419 405.048 316.42 405.07C316.421 405.092 316.428 405.114 316.439 405.133C316.451 405.152 316.467 405.168 316.486 405.179C316.505 405.191 316.526 405.197 316.549 405.198C316.549 405.593 316.876 406.027 317.32 405.883C321.648 404.504 326.449 403.559 330.218 400.889C332.426 399.337 334.662 396.387 332.869 393.659ZM323.461 402.451C321.349 403.174 319.209 403.8 317.127 404.61C318.714 402.333 320.416 400.139 322.227 398.036C323.125 397.029 324.091 396.085 325.119 395.211C326.719 393.881 332.917 391.191 331.751 396.811C331.076 399.906 325.977 401.573 323.461 402.451Z" fill="#263238"/>
<path d="M303.4 403.068C307.564 405.073 312.452 405.198 316.896 405.844C317.358 405.912 317.619 405.43 317.551 405.044C317.571 405.038 317.59 405.028 317.606 405.014C317.621 404.999 317.633 404.982 317.641 404.962C317.648 404.942 317.651 404.921 317.649 404.9C317.647 404.879 317.64 404.859 317.628 404.841C315.139 400.702 311.601 397.293 307.371 394.96C304.884 393.649 300.932 393.216 299.544 396.368C298.271 399.356 300.97 401.892 303.4 403.068ZM301.24 399.279C299.158 393.939 305.723 395.568 307.516 396.609C308.667 397.303 309.769 398.076 310.813 398.923C312.946 400.696 314.986 402.578 316.925 404.562C314.736 404.109 312.529 403.849 310.331 403.473C307.699 403.029 302.387 402.229 301.24 399.279Z" fill="#263238"/>
<path d="M314.389 390.622L263.509 398.132C263.509 398.132 235.746 347.715 224.535 335.173C223.903 334.453 223.217 333.783 222.482 333.168C221.321 332.648 220.077 332.338 218.809 332.252C203.761 330.43 153.131 335.347 118.138 333.091L134.526 311.247L141.766 301.607C181.184 297.114 229.557 280.996 251.392 291.967C274.981 303.756 314.389 390.622 314.389 390.622Z" fill="#263238"/>
<path d="M308.007 381.985C299.331 383.094 301.828 382.66 293.191 383.865C288.968 384.453 267.722 387.374 263.866 388.579C263.849 388.585 263.834 388.596 263.824 388.61C263.813 388.625 263.808 388.643 263.808 388.661C263.808 388.679 263.813 388.696 263.824 388.711C263.834 388.726 263.849 388.737 263.866 388.743C267.895 388.743 289.084 385.407 293.297 384.732C301.905 383.373 299.418 383.672 308.017 382.226C308.036 382.23 308.056 382.231 308.074 382.226C308.093 382.222 308.111 382.213 308.126 382.201C308.141 382.189 308.153 382.173 308.161 382.155C308.169 382.138 308.172 382.118 308.172 382.099C308.171 382.08 308.165 382.061 308.156 382.044C308.147 382.027 308.134 382.012 308.118 382.001C308.102 381.99 308.084 381.983 308.065 381.98C308.045 381.977 308.026 381.979 308.007 381.985Z" fill="#37474F"/>
<path d="M263.769 387.865C257.985 378.225 231.794 330.719 226.578 328.849C221.826 327.143 126.804 329.119 125.358 329.129C125.252 329.129 125.252 329.293 125.358 329.293C136.608 329.148 223.465 328.84 225.942 329.813C231.1 331.857 262.449 386.979 263.22 388.126C263.451 388.434 263.972 388.193 263.769 387.865Z" fill="#37474F"/>
<path d="M91.4932 313.184C91.4932 313.184 88.4952 341.844 103.061 356.092C120.461 373.155 235.293 368.846 253.089 363.091C270.884 357.336 271.405 328.628 251.98 321.966C233.481 315.643 151.425 311.999 149.487 311.227C147.55 310.456 141.853 301.375 141.853 301.375L91.4932 313.184Z" fill="#263238"/>
<path d="M115.796 312.384C115.796 312.24 115.564 312.288 115.564 312.384C115.558 316.118 114.233 319.73 111.824 322.583C109.096 325.736 105.076 327.5 101.432 329.331C101.085 329.505 101.355 330.054 101.712 329.948C103.948 329.256 106.104 328.325 108.142 327.172C110.004 326.173 111.644 324.805 112.962 323.152C114.155 321.652 115.024 319.92 115.512 318.066C115.999 316.213 116.096 314.277 115.796 312.384Z" fill="#37474F"/>
<path d="M148.678 309.444C147.858 308.403 146.971 307.42 146.123 306.407C144.128 304.026 142.113 301.587 140.011 299.322C139.809 299.11 139.423 299.418 139.606 299.65C141.014 301.501 142.498 303.294 143.993 305.096C144.745 306.06 145.506 306.947 146.268 307.863C147.062 308.69 147.772 309.595 148.388 310.562C148.938 311.584 148.215 312.49 147.155 312.577C146.208 312.592 145.292 312.248 144.59 311.613C143.003 310.202 141.551 308.647 140.252 306.967C139.404 306.003 138.565 305.039 137.707 304.132C136.849 303.226 135.828 302.204 134.912 301.192C134.854 301.134 134.738 301.192 134.796 301.289C135.587 302.378 136.319 303.515 137.119 304.614C137.919 305.713 138.72 306.783 139.539 307.853C140.358 308.923 141.12 309.859 141.949 310.832C142.639 311.691 143.466 312.431 144.397 313.02C145.921 313.917 148.562 314.11 149.372 312.143C149.504 311.672 149.51 311.174 149.388 310.7C149.266 310.226 149.021 309.793 148.678 309.444Z" fill="#37474F"/>
<path d="M250.64 363.197C244.509 363.312 238.388 363.669 232.266 363.804C226.145 363.939 220.1 363.968 214.027 363.91C201.817 363.794 189.606 363.319 177.395 362.483C165.085 361.635 151.811 360.411 139.578 358.714C133.726 357.904 127.797 357.23 122.013 355.986C116.816 354.996 112.009 352.541 108.161 348.91C100.246 341.198 97.1616 329.929 95.8987 319.142C95.7348 317.696 95.5902 316.25 95.4746 314.794C95.4746 314.698 95.3203 314.698 95.3203 314.794C96.0433 325.861 97.7592 337.39 104.719 346.288C107.656 350.17 111.567 353.206 116.056 355.089C121.531 357.287 127.624 357.798 133.408 358.579C145.68 360.247 159.06 361.5 171.361 362.464C183.661 363.428 196.241 364.026 208.696 364.209C221.151 364.392 233.625 364.209 246.071 363.602C247.594 363.534 249.107 363.438 250.621 363.312C250.707 363.332 250.707 363.197 250.64 363.197Z" fill="#37474F"/>
<path d="M267.028 336.436C265.859 331.636 262.931 327.449 258.824 324.704C254.409 321.687 249.136 320.318 243.911 319.556C238.011 318.698 232.025 318.265 226.087 317.686C213.876 316.504 201.665 315.411 189.455 314.409C177.25 313.445 150.981 311.362 149.497 311.305C149.371 311.305 149.342 311.517 149.497 311.536C161.267 312.837 171.987 313.965 183.786 315.035C195.586 316.105 207.491 317.243 219.339 318.409C225.245 319 231.148 319.595 237.047 320.193C242.513 320.761 248.143 321.321 253.271 323.432C257.667 325.244 261.629 328.155 263.875 332.435C265.957 336.662 266.565 341.464 265.601 346.076C264.792 350.38 262.822 354.38 259.904 357.644C257.11 360.853 253.382 363.105 249.242 364.084C248.162 364.315 246.861 364.488 245.868 364.681C245.791 364.681 245.714 364.855 245.791 364.864C254.611 365.086 262.767 358.647 265.948 350.588C267.75 346.093 268.127 341.152 267.028 336.436Z" fill="#37474F"/>
<path d="M130.843 248.625C152.678 256.52 174.387 257.668 180.576 256.193C188.404 254.332 215.56 227.273 216.774 225.75C219.753 222.019 195.287 201.756 191.942 205.602C186.833 211.463 170.194 232.459 167.842 232.931C165.49 233.404 150.924 234.859 130.246 235.939C115.892 236.672 117.299 243.718 130.843 248.625Z" fill="#FFAF6F"/>
<path d="M211.28 231.023C214.557 229.577 228.979 221.624 232.488 218.491C235.997 215.358 245.492 205.698 243.381 202.758C241.27 199.818 238.272 202.43 238.272 202.43C238.272 202.43 241.626 197.707 239.236 194.95C236.845 192.193 232.314 196.405 232.314 196.405C232.314 196.405 235.399 191.296 232.825 188.693C230.251 186.091 226.385 191.113 226.385 191.113C226.385 191.113 229.432 186.582 226.385 185.329C222.751 183.844 218.085 192.829 213.94 195.933C212.976 196.646 193.841 209.034 193.841 209.034L211.28 231.023Z" fill="#FFAF6F"/>
<path d="M226.732 190.737C223.281 197.34 220.63 199.635 214.297 203.269C214.171 203.346 214.249 203.539 214.384 203.481C220.919 200.435 224.66 198.044 227.06 190.843C227.185 190.535 226.896 190.429 226.732 190.737Z" fill="#263238"/>
<path d="M232.584 195.904C228.4 202.45 225.547 204.956 219.194 209.304C219.098 209.361 219.194 209.525 219.291 209.468C225.884 205.727 229.567 203.25 232.883 196.164C233.037 195.846 232.777 195.605 232.584 195.904Z" fill="#263238"/>
<path d="M237.954 202.671C233.442 208.716 230.435 211.608 223.725 215.03C223.699 215.049 223.68 215.076 223.671 215.107C223.662 215.138 223.663 215.172 223.676 215.202C223.688 215.232 223.71 215.257 223.738 215.273C223.766 215.289 223.799 215.295 223.831 215.29C231.023 212.456 234.801 208.88 238.127 202.826C238.349 202.44 238.233 202.295 237.954 202.671Z" fill="#263238"/>
<path d="M255.546 233.76H207.655V172.276H243.217L255.556 183.999L255.546 233.76Z" fill="white"/>
<path d="M255.546 233.76C255.412 233.76 207.645 233.905 207.51 233.895C207.375 233.886 207.51 172.334 207.443 172.276V172.055H207.655C207.771 172.103 243.265 172.055 243.323 172.161C243.381 172.267 255.653 183.893 255.681 183.931C255.71 183.97 255.498 233.712 255.537 233.76H255.546ZM255.546 233.76C255.546 233.76 255.373 183.632 255.46 184.095L243.101 172.402C243.728 172.479 207.51 172.479 207.655 172.488L207.877 172.276L207.79 233.76C206.922 233.442 255.739 233.837 255.546 233.76Z" fill="#263238"/>
<path d="M243.217 172.276L255.556 183.999H243.217V172.276Z" fill="#EBEBEB"/>
<path d="M212.302 184.192H238.937V182.611H212.302V184.192Z" fill="#EBEBEB"/>
<path d="M212.302 188.173H238.937V186.592H212.302V188.173Z" fill="#EBEBEB"/>
<path d="M212.302 192.164H238.937V190.583H212.302V192.164Z" fill="#EBEBEB"/>
<path d="M212.302 196.155H251.324V194.574H212.302V196.155Z" fill="#EBEBEB"/>
<path d="M212.302 200.126H251.324V198.546H212.302V200.126Z" fill="#EBEBEB"/>
<path d="M212.302 204.117H251.324V202.536H212.302V204.117Z" fill="#EBEBEB"/>
<path d="M212.302 208.099H251.324V206.518H212.302V208.099Z" fill="#EBEBEB"/>
<path d="M212.302 212.09H251.324V210.509H212.302V212.09Z" fill="#EBEBEB"/>
<path d="M212.311 216.081H251.334V214.5H212.311V216.081Z" fill="#EBEBEB"/>
<path d="M212.311 220.052H251.334V218.471H212.311V220.052Z" fill="#EBEBEB"/>
<path d="M212.301 224.043H251.324V222.462H212.301V224.043Z" fill="#EBEBEB"/>
<path d="M212.301 228.025H251.324V226.444H212.301V228.025Z" fill="#EBEBEB"/>
<path d="M258.439 231.717L210.538 231.707L210.547 170.223H246.109L258.448 181.945L258.439 231.717Z" fill="white"/>
<path d="M258.439 231.717L210.402 231.852C210.325 231.852 210.402 170.281 210.335 170.223V170.011H210.547C210.663 170.011 246.157 170.011 246.215 170.107C246.273 170.204 258.535 181.839 258.574 181.887C258.612 181.936 258.39 231.659 258.429 231.717H258.439ZM258.439 231.717C258.439 231.717 258.265 181.589 258.342 182.042L245.993 170.348C246.62 170.435 210.402 170.426 210.547 170.435L210.759 170.223L210.682 231.707C209.814 231.389 258.631 231.794 258.439 231.707V231.717Z" fill="#263238"/>
<path d="M246.109 170.223L258.448 181.945H246.109V170.223Z" fill="#EBEBEB"/>
<path d="M215.193 182.148H241.829V180.567H215.193V182.148Z" fill="#EBEBEB"/>
<path d="M215.193 186.12H241.829V184.539H215.193V186.12Z" fill="#EBEBEB"/>
<path d="M215.203 190.11H241.838V188.53H215.203V190.11Z" fill="#EBEBEB"/>
<path d="M215.203 194.092H254.226V192.511H215.203V194.092Z" fill="#EBEBEB"/>
<path d="M215.203 198.083H254.226V196.502H215.203V198.083Z" fill="#EBEBEB"/>
<path d="M215.203 202.074H254.226V200.493H215.203V202.074Z" fill="#EBEBEB"/>
<path d="M215.203 206.045H254.226V204.464H215.203V206.045Z" fill="#EBEBEB"/>
<path d="M215.194 210.036H254.216V208.455H215.194V210.036Z" fill="#EBEBEB"/>
<path d="M215.194 214.018H254.216V212.437H215.194V214.018Z" fill="#EBEBEB"/>
<path d="M215.194 218.009H254.216V216.428H215.194V218.009Z" fill="#EBEBEB"/>
<path d="M215.194 222H254.216V220.419H215.194V222Z" fill="#EBEBEB"/>
<path d="M215.194 225.971H254.216V224.39H215.194V225.971Z" fill="#EBEBEB"/>
<path d="M219.792 180.152C219.081 180.152 218.4 179.87 217.897 179.367C217.394 178.865 217.112 178.183 217.112 177.472V169.664C217.112 169.234 217.283 168.823 217.586 168.519C217.89 168.215 218.302 168.044 218.732 168.044C219.161 168.044 219.573 168.215 219.877 168.519C220.18 168.823 220.351 169.234 220.351 169.664V176.152H219.474V169.664C219.474 169.467 219.396 169.278 219.256 169.139C219.117 169 218.928 168.922 218.732 168.922C218.535 168.922 218.346 169 218.207 169.139C218.068 169.278 217.989 169.467 217.989 169.664V177.453C217.971 177.7 218.004 177.949 218.086 178.182C218.169 178.416 218.298 178.631 218.467 178.812C218.635 178.994 218.84 179.138 219.067 179.237C219.294 179.336 219.539 179.388 219.787 179.388C220.035 179.388 220.28 179.336 220.507 179.237C220.735 179.138 220.939 178.994 221.108 178.812C221.276 178.631 221.406 178.416 221.488 178.182C221.57 177.949 221.603 177.7 221.585 177.453V169.134C221.585 168.403 221.295 167.701 220.778 167.184C220.26 166.667 219.559 166.377 218.828 166.377C218.097 166.377 217.396 166.667 216.878 167.184C216.361 167.701 216.071 168.403 216.071 169.134V170.204H215.184V169.134C215.184 168.17 215.567 167.246 216.249 166.564C216.93 165.882 217.854 165.5 218.818 165.5C219.782 165.5 220.707 165.882 221.388 166.564C222.07 167.246 222.453 168.17 222.453 169.134V177.453C222.455 178.163 222.177 178.845 221.679 179.351C221.18 179.857 220.502 180.145 219.792 180.152Z" fill="#263238"/>
<path d="M189.098 208.86C189.098 208.86 194.381 201.148 197.456 198.304C200.531 195.461 215.936 188.944 217.478 192.202C219.532 196.386 211.395 201.842 207.057 204.04C207.057 204.04 211.8 213.68 206.816 218.915C201.833 224.149 189.098 208.86 189.098 208.86Z" fill="#FFAF6F"/>
<path d="M217.661 193.542C216.784 198.7 210.913 201.177 206.855 203.597C206.793 203.629 206.739 203.676 206.699 203.734C206.659 203.791 206.635 203.858 206.627 203.928C206.619 203.998 206.629 204.068 206.655 204.133C206.682 204.198 206.724 204.256 206.778 204.3C208.494 208.484 209.67 214.904 207.106 218.905C207.038 219.021 207.192 219.146 207.279 219.04C210.643 215.107 209.978 208.716 207.8 204.252C211.993 201.842 217.767 199.105 217.719 193.542H217.661Z" fill="#263238"/>
<path d="M186.736 208.928L210.335 238.561C210.335 238.561 186.765 257.841 178.832 259.191C170.898 260.54 143.405 254.737 128.993 249.898C114.581 245.058 116.075 235.438 127.633 234.715C139.192 233.992 167.447 231.871 168.382 231.331C169.317 230.791 186.736 208.928 186.736 208.928Z" fill="#FFC548"/>
<path d="M195.817 231.852C193.195 228.545 190.611 225.2 187.864 221.99C186.312 220.158 184.77 218.317 183.189 216.505C183.131 216.437 183.005 216.505 183.063 216.601C185.55 220.033 188.066 223.475 190.717 226.791C193.368 230.107 195.962 233.413 198.641 236.672C200.165 238.532 201.736 240.335 203.375 242.099C203.375 242.099 203.471 242.099 203.442 242.099C201.061 238.532 198.449 235.216 195.817 231.852Z" fill="#263238"/>
<path opacity="0.1" d="M157.132 257.041C147.624 255.23 138.233 252.847 129.012 249.907C114.716 245.087 116.094 235.447 127.653 234.715L130.545 234.531L157.132 257.041Z" fill="black"/>
<path d="M88.1863 318.12C88.3694 318.303 157.594 303.139 158.24 302.339C159.137 301.202 146.769 249.146 133.716 233.606C130.448 229.75 120.056 229.991 115.4 233.915C92.3507 253.378 87.5307 317.474 88.1863 318.12Z" fill="#FFC548"/>
<path d="M110.021 237.665C96.2164 248.269 59.835 291.224 67.441 301.404C75.047 311.584 127.209 308.152 142.382 303.824C146.904 302.513 135.297 273.728 130.467 272.301C126.447 271.115 103.88 277.246 103.475 275.935C103.013 274.46 108.006 264.936 116.075 247.546C125.368 227.504 116.123 232.979 110.021 237.665Z" fill="#FFAF6F"/>
<path d="M151.685 268.956C161.749 269.216 164.285 270.826 172.893 266.536C178.542 263.721 182.764 266.122 178.928 271.443C172.652 280.119 159.599 282.539 154.828 282.047L151.685 268.956Z" fill="#FFAF6F"/>
<path d="M123.999 274.094C123.999 274.094 136.068 269.785 146.807 269.004C154.24 268.455 170.541 269.081 183.218 287.32C186.216 291.658 187.43 299.968 179.95 294.666C174.628 290.897 172.401 286.954 168.912 285.286C168.912 285.286 169.191 296.035 164.728 298.879C160.826 301.359 156.754 303.562 152.543 305.472C152.02 304.777 151.54 304.049 151.107 303.294C151.107 303.294 146.682 305.559 139.394 303.631L123.999 274.094Z" fill="#FFAF6F"/>
<path d="M153.989 269.612C157.113 271.964 163.629 277.044 167.543 283.108C171.871 289.788 178.407 303.834 173.443 306.976C169.799 309.28 166.83 304.142 166.83 304.142C166.83 304.142 168.305 310.514 164.564 311.854C161.152 313.088 159.089 308.962 159.089 308.962C159.089 308.962 159.32 312.992 155.801 313.551C151.57 314.226 151.782 305.694 146.904 302.677C145.805 301.992 153.989 269.612 153.989 269.612Z" fill="#FFAF6F"/>
<path d="M159.715 286.462C162.289 289.152 166.569 296.758 166.907 303.959C166.907 304.123 166.801 304.21 166.762 304.065C165.111 297.944 162.722 292.046 159.648 286.501C159.648 286.501 159.687 286.433 159.715 286.462Z" fill="#263238"/>
<path d="M153.092 291.032C155.078 293.577 159.137 301.636 159.233 308.923C159.233 309.087 159.108 309.174 159.069 309.02C157.739 302.824 155.712 296.799 153.025 291.06C153.025 291.06 153.063 290.993 153.092 291.032Z" fill="#263238"/>
<path d="M168.921 285.257C171.968 286.732 173.799 288.651 176.19 290.974C177.361 292.138 178.593 293.239 179.882 294.271C181.078 295.235 182.822 296.575 184.394 295.697C184.776 295.41 185.073 295.024 185.253 294.581C185.433 294.138 185.489 293.654 185.416 293.181C185.242 291.817 184.851 290.489 184.259 289.248C184.259 289.2 184.317 289.152 184.345 289.2C184.925 290.34 185.39 291.535 185.734 292.767C185.948 293.612 185.905 294.502 185.608 295.321C184.847 297.008 182.716 296.893 181.328 296.16C180.5 295.695 179.721 295.146 179.005 294.521C178.301 293.953 177.626 293.345 176.971 292.719C175.612 291.436 174.339 290.077 172.999 288.786C171.693 287.553 170.308 286.407 168.854 285.354C168.854 285.354 168.864 285.228 168.921 285.257Z" fill="#263238"/>
<path d="M173.77 297.645C172.399 293.441 170.753 289.332 168.844 285.344C168.844 285.286 168.844 285.238 168.921 285.286C171.033 288.072 174.002 295.022 174.599 297.191C175.197 299.36 175.843 302.06 175.477 304.277C174.918 307.622 172.585 307.892 171.746 307.921C170.741 307.923 169.765 307.583 168.979 306.957C168.058 306.154 167.313 305.169 166.791 304.065C166.791 304.065 166.791 303.968 166.868 304.065C167.832 305.578 169.529 307.198 171.38 307.256C171.788 307.285 172.198 307.232 172.586 307.099C172.973 306.967 173.33 306.758 173.635 306.484C174.258 305.757 174.6 304.83 174.599 303.872C174.682 301.764 174.402 299.658 173.77 297.645Z" fill="#263238"/>
<path d="M123.999 272.648L134.478 309.097C134.478 309.097 69.3018 312.818 65.6868 300.98C62.0718 289.142 93.5657 250.37 106.628 239.718C121.763 227.379 122.572 232.565 117.646 244.904C112.489 257.831 103.601 276.282 103.601 276.282L123.999 272.648Z" fill="#FFC548"/>
<path d="M83.0098 282.124C89.479 279.049 96.3754 276.969 103.466 275.955C105.461 275.637 107.476 275.424 109.491 275.193C109.504 275.193 109.516 275.198 109.525 275.207C109.534 275.216 109.539 275.229 109.539 275.241C109.539 275.254 109.534 275.266 109.525 275.275C109.516 275.284 109.504 275.29 109.491 275.29C105.958 275.823 102.46 276.56 99.0122 277.497C95.5804 278.39 92.1678 279.354 88.7745 280.389C86.8465 280.967 84.9185 281.633 83.0484 282.317C82.9713 282.288 82.9038 282.163 83.0098 282.124Z" fill="#263238"/>
<path d="M123.845 272.523C123.517 272.523 105.394 275.415 104.786 275.55C104.902 275.299 109.5 266.671 110.185 265.408L110.378 265.033C110.792 264.483 111.207 263.943 111.592 263.384L113.086 261.215C112.556 261.909 112.026 262.603 111.505 263.307C111.264 263.635 111.023 263.962 110.802 264.271C111.255 263.374 111.708 262.468 112.151 261.572C112.865 260.126 113.53 258.68 114.195 257.205C114.195 257.157 114.147 257.128 114.118 257.205C112.768 259.721 111.342 262.189 109.973 264.705C108.604 267.221 103.456 276.437 103.485 276.437C103.514 276.437 123.517 272.889 123.912 272.793C123.948 272.784 123.979 272.761 123.998 272.729C124.017 272.698 124.022 272.66 124.013 272.624C124.004 272.588 123.982 272.557 123.95 272.538C123.918 272.519 123.88 272.514 123.845 272.523Z" fill="#263238"/>
<path d="M121.358 294.762C120.22 290.694 119.102 286.616 117.81 282.597C117.078 280.312 116.345 278.018 115.593 275.743C115.593 275.656 115.41 275.694 115.429 275.743C116.393 279.868 117.415 284.004 118.591 288.082C119.767 292.159 120.905 296.208 122.119 300.257C122.82 302.551 123.585 304.826 124.414 307.082C124.414 307.082 124.51 307.082 124.5 307.082C123.652 302.937 122.515 298.84 121.358 294.762Z" fill="#263238"/>
<path d="M135.201 309.762C134.738 308.615 134.237 306.986 133.687 305.906C133.552 305.607 133.34 305.627 133.437 305.906C133.755 306.928 133.976 308.056 134.295 309.107C133.379 309.107 132.473 309.107 131.557 309.184L128.395 309.319C126.332 309.396 124.269 309.454 122.206 309.492C118.022 309.576 113.845 309.576 109.674 309.492C101.294 309.337 92.9286 308.748 84.61 307.728C82.2771 307.429 79.9539 307.082 77.6499 306.668C75.3775 306.296 73.1253 305.81 70.9019 305.212C70.8441 305.212 70.8152 305.289 70.9019 305.318C72.7823 306.05 74.716 306.636 76.6859 307.073C78.7682 307.529 80.86 307.918 82.9616 308.239C87.1453 308.885 91.3676 309.299 95.59 309.608C103.957 310.215 112.364 310.456 120.76 310.369C123.112 310.369 125.464 310.292 127.807 310.206C128.993 310.206 130.188 310.128 131.374 310.061C132.559 309.994 135.278 309.955 135.201 309.762Z" fill="#263238"/>
<path d="M223.108 314.563H139.712V317.927H223.108V314.563Z" fill="#455A64"/>
<path d="M185.859 314.563H139.712V317.927H185.859V314.563Z" fill="#A6A6A6"/>
<path d="M184.461 317.918H257.551L267.876 268.281H194.785L184.461 317.918Z" fill="#A6A6A6"/>
<path d="M187.777 317.918H260.868L271.192 268.281H198.102L187.777 317.918Z" fill="#C7C7C7"/>
<path d="M224.612 294.213C224.529 294.828 224.581 295.454 224.764 296.047C224.947 296.641 225.256 297.187 225.67 297.65C226.084 298.113 226.593 298.48 227.162 298.727C227.732 298.974 228.348 299.095 228.969 299.081C230.302 299.052 231.58 298.544 232.569 297.65C233.559 296.756 234.194 295.536 234.358 294.213C234.44 293.597 234.388 292.971 234.205 292.377C234.023 291.783 233.714 291.236 233.3 290.772C232.886 290.309 232.377 289.941 231.808 289.693C231.238 289.445 230.622 289.323 230 289.335C228.665 289.363 227.385 289.871 226.395 290.767C225.405 291.663 224.772 292.887 224.612 294.213Z" fill="#EBEBEB"/>
<path d="M128.829 248.712C128.829 248.712 115.121 238.339 107.254 239.612L101.306 246.418C101.306 246.418 99.2049 247.382 98.3469 246.109C96.2261 242.87 94.8283 234.541 101.316 228.246C107.254 222.462 118.061 221.498 127.344 222.684C136.261 223.86 144.465 228.632 142.527 234.589C140.589 240.547 128.829 248.712 128.829 248.712Z" fill="#FFC548"/>
<path opacity="0.1" d="M129.359 245.974C129.359 245.974 138.353 237.655 138.835 233.336C139.317 229.017 130.439 226.087 124.828 225.21C116.152 223.841 110.503 225.104 106.377 230.174C102.251 235.245 129.359 245.974 129.359 245.974Z" fill="black"/>
<path d="M130.005 243.805C126.92 244.548 119.333 239.997 115.863 235.592C115.631 235.283 115.554 231.736 115.246 227.33C115.053 224.679 114.783 221.739 114.282 219.079L131.682 220.332C131.289 223.826 131.324 227.354 131.788 230.839C131.854 231.208 131.954 231.569 132.087 231.919C132.087 231.919 132.087 232.025 132.135 232.093C132.877 234.117 134.834 242.648 130.005 243.805Z" fill="#FFAF6F"/>
<path d="M132.135 231.919C132.135 231.919 132.135 232.016 132.193 232.093C131.635 232.265 131.064 232.393 130.487 232.478C120.943 233.847 116.672 222.655 115.593 219.165L131.74 220.332C131.346 223.828 131.375 227.36 131.827 230.849C131.902 231.213 132.005 231.571 132.135 231.919Z" fill="#263238"/>
<path d="M107.004 202.382C107.004 208.667 115.169 224.332 120.394 226.771C127.971 230.309 137.833 227.832 140.194 219.31C142.479 211.049 131.518 190.824 125.908 188.867C117.685 185.985 107.004 193.099 107.004 202.382Z" fill="#FFAF6F"/>
<path d="M123.209 207.173C123.597 206.823 123.967 206.453 124.317 206.065C124.78 205.73 125.119 205.252 125.281 204.705C125.293 204.526 125.246 204.348 125.147 204.198C125.047 204.048 124.902 203.935 124.732 203.876C124.378 203.808 124.012 203.836 123.672 203.958C123.333 204.081 123.033 204.292 122.804 204.57C122.255 205.071 121.911 205.758 121.84 206.498C121.846 206.655 121.894 206.806 121.979 206.938C122.064 207.069 122.183 207.175 122.323 207.244C122.463 207.313 122.62 207.343 122.776 207.33C122.932 207.318 123.081 207.264 123.209 207.173Z" fill="#263238"/>
<path d="M134.083 202.064C133.575 202.196 133.06 202.299 132.54 202.372C132.009 202.551 131.433 202.551 130.901 202.372C130.746 202.283 130.624 202.145 130.554 201.98C130.484 201.814 130.471 201.63 130.516 201.457C130.657 201.128 130.883 200.843 131.171 200.631C131.459 200.419 131.799 200.288 132.155 200.252C132.865 200.056 133.624 200.138 134.275 200.483C134.422 200.569 134.539 200.695 134.615 200.847C134.69 200.998 134.719 201.169 134.698 201.337C134.678 201.505 134.609 201.663 134.499 201.793C134.39 201.922 134.245 202.016 134.083 202.064Z" fill="#263238"/>
<path d="M129.542 215.522C130.019 215.813 130.551 216.003 131.105 216.081C131.659 216.159 132.223 216.123 132.762 215.975C133.232 215.842 133.683 215.648 134.102 215.396C134.184 215.356 134.261 215.307 134.333 215.252L134.555 215.097C134.607 215.061 134.645 215.007 134.663 214.946C134.68 214.884 134.676 214.819 134.651 214.76L134.584 214.654L134.536 214.567C134.16 213.728 133.475 212.514 133.475 212.514C133.851 212.514 135.721 212.466 135.49 212.051C133.6 208.376 131.339 204.903 128.742 201.688C128.665 201.582 128.491 201.688 128.559 201.813C130.284 205.216 132.588 208.291 134.343 211.685C133.689 211.694 133.039 211.798 132.415 211.993C132.309 212.08 133.774 214.317 133.919 214.702C133.916 214.718 133.916 214.734 133.919 214.75C133.273 215.142 132.556 215.401 131.81 215.512C131.063 215.623 130.302 215.583 129.571 215.396C129.484 215.348 129.436 215.464 129.542 215.522Z" fill="#263238"/>
<path d="M133.408 215.213C133.24 216.02 132.868 216.77 132.328 217.392C132.016 217.718 131.613 217.943 131.171 218.038C130.207 218.221 129.812 217.449 129.648 216.698C129.565 216.298 129.526 215.891 129.532 215.483C130.82 215.808 132.178 215.714 133.408 215.213Z" fill="#263238"/>
<path d="M132.328 217.392C132.016 217.718 131.613 217.943 131.171 218.037C130.207 218.221 129.812 217.449 129.648 216.698C130.108 216.496 130.622 216.454 131.108 216.58C131.594 216.706 132.024 216.992 132.328 217.392Z" fill="#FF9ABB"/>
<path d="M126.901 208.619C126.901 208.619 126.833 208.706 126.901 208.745C127.412 209.815 127.865 211.116 126.997 211.907C126.997 211.907 126.997 211.984 126.997 211.964C128.115 211.27 127.556 209.545 126.901 208.619Z" fill="#263238"/>
<path d="M125.436 207.916C123.643 208.552 125.05 212.099 126.708 211.511C128.366 210.923 126.939 207.385 125.436 207.916Z" fill="#263238"/>
<path d="M133.119 205.65C133.119 205.65 133.225 205.65 133.244 205.718C133.63 206.836 134.266 208.041 135.413 208.022C135.413 208.022 135.461 208.079 135.413 208.089C134.14 208.388 133.311 206.778 133.119 205.65Z" fill="#263238"/>
<path d="M133.658 204.127C135.374 203.298 136.888 206.797 135.297 207.559C133.707 208.32 132.212 204.811 133.658 204.127Z" fill="#263238"/>
<path d="M131.605 194.13C130.371 192.983 129.031 191.875 128.048 191.971C127.064 192.067 127.855 194.911 125.975 195.904C123.44 197.254 120.461 194.873 116.875 196.685C112.441 198.931 111.602 203.308 114.793 210.827C117.685 217.575 114.224 220.11 114.224 220.11C114.224 220.11 104.459 206.71 106.425 200.001C108.392 193.292 116.942 186.92 125.387 188.713C128.472 189.368 131.605 194.13 131.605 194.13Z" fill="#263238"/>
<path d="M114.716 214.818C114.716 214.818 109.231 210.711 107.245 212.842C105.259 214.972 110.628 221.778 113.819 221.893C114.227 221.937 114.639 221.898 115.031 221.778C115.422 221.659 115.786 221.461 116.099 221.197C116.413 220.933 116.67 220.609 116.854 220.243C117.039 219.877 117.148 219.478 117.174 219.069L114.716 214.818Z" fill="#FFAF6F"/>
<path d="M108.864 214.76V214.837C111.12 214.982 112.778 216.485 114.147 218.163C113.966 218 113.751 217.879 113.519 217.807C113.286 217.736 113.04 217.716 112.799 217.749C112.558 217.782 112.327 217.867 112.121 217.999C111.916 218.13 111.742 218.304 111.612 218.51C111.612 218.568 111.612 218.635 111.708 218.597C112.024 218.373 112.401 218.253 112.788 218.253C113.174 218.253 113.552 218.373 113.867 218.597C114.399 218.965 114.887 219.392 115.323 219.869C115.477 220.014 115.766 219.811 115.632 219.628C114.822 217.016 111.669 214.114 108.864 214.76Z" fill="#263238"/>
<path d="M120.5 188.616C118.025 188.434 115.537 188.616 113.115 189.156C110.416 189.812 102.511 193.513 101.229 195.904C99.9471 198.295 102.28 206.094 102.656 207.231C103.032 208.369 106.088 214.943 109.153 215.627C112.219 216.312 108.093 204.773 110.513 199.5C112.932 194.227 120.5 188.616 120.5 188.616Z" fill="#FFC548"/>
<path opacity="0.1" d="M120.5 188.616C120.5 188.616 112.933 194.207 110.513 199.481C108.093 204.754 112.219 216.302 109.154 215.608C107.804 215.29 106.869 214.423 105.751 212.803C104.989 209.256 104.372 203.539 105.751 198.873C107.091 194.506 110.947 191.094 115.555 188.722C117.197 188.552 118.851 188.517 120.5 188.616Z" fill="black"/>
<path d="M112.363 222.154C111.399 219.021 111.399 209.622 112.903 203.732C114.407 197.842 122.938 191.421 124.307 190.997C127.633 189.947 128.935 191.229 129.339 190.747C129.744 190.265 125.088 187.797 123.96 187.594C122.296 187.42 120.613 187.617 119.034 188.173C117.636 188.742 109.24 192.925 107.466 197.813C105.693 202.7 105.172 214.856 107.013 217.218C107.447 217.777 108.459 217.874 109.076 218.674C109.886 219.734 110.657 221.016 111.332 221.71C112.007 222.404 112.45 222.433 112.363 222.154Z" fill="#FFC548"/>
<path d="M112.855 201.341C111.937 201.163 111.034 200.911 110.156 200.589C109.265 200.277 108.414 199.859 107.621 199.346C107.563 199.346 107.496 199.346 107.544 199.432C108.28 200.074 109.113 200.594 110.012 200.975C110.915 201.33 111.875 201.516 112.846 201.524C112.865 201.519 112.883 201.508 112.896 201.492C112.909 201.476 112.916 201.456 112.917 201.436C112.918 201.416 112.913 201.396 112.902 201.379C112.891 201.361 112.874 201.348 112.855 201.341Z" fill="#263238"/>
<path d="M111.178 219.117C110.994 218.94 110.801 218.773 110.599 218.616C110.39 218.419 110.199 218.203 110.031 217.97C109.778 217.486 109.475 217.03 109.125 216.611C108.783 216.324 108.411 216.075 108.016 215.868C107.553 215.665 107.175 215.307 106.946 214.856C106.941 214.846 106.934 214.837 106.925 214.831C106.915 214.825 106.904 214.822 106.893 214.822C106.882 214.822 106.871 214.825 106.861 214.831C106.852 214.837 106.844 214.846 106.84 214.856C107.197 215.82 108.064 216.206 108.768 216.832C109.146 217.28 109.488 217.757 109.79 218.259C110.107 218.71 110.559 219.047 111.081 219.223C111.159 219.281 111.236 219.185 111.178 219.117Z" fill="#263238"/>
<path d="M110.975 215.415C110.561 215.174 110.127 214.982 109.722 214.702C109.342 214.425 108.978 214.126 108.633 213.806C108.295 213.487 107.987 213.15 107.669 212.842C107.351 212.533 106.83 212.119 106.454 211.723C106.454 211.675 106.339 211.723 106.387 211.81C106.772 212.225 107.09 212.697 107.466 213.131C107.796 213.496 108.15 213.837 108.527 214.153C108.881 214.462 109.262 214.739 109.664 214.982C110.063 215.234 110.509 215.401 110.975 215.473V215.415Z" fill="#263238"/>
<path d="M110.956 212.003C110.107 211.703 109.306 211.285 108.575 210.759C107.871 210.239 107.197 209.67 106.531 209.101C106.483 209.101 106.406 209.101 106.454 209.178C107.012 209.901 107.66 210.549 108.382 211.106C108.736 211.374 109.121 211.597 109.529 211.771C109.976 211.944 110.442 212.061 110.918 212.119C110.985 212.08 111.024 212.022 110.956 212.003Z" fill="#263238"/>
<path d="M111.081 208.687C110.68 208.586 110.301 208.413 109.963 208.176C109.568 207.925 109.173 207.675 108.797 207.414C108.421 207.154 108.054 206.923 107.688 206.662C107.305 206.429 106.977 206.117 106.724 205.747C106.724 205.698 106.608 205.747 106.628 205.747C106.823 206.154 107.099 206.518 107.437 206.817C107.789 207.172 108.173 207.495 108.585 207.781C108.988 208.052 109.406 208.3 109.838 208.523C110.211 208.749 110.646 208.853 111.081 208.822C111.149 208.822 111.168 208.696 111.081 208.687Z" fill="#263238"/>
<path d="M110.58 204.725C110.185 204.551 109.799 204.378 109.423 204.175C109.047 203.973 108.691 203.761 108.334 203.539C107.977 203.317 107.572 203.076 107.206 202.826C107.201 202.821 107.195 202.818 107.189 202.816C107.182 202.813 107.176 202.813 107.169 202.813C107.162 202.813 107.156 202.815 107.15 202.818C107.144 202.821 107.138 202.825 107.134 202.83C107.129 202.835 107.126 202.841 107.124 202.848C107.122 202.854 107.121 202.861 107.121 202.868C107.122 202.874 107.123 202.881 107.126 202.887C107.129 202.893 107.134 202.898 107.139 202.903C107.439 203.223 107.761 203.523 108.103 203.799C108.456 204.063 108.83 204.298 109.221 204.503C109.6 204.718 109.993 204.907 110.397 205.072C110.792 205.254 111.216 205.362 111.65 205.39C111.708 205.39 111.747 205.293 111.65 205.255C111.313 205.042 110.954 204.864 110.58 204.725Z" fill="#263238"/>
<path d="M114.542 198.709C114.099 198.449 113.665 198.198 113.202 197.977C112.726 197.756 112.236 197.563 111.737 197.398C110.773 197.057 109.774 196.824 108.758 196.704C108.701 196.704 108.662 196.781 108.758 196.801C110.686 197.495 112.614 198.102 114.542 198.806C114.55 198.8 114.557 198.793 114.561 198.785C114.566 198.776 114.568 198.767 114.568 198.758C114.568 198.748 114.566 198.739 114.561 198.73C114.557 198.722 114.55 198.715 114.542 198.709Z" fill="#263238"/>
<path d="M115.4 195.393C114.954 195.146 114.482 194.949 113.993 194.805C112.956 194.536 111.892 194.381 110.821 194.342C110.754 194.342 110.725 194.429 110.821 194.448C111.785 194.67 112.817 194.882 113.79 195.162C114.277 195.298 114.756 195.459 115.227 195.644C115.689 195.837 116.104 196.126 116.557 196.338C116.557 196.338 116.634 196.338 116.615 196.28C116.272 195.908 115.859 195.606 115.4 195.393Z" fill="#263238"/>
<path d="M117.492 193.234C117.072 192.979 116.626 192.769 116.162 192.607C115.283 192.306 114.362 192.149 113.433 192.145C113.366 192.145 113.366 192.241 113.433 192.26C114.349 192.425 115.248 192.667 116.123 192.983C116.557 193.147 116.981 193.33 117.415 193.504C117.849 193.677 118.253 193.947 118.697 194.082C118.697 194.082 118.697 194.082 118.697 194.024C118.322 193.722 117.918 193.457 117.492 193.234Z" fill="#263238"/>
<path d="M118.755 191.007C118.331 190.872 117.907 190.756 117.473 190.641C117.059 190.505 116.626 190.439 116.191 190.448C116.123 190.448 116.123 190.535 116.191 190.554C117.01 190.814 117.82 191.094 118.63 191.364C119.353 191.677 120.044 192.061 120.693 192.511C120.693 192.511 120.76 192.511 120.693 192.453C120.201 191.792 119.528 191.29 118.755 191.007Z" fill="#263238"/>
<path d="M120.857 189.648C120.057 189.323 119.204 189.153 118.341 189.146C118.273 189.146 118.273 189.253 118.341 189.253C119.164 189.367 119.966 189.601 120.722 189.947C121.482 190.288 122.203 190.711 122.871 191.209C122.871 191.209 122.958 191.209 122.929 191.152C122.366 190.495 121.656 189.98 120.857 189.648Z" fill="#263238"/>
<path d="M124.356 189.908C124.219 189.773 124.071 189.65 123.912 189.542C123.611 189.317 123.288 189.124 122.948 188.963C122.223 188.666 121.471 188.44 120.702 188.288C120.635 188.288 120.615 188.385 120.702 188.394C121.447 188.561 122.168 188.817 122.852 189.156C123.189 189.314 123.511 189.501 123.816 189.715L124.25 190.043C124.376 190.169 124.515 190.282 124.664 190.38C124.664 190.38 124.761 190.38 124.741 190.313C124.639 190.155 124.508 190.018 124.356 189.908Z" fill="#263238"/>
<path d="M126.284 189.339C126.014 189.166 125.744 189.012 125.464 188.867C125.183 188.727 124.893 188.605 124.597 188.501C124.288 188.395 123.98 188.298 123.681 188.173C123.614 188.173 123.575 188.25 123.681 188.279C123.988 188.383 124.285 188.515 124.568 188.674L125.378 189.098C125.657 189.233 125.927 189.378 126.197 189.522C126.467 189.667 126.737 189.85 127.017 189.966C127.065 189.966 127.103 189.966 127.065 189.898C126.827 189.683 126.565 189.495 126.284 189.339Z" fill="#263238"/>
<path d="M129.359 245.974C129.359 245.974 117.482 230.666 105.066 230.55L107.254 239.593C107.254 239.593 114.542 238.686 128.829 248.693L129.359 245.974Z" fill="#FFC548"/>
<path d="M103.986 240.209C106.181 239.732 108.453 239.732 110.648 240.209C112.84 240.639 114.975 241.322 117.01 242.243C119.056 243.135 121.039 244.163 122.948 245.319L125.773 247.141L128.51 249.069L128.819 249.29L129.108 249.088C131.243 247.625 133.272 246.015 135.181 244.268C136.151 243.414 137.065 242.5 137.919 241.53C138.767 240.566 142.267 236.373 142.739 233.577C141.64 236.363 136.704 242.137 134.738 243.747C133.774 244.557 132.723 245.309 131.692 246.051C130.66 246.794 129.609 247.526 128.549 248.211H129.137L126.39 246.186C125.426 245.55 124.462 244.933 123.498 244.326C122.534 243.718 121.512 243.188 120.49 242.677C119.468 242.166 118.437 241.713 117.357 241.279C115.234 240.413 113.008 239.824 110.734 239.525C110.166 239.438 109.587 239.419 109.018 239.38C108.45 239.342 107.871 239.38 107.302 239.38C106.158 239.466 105.037 239.747 103.986 240.209Z" fill="#263238"/>
<path d="M101.307 246.427C102.442 245.427 103.508 244.352 104.497 243.208C105.502 242.08 106.423 240.882 107.255 239.621C106.125 240.624 105.062 241.7 104.073 242.841C103.069 243.971 102.144 245.169 101.307 246.427Z" fill="#263238"/>
<path d="M124.018 243.651C123.816 247.556 123.948 251.471 124.414 255.354C124.722 258.063 127.074 267.606 130.024 266.854C132.974 266.103 127.248 260.502 125.696 255.508C124.144 250.515 125.011 246.591 124.78 243.506L124.018 243.651Z" fill="#FFC548"/>
<g opacity="0.1">
<path d="M124.018 243.651C123.816 247.556 123.948 251.471 124.414 255.354C124.722 258.063 127.074 267.606 130.024 266.854C132.974 266.103 127.248 260.502 125.696 255.508C124.144 250.515 125.011 246.591 124.78 243.506L124.018 243.651Z" fill="black"/>
</g>
<path d="M134.738 242.745C136.205 246.315 137.461 249.968 138.498 253.686C139.153 256.067 140.426 264.898 137.669 265.254C134.912 265.611 137.862 258.969 137.476 254.245C137.09 249.522 134.902 245.569 134.054 242.87L134.738 242.745Z" fill="#FFC548"/>
<g opacity="0.1">
<path d="M134.738 242.745C136.205 246.315 137.461 249.968 138.498 253.686C139.153 256.067 140.426 264.898 137.669 265.254C134.912 265.611 137.862 258.969 137.476 254.245C137.09 249.522 134.902 245.569 134.054 242.87L134.738 242.745Z" fill="black"/>
</g>
</svg>
