<svg width="292" height="107" viewBox="0 0 292 107" fill="none" xmlns="http://www.w3.org/2000/svg">
<rect y="15.4312" width="287" height="91" rx="24" transform="rotate(-3.08215 0 15.4312)" fill="#009E77"/>
<path d="M59.2032 71.3287L50.9591 71.7726L47.8315 61.8945C47.4871 60.8555 46.9691 60.1623 46.2748 59.7671C45.5806 59.3718 44.6091 59.1838 43.4587 59.2458L37.4674 59.5684L38.1617 72.4617L30.5407 72.872L28.7599 39.7999L44.8646 38.9328C47.9321 38.7676 50.3648 39.3096 52.1146 40.5613C53.8165 41.8156 54.7851 43.7343 54.9245 46.3226C55.1774 51.0198 52.6455 53.9922 47.3238 55.144L47.3728 56.0547C49.7214 55.9282 51.5207 56.312 52.7705 57.2061C54.0204 58.1002 54.9554 59.3958 55.5807 61.1888L59.2032 71.3287ZM37.1835 54.296L42.7435 53.9966C44.0855 53.9244 45.2126 53.431 46.0717 52.4234C46.8854 51.4663 47.2976 50.1943 47.2124 48.6125C47.0576 45.7367 45.3026 44.3891 41.9954 44.5672L36.6751 44.8537L37.1835 54.296ZM80.4626 48.3604C82.5996 50.5527 83.7713 53.566 83.9777 57.4005C84.001 57.8318 83.9918 58.5534 83.998 59.5625L67.2223 60.4658C67.5173 62.3727 68.1245 63.8302 69.0868 64.7397C70.0491 65.6493 71.3211 66.0615 72.8549 65.9789C74.197 65.9067 75.3292 65.5092 76.1533 64.7438C76.9799 64.0263 77.5993 63.0316 77.9687 61.858L83.9766 62.7362C83.5784 65.1612 82.4355 67.1455 80.5478 68.6892C78.66 70.233 76.0626 71.0939 72.7074 71.2745C68.7292 71.4887 65.6048 70.5994 63.3318 68.5587C61.0135 66.5685 59.7912 63.5098 59.5719 59.4357C59.3499 55.3136 60.2794 52.0429 62.4031 49.5251C64.5294 47.0552 67.5803 45.6892 71.5055 45.3817C75.3399 45.1752 78.3256 46.1681 80.4626 48.3604ZM68.4637 52.2752C67.6098 53.3787 67.1173 54.9435 67.0339 56.9669L77.1473 56.4223C76.9987 54.5556 76.4873 53.093 75.6585 51.9839C74.8322 50.9228 73.603 50.4122 72.0213 50.4974C70.4875 50.5799 69.3176 51.1717 68.4637 52.2752ZM111.035 64.7884C112.87 65.8432 113.879 67.6155 114.013 70.1079C114.157 72.792 113.073 74.9655 110.804 76.5778C108.49 78.2406 104.886 79.1557 99.9494 79.4216C95.6356 79.6538 92.348 79.3021 90.1797 78.3133C87.966 77.3749 86.8315 75.9459 86.7334 74.1245C86.5554 70.8173 89.7671 68.8658 96.4619 68.2169L96.4103 67.2583C93.7261 67.4028 91.7027 67.3195 90.3375 66.9603C88.9268 66.6517 88.2145 65.921 88.1551 64.8186C88.0984 63.7641 88.675 62.8678 89.9382 62.223C91.1534 61.5807 93.2443 61.1316 96.1124 60.833L96.0582 59.8264C93.4725 60.0137 91.3377 59.648 89.6513 58.6813C87.9196 57.7651 87.0092 56.0355 86.8699 53.4472C86.7202 50.6673 87.6585 48.4536 89.6823 46.7584C91.7087 45.111 94.6844 44.1336 98.6626 43.9194C101.107 43.7878 103.232 43.9618 104.988 44.4441C105.367 42.5489 106.091 40.8275 107.257 39.2746C108.376 37.7242 109.868 36.8747 111.785 36.7715L113.07 43.6724L110.865 43.7911C108.852 43.8995 107.385 44.315 106.555 44.9846C109.607 46.3104 111.23 48.7707 111.426 52.4134C111.596 55.5768 110.61 57.7931 108.472 59.158C106.334 60.5229 103.396 61.306 99.6098 61.5099C97.6926 61.6131 96.752 62.0003 96.7882 62.6713C96.8114 63.1027 97.2583 63.367 98.1313 63.5123C99.0044 63.6576 100.589 63.6203 102.889 63.4964C106.436 63.3055 109.151 63.7361 111.035 64.7884ZM95.6522 55.8585C96.5563 56.579 97.7752 56.8979 99.3569 56.8127C100.891 56.7301 102.068 56.2822 102.89 55.4688C103.711 54.6555 104.088 53.6257 104.021 52.3795C103.954 51.1333 103.466 50.1021 102.562 49.3816C101.658 48.6612 100.436 48.2943 98.9027 48.3769C97.321 48.4621 96.1459 48.958 95.3245 49.7713C94.503 50.5847 94.1763 51.6598 94.2434 52.906C94.3105 54.1522 94.7482 55.1381 95.6522 55.8585ZM105.008 73.3808C106.132 72.8396 106.666 72.0417 106.61 70.9873C106.558 70.0286 106.042 69.3834 105.109 69.0011C104.177 68.6667 102.678 68.507 100.617 68.618C98.3647 68.7393 96.6547 69.1198 95.4822 69.6636C94.2619 70.21 93.728 71.0079 93.7796 71.9665C93.8312 72.9251 94.3946 73.5678 95.5202 73.9398C96.6484 74.3597 98.1446 74.4714 99.966 74.3734C102.219 74.2521 103.883 73.9221 105.008 73.3808ZM114.809 37.0413C114.755 36.0347 115.047 35.2018 115.783 34.5854C116.471 33.9715 117.558 33.6246 119.091 33.542C120.577 33.462 121.698 33.7381 122.496 34.272C123.294 34.8059 123.721 35.6 123.772 36.5586C123.891 38.7635 122.417 39.9484 119.445 40.1085C116.473 40.2685 114.928 39.2461 114.809 37.0413ZM124.59 67.8079L117.304 68.2002L115.983 43.6597L123.268 43.2675L124.59 67.8079ZM132.18 66.2455C130.1 65.1077 128.803 63.3509 128.387 60.9699L134.207 59.2624C134.619 61.5476 136.502 62.5999 139.857 62.4192C141.199 62.3469 142.291 62.0959 143.08 61.5727C143.824 61.1 144.219 60.4058 144.168 59.4471C144.129 58.7282 143.81 58.1685 143.263 57.8135C142.667 57.461 141.932 57.2121 140.963 57.072C139.994 56.9319 138.546 56.8176 136.664 56.6786C134.156 56.5252 132.104 55.9147 130.514 54.9428C128.923 53.9709 128.114 52.332 127.99 50.0314C127.866 47.7307 128.679 45.8603 130.519 44.3191C132.361 42.8259 135.054 41.9599 138.601 41.7689C145.407 41.4024 149.28 43.6935 150.214 48.5463L144.434 50.1073C144.18 48.9673 143.652 48.0824 142.804 47.5032C141.958 46.9719 140.741 46.7009 139.16 46.7861C137.818 46.8584 136.776 47.1548 136.078 47.577C135.332 48.0017 135.027 48.5949 135.068 49.3618C135.107 50.0808 135.423 50.5925 136.019 50.945C136.615 51.2975 137.346 51.4984 138.265 51.5932C139.186 51.7359 140.536 51.8074 142.317 51.8557C144.969 52.0013 147.066 52.5614 148.656 53.5333C150.247 54.5051 151.109 56.2373 151.238 58.6338C151.383 61.3179 150.442 63.4836 148.458 65.0325C146.427 66.584 143.733 67.4501 140.282 67.6359C136.927 67.8166 134.26 67.3833 132.18 66.2455ZM174.201 61.8678C173.582 62.8625 172.481 63.8352 170.991 64.7326C169.456 65.6805 167.607 66.1646 165.45 66.2807C162.766 66.4253 160.722 65.9585 159.313 64.7846C157.904 63.6106 157.137 61.8733 157.013 59.5727L156.303 46.3918L153.14 46.5621L152.877 41.6732L156.903 41.4564L159.173 34.5083L162.911 34.307L163.278 41.1131L171.713 40.6589L171.977 45.5478L163.541 46.002L164.181 57.8888C164.287 59.854 165.393 60.7558 167.502 60.6423C168.46 60.5906 169.404 60.2514 170.283 59.6272C171.115 59.0056 171.803 58.3917 172.249 57.7428L174.201 61.8678ZM196.076 42.1351C198.213 44.3274 199.385 47.3407 199.592 51.1752C199.615 51.6065 199.606 52.3281 199.612 53.3372L182.836 54.2405C183.131 56.1474 183.738 57.6049 184.701 58.5144C185.663 59.424 186.935 59.8362 188.469 59.7536C189.811 59.6814 190.943 59.2839 191.767 58.5185C192.594 57.801 193.213 56.8063 193.582 55.6327L199.59 56.5109C199.192 58.9359 198.049 60.9202 196.162 62.4639C194.274 64.0077 191.676 64.8686 188.321 65.0492C184.343 65.2634 181.219 64.3741 178.946 62.3334C176.627 60.3432 175.405 57.2845 175.186 53.2104C174.964 49.0883 175.893 45.8176 178.017 43.2998C180.143 40.8299 183.194 39.4639 187.119 39.1564C190.954 38.9499 193.939 39.9428 196.076 42.1351ZM184.077 46.0499C183.224 47.1534 182.731 48.7182 182.648 50.7416L192.761 50.197C192.612 48.3303 192.101 46.8677 191.272 45.7586C190.446 44.6975 189.217 44.1869 187.635 44.2721C186.101 44.3546 184.931 44.9464 184.077 46.0499ZM222.305 38.6077L221.169 46.0716C220.813 45.7062 220.267 45.3991 219.528 45.0544C218.788 44.7097 217.963 44.5618 217.052 44.6108C215.806 44.678 214.679 45.1713 213.762 45.9898C212.796 46.8109 212.091 48.0025 211.596 49.5193C211.104 51.0841 210.912 52.873 211.025 54.9819L211.464 63.1301L204.179 63.5224L202.857 38.9819L208.848 38.6593L209.93 46.2442L210.841 46.1951C211.095 43.778 211.804 41.7689 213.015 40.1655C214.179 38.5646 215.911 37.7022 218.116 37.5835C219.698 37.4983 221.111 37.8549 222.305 38.6077ZM233.118 51.9176C232.279 50.6168 231.874 49.3408 231.812 48.1905C231.75 47.0401 231.986 46.066 232.565 45.2177C233.099 44.4198 233.83 43.7075 234.666 43.1817C235.503 42.6559 236.625 42.0668 238.075 41.3157C239.855 40.4508 241.161 39.7075 242.036 38.9874C242.865 38.3179 243.298 37.4293 243.236 36.279C243.174 35.1286 242.595 34.1984 241.598 33.5311C240.555 32.9142 239.144 32.6056 237.419 32.6986C235.262 32.8147 233.57 33.5307 232.386 34.7481C231.201 35.9656 230.515 37.4927 230.421 39.3244L223.54 38.3009C223.543 36.5702 224.028 34.8617 225.045 33.2206C226.014 31.5821 227.574 30.2003 229.629 29.0802C231.686 28.008 234.15 27.3466 237.122 27.1865C241.34 26.9594 244.595 27.6013 246.882 29.0164C249.172 30.4794 250.396 32.6728 250.551 35.5486C250.649 37.37 250.343 38.8285 249.686 40.0176C249.029 41.2066 248.215 42.1637 247.242 42.841C246.272 43.5663 245.014 44.307 243.423 45.1137C241.787 45.9709 240.577 46.709 239.843 47.3734C239.062 48.0404 238.722 48.8759 238.777 49.8824C238.795 50.2179 238.813 50.5534 238.929 50.9317C238.998 51.3126 239.056 51.5017 239.061 51.5976L233.118 51.9176ZM232.049 58.8491C231.987 57.6988 232.319 56.7195 233.05 56.0072C233.78 55.2949 234.913 54.8974 236.494 54.8122C238.028 54.7297 239.197 55.0032 240 55.633C240.803 56.2627 241.286 57.1981 241.348 58.3484C241.487 60.9367 239.972 62.268 236.905 62.4332C233.789 62.601 232.188 61.4374 232.049 58.8491Z" fill="white"/>
</svg>
