<svg width="169" height="93" viewBox="0 0 169 93" fill="none" xmlns="http://www.w3.org/2000/svg">
<rect x="3.45789" width="165.171" height="87.23" rx="24" transform="rotate(2 3.45789 0)" fill="#FFC548"/>
<path d="M36.5262 60.399L28.8983 60.1476L29.9891 27.0456L37.6169 27.2969L36.5262 60.399ZM65.4399 38.1551C66.7374 39.5906 67.3442 41.5797 67.2588 44.1703L66.6913 61.3929L59.4472 61.1542L59.931 46.4742C59.9784 45.035 59.6805 43.8726 59.0342 43.0828C58.3878 42.2931 57.4426 41.8297 56.1473 41.7871C54.3722 41.7286 52.9525 42.5463 51.9377 44.1937C50.8749 45.8396 50.3098 48.4144 50.1929 51.9645L49.9004 60.8397L42.6084 60.5994L43.4177 36.0367L49.4145 36.2343L49.8327 42.4915L50.7442 42.5215C52.2872 37.9619 55.3374 35.7571 59.8949 35.9073C62.2936 35.9863 64.1409 36.7676 65.4399 38.1551ZM91.0432 28.337L98.2872 28.5757L97.1728 62.3974L91.224 62.2013L90.945 56.0928L89.8896 56.0581C88.5416 60.5281 85.5409 62.6864 80.8875 62.5331C77.6732 62.4272 75.1174 61.2864 73.2711 59.0164C71.3769 56.7447 70.5218 53.5468 70.6593 49.3731C70.7542 46.4947 71.3129 44.1118 72.3372 42.1765C73.3615 40.2411 74.6579 38.7951 76.3206 37.8893C77.9833 36.9836 79.7742 36.5623 81.6931 36.6256C86.2027 36.7742 89.0532 39.1733 90.1488 43.8199L91.1562 43.8531C91.1657 43.5653 91.1014 42.6027 91.056 41.0643C90.8583 38.3203 90.7887 36.0608 90.8456 34.3338L91.0432 28.337ZM87.649 55.552C88.6528 54.2403 89.1957 52.3372 89.2795 49.7946C89.3059 47.5382 88.8382 45.6978 87.9246 44.2749C87.0109 42.8521 85.6914 42.0882 84.0123 42.0329C82.2852 41.976 80.9198 42.6033 79.9161 43.915C78.8644 45.2251 78.3198 47.1762 78.2376 49.6708C78.1554 52.1655 78.5719 54.1003 79.4903 55.3792C80.4071 56.7061 81.7778 57.3756 83.6008 57.4357C85.2799 57.491 86.6453 56.8636 87.649 55.552ZM102.649 31.3128C102.682 30.3054 103.045 29.5009 103.831 28.9505C104.57 28.3985 105.683 28.147 107.218 28.1976C108.705 28.2466 109.797 28.6188 110.546 29.2198C111.295 29.8208 111.652 30.649 111.62 31.6084C111.547 33.8152 109.976 34.8681 107.001 34.7701C104.027 34.672 102.576 33.5196 102.649 31.3128ZM109.727 62.811L102.435 62.5708L103.245 38.0081L110.537 38.2484L109.727 62.811ZM141.597 62.9007C141.104 63.2686 140.42 63.6303 139.546 63.9377C138.669 64.293 137.753 64.4069 136.794 64.3753C135.162 64.3215 133.976 63.8982 133.139 63.0542C132.302 62.2102 131.958 60.9982 132.012 59.3671C132.021 59.0792 132.092 58.4092 132.267 57.4545L131.26 57.4213C130.608 59.705 129.544 61.3989 128.068 62.4549C126.593 63.5109 124.608 63.9738 122.114 63.8916C119.523 63.8062 117.481 63.1146 116.086 61.7239C114.643 60.3316 113.98 58.5808 114.053 56.374C114.14 53.7354 115.262 51.7553 117.514 50.4368C119.765 49.1662 122.715 48.543 126.409 48.6648C127.849 48.7122 129.333 48.8571 130.957 49.1028L131.008 47.5676C131.1 44.7851 129.708 43.2985 126.829 43.2036C124.287 43.1199 122.658 44.4589 121.943 47.2209L115.507 45.7601C115.874 43.3709 117.185 41.4931 119.344 40.0754C121.503 38.7058 124.263 38.0283 127.717 38.1421C131.267 38.2591 133.974 39.1648 135.747 40.76C137.518 42.4032 138.404 44.6416 138.31 47.5201L138.017 56.3952C137.993 57.1149 138.07 57.6937 138.346 58.087C138.571 58.5266 138.901 58.7296 139.332 58.7438C139.716 58.7565 140.105 58.6252 140.498 58.35L141.597 62.9007ZM130.756 52.3139C129.895 52.1895 129.033 52.1131 128.266 52.0878C126.155 52.0182 124.559 52.3498 123.386 52.9835C122.212 53.6172 121.603 54.6057 121.559 55.949C121.527 56.9085 121.79 57.6855 122.348 58.2322C122.906 58.7789 123.714 59.0456 124.721 59.0788C128.176 59.1926 130.218 56.9547 130.756 52.3139Z" fill="black"/>
</svg>
