<svg width="276" height="43" viewBox="0 0 276 43" fill="none" xmlns="http://www.w3.org/2000/svg">
<path d="M32.9438 21.5265H36.3989L37.5647 18.8267H44.4323L45.5981 21.5265H49.1802L42.8425 7.63008H39.3875L32.9438 21.5265ZM38.6669 16.3054L41.0197 10.9057L43.3513 16.3054H38.6669Z" fill="#1460D2"/>
<path d="M50.7231 21.5265H60.431V18.787H54.0721V7.63008H50.7231V21.5265Z" fill="#1460D2"/>
<path d="M61.3585 14.5585C61.3585 18.5884 64.7076 21.6655 69.1376 21.6655C71.2996 21.6655 73.5676 20.6928 75.1362 19.184L73.1649 17.1789C72.1051 18.1715 70.6425 18.8068 69.3072 18.8068C66.7636 18.8068 64.7923 16.9407 64.7923 14.5188C64.7923 12.0968 66.7636 10.2506 69.3072 10.2506C70.6849 10.2506 72.1475 10.9652 73.1649 12.0571L75.115 9.83367C73.6524 8.42417 71.4056 7.53082 69.2648 7.53082C64.7712 7.53082 61.3585 10.5483 61.3585 14.5585Z" fill="#1460D2"/>
<path d="M77.1357 21.5265H80.4848V16.0474H87.204V21.5265H90.553V7.63008H87.204V13.4269H80.4848V7.63008H77.1357V21.5265Z" fill="#1460D2"/>
<path d="M93.8196 21.5265H105.35V18.9259H97.1686V15.8488H104.333V13.2482H97.1686V10.2307H105.117V7.63008H93.8196V21.5265Z" fill="#1460D2"/>
<path d="M107.978 21.5265H111.327V17.5561H114.74L117.093 21.5265H120.887L117.728 16.9407C119.53 16.1466 120.505 14.5982 120.505 12.4541C120.505 9.37707 118.301 7.63008 114.422 7.63008H107.978V21.5265ZM111.327 14.9357V10.2307H114.422C116.266 10.2307 117.326 11.0049 117.326 12.5534C117.326 14.1416 116.266 14.9357 114.422 14.9357H111.327Z" fill="#1460D2"/>
<path d="M123.316 21.5265H126.665V7.63008H123.316V21.5265Z" fill="#1460D2"/>
<path d="M129.961 21.5265H133.162V12.613L140.347 21.5265H143.399V7.63008H140.22V16.5635L133.013 7.63008H129.961V21.5265Z" fill="#1460D2"/>
<path d="M145.606 14.5783C145.606 18.6083 149.018 21.6655 153.512 21.6655C155.568 21.6655 157.963 20.931 159.532 19.859V14.5188H156.628V18.1715C155.674 18.6281 154.614 18.9259 153.724 18.9259C151.096 18.9259 149.04 17.04 149.04 14.5783C149.04 12.1365 151.074 10.2506 153.703 10.2506C155.144 10.2506 156.67 10.8461 157.772 11.799L159.659 9.55574C158.154 8.32491 155.907 7.53082 153.703 7.53082C149.082 7.53082 145.606 10.5682 145.606 14.5783Z" fill="#1460D2"/>
<path d="M160.764 21.5265H164.219L165.384 18.8267H172.252L173.418 21.5265H177L170.662 7.63008H167.207L160.764 21.5265ZM166.487 16.3054L168.839 10.9057L171.171 16.3054H166.487Z" fill="#1460D2"/>
<path d="M38.1629 29.3003V30.1888C37.8928 30.0481 37.6473 29.9513 37.4263 29.8985C37.2114 29.8399 36.9352 29.8105 36.5976 29.8105C35.9776 29.8105 35.4589 30.0129 35.0415 30.4176C34.6302 30.8164 34.4246 31.3472 34.4246 32.0099C34.4246 32.6844 34.6302 33.2211 35.0415 33.6199C35.4528 34.0187 35.996 34.2181 36.6712 34.2181C37.2667 34.2181 37.767 34.0715 38.1721 33.7782V34.6932C37.7915 34.9337 37.2636 35.0539 36.5884 35.0539C35.6615 35.0539 34.9034 34.7782 34.3141 34.2269C33.7248 33.6756 33.4302 32.9366 33.4302 32.0099C33.4302 31.1126 33.7248 30.3824 34.3141 29.8193C34.9095 29.2563 35.6615 28.9748 36.57 28.9748C37.2329 28.9748 37.7639 29.0833 38.1629 29.3003Z" fill="#222121"/>
<path d="M43.526 32.7753H45.5149L45.4136 32.4762C45.1803 31.7841 44.99 31.2123 44.8427 30.7607C44.6954 30.3032 44.6064 30.0187 44.5757 29.9073L44.5296 29.7402C44.4621 30.0158 44.1613 30.9278 43.6273 32.4762L43.526 32.7753ZM46.2607 34.9835L45.7727 33.5319H43.2682L42.771 34.9835H41.7674L43.9127 29.0539H45.1558L47.2735 34.9835H46.2607Z" fill="#222121"/>
<path d="M51.0501 34.9835L51.5289 29.0539H52.6522L53.4809 31.2181C53.6282 31.5876 53.7755 31.9806 53.9228 32.397C54.0702 32.8076 54.1806 33.1272 54.2543 33.356L54.374 33.6991C54.6564 32.9014 54.9664 32.0744 55.304 31.2181L56.1695 29.0539H57.2928L57.8637 34.9835H56.9245L56.7035 32.661L56.5102 30.2856C56.2339 31.0305 55.9332 31.8223 55.6078 32.661L54.7423 34.8691H53.9965L53.1586 32.661L52.3207 30.3208C52.3207 30.5789 52.2716 31.3589 52.1734 32.661L51.9892 34.9835H51.0501Z" fill="#222121"/>
<path d="M62.9754 32.1331H63.7857C64.2338 32.1331 64.5745 32.0275 64.8077 31.8164C65.0471 31.6052 65.1668 31.3267 65.1668 30.9806C65.1668 30.617 65.0471 30.3296 64.8077 30.1185C64.5683 29.9073 64.2215 29.8017 63.7673 29.8017H62.9754V32.1331ZM62.027 29.0539H63.8041C64.5161 29.0539 65.0809 29.2358 65.4983 29.5994C65.9157 29.9572 66.1244 30.4176 66.1244 30.9806C66.1244 31.5437 65.9126 32.0011 65.4891 32.353C65.0717 32.7049 64.5284 32.8809 63.8593 32.8809H62.9754V34.9835H62.027V29.0539Z" fill="#222121"/>
<path d="M73.7189 32.7313V29.0539H74.6673V32.7137C74.6673 33.4821 74.4585 34.0656 74.0411 34.4645C73.6237 34.8633 73.0467 35.0627 72.3101 35.0627C71.5858 35.0627 71.0149 34.8691 70.5975 34.4821C70.1801 34.0891 69.9714 33.5231 69.9714 32.7841V29.0539H70.9198V32.7753C70.9198 33.2797 71.0456 33.6492 71.2973 33.8838C71.5551 34.1126 71.8927 34.2269 72.3101 34.2269C73.2493 34.2269 73.7189 33.7284 73.7189 32.7313Z" fill="#222121"/>
<path d="M82.2483 29.2915V30.1888C81.837 29.9425 81.3705 29.8193 80.8487 29.8193C80.5111 29.8193 80.2441 29.8926 80.0477 30.0393C79.8574 30.18 79.7622 30.3677 79.7622 30.6023C79.7622 30.8369 79.8574 31.0246 80.0477 31.1654C80.2379 31.3061 80.5295 31.4586 80.9224 31.6228C81.1802 31.7284 81.3797 31.8193 81.5209 31.8956C81.6682 31.9718 81.8339 32.0803 82.0181 32.2211C82.2084 32.356 82.3465 32.5202 82.4324 32.7137C82.5245 32.9014 82.5705 33.1184 82.5705 33.3648C82.5705 33.8868 82.3772 34.2973 81.9905 34.5964C81.6037 34.8955 81.1035 35.0451 80.4896 35.0451C79.8083 35.0451 79.2435 34.919 78.7954 34.6668V33.7255C79.2804 34.0715 79.842 34.2445 80.4804 34.2445C80.818 34.2445 81.085 34.1712 81.2815 34.0246C81.4779 33.8721 81.5761 33.6639 81.5761 33.4C81.5761 33.2416 81.5178 33.0979 81.4012 32.9689C81.2845 32.834 81.1587 32.7343 81.0237 32.6698C80.8886 32.5994 80.6861 32.5055 80.416 32.3882C80.2564 32.3178 80.1428 32.268 80.0753 32.2387C80.0139 32.2093 79.9095 32.1566 79.7622 32.0803C79.6149 32.0041 79.5044 31.9396 79.4307 31.8868C79.3632 31.834 79.2773 31.7607 79.1729 31.6668C79.0686 31.573 78.9919 31.4791 78.9427 31.3853C78.8998 31.2915 78.8568 31.183 78.8138 31.0598C78.777 30.9308 78.7586 30.7929 78.7586 30.6463C78.7586 30.1419 78.9489 29.7431 79.3295 29.4498C79.7162 29.1566 80.2134 29.01 80.8211 29.01C81.3797 29.01 81.8554 29.1038 82.2483 29.2915Z" fill="#222121"/>
<path d="M93.137 32.7753H95.1258L95.0245 32.4762C94.7913 31.7841 94.601 31.2123 94.4537 30.7607C94.3063 30.3032 94.2173 30.0187 94.1866 29.9073L94.1406 29.7402C94.0731 30.0158 93.7723 30.9278 93.2383 32.4762L93.137 32.7753ZM95.8716 34.9835L95.3836 33.5319H92.8792L92.3819 34.9835H91.3783L93.5237 29.0539H94.7667L96.8845 34.9835H95.8716Z" fill="#222121"/>
<path d="M100.661 34.9835L101.14 29.0539H102.263L103.092 31.2181C103.239 31.5876 103.386 31.9806 103.534 32.397C103.681 32.8076 103.792 33.1272 103.865 33.356L103.985 33.6991C104.267 32.9014 104.577 32.0744 104.915 31.2181L105.78 29.0539H106.904L107.475 34.9835H106.535L106.314 32.661L106.121 30.2856C105.845 31.0305 105.544 31.8223 105.219 32.661L104.353 34.8691H103.607L102.77 32.661L101.932 30.3208C101.932 30.5789 101.883 31.3589 101.784 32.661L101.6 34.9835H100.661Z" fill="#222121"/>
<path d="M112.586 34.2357H113.802C114.581 34.2357 114.971 33.9278 114.971 33.312C114.971 33.0129 114.864 32.7812 114.649 32.617C114.44 32.4469 114.127 32.3618 113.71 32.3618H112.586V34.2357ZM112.586 29.8017V31.6228H113.443C113.903 31.6228 114.244 31.5349 114.465 31.3589C114.692 31.1771 114.805 30.9425 114.805 30.6551C114.805 30.4029 114.704 30.1976 114.502 30.0393C114.305 29.8809 114.004 29.8017 113.599 29.8017H112.586ZM111.638 29.0539H113.673C114.324 29.0539 114.836 29.2006 115.211 29.4938C115.585 29.7812 115.772 30.1624 115.772 30.6375C115.772 30.966 115.674 31.2533 115.478 31.4997C115.287 31.746 115.042 31.9044 114.741 31.9747C115.079 32.0334 115.361 32.183 115.588 32.4234C115.821 32.6639 115.938 32.9865 115.938 33.3912C115.938 33.8604 115.769 34.2445 115.432 34.5436C115.1 34.8369 114.63 34.9835 114.023 34.9835H111.638V29.0539Z" fill="#222121"/>
<path d="M121.26 32.7753H123.249L123.148 32.4762C122.915 31.7841 122.724 31.2123 122.577 30.7607C122.43 30.3032 122.341 30.0187 122.31 29.9073L122.264 29.7402C122.197 30.0158 121.896 30.9278 121.362 32.4762L121.26 32.7753ZM123.995 34.9835L123.507 33.5319H121.003L120.505 34.9835H119.502L121.647 29.0539H122.89L125.008 34.9835H123.995Z" fill="#222121"/>
<path d="M132.219 29.2915V30.1888C131.808 29.9425 131.341 29.8193 130.819 29.8193C130.482 29.8193 130.215 29.8926 130.018 30.0393C129.828 30.18 129.733 30.3677 129.733 30.6023C129.733 30.8369 129.828 31.0246 130.018 31.1654C130.209 31.3061 130.5 31.4586 130.893 31.6228C131.151 31.7284 131.35 31.8193 131.492 31.8956C131.639 31.9718 131.805 32.0803 131.989 32.2211C132.179 32.356 132.317 32.5202 132.403 32.7137C132.495 32.9014 132.541 33.1184 132.541 33.3648C132.541 33.8868 132.348 34.2973 131.961 34.5964C131.574 34.8955 131.074 35.0451 130.46 35.0451C129.779 35.0451 129.214 34.919 128.766 34.6668V33.7255C129.251 34.0715 129.813 34.2445 130.451 34.2445C130.789 34.2445 131.056 34.1712 131.252 34.0246C131.449 33.8721 131.547 33.6639 131.547 33.4C131.547 33.2416 131.488 33.0979 131.372 32.9689C131.255 32.834 131.129 32.7343 130.994 32.6698C130.859 32.5994 130.657 32.5055 130.387 32.3882C130.227 32.3178 130.113 32.268 130.046 32.2387C129.985 32.2093 129.88 32.1566 129.733 32.0803C129.586 32.0041 129.475 31.9396 129.401 31.8868C129.334 31.834 129.248 31.7607 129.144 31.6668C129.039 31.573 128.962 31.4791 128.913 31.3853C128.87 31.2915 128.827 31.183 128.784 31.0598C128.748 30.9308 128.729 30.7929 128.729 30.6463C128.729 30.1419 128.92 29.7431 129.3 29.4498C129.687 29.1566 130.184 29.01 130.792 29.01C131.35 29.01 131.826 29.1038 132.219 29.2915Z" fill="#222121"/>
<path d="M139.921 29.2915V30.1888C139.51 29.9425 139.043 29.8193 138.521 29.8193C138.184 29.8193 137.917 29.8926 137.72 30.0393C137.53 30.18 137.435 30.3677 137.435 30.6023C137.435 30.8369 137.53 31.0246 137.72 31.1654C137.911 31.3061 138.202 31.4586 138.595 31.6228C138.853 31.7284 139.052 31.8193 139.194 31.8956C139.341 31.9718 139.507 32.0803 139.691 32.2211C139.881 32.356 140.019 32.5202 140.105 32.7137C140.197 32.9014 140.243 33.1184 140.243 33.3648C140.243 33.8868 140.05 34.2973 139.663 34.5964C139.276 34.8955 138.776 35.0451 138.162 35.0451C137.481 35.0451 136.916 34.919 136.468 34.6668V33.7255C136.953 34.0715 137.515 34.2445 138.153 34.2445C138.491 34.2445 138.758 34.1712 138.954 34.0246C139.151 33.8721 139.249 33.6639 139.249 33.4C139.249 33.2416 139.19 33.0979 139.074 32.9689C138.957 32.834 138.831 32.7343 138.696 32.6698C138.561 32.5994 138.359 32.5055 138.089 32.3882C137.929 32.3178 137.815 32.268 137.748 32.2387C137.687 32.2093 137.582 32.1566 137.435 32.0803C137.288 32.0041 137.177 31.9396 137.103 31.8868C137.036 31.834 136.95 31.7607 136.846 31.6668C136.741 31.573 136.664 31.4791 136.615 31.3853C136.572 31.2915 136.529 31.183 136.486 31.0598C136.45 30.9308 136.431 30.7929 136.431 30.6463C136.431 30.1419 136.622 29.7431 137.002 29.4498C137.389 29.1566 137.886 29.01 138.494 29.01C139.052 29.01 139.528 29.1038 139.921 29.2915Z" fill="#222121"/>
<path d="M145.643 32.7753H147.632L147.531 32.4762C147.298 31.7841 147.107 31.2123 146.96 30.7607C146.813 30.3032 146.724 30.0187 146.693 29.9073L146.647 29.7402C146.579 30.0158 146.279 30.9278 145.745 32.4762L145.643 32.7753ZM148.378 34.9835L147.89 33.5319H145.385L144.888 34.9835H143.885L146.03 29.0539H147.273L149.391 34.9835H148.378Z" fill="#222121"/>
<path d="M154.217 34.2181H155.193C155.899 34.2181 156.436 34.007 156.804 33.5847C157.173 33.1624 157.357 32.6199 157.357 31.9571C157.357 31.3472 157.157 30.8399 156.758 30.4352C156.359 30.0305 155.828 29.8281 155.165 29.8281H154.217V34.2181ZM153.25 29.0539H155.184C156.105 29.0539 156.86 29.3267 157.449 29.8721C158.038 30.4176 158.333 31.1126 158.333 31.9571C158.333 32.8369 158.053 33.5612 157.495 34.1302C156.942 34.6991 156.178 34.9835 155.202 34.9835H153.25V29.0539Z" fill="#222121"/>
<path d="M162.043 31.9923C162.043 31.0715 162.301 30.3325 162.817 29.7753C163.332 29.2182 164.023 28.9396 164.889 28.9396C165.772 28.9396 166.469 29.2182 166.979 29.7753C167.488 30.3267 167.743 31.0657 167.743 31.9923C167.743 32.919 167.485 33.6609 166.969 34.2181C166.46 34.7753 165.769 35.0539 164.898 35.0539C164.032 35.0539 163.339 34.7753 162.817 34.2181C162.301 33.6609 162.043 32.919 162.043 31.9923ZM163.526 30.3824C163.2 30.7753 163.038 31.312 163.038 31.9923C163.038 32.6727 163.207 33.2123 163.544 33.6111C163.882 34.0099 164.333 34.2093 164.898 34.2093C165.481 34.2093 165.935 34.0128 166.26 33.6199C166.586 33.2269 166.748 32.6844 166.748 31.9923C166.748 31.3061 166.583 30.7665 166.251 30.3736C165.926 29.9806 165.472 29.7841 164.889 29.7841C164.312 29.7841 163.857 29.9836 163.526 30.3824Z" fill="#222121"/>
<path d="M172.687 29.8105V31.9747H173.543C173.936 31.9747 174.234 31.878 174.436 31.6844C174.639 31.485 174.74 31.2211 174.74 30.8926C174.74 30.1712 174.326 29.8105 173.497 29.8105H172.687ZM174.961 34.9835L173.506 32.7313H172.687V34.9835H171.738V29.0539H173.469C174.181 29.0539 174.731 29.2211 175.118 29.5554C175.504 29.8838 175.698 30.3325 175.698 30.9014C175.692 31.3179 175.581 31.6727 175.366 31.9659C175.151 32.2533 174.854 32.4615 174.473 32.5906L176.094 34.9835H174.961Z" fill="#222121"/>
<path d="M14.3688 37.0396C14.284 36.9598 14.3688 36.8002 14.284 36.7203C14.284 36.8002 14.1992 36.88 14.1992 36.9598C14.1992 37.0396 14.1992 37.1195 14.1992 37.1993C14.1992 37.359 14.1992 37.359 14.0296 37.359C13.9448 37.359 13.8599 37.359 13.8599 37.359C13.6903 37.359 13.5207 37.359 13.3511 37.4388C13.1815 37.4388 13.0119 37.5186 12.9271 37.5186C12.7575 37.5186 12.5878 37.5186 12.4182 37.5186C12.1638 37.5186 11.9942 37.5186 11.7398 37.5186C11.4006 37.5186 11.0613 37.5186 10.7221 37.5186C10.7221 37.5186 10.7221 37.5186 10.7221 37.5985C10.7221 37.5985 10.8069 37.6783 10.7221 37.6783C10.7221 37.6783 10.6373 37.6783 10.6373 37.5985C10.5525 37.5985 10.6373 37.5186 10.6373 37.5186C10.3829 37.5186 10.0436 37.5186 9.78922 37.5186C9.5348 37.5186 9.28038 37.5186 9.11077 37.5186C8.94115 37.5186 8.77154 37.5186 8.60193 37.5186H8.51712C8.43231 37.5985 8.34751 37.5985 8.2627 37.5985C7.75386 37.5985 7.24502 37.5985 6.82098 37.5985C6.48176 37.5985 6.22734 37.5985 5.88811 37.5985C5.7185 37.5985 5.54888 37.5985 5.46408 37.5985H5.37927C5.20966 37.5186 5.04004 37.5186 4.95524 37.6783C4.95524 37.6783 4.87043 37.7581 4.87043 37.6783C4.70081 37.6783 4.5312 37.6783 4.36159 37.6783C4.27678 37.6783 4.10717 37.6783 4.02236 37.6783C4.02236 37.6783 3.93755 37.6783 3.93755 37.5985C3.85275 37.5186 3.68313 37.5186 3.51352 37.5186C3.51352 37.5985 3.59833 37.5985 3.59833 37.5985C3.59833 37.6783 3.51352 37.5985 3.42871 37.5985C2.91987 37.5985 2.32622 37.5985 1.81738 37.5985C1.64777 37.5985 1.47816 37.5985 1.22374 37.5985C0.969316 37.5985 0.799702 37.5985 0.545282 37.5186C0.460475 37.5186 0.460475 37.5186 0.460475 37.4388C0.375668 37.359 0.290861 37.1993 0.206055 37.1195C0.206055 37.1195 0.206055 37.0396 0.206055 36.9598C0.206055 35.5229 0.206055 34.0061 0.206055 32.5692C0.206055 31.2919 0.206055 29.9348 0.206055 28.6575C0.206055 28.3382 0.206055 28.0987 0.206055 27.7794C0.206055 27.6197 0.206055 27.46 0.206055 27.3004C0.206055 27.2206 0.206055 27.0609 0.206055 26.9811C0.206055 26.8214 0.206055 26.7416 0.206055 26.5819V26.5021C0.206055 26.2626 0.206055 26.0231 0.206055 25.7836C0.206055 25.7038 0.206055 25.5441 0.206055 25.4643V25.3845C0.290861 25.3046 0.290861 25.3046 0.290861 25.2248V25.145C0.290861 24.9853 0.290861 24.7458 0.206055 24.5862C0.206055 24.5063 0.206055 24.4265 0.206055 24.3467C0.206055 24.1072 0.206055 23.9475 0.206055 23.708V23.6282C0.375668 23.4686 0.460475 23.3887 0.630089 23.2291C0.714895 23.2291 0.714895 23.1492 0.799702 23.1492C1.22374 23.1492 1.64777 23.1492 2.0718 23.1492C3.42871 23.1492 4.70081 23.1492 6.05772 23.1492C6.56656 23.1492 7.0754 23.1492 7.58425 23.1492C7.92347 23.1492 8.2627 23.1492 8.60193 23.1492C8.85635 23.1492 9.11077 23.1492 9.36519 23.1492C9.61961 23.1492 9.78922 23.1492 10.0436 23.1492C10.3829 23.1492 10.7221 23.1492 11.0613 23.1492C11.5702 23.1492 12.079 23.1492 12.6727 23.1492C12.8423 23.1492 12.8423 23.1492 12.8423 23.3089C12.8423 23.4686 12.8423 23.6282 12.7575 23.7879C12.7575 23.9475 12.6727 24.187 12.6727 24.3467C12.6727 24.5063 12.5878 24.7458 12.5878 24.9055C12.503 25.145 12.503 25.3046 12.4182 25.5441C12.3334 25.8634 12.2486 26.1828 12.1638 26.5021C12.079 26.9811 11.9094 27.3802 11.7398 27.7794C11.5702 28.2583 11.3157 28.6575 10.9765 29.0566C10.8069 29.2961 10.5525 29.6155 10.3829 29.8549C10.0436 30.2541 9.70442 30.5734 9.28038 30.9726C9.11077 31.1322 8.85635 31.3717 8.68673 31.5314C8.51712 31.691 8.2627 31.9305 8.09309 32.0902C7.92347 32.2498 7.75386 32.4095 7.49944 32.5692C7.16021 32.8087 6.90579 33.128 6.56656 33.4473C6.48176 33.5271 6.39695 33.5271 6.39695 33.4473C6.31214 33.3675 6.22734 33.3675 6.14253 33.4473C5.97292 33.607 5.8033 33.8464 5.7185 34.0061C5.46408 34.3254 5.29446 34.7246 5.12485 35.0439C4.95524 35.2834 4.87043 35.6027 4.87043 35.8422C4.87043 36.0817 4.87043 36.401 4.95524 36.6405C5.04004 36.8002 5.12485 36.88 5.29446 37.0396C5.37927 37.0396 5.37927 37.0396 5.46408 36.9598C5.63369 36.7203 5.7185 36.4808 5.88811 36.3212C6.14253 35.8422 6.39695 35.3632 6.73618 34.8842C6.56656 34.8044 6.82098 34.5649 6.9906 34.3254C7.16021 34.0859 7.41463 33.9263 7.58425 33.6868C7.83867 33.4473 8.09309 33.2078 8.34751 32.9683C8.51712 32.7288 8.77154 32.5692 9.02596 32.4095C9.45 32.0104 9.95884 31.691 10.4677 31.3717C10.7221 31.2121 11.0613 30.9726 11.3157 30.8129C11.4006 30.8129 11.4006 30.8129 11.4006 30.8927C11.4854 31.2121 11.4854 31.5314 11.4006 31.8507C11.3157 32.3297 11.1461 32.8087 11.0613 33.2876C10.9765 33.607 10.8917 33.9263 10.8069 34.2456C10.8069 34.3254 10.8069 34.4053 10.8069 34.5649C10.8069 34.8044 10.7221 34.9641 10.6373 35.1237C10.5525 35.2036 10.5525 35.2834 10.4677 35.3632C10.3829 35.5229 10.4677 35.6027 10.5525 35.6825C10.7221 35.8422 10.8917 36.0019 11.0613 36.0817C11.4854 36.3212 11.8246 36.5607 12.2486 36.8002C12.503 36.88 12.7575 37.0396 13.0119 37.0396C13.2663 37.1195 13.5207 37.1195 13.7751 37.0396C13.7751 37.0396 13.8599 37.0396 13.8599 36.9598C13.8599 36.88 13.7751 36.88 13.7751 36.8002C13.6055 36.6405 13.3511 36.4808 13.0967 36.401C12.8423 36.2413 12.5878 36.0817 12.4182 35.922C12.2486 35.7624 12.079 35.5229 11.9942 35.2834C11.9094 35.1237 11.9094 35.0439 11.9094 34.8842C11.9094 34.3254 11.9942 33.8464 12.1638 33.3675C12.2486 32.9683 12.4182 32.4893 12.5878 32.0902C12.7575 31.7709 12.9271 31.4515 13.0967 31.1322C13.4359 30.4936 13.6903 29.9348 14.0296 29.2961C14.1144 29.1365 14.1992 29.0566 14.1992 28.897L14.284 28.8172V28.897C14.284 29.6953 14.284 30.5734 14.284 31.3717C14.284 32.17 14.284 32.9683 14.284 33.7666C14.284 34.0061 14.284 34.3254 14.284 34.5649C14.284 34.6447 14.284 34.8044 14.284 34.8842C14.284 35.0439 14.284 35.2036 14.284 35.2834C14.284 35.6027 14.284 35.922 14.284 36.2413C14.3688 36.6405 14.4536 36.8002 14.3688 37.0396ZM0.375668 35.922C0.290861 35.7624 0.290861 35.8422 0.375668 35.922C0.290861 35.8422 0.206055 35.922 0.206055 35.922C0.206055 35.922 0.206055 35.922 0.375668 35.922C0.290861 35.922 0.290861 35.922 0.375668 35.922Z" fill="#1460D2"/>
<path d="M21.3218 21.3131C21.8307 21.3131 22.1699 21.3131 22.5939 21.3131H22.6787C22.5939 21.3131 22.5939 21.3131 22.5091 21.3131C22.3395 21.3131 22.0851 21.3131 21.9155 21.3131C21.5763 21.3131 21.3218 21.3131 20.9826 21.3131C20.813 21.3131 20.6434 21.3131 20.389 21.3131C20.3042 21.3131 20.2193 21.3131 20.1345 21.2333C20.1345 21.1535 20.0497 21.1535 19.9649 21.1535C19.6257 21.1535 19.3713 21.1535 19.032 21.1535C19.1169 21.1535 19.2865 21.1535 19.3713 21.2333C19.1169 21.3929 18.2688 21.3929 18.184 21.2333C18.2688 21.2333 18.3536 21.2333 18.4384 21.1535C18.2688 21.0736 17.9296 21.0736 17.8448 21.1535L17.9296 21.2333C18.0144 21.3131 17.9296 21.3131 17.9296 21.3131C17.7599 21.3131 17.5055 21.3131 17.3359 21.3131C17.2511 21.3131 17.2511 21.2333 17.2511 21.2333C17.2511 21.1535 17.2511 20.9938 17.2511 20.914C17.2511 20.7543 17.3359 20.5946 17.3359 20.435C17.3359 20.2753 17.4207 20.1157 17.4207 19.956C17.4207 19.7963 17.4207 19.6367 17.5055 19.477C17.5055 19.3174 17.5903 19.0779 17.5903 18.9182C17.5903 18.8384 17.5903 18.7586 17.5903 18.6787C17.5903 18.5191 17.5903 18.3594 17.5903 18.1997C17.5903 17.7208 17.5903 17.162 17.5903 16.683C17.5903 16.4435 17.5903 16.204 17.5903 15.9645C17.5903 15.725 17.5903 15.4855 17.5903 15.246C17.5903 14.9267 17.6751 14.6074 17.8448 14.2881C18.0144 13.8889 18.2688 13.5696 18.4384 13.2503C18.6928 12.8511 18.8624 12.452 19.1169 12.0528C19.3713 11.6537 19.5409 11.2545 19.7105 10.7756C19.9649 10.2966 20.1345 9.8176 20.389 9.33862C20.5586 8.93947 20.7282 8.54032 20.813 8.14117C20.8978 7.90168 20.9826 7.66219 20.9826 7.4227C20.8978 7.4227 20.8978 7.50253 20.813 7.58236C20.7282 7.98151 20.5586 8.38066 20.3042 8.69998C20.2193 8.85964 19.9649 8.85964 19.7953 8.85964C19.7953 8.85964 19.7105 8.85964 19.6257 8.85964C19.6257 8.85964 19.5409 8.85964 19.5409 8.93947V9.0193C19.5409 9.49828 19.4561 9.89743 19.2865 10.2966C19.2017 10.5361 19.032 10.7756 18.9472 11.0949C18.6928 11.5739 18.4384 11.973 18.0992 12.452C17.9296 12.6915 17.7599 12.8511 17.5903 13.0906C17.5055 13.1705 17.4207 13.3301 17.2511 13.4099C16.9967 13.6494 16.6575 13.8889 16.1486 14.0486C16.1486 14.0486 16.0638 14.0486 15.979 14.0486C15.979 13.9688 15.979 13.9688 15.979 13.8889C15.979 11.973 15.979 10.0571 15.979 8.06134C15.979 7.90168 15.979 7.74202 15.979 7.58236C15.979 7.4227 15.979 7.26304 16.1486 7.18321C16.2334 7.10338 16.3182 7.02355 16.403 6.94372C16.3182 6.86389 16.403 6.86389 16.4878 6.86389C16.9967 6.86389 17.5055 6.86389 18.0144 6.86389C19.1169 6.86389 20.2193 6.86389 21.3218 6.86389C22.6787 6.86389 24.1205 6.86389 25.4774 6.86389C26.2406 6.86389 27.0039 6.86389 27.7671 6.86389C27.852 6.86389 28.0216 6.86389 28.1064 7.02355C28.1912 7.10338 28.3608 7.26304 28.4456 7.34287C28.5304 7.4227 28.5304 7.4227 28.3608 7.50253C28.276 7.50253 28.276 7.50253 28.276 7.58236C28.276 7.82185 28.276 7.98151 28.276 8.221C28.276 8.46049 28.276 8.69998 28.276 8.93947C28.276 9.09913 28.1912 9.33862 28.1912 9.49828C28.1912 9.57811 28.1912 9.73777 28.1912 9.8176C28.1912 10.3764 28.1912 10.9352 28.1912 11.5739C28.1912 13.0906 28.1912 14.5276 28.1912 16.0443C28.1912 16.5233 28.1912 17.0023 28.1912 17.4813C28.1912 17.7208 28.276 17.9603 28.276 18.1997C28.276 18.2796 28.276 18.4392 28.276 18.5191C28.1912 18.7586 28.1912 18.998 28.1912 19.2375C28.1912 19.477 28.1912 19.7963 28.1912 20.0358C28.1912 20.1955 28.1912 20.435 28.1064 20.5946C28.1064 20.5946 28.1064 20.6745 28.1064 20.5946C28.0216 20.5946 28.0216 20.5946 28.0216 20.6745C28.0216 20.8341 28.0216 20.9938 28.0216 21.1535C28.0216 21.2333 28.0216 21.2333 27.9368 21.2333C27.852 21.2333 27.6823 21.2333 27.5975 21.2333C27.4279 21.2333 27.3431 21.2333 27.1735 21.2333C26.8343 21.2333 26.5799 21.2333 26.2406 21.2333C25.647 21.2333 24.9685 21.2333 24.3749 21.2333C23.866 21.2333 23.442 21.2333 22.9332 21.2333C22.7635 21.2333 22.5091 21.2333 22.3395 21.2333C22.0851 21.2333 21.9155 21.2333 21.6611 21.2333C21.5763 21.2333 21.4914 21.2333 21.3218 21.3131Z" fill="#1460D2"/>
<path d="M26.835 35.4431C26.835 35.6027 26.835 35.7624 26.835 35.922C26.835 36.0817 26.835 36.0817 26.6654 36.0817C26.411 36.0817 26.2413 36.0817 25.9869 36.0817C25.5629 36.0817 25.2237 36.0817 24.7996 36.0817C24.5452 36.0817 24.206 36.0817 23.9516 36.0817C23.8668 36.0817 23.7819 36.0817 23.6971 36.1615C23.6123 36.2414 23.5275 36.2414 23.5275 36.1615C23.5275 36.1615 23.5275 36.0817 23.6123 36.0019C23.4427 36.0019 23.2731 36.0019 23.1883 36.0019C22.3402 36.0019 21.577 36.0019 20.7289 36.0019C20.5593 36.0019 20.4745 36.0019 20.3049 36.0817C20.3897 36.0817 20.3897 36.1615 20.4745 36.1615C20.8985 36.1615 21.3226 36.1615 21.6618 36.1615H21.7466C21.7466 36.2414 21.7466 36.2414 21.6618 36.2414C21.4922 36.2414 21.4074 36.3212 21.2377 36.3212C20.8137 36.3212 20.3897 36.3212 19.9656 36.3212C19.796 36.3212 19.5416 36.3212 19.372 36.3212C19.2872 36.3212 19.2872 36.3212 19.2024 36.2414C19.2024 36.1615 19.1176 36.1615 19.0328 36.1615C18.7783 36.1615 18.5239 36.1615 18.1847 36.1615C18.2695 36.1615 18.3543 36.1615 18.4391 36.2414H18.5239C18.3543 36.401 18.2695 36.401 18.1847 36.401C17.9303 36.401 17.7607 36.401 17.5062 36.401C17.4214 36.401 17.4214 36.401 17.3366 36.3212C17.3366 36.3212 17.4214 36.3212 17.5062 36.2414C17.4214 36.2414 17.3366 36.2414 17.3366 36.2414C17.2518 36.2414 17.2518 36.3212 17.2518 36.3212C17.2518 36.401 17.2518 36.401 17.167 36.401C16.9974 36.401 16.8278 36.4808 16.5734 36.4808C16.4038 36.4808 16.1493 36.4808 15.9797 36.4808C15.8101 36.4808 15.7253 36.401 15.6405 36.3212C15.5557 36.2414 15.4709 36.0817 15.3861 36.0019C15.3013 36.0019 15.3013 35.922 15.3013 35.8422C15.3013 32.9683 15.3013 30.0945 15.3013 27.3004C15.3013 27.0609 15.3861 26.9013 15.4709 26.7416C15.7253 25.9433 16.0645 25.2248 16.319 24.4265C16.4886 23.7879 16.743 23.2291 16.9126 22.5904C16.9126 22.5106 16.9974 22.4308 16.9974 22.3509C16.9974 22.2711 17.167 22.2711 17.2518 22.2711C17.6759 22.2711 18.0151 22.2711 18.4391 22.2711C18.6935 22.2711 18.8632 22.2711 19.1176 22.2711C21.6618 22.2711 24.206 22.2711 26.7502 22.2711C26.835 22.2711 26.9198 22.2711 27.0046 22.3509C27.0894 22.4308 27.1742 22.5106 27.1742 22.5904C27.259 22.7501 27.3438 22.9098 27.259 23.0694C27.1742 23.1492 27.1742 23.3089 27.259 23.3887C27.259 23.4686 27.259 23.5484 27.259 23.6282C27.259 23.9475 27.259 24.187 27.259 24.5064C27.259 24.8257 27.259 25.0652 27.259 25.3845C27.259 25.624 27.259 25.8635 27.259 26.103C27.259 26.7416 27.259 27.3802 27.259 28.0189C27.259 28.7373 27.259 29.4558 27.259 30.1743C27.259 30.4138 27.259 30.6533 27.259 30.8928C27.259 31.1322 27.259 31.3717 27.259 31.6112C27.259 31.7709 27.259 31.8507 27.259 32.0104C27.259 32.3297 27.259 32.649 27.3438 32.8885C27.3438 33.0482 27.3438 33.128 27.3438 33.2877C27.3438 33.4473 27.3438 33.607 27.259 33.7666C27.259 33.8465 27.259 33.8465 27.259 33.9263C27.259 34.1658 27.259 34.4851 27.259 34.7246C27.259 34.9641 27.259 35.1237 27.259 35.3632C27.259 35.4431 27.259 35.4431 27.259 35.5229C26.9198 35.5229 26.9198 35.5229 26.835 35.4431Z" fill="#1460D2"/>
<path d="M4.61531 9.57805C4.70012 9.81754 4.86973 9.89737 5.03935 10.057C5.20896 10.2965 5.37857 10.4562 5.54819 10.6957C5.7178 10.9352 5.88741 11.1747 6.14183 11.3343C6.39626 11.5738 6.56587 11.8931 6.82029 12.1326C7.07471 12.4519 7.24432 12.7712 7.58355 13.0107C7.75316 13.4099 8.09239 13.5695 8.51643 13.6494C8.85565 13.7292 9.11007 13.809 9.4493 13.8889C9.78853 13.9687 10.0429 14.0485 10.2974 14.2082C10.6366 14.3678 10.891 14.5275 11.1454 14.767C11.315 14.9267 11.5695 15.0863 11.7391 15.246C11.9935 15.4855 12.3327 15.725 12.5872 15.9644C12.9264 16.2838 13.2656 16.6829 13.6048 17.0821C13.7744 17.3216 13.9441 17.6409 14.0289 17.9602C14.0289 18.04 14.0289 18.1997 14.0289 18.3593C14.0289 18.6787 14.0289 18.9182 13.9441 19.2375C13.8593 19.477 13.6896 19.7165 13.6048 19.8761C13.52 20.1156 13.3504 20.2753 13.2656 20.5148C13.096 20.7542 13.0112 20.9937 13.0112 21.3131C12.9264 21.5525 12.9264 21.792 12.8416 22.0315C12.8416 22.1912 12.8416 22.3508 12.7568 22.4307C12.7568 22.5105 12.7568 22.5105 12.672 22.5105C12.2479 22.5105 11.9087 22.5105 11.4847 22.5105C10.891 22.5105 10.2974 22.5105 9.70372 22.5105C9.27969 22.5105 8.85565 22.5105 8.43162 22.5105H8.51643C8.77085 22.5105 9.02527 22.5105 9.19488 22.5105C9.19488 22.5105 9.36449 22.5105 9.27969 22.5903C9.27969 22.5903 9.19488 22.5903 9.11007 22.5903C8.94046 22.5903 8.77085 22.5903 8.51643 22.5903C8.00758 22.5903 7.49874 22.5903 6.9051 22.5903C6.82029 22.5903 6.65068 22.5903 6.56587 22.5105C6.56587 22.5105 6.48106 22.4307 6.48106 22.5105V22.5903C6.48106 22.5903 6.48106 22.5903 6.48106 22.6702C6.39626 22.75 6.39626 22.75 6.31145 22.75C6.31145 22.75 6.22664 22.75 6.22664 22.6702C6.22664 22.5105 6.05703 22.5105 5.97222 22.5105C5.54819 22.4307 5.03935 22.5105 4.61531 22.5105C4.53051 22.5105 4.4457 22.5105 4.27609 22.5105C4.36089 22.5105 4.4457 22.5903 4.4457 22.5903C4.4457 22.5903 4.53051 22.5903 4.53051 22.6702C4.53051 22.6702 4.53051 22.6702 4.4457 22.6702C4.36089 22.6702 4.36089 22.6702 4.27609 22.6702C3.76724 22.75 3.34321 22.75 2.83437 22.75C2.66476 22.75 2.57995 22.75 2.49514 22.5903L2.41034 22.5105C2.24072 22.4307 2.24072 22.271 2.24072 22.1114C2.24072 19.8761 2.24072 17.7207 2.24072 15.4855C2.24072 13.2502 2.24072 10.9352 2.24072 8.69992C2.24072 8.54026 2.24072 8.3806 2.41034 8.30077C2.57995 8.30077 2.66476 8.22094 2.74956 8.14111H2.83437C3.1736 8.14111 3.59763 8.14111 3.93686 8.14111C5.7178 8.14111 7.58355 8.14111 9.36449 8.14111C9.53411 8.14111 9.78853 8.14111 9.95814 8.14111C10.467 8.14111 10.9758 8.14111 11.4847 8.14111C11.9087 8.14111 12.4175 8.14111 12.8416 8.14111C13.3504 8.14111 13.8593 8.14111 14.2833 8.14111C14.3681 8.14111 14.4529 8.14111 14.4529 8.22094C14.5377 8.30077 14.7073 8.46043 14.7921 8.54026C14.8769 8.62009 14.8769 8.62009 14.8769 8.69992C14.8769 9.33856 14.8769 9.9772 14.8769 10.6158C14.8769 11.494 14.8769 12.3721 14.8769 13.2502C14.8769 13.4099 14.8769 13.5695 14.7921 13.7292C14.7921 13.7292 14.7921 13.809 14.7073 13.809C14.7073 13.809 14.6225 13.809 14.6225 13.7292C14.5377 13.6494 14.5377 13.5695 14.5377 13.4897C14.4529 13.2502 14.4529 12.9309 14.4529 12.6914C14.4529 12.3721 14.5377 12.1326 14.5377 11.8133C14.5377 11.494 14.6225 11.2545 14.4529 10.9352C14.3681 10.7755 14.2833 10.6957 14.1137 10.6158C13.9441 10.536 13.7744 10.4562 13.52 10.3764C13.096 10.2965 12.672 10.3764 12.3327 10.7755C12.1631 11.015 11.9935 11.3343 11.9087 11.6536C11.8239 11.973 11.8239 12.2923 11.9935 12.6116C12.0783 12.7712 12.1631 12.9309 12.3327 13.0906C12.4175 13.1704 12.5872 13.2502 12.672 13.4099C12.7568 13.4897 12.7568 13.4897 12.672 13.5695C12.672 13.5695 12.672 13.5695 12.5872 13.5695C12.4175 13.5695 12.1631 13.5695 11.9935 13.5695C11.4847 13.5695 10.9758 13.4897 10.5518 13.3301C10.1278 13.1704 9.70372 13.0107 9.27969 12.8511C8.85565 12.6914 8.34681 12.4519 7.83797 12.1326C7.49874 11.8931 7.15952 11.7335 6.82029 11.4141C6.48106 11.1747 6.14183 10.8553 5.97222 10.4562C5.97222 10.3764 5.88741 10.2965 5.80261 10.2167C5.80261 10.1369 5.7178 10.1369 5.7178 10.2167C5.54819 10.3764 5.54819 10.3764 5.37857 10.2167C5.20896 10.1369 5.03935 9.89737 4.78493 9.73771C4.78493 9.65788 4.70012 9.65788 4.61531 9.57805Z" fill="#1460D2"/>
<path d="M5.3806 22.5904C5.46541 22.5904 5.63502 22.5904 5.80464 22.5904C5.80464 22.5904 5.88944 22.5904 5.88944 22.6702L5.80464 22.75C5.55022 22.75 5.3806 22.75 5.12618 22.75C5.04138 22.75 4.95657 22.75 4.78696 22.6702C4.78696 22.6702 4.70215 22.6702 4.70215 22.5904C4.70215 22.5904 4.70215 22.5904 4.78696 22.5106C4.87176 22.4307 5.04138 22.4307 5.12618 22.4307C5.21099 22.5106 5.2958 22.5904 5.3806 22.5904Z" fill="#1460D2"/>
<path d="M19.119 36.3212C19.119 36.4011 19.119 36.4011 19.119 36.3212C19.0342 36.4011 18.9494 36.4011 18.8646 36.4011C18.8646 36.4011 18.7798 36.4011 18.7798 36.3212C18.7798 36.3212 18.7798 36.2413 18.8646 36.2413C18.9494 36.3212 19.0342 36.3212 19.119 36.3212Z" fill="#1460D2"/>
<path d="M19.8803 21.4721H19.7955C19.7107 21.3928 19.7107 21.3928 19.7955 21.3928C19.8803 21.3928 19.8803 21.3928 19.9652 21.3928L20.05 21.4721C20.05 21.4721 19.9652 21.4721 19.8803 21.4721Z" fill="#1460D2"/>
<path d="M11.3149 22.5908C11.3149 22.671 11.2297 22.671 11.2297 22.671C11.1445 22.671 11.1445 22.671 11.1445 22.5908C11.1445 22.5105 11.2297 22.5105 11.2297 22.5105C11.2297 22.5105 11.2297 22.5908 11.3149 22.5908Z" fill="#1460D2"/>
</svg>
