<svg width="514" height="194" viewBox="0 0 514 194" fill="none" xmlns="http://www.w3.org/2000/svg">
<path d="M167.326 16.84V47.176C167.326 51.784 165.854 55.432 163.039 57.992C160.223 60.616 155.871 61.896 150.111 61.896C144.991 61.896 140.895 60.744 137.823 58.312C134.751 55.88 132.831 52.744 131.934 48.84L139.295 45.32C139.999 47.944 141.279 50.056 143.135 51.656C144.991 53.256 147.231 54.024 149.791 54.024C152.095 54.024 153.951 53.448 155.231 52.232C156.511 51.016 157.151 49.224 157.151 46.792V24.264H139.103V16.84H167.326ZM178.083 57.608C174.883 54.728 173.347 50.504 173.347 44.936C173.347 39.176 174.947 34.824 178.147 31.816C181.347 28.872 185.635 27.336 190.883 27.336C194.211 27.336 197.219 27.976 199.907 29.256C202.531 30.536 204.579 32.456 206.115 35.016C207.651 37.576 208.419 40.648 208.419 44.36C208.419 50.12 206.819 54.536 203.683 57.48C200.547 60.424 196.259 61.896 190.883 61.896C185.507 61.896 181.219 60.488 178.083 57.608ZM196.451 52.104C197.731 50.312 198.435 47.752 198.435 44.552C198.435 41.16 197.731 38.6 196.451 36.808C195.107 35.08 193.251 34.184 190.883 34.184C188.451 34.184 186.595 35.08 185.315 36.808C184.035 38.6 183.395 41.16 183.395 44.552C183.395 47.752 184.035 50.312 185.315 52.104C186.595 53.896 188.451 54.792 190.883 54.792C193.315 54.792 195.171 53.896 196.451 52.104ZM212.746 19.336C212.746 17.992 213.194 16.904 214.218 16.136C215.178 15.368 216.65 14.984 218.698 14.984C220.682 14.984 222.154 15.432 223.178 16.2C224.202 16.968 224.714 18.056 224.714 19.336C224.714 22.28 222.666 23.752 218.698 23.752C214.73 23.752 212.746 22.28 212.746 19.336ZM223.562 61H213.834V28.232H223.562V61ZM260.212 30.088C262.004 31.944 262.9 34.568 262.9 38.024V61H253.236V41.416C253.236 39.496 252.788 37.96 251.892 36.936C250.996 35.912 249.716 35.336 247.988 35.336C245.62 35.336 243.764 36.488 242.484 38.728C241.14 40.968 240.5 44.424 240.5 49.16V61H230.772V28.232H238.772L239.604 36.552H240.82C242.676 30.408 246.644 27.336 252.724 27.336C255.924 27.336 258.42 28.296 260.212 30.088ZM319.598 59.72C318.958 60.232 318.062 60.744 316.91 61.192C315.758 61.704 314.542 61.896 313.262 61.896C311.086 61.896 309.486 61.384 308.334 60.296C307.182 59.208 306.67 57.608 306.67 55.432C306.67 55.048 306.734 54.152 306.926 52.872H305.582C304.814 55.944 303.47 58.248 301.55 59.72C299.63 61.192 297.006 61.896 293.678 61.896C290.222 61.896 287.47 61.064 285.55 59.272C283.566 57.48 282.606 55.176 282.606 52.232C282.606 48.712 284.014 46.024 286.958 44.168C289.902 42.376 293.806 41.416 298.734 41.416C300.654 41.416 302.638 41.544 304.814 41.8V39.752C304.814 36.04 302.894 34.12 299.054 34.12C295.662 34.12 293.55 35.976 292.718 39.688L284.078 38.024C284.462 34.824 286.126 32.264 288.942 30.28C291.758 28.36 295.406 27.336 300.014 27.336C304.75 27.336 308.398 28.424 310.83 30.472C313.262 32.584 314.542 35.528 314.542 39.368V51.208C314.542 52.168 314.67 52.936 315.054 53.448C315.374 54.024 315.822 54.28 316.398 54.28C316.91 54.28 317.422 54.088 317.934 53.704L319.598 59.72ZM304.686 46.088C303.534 45.96 302.382 45.896 301.358 45.896C298.542 45.896 296.43 46.408 294.894 47.304C293.358 48.2 292.59 49.544 292.59 51.336C292.59 52.616 292.974 53.64 293.742 54.344C294.51 55.048 295.598 55.368 296.942 55.368C301.55 55.368 304.174 52.296 304.686 46.088ZM326.217 59.464C323.529 57.8 321.929 55.368 321.545 52.168L329.417 50.312C329.801 53.384 332.233 54.92 336.713 54.92C338.505 54.92 339.977 54.664 341.065 54.024C342.089 53.448 342.665 52.552 342.665 51.272C342.665 50.312 342.281 49.544 341.577 49.032C340.809 48.52 339.849 48.136 338.569 47.88C337.289 47.624 335.369 47.368 332.873 47.048C329.545 46.664 326.857 45.704 324.809 44.296C322.761 42.888 321.801 40.648 321.801 37.576C321.801 34.504 323.017 32.072 325.577 30.152C328.137 28.296 331.785 27.336 336.521 27.336C345.609 27.336 350.601 30.664 351.497 37.192L343.689 38.856C343.433 37.32 342.793 36.104 341.705 35.272C340.617 34.504 339.017 34.056 336.905 34.056C335.113 34.056 333.705 34.376 332.745 34.888C331.721 35.4 331.273 36.168 331.273 37.192C331.273 38.152 331.657 38.856 332.425 39.368C333.193 39.88 334.153 40.2 335.369 40.392C336.585 40.648 338.377 40.84 340.745 41.032C344.265 41.416 347.017 42.312 349.065 43.72C351.113 45.128 352.137 47.496 352.137 50.696C352.137 54.28 350.729 57.096 347.977 59.016C345.161 60.936 341.513 61.896 336.905 61.896C332.425 61.896 328.905 61.128 326.217 59.464ZM407.473 59.72C406.833 60.232 405.937 60.744 404.785 61.192C403.633 61.704 402.417 61.896 401.137 61.896C398.961 61.896 397.361 61.384 396.209 60.296C395.057 59.208 394.545 57.608 394.545 55.432C394.545 55.048 394.609 54.152 394.801 52.872H393.457C392.689 55.944 391.345 58.248 389.425 59.72C387.505 61.192 384.881 61.896 381.553 61.896C378.097 61.896 375.345 61.064 373.425 59.272C371.441 57.48 370.481 55.176 370.481 52.232C370.481 48.712 371.889 46.024 374.833 44.168C377.777 42.376 381.681 41.416 386.609 41.416C388.529 41.416 390.513 41.544 392.689 41.8V39.752C392.689 36.04 390.769 34.12 386.929 34.12C383.537 34.12 381.425 35.976 380.593 39.688L371.953 38.024C372.337 34.824 374.001 32.264 376.817 30.28C379.633 28.36 383.281 27.336 387.889 27.336C392.625 27.336 396.273 28.424 398.705 30.472C401.137 32.584 402.417 35.528 402.417 39.368V51.208C402.417 52.168 402.545 52.936 402.929 53.448C403.249 54.024 403.697 54.28 404.273 54.28C404.785 54.28 405.297 54.088 405.809 53.704L407.473 59.72ZM392.561 46.088C391.409 45.96 390.257 45.896 389.233 45.896C386.417 45.896 384.305 46.408 382.769 47.304C381.233 48.2 380.465 49.544 380.465 51.336C380.465 52.616 380.849 53.64 381.617 54.344C382.385 55.048 383.473 55.368 384.817 55.368C389.425 55.368 392.049 52.296 392.561 46.088Z" fill="black"/>
<rect x="0.96571" y="95.3343" width="211" height="93" rx="25" transform="rotate(-2 0.96571 95.3343)" fill="#009E77" stroke="white" stroke-width="2"/>
<path d="M62.5046 115.072L62.7637 122.492L48.1806 123.001L49.4627 159.715L39.3569 160.068L38.0748 123.354L23.4917 123.863L23.2326 116.444L62.5046 115.072ZM89.2328 129.252C92.0264 132.229 93.5125 136.275 93.6912 141.392C93.7113 141.968 93.6808 142.929 93.6638 144.275L71.2774 145.057C71.6226 147.606 72.3954 149.564 73.6553 150.801C74.9153 152.038 76.6006 152.619 78.6474 152.548C80.4383 152.485 81.9577 151.984 83.0755 150.984C84.1955 150.049 85.0463 148.738 85.5683 147.183L93.5553 148.505C92.9635 151.728 91.3898 154.344 88.8344 156.355C86.279 158.365 82.7947 159.447 78.3174 159.604C73.0086 159.789 68.866 158.525 65.8872 155.747C62.8467 153.036 61.2944 148.927 61.1046 143.491C60.9125 137.99 62.2339 133.653 65.1284 130.35C68.0252 127.111 72.1268 125.367 77.3671 125.056C82.484 124.877 86.4392 126.276 89.2328 129.252ZM73.1386 134.169C71.9725 135.619 71.2764 137.692 71.1144 140.387L84.6101 139.916C84.4591 137.424 83.8142 135.461 82.7372 133.962C81.6625 132.526 80.0366 131.815 77.9259 131.888C75.8792 131.96 74.3047 132.719 73.1386 134.169ZM134.693 155.458C134.071 155.992 133.194 156.535 132.058 157.023C130.925 157.574 129.716 157.809 128.437 157.853C126.262 157.929 124.645 157.474 123.456 156.426C122.267 155.379 121.699 153.798 121.623 151.623C121.61 151.24 121.643 150.342 121.79 149.056L120.447 149.103C119.786 152.2 118.523 154.549 116.656 156.088C114.789 157.626 112.191 158.421 108.865 158.537C105.411 158.658 102.632 157.922 100.65 156.198C98.6048 154.477 97.565 152.207 97.4623 149.265C97.3394 145.747 98.6527 143.012 101.53 141.054C104.41 139.161 108.278 138.065 113.203 137.893C115.122 137.826 117.109 137.885 119.293 138.065L119.221 136.018C119.092 132.308 117.106 130.456 113.268 130.59C109.878 130.709 107.832 132.637 107.13 136.376L98.4375 135.015C98.7096 131.803 100.283 129.187 103.028 127.105C105.776 125.088 109.386 123.938 113.991 123.777C118.724 123.612 122.408 124.572 124.91 126.533C127.414 128.559 128.796 131.457 128.93 135.295L129.343 147.127C129.377 148.087 129.531 148.85 129.933 149.348C130.273 149.913 130.729 150.153 131.305 150.133C131.817 150.115 132.322 149.905 132.82 149.503L134.693 155.458ZM119.314 142.354C118.159 142.267 117.005 142.243 115.982 142.279C113.167 142.377 111.075 142.962 109.571 143.911C108.067 144.86 107.346 146.23 107.409 148.021C107.454 149.301 107.873 150.311 108.665 150.987C109.457 151.664 110.556 151.946 111.899 151.899C116.504 151.738 119.019 148.576 119.314 142.354ZM187.925 123.949C189.781 125.741 190.832 128.33 190.952 131.784L191.754 154.746L182.096 155.083L181.399 135.127C181.336 133.336 180.842 132.009 180.039 131.012C179.171 130.018 177.938 129.549 176.275 129.607C173.973 129.687 172.288 130.963 171.094 133.438C169.899 135.913 169.38 139.389 169.541 143.995L169.943 155.507L160.221 155.847L159.524 135.891C159.462 134.1 158.967 132.773 158.1 131.778C157.233 130.784 155.936 130.317 154.273 130.375C152.034 130.453 150.347 131.665 149.146 133.948C147.945 136.231 147.49 139.705 147.655 144.439L148.069 156.271L138.347 156.611L137.203 123.863L145.198 123.584L146.256 131.872L147.535 131.827C149.112 125.624 152.586 122.429 158.087 122.237C161.093 122.132 163.489 122.881 165.269 124.356C166.988 125.897 168.028 128.166 168.259 131.103L169.602 131.057C170.986 124.86 174.525 121.663 180.153 121.466C183.479 121.35 186.071 122.22 187.925 123.949Z" fill="white"/>
<path d="M236.396 152.608C233.196 149.728 231.66 145.504 231.66 139.936C231.66 134.176 233.26 129.824 236.46 126.816C239.66 123.872 243.948 122.336 249.196 122.336C252.524 122.336 255.532 122.976 258.22 124.256C260.844 125.536 262.892 127.456 264.428 130.016C265.964 132.576 266.732 135.648 266.732 139.36C266.732 145.12 265.132 149.536 261.996 152.48C258.86 155.424 254.572 156.896 249.196 156.896C243.82 156.896 239.532 155.488 236.396 152.608ZM254.764 147.104C256.044 145.312 256.748 142.752 256.748 139.552C256.748 136.16 256.044 133.6 254.764 131.808C253.42 130.08 251.564 129.184 249.196 129.184C246.764 129.184 244.908 130.08 243.628 131.808C242.348 133.6 241.708 136.16 241.708 139.552C241.708 142.752 242.348 145.312 243.628 147.104C244.908 148.896 246.764 149.792 249.196 149.792C251.628 149.792 253.484 148.896 254.764 147.104ZM298.067 124.128L296.019 133.984C295.571 133.472 294.867 133.024 293.907 132.512C292.947 132 291.859 131.744 290.643 131.744C288.979 131.744 287.443 132.32 286.163 133.344C284.819 134.368 283.795 135.904 283.027 137.888C282.259 139.936 281.875 142.304 281.875 145.12V156H272.147V123.232H280.147L281.043 133.408H282.259C282.771 130.208 283.859 127.584 285.587 125.536C287.251 123.488 289.619 122.464 292.563 122.464C294.675 122.464 296.531 123.04 298.067 124.128Z" fill="black"/>
<rect x="315.211" y="93.9657" width="197.97" height="93" rx="25" transform="rotate(2 315.211 93.9657)" fill="#2A6ACB" stroke="white" stroke-width="2"/>
<path d="M351.478 161.294C347.986 158.61 346.002 154.891 345.528 150.135L354.504 148.015C354.787 150.907 355.922 153.252 357.782 154.982C359.643 156.712 362.173 157.633 365.243 157.74C367.929 157.834 370.119 157.462 371.69 156.492C373.261 155.523 374.078 154.142 374.14 152.351C374.185 151.072 373.775 149.969 372.97 149.173C372.166 148.376 370.971 147.758 369.449 147.32C367.863 146.881 365.64 146.355 362.839 145.873C357.681 145.052 353.698 143.569 350.825 141.483C347.952 139.397 346.648 136.406 346.784 132.504C346.882 129.69 347.733 127.35 349.339 125.357C350.943 123.428 353.108 121.967 355.832 120.973C358.554 120.044 361.708 119.577 365.226 119.7C371.047 119.904 375.484 121.211 378.601 123.625C381.655 126.038 383.261 129.552 383.487 134.106L374.858 135.47C374.44 132.766 373.422 130.745 371.931 129.412C370.441 128.079 367.971 127.289 364.645 127.173C362.215 127.088 360.28 127.468 358.78 128.249C357.278 129.093 356.532 130.283 356.478 131.818C356.431 133.162 356.843 134.201 357.84 135.004C358.772 135.805 360.095 136.427 361.745 136.869C363.395 137.311 365.873 137.846 369.056 138.405C373.764 139.274 377.493 140.685 380.115 142.634C382.737 144.583 384.039 147.638 383.894 151.795C383.786 154.865 382.865 157.395 381.19 159.514C379.516 161.633 377.283 163.22 374.428 164.273C371.574 165.326 368.422 165.728 364.904 165.605C359.467 165.415 354.971 163.977 351.478 161.294ZM391.793 162.253C388.696 159.263 387.308 154.988 387.502 149.424C387.703 143.667 389.454 139.374 392.757 136.479C396.058 133.649 400.397 132.263 405.642 132.447C408.968 132.563 411.952 133.307 414.594 134.68C417.171 136.051 419.151 138.041 420.597 140.653C422.042 143.266 422.703 146.362 422.573 150.072C422.372 155.829 420.619 160.186 417.382 163.019C414.145 165.852 409.809 167.173 404.436 166.985C399.063 166.798 394.827 165.241 391.793 162.253ZM410.342 157.394C411.684 155.648 412.477 153.114 412.589 149.916C412.707 146.526 412.093 143.943 410.876 142.107C409.593 140.333 407.77 139.373 405.403 139.29C402.973 139.205 401.086 140.036 399.747 141.718C398.405 143.465 397.676 146.001 397.558 149.391C397.446 152.589 397.996 155.17 399.213 157.005C400.43 158.841 402.253 159.801 404.684 159.886C407.114 159.971 409 159.14 410.342 157.394ZM444.334 166.265C443.804 166.759 442.701 167.169 441.151 167.563C439.598 168.021 437.928 168.155 436.137 168.093C433.131 167.988 430.917 167.206 429.559 165.75C428.137 164.291 427.511 162.028 427.623 158.83L428.916 121.796L438.638 122.136L437.406 157.442C437.33 159.617 438.251 160.738 440.17 160.805C440.682 160.823 441.259 160.779 441.842 160.607C442.36 160.433 442.815 160.257 443.143 160.012L444.334 166.265ZM451.007 164.321C447.91 161.331 446.522 157.056 446.716 151.492C446.917 145.735 448.668 141.442 451.971 138.547C455.272 135.717 459.611 134.331 464.856 134.514C468.182 134.63 471.166 135.375 473.807 136.748C476.385 138.119 478.365 140.109 479.811 142.721C481.256 145.333 481.917 148.43 481.787 152.14C481.586 157.896 479.833 162.254 476.596 165.087C473.359 167.919 469.023 169.241 463.65 169.053C458.277 168.866 454.041 167.309 451.007 164.321ZM469.556 159.462C470.898 157.715 471.691 155.181 471.802 151.983C471.921 148.593 471.307 146.01 470.09 144.175C468.807 142.401 466.983 141.441 464.617 141.358C462.186 141.273 460.3 142.104 458.961 143.786C457.619 145.532 456.89 148.069 456.772 151.459C456.66 154.657 457.21 157.237 458.427 159.073C459.644 160.909 461.467 161.869 463.898 161.954C466.328 162.038 468.214 161.208 469.556 159.462Z" fill="white"/>
</svg>
